<svg width="500" height="500" viewBox="0 0 500 500" fill="none" xmlns="http://www.w3.org/2000/svg">
<g clip-path="url(#clip0_248_586)">
<path d="M109.877 21.7234C210.933 -32.194 346.375 23.8296 416.946 85.9309C437.11 103.683 485.957 147.912 497.539 218.859C511.882 306.956 464.954 413.768 357.297 459.442C240.158 509.147 109.157 462.029 47.8273 385.546C-9.48186 313.997 1.97997 229.751 6.06063 199.663C10.8614 164.34 25.2037 66.9154 109.877 21.7234Z" fill="#78B7E5"/>
<path d="M332.573 65.5915C332.573 29.787 361.498 0.782288 397.204 0.782288C432.909 0.782288 461.834 29.787 461.834 65.5915C461.834 101.396 432.909 130.401 397.204 130.401C361.498 130.341 332.573 101.336 332.573 65.5915Z" fill="#E5A678"/>
<path d="M345.235 65.5915C345.235 36.8275 368.459 13.5395 397.144 13.5395C425.828 13.5395 449.052 36.8275 449.052 65.5915C449.052 94.3555 425.828 117.644 397.144 117.644C368.519 117.583 345.235 94.2953 345.235 65.5915Z" fill="white"/>
<path d="M357.237 65.5915C357.237 43.507 375.12 25.5747 397.144 25.5747C419.167 25.5747 437.05 43.507 437.05 65.5915C437.05 87.676 419.167 105.608 397.144 105.608C375.12 105.608 357.237 87.676 357.237 65.5915Z" fill="#E5A678"/>
<path d="M371.399 65.5915C371.399 51.3299 382.921 39.716 397.204 39.716C411.426 39.716 423.008 51.2697 423.008 65.5915C423.008 79.9133 411.486 91.4671 397.204 91.4671C382.921 91.4069 371.399 79.8532 371.399 65.5915Z" fill="white"/>
<path d="M383.102 65.5915C383.102 57.7687 389.403 51.4502 397.204 51.4502C405.005 51.4502 411.306 57.7687 411.306 65.5915C411.306 73.4144 405.005 79.7328 397.204 79.7328C389.403 79.6726 383.102 73.3542 383.102 65.5915Z" fill="#E5A678"/>
<path d="M338.214 39.8965C338.094 39.8965 337.974 39.8965 337.854 39.8363C337.374 39.6558 337.194 39.1142 337.374 38.6328C344.035 23.7694 355.917 11.975 370.8 5.41582C371.28 5.23529 371.76 5.41582 372 5.89723C372.18 6.37863 372 6.86004 371.52 7.10074C357.057 13.4192 345.535 24.9128 339.054 39.4151C338.874 39.716 338.574 39.8965 338.214 39.8965Z" fill="#005D95"/>
<path d="M359.037 78.3488C358.677 78.3488 358.317 78.1081 358.197 77.6869C356.997 73.7754 356.337 69.6835 356.337 65.5314C356.337 65.05 356.757 64.6287 357.237 64.6287C357.717 64.6287 358.137 65.05 358.137 65.5314C358.137 69.503 358.737 73.4144 359.877 77.1453C359.998 77.6267 359.757 78.1081 359.277 78.2886C359.217 78.3488 359.097 78.3488 359.037 78.3488Z" fill="#005D95"/>
<path d="M436.27 58.4306C435.85 58.4306 435.49 58.1297 435.37 57.7085C433.57 48.983 428.829 41.1 421.988 35.3833C421.628 35.0824 421.568 34.4807 421.868 34.1196C422.168 33.7586 422.768 33.6984 423.128 33.9993C430.329 39.9567 435.31 48.2609 437.17 57.3475C437.29 57.8289 436.93 58.3103 436.45 58.4306C436.39 58.3704 436.33 58.4306 436.27 58.4306Z" fill="#005D95"/>
<path d="M357.237 66.4942C356.757 66.4942 356.337 66.0729 356.337 65.5915C356.337 43.0256 374.64 24.672 397.143 24.672C401.404 24.672 405.605 25.334 409.565 26.5977C410.046 26.7782 410.286 27.2596 410.166 27.741C409.986 28.2224 409.505 28.4631 409.025 28.3428C405.185 27.1392 401.164 26.4773 397.143 26.4773C375.6 26.4773 358.137 44.0486 358.137 65.5915C358.137 66.0729 357.717 66.4942 357.237 66.4942Z" fill="#005D95"/>
<path d="M499.52 86.9539C471.856 92.8511 463.934 67.9986 426.608 86.9539V39.5355C454.393 30.9303 471.196 43.8079 499.52 39.5355L489.078 63.004L499.52 86.9539Z" fill="#005D95"/>
<path d="M425.708 157.239H424.448C423.428 157.239 422.647 156.457 422.647 155.434V36.8275C422.647 35.8046 423.428 35.0223 424.448 35.0223H425.708C426.728 35.0223 427.508 35.8046 427.508 36.8275V155.434C427.508 156.457 426.728 157.239 425.708 157.239Z" fill="#071824"/>
<path d="M400.565 490.492H372.78V147.852L400.325 145.926L400.565 490.492Z" fill="white"/>
<path d="M400.564 491.395H372.78C372.3 491.395 371.88 490.974 371.88 490.492V147.852C371.88 147.37 372.24 147.009 372.72 146.949L400.264 145.023C400.504 145.023 400.745 145.084 400.925 145.264C401.105 145.445 401.225 145.685 401.225 145.926L401.525 490.492C401.525 490.733 401.405 490.974 401.285 491.154C401.045 491.275 400.805 491.395 400.564 491.395ZM373.68 489.59H399.664L399.364 146.889L373.62 148.694V489.59H373.68Z" fill="#071824"/>
<path d="M475.097 490.492H400.565C400.385 490.492 400.265 490.312 400.265 490.131V146.287C400.265 146.046 400.385 145.866 400.565 145.926L475.097 149.898C475.217 149.898 475.337 150.078 475.337 150.259V490.071C475.397 490.312 475.277 490.492 475.097 490.492Z" fill="#A3CEED"/>
<path d="M475.096 491.395H400.564C399.904 491.395 399.364 490.853 399.364 490.131V146.347C399.364 145.986 399.484 145.625 399.784 145.385C400.024 145.144 400.324 145.084 400.624 145.084L475.156 149.055C475.756 149.115 476.297 149.657 476.297 150.319V490.131C476.297 490.793 475.756 491.395 475.096 491.395ZM401.225 489.59H474.496V150.74L401.225 146.889V489.59Z" fill="#071824"/>
<path d="M450.673 311.77C450.193 311.77 449.772 311.349 449.772 310.868V171.742C449.772 171.26 450.193 170.839 450.673 170.839C451.153 170.839 451.573 171.26 451.573 171.742V310.868C451.573 311.349 451.153 311.77 450.673 311.77Z" fill="#CDE5F5"/>
<path d="M427.089 262.186C426.609 262.186 426.188 261.764 426.188 261.283V220.243C426.188 219.762 426.609 219.34 427.089 219.34C427.569 219.34 427.989 219.762 427.989 220.243V261.283C427.989 261.764 427.569 262.186 427.089 262.186Z" fill="#CDE5F5"/>
<path d="M427.089 402.937C426.609 402.937 426.188 402.515 426.188 402.034V331.207C426.188 330.726 426.609 330.305 427.089 330.305C427.569 330.305 427.989 330.726 427.989 331.207V402.034C427.989 402.515 427.569 402.937 427.089 402.937Z" fill="#CDE5F5"/>
<path d="M306.829 490.492H279.165V234.745L306.709 226.02L306.829 490.492Z" fill="white"/>
<path d="M306.829 491.395H279.165C278.685 491.395 278.265 490.974 278.265 490.492V234.745C278.265 234.324 278.505 234.023 278.865 233.903L306.409 225.178C306.709 225.117 307.009 225.117 307.189 225.298C307.429 225.478 307.549 225.719 307.549 226.02L307.729 490.492C307.729 490.733 307.609 490.974 307.489 491.154C307.309 491.335 307.069 491.395 306.829 491.395ZM280.065 489.59H305.929L305.809 227.224L280.065 235.347V489.59Z" fill="#071824"/>
<path d="M381.541 490.492H307.009C306.829 490.492 306.709 490.372 306.709 490.191V226.321C306.709 226.14 306.829 226.02 307.009 226.02L381.541 229.029C381.661 229.029 381.781 229.149 381.781 229.33V490.191C381.781 490.372 381.661 490.492 381.541 490.492Z" fill="#A3CEED"/>
<path d="M381.541 491.395H307.009C306.349 491.395 305.809 490.853 305.809 490.191V226.321C305.809 226.02 305.929 225.659 306.169 225.418C306.409 225.178 306.709 225.057 307.009 225.117L381.541 228.126C382.201 228.126 382.681 228.668 382.681 229.33V490.191C382.681 490.853 382.141 491.395 381.541 491.395ZM307.609 489.59H380.881V229.931L307.609 226.983V489.59Z" fill="#071824"/>
<path d="M344.276 364.544C343.796 364.544 343.376 364.123 343.376 363.642V246.48C343.376 245.998 343.796 245.577 344.276 245.577C344.756 245.577 345.176 245.998 345.176 246.48V363.642C345.176 364.123 344.756 364.544 344.276 364.544Z" fill="#CDE5F5"/>
<path d="M324.593 285.594C324.112 285.594 323.692 285.173 323.692 284.691V264.713C323.692 264.232 324.112 263.81 324.593 263.81C325.073 263.81 325.493 264.232 325.493 264.713V284.691C325.493 285.173 325.073 285.594 324.593 285.594Z" fill="#CDE5F5"/>
<path d="M324.593 418.101C324.112 418.101 323.692 417.68 323.692 417.198V317.728C323.692 317.246 324.112 316.825 324.593 316.825C325.073 316.825 325.493 317.246 325.493 317.728V417.198C325.493 417.68 325.073 418.101 324.593 418.101Z" fill="#CDE5F5"/>
<path d="M363.959 324.949C363.479 324.949 363.059 324.528 363.059 324.046V304.068C363.059 303.586 363.479 303.165 363.959 303.165C364.439 303.165 364.859 303.586 364.859 304.068V324.046C364.859 324.528 364.439 324.949 363.959 324.949Z" fill="#CDE5F5"/>
<path d="M213.815 490.492H186.271V343.483L213.815 337.465V490.492Z" fill="white"/>
<path d="M213.815 491.395H186.27C185.79 491.395 185.37 490.974 185.37 490.492V343.483C185.37 343.062 185.67 342.701 186.09 342.58L213.635 336.503C213.875 336.442 214.175 336.503 214.415 336.683C214.655 336.864 214.775 337.104 214.775 337.405V490.492C214.715 491.034 214.295 491.395 213.815 491.395ZM187.17 489.59H212.915V338.548L187.17 344.205V489.59Z" fill="#071824"/>
<path d="M288.886 490.492H213.814V337.766C213.814 337.586 213.934 337.465 214.115 337.465L288.886 339.993V490.492Z" fill="#A3CEED"/>
<path d="M289.786 491.395H212.914V337.766C212.914 337.465 213.034 337.104 213.274 336.924C213.514 336.683 213.814 336.563 214.174 336.563L289.786 339.09V491.395ZM214.714 489.59H287.986V340.835L214.714 338.368V489.59Z" fill="#071824"/>
<path d="M233.738 447.828C233.258 447.828 232.838 447.406 232.838 446.925V355.759C232.838 355.277 233.258 354.856 233.738 354.856C234.218 354.856 234.638 355.277 234.638 355.759V446.925C234.638 447.406 234.218 447.828 233.738 447.828Z" fill="#CDE5F5"/>
<path d="M273.104 458.479C272.624 458.479 272.204 458.057 272.204 457.576V366.41C272.204 365.928 272.624 365.507 273.104 365.507C273.584 365.507 274.004 365.928 274.004 366.41V457.576C274.004 458.118 273.584 458.479 273.104 458.479Z" fill="#CDE5F5"/>
<path d="M253.422 422.794C252.942 422.794 252.521 422.373 252.521 421.892V403.237C252.521 402.756 252.942 402.335 253.422 402.335C253.902 402.335 254.322 402.756 254.322 403.237V421.892C254.322 422.373 253.902 422.794 253.422 422.794Z" fill="#CDE5F5"/>
<path d="M121.28 490.492H93.4951V417.619L120.98 412.143L121.28 490.492Z" fill="white"/>
<path d="M121.279 491.395H93.4949C93.0148 491.395 92.5947 490.974 92.5947 490.492V417.619C92.5947 417.198 92.8948 416.837 93.3148 416.717L120.859 411.301C121.099 411.241 121.399 411.301 121.579 411.482C121.759 411.662 121.879 411.903 121.879 412.204L122.119 490.552C122.119 490.793 121.999 491.034 121.879 491.214C121.699 491.335 121.519 491.395 121.279 491.395ZM94.395 489.59H120.379L120.139 413.227L94.395 418.342V489.59Z" fill="#071824"/>
<path d="M195.811 490.492H121.279C121.159 490.492 121.039 490.372 121.039 490.252V412.444C121.039 412.324 121.159 412.204 121.279 412.204L195.811 413.407C195.931 413.407 196.051 413.528 196.051 413.648V490.252C196.051 490.372 195.931 490.492 195.811 490.492Z" fill="#A3CEED"/>
<path d="M195.811 491.395H121.279C120.619 491.395 120.139 490.853 120.139 490.252V412.444C120.139 412.143 120.259 411.843 120.499 411.602C120.739 411.361 121.039 411.241 121.339 411.241L195.871 412.444C196.531 412.444 197.011 412.986 197.011 413.588V490.191C196.951 490.913 196.471 491.395 195.811 491.395ZM121.879 489.59H195.151V414.25L121.879 413.046V489.59Z" fill="#071824"/>
<path d="M173.368 472.921C172.888 472.921 172.468 472.5 172.468 472.018V425.623C172.468 425.141 172.888 424.72 173.368 424.72C173.848 424.72 174.268 425.141 174.268 425.623V472.018C174.268 472.5 173.908 472.921 173.368 472.921Z" fill="#CDE5F5"/>
<path d="M149.784 456.373C149.304 456.373 148.884 455.951 148.884 455.47V441.81C148.884 441.329 149.304 440.907 149.784 440.907C150.264 440.907 150.684 441.329 150.684 441.81V455.47C150.684 455.951 150.324 456.373 149.784 456.373Z" fill="#CDE5F5"/>
<path d="M28.6848 490.492H0.900391V452.341L28.4448 447.647L28.6848 490.492Z" fill="white"/>
<path d="M28.6846 491.395H0.900144C0.420067 491.395 0 490.974 0 490.492V452.281C0 451.859 0.300048 451.438 0.780125 451.378L28.3245 446.744C28.5646 446.684 28.8646 446.744 29.0446 446.925C29.2247 447.106 29.3447 447.346 29.3447 447.587L29.5847 490.432C29.5847 490.673 29.4647 490.913 29.3447 491.094C29.1647 491.335 28.9246 491.395 28.6846 491.395ZM1.80029 489.59H27.7844L27.5444 448.73L1.80029 453.123V489.59Z" fill="#071824"/>
<path d="M103.216 490.492H28.6844C28.5644 490.492 28.4443 490.432 28.4443 490.372V447.828C28.4443 447.767 28.5644 447.707 28.6844 447.707L103.216 448.369C103.336 448.369 103.456 448.429 103.456 448.49V490.372C103.516 490.432 103.396 490.492 103.216 490.492Z" fill="#A3CEED"/>
<path d="M103.216 491.395H28.6841C28.024 491.395 27.5439 490.913 27.5439 490.372V447.828C27.5439 447.587 27.664 447.286 27.844 447.106C28.084 446.865 28.3841 446.745 28.7441 446.745L103.336 447.406C103.996 447.406 104.476 447.888 104.476 448.429V490.312C104.416 490.974 103.876 491.395 103.216 491.395ZM29.3442 489.59H102.616V449.212L29.3442 448.55V489.59Z" fill="#071824"/>
<path d="M80.8328 481.285C80.3527 481.285 79.9326 480.864 79.9326 480.383V454.989C79.9326 454.507 80.3527 454.086 80.8328 454.086C81.3128 454.086 81.7329 454.507 81.7329 454.989V480.383C81.7329 480.864 81.3128 481.285 80.8328 481.285Z" fill="#CDE5F5"/>
<path d="M57.2488 472.259C56.7687 472.259 56.3486 471.838 56.3486 471.356V463.895C56.3486 463.413 56.7687 462.992 57.2488 462.992C57.7289 462.992 58.1489 463.413 58.1489 463.895V471.356C58.1489 471.838 57.7289 472.259 57.2488 472.259Z" fill="#CDE5F5"/>
<path d="M110.538 372.789L107.777 396.979L118.039 401.252L121.82 374.895L110.538 372.789Z" fill="white"/>
<path d="M118.039 402.154C117.919 402.154 117.799 402.154 117.679 402.094L107.417 397.822C107.057 397.641 106.817 397.28 106.877 396.859L109.578 372.668C109.578 372.427 109.758 372.187 109.938 372.066C110.118 371.946 110.418 371.886 110.658 371.886L122 373.992C122.48 374.052 122.78 374.534 122.72 375.015L118.939 401.372C118.879 401.673 118.759 401.914 118.519 402.034C118.399 402.154 118.219 402.154 118.039 402.154ZM108.798 396.377L117.379 399.928L120.86 375.557L111.318 373.811L108.798 396.377Z" fill="#071824"/>
<path d="M105.437 394.692C105.137 396.979 104.597 401.252 104.537 405.043C104.537 407.45 106.277 409.435 108.678 409.736C115.399 410.579 130.581 411.542 143.543 410.338C144.444 410.278 146.004 409.616 146.424 407.39C147.864 399.928 134.962 398.122 120.8 392.707C120.26 392.466 119.6 392.646 119.179 393.007L117.679 394.512C116.179 396.016 113.899 396.438 111.918 395.595L107.298 393.609C106.397 393.308 105.557 393.85 105.437 394.692Z" fill="#A3CEED"/>
<path d="M130.041 411.843C121.34 411.843 113.178 411.241 108.558 410.639C105.737 410.278 103.577 407.871 103.637 404.982C103.697 401.071 104.237 396.738 104.537 394.512C104.657 393.85 105.017 393.248 105.617 392.887C106.217 392.526 106.937 392.526 107.538 392.767L112.158 394.753C113.779 395.475 115.639 395.114 116.959 393.85L118.459 392.346C119.119 391.684 120.14 391.503 121.04 391.804C124.34 393.068 127.521 394.091 130.581 395.114C140.603 398.423 148.524 401.011 147.204 407.51C146.724 410.037 144.924 411.06 143.483 411.181C139.163 411.722 134.542 411.843 130.041 411.843ZM106.277 394.813C105.977 397.039 105.437 401.252 105.377 405.043C105.377 406.968 106.817 408.593 108.738 408.834C115.639 409.736 130.581 410.639 143.363 409.436C143.663 409.436 145.044 409.195 145.464 407.209C146.364 402.515 140.483 400.349 130.041 396.859C126.981 395.836 123.74 394.813 120.44 393.489C120.2 393.429 119.96 393.429 119.78 393.609L118.279 395.114C116.479 396.859 113.839 397.34 111.558 396.377L106.937 394.392C106.757 394.331 106.637 394.392 106.577 394.392C106.457 394.572 106.337 394.632 106.277 394.813Z" fill="#071824"/>
<path d="M104.537 404.501C104.537 404.501 104.537 404.862 104.537 405.103C104.537 407.51 106.277 409.496 108.678 409.797C115.399 410.639 130.581 411.602 143.543 410.398C144.444 410.338 146.004 409.676 146.424 407.45C146.544 406.788 146.484 405.524 146.484 405.524L145.584 405.584C132.502 406.246 119.419 405.945 106.337 404.621L104.537 404.501Z" fill="white"/>
<path d="M130.041 411.843C121.34 411.843 113.178 411.241 108.558 410.639C105.737 410.278 103.577 407.871 103.637 404.982V404.381C103.637 404.14 103.757 403.899 103.937 403.719C104.117 403.538 104.357 403.478 104.597 403.478L106.337 403.659C119.299 404.922 132.442 405.223 145.464 404.621L146.364 404.561C146.844 404.501 147.264 404.922 147.324 405.404C147.324 405.524 147.384 406.788 147.264 407.57C146.784 410.097 144.984 411.12 143.543 411.241C139.163 411.722 134.542 411.843 130.041 411.843ZM105.437 405.464C105.617 407.209 106.998 408.653 108.798 408.894C115.699 409.797 130.641 410.699 143.423 409.496C143.723 409.496 145.104 409.255 145.524 407.269C145.584 407.089 145.584 406.788 145.584 406.487C132.502 407.149 119.239 406.788 106.217 405.524L105.437 405.464Z" fill="#071824"/>
<path d="M124.04 401.733C123.8 401.733 123.56 401.673 123.38 401.492C123.02 401.131 123.02 400.59 123.38 400.229L128.361 395.234C128.721 394.873 129.261 394.873 129.621 395.234C129.981 395.595 129.981 396.137 129.621 396.498L124.641 401.492C124.461 401.613 124.221 401.733 124.04 401.733Z" fill="#071824"/>
<path d="M128.901 402.275C128.661 402.275 128.481 402.214 128.301 402.034C127.941 401.673 127.941 401.131 128.301 400.77L132.262 396.618C132.622 396.257 133.162 396.257 133.522 396.618C133.882 396.979 133.882 397.521 133.522 397.882L129.561 402.034C129.381 402.154 129.141 402.275 128.901 402.275Z" fill="#071824"/>
<path d="M147.804 213.323C147.804 213.323 141.563 216.933 139.102 238.296C136.642 259.598 137.482 284.751 120.499 309.664C106.937 329.582 108.137 363.16 106.157 385.185C106.037 386.268 106.877 387.171 107.957 387.231L120.979 387.652C121.819 387.652 122.54 387.171 122.78 386.388C125.12 379.167 136.642 344.386 149.664 324.167C163.406 302.864 180.089 247.443 180.089 247.443C180.089 247.443 176.968 233.422 176.548 220.063C176.068 206.643 147.804 213.323 147.804 213.323Z" fill="#071824"/>
<path d="M224.375 300.999L218.854 324.708L228.576 330.184L235.357 304.429L224.375 300.999Z" fill="white"/>
<path d="M228.576 331.087C228.396 331.087 228.276 331.027 228.156 330.966L218.435 325.551C218.075 325.37 217.895 324.949 218.015 324.588L223.475 300.879C223.535 300.638 223.715 300.397 223.896 300.277C224.136 300.156 224.376 300.096 224.616 300.217L235.597 303.586C236.077 303.707 236.318 304.188 236.197 304.67L229.416 330.425C229.356 330.666 229.176 330.906 228.876 331.027C228.816 331.027 228.696 331.087 228.576 331.087ZM219.875 324.287L227.976 328.8L234.217 304.971L224.976 302.142L219.875 324.287Z" fill="#071824"/>
<path d="M217.715 323.324C217.415 325.611 215.314 329.943 215.314 333.795C215.314 336.202 217.055 338.188 219.455 338.488C226.176 339.331 242.859 340.173 255.821 339.03C256.721 338.97 258.281 338.308 258.701 336.081C260.142 328.62 247.24 326.814 233.077 321.398C232.537 321.158 231.877 321.338 231.457 321.699L229.957 323.204C228.457 324.708 226.176 325.129 224.196 324.287L219.575 322.301C218.735 321.94 217.835 322.482 217.715 323.324Z" fill="#A3CEED"/>
<path d="M241.299 340.534C232.537 340.534 224.016 340.053 219.335 339.391C216.515 339.03 214.354 336.623 214.414 333.734C214.414 331.207 215.314 328.439 215.975 326.273C216.395 325.009 216.695 323.926 216.815 323.144C216.935 322.482 217.295 321.88 217.895 321.519C218.495 321.158 219.215 321.158 219.815 321.398L224.436 323.384C226.056 324.106 227.916 323.745 229.237 322.482L230.737 320.977C231.397 320.315 232.417 320.135 233.317 320.436C236.618 321.699 239.798 322.722 242.859 323.745C252.88 327.055 260.802 329.643 259.482 336.142C259.001 338.669 257.201 339.692 255.761 339.812C251.38 340.354 246.279 340.534 241.299 340.534ZM218.615 323.444C218.495 324.347 218.135 325.49 217.715 326.874C217.055 328.981 216.215 331.568 216.215 333.795C216.215 335.72 217.655 337.345 219.575 337.586C225.636 338.368 242.499 339.331 255.761 338.127C256.061 338.127 257.441 337.887 257.861 335.901C258.761 331.207 252.88 329.041 242.439 325.551C239.378 324.528 236.138 323.505 232.837 322.181C232.597 322.121 232.357 322.121 232.177 322.301L230.677 323.805C228.877 325.551 226.236 326.032 223.956 325.069L219.335 323.083C219.155 323.023 219.035 323.083 218.975 323.083C218.735 323.204 218.615 323.264 218.615 323.444Z" fill="#071824"/>
<path d="M215.675 333.073C215.675 333.073 215.675 333.434 215.675 333.674C215.675 336.081 217.415 338.067 219.815 338.368C226.537 339.21 242.919 340.233 255.821 339.09C256.721 339.03 258.282 338.368 258.702 336.142C258.822 335.48 258.762 334.216 258.762 334.216L257.862 334.276C244.779 334.938 231.697 334.637 218.615 333.313L215.675 333.073Z" fill="white"/>
<path d="M242.559 340.474C232.838 340.474 223.776 339.752 219.695 339.21C216.875 338.849 214.715 336.442 214.775 333.554V332.952C214.775 332.711 214.895 332.471 215.075 332.29C215.255 332.11 215.495 332.05 215.735 332.05L218.675 332.29C231.637 333.554 244.779 333.855 257.802 333.253L258.702 333.193C259.182 333.133 259.602 333.554 259.662 334.035C259.662 334.156 259.722 335.419 259.602 336.202C259.122 338.729 257.321 339.752 255.881 339.872C251.561 340.354 247 340.474 242.559 340.474ZM216.575 334.035C216.755 335.78 218.135 337.225 219.935 337.465C225.816 338.248 242.259 339.391 255.761 338.127C256.061 338.127 257.441 337.887 257.862 335.901C257.922 335.72 257.922 335.419 257.922 335.119C244.839 335.78 231.577 335.419 218.555 334.156L216.575 334.035Z" fill="#071824"/>
<path d="M236.318 330.365C236.078 330.365 235.838 330.304 235.658 330.124C235.298 329.763 235.298 329.221 235.658 328.86L240.639 323.866C240.999 323.505 241.539 323.505 241.899 323.866C242.259 324.227 242.259 324.768 241.899 325.129L236.918 330.124C236.738 330.244 236.558 330.365 236.318 330.365Z" fill="#071824"/>
<path d="M241.179 330.846C240.939 330.846 240.759 330.786 240.579 330.605C240.219 330.244 240.219 329.703 240.579 329.342L244.539 325.19C244.899 324.828 245.439 324.828 245.799 325.19C246.16 325.551 246.16 326.092 245.799 326.453L241.839 330.605C241.659 330.786 241.419 330.846 241.179 330.846Z" fill="#071824"/>
<path d="M172.828 251.173C172.828 251.173 202.053 248.887 234.638 231.315C235.598 230.774 236.199 232.399 235.658 233.301C234.038 235.889 233.138 239.8 230.678 246.48C227.677 254.664 221.316 297.088 219.216 310.326C219.036 311.53 219.936 312.613 221.136 312.673L233.678 313.094C234.458 313.094 235.178 312.673 235.538 311.951C240.039 302.503 269.564 228.126 268.484 214.286C267.284 199.302 250.241 200.325 243.1 199.844C235.718 199.362 169.048 211.879 169.048 211.879L172.828 251.173Z" fill="#071824"/>
<path d="M84.0136 229.33C85.0338 228.126 86.354 226.682 87.4342 225.599C88.8744 224.155 93.7352 214.707 93.7352 214.707L102.197 217.114C102.197 217.114 98.2359 224.094 99.196 227.524C100.096 230.774 100.756 237.574 96.0755 242.508C95.5355 243.05 94.3353 243.23 93.9152 243.11C92.715 242.809 92.655 241.124 93.2551 239.981L94.9354 236.852C95.0554 236.551 94.8754 236.25 94.5753 236.31C93.3151 236.491 90.4946 237.333 87.5542 240.944C85.2738 243.712 80.8331 249.97 79.3329 248.947C76.6924 247.081 78.4927 235.949 84.0136 229.33Z" fill="white"/>
<path d="M79.7529 249.91C79.4528 249.91 79.1528 249.789 78.8527 249.609C78.0726 249.067 77.5325 247.984 77.3525 246.48C76.7524 242.087 78.8527 234.023 83.2934 228.668C84.3136 227.464 85.6338 226.02 86.774 224.877C87.7341 223.914 91.0347 217.836 92.895 214.226C93.075 213.864 93.5551 213.624 93.9151 213.744L102.376 216.151C102.617 216.211 102.857 216.392 102.977 216.693C103.097 216.933 103.037 217.234 102.917 217.475C101.836 219.34 99.316 224.636 99.9761 227.223C101.236 231.857 101.056 238.416 96.6155 243.05C95.7754 243.892 94.2752 244.073 93.6151 243.952C92.955 243.772 92.4149 243.351 92.1148 242.689C91.6948 241.786 91.8148 240.522 92.3549 239.499L93.4951 237.393C92.1748 237.814 90.1945 238.898 88.1542 241.425C87.7941 241.846 87.4341 242.328 87.014 242.869C83.9535 247.081 81.5531 249.91 79.7529 249.91ZM84.6736 229.931C80.653 234.685 78.5527 242.267 79.1528 246.299C79.2728 247.202 79.5128 247.804 79.8729 248.104C81.0131 247.924 84.3736 243.651 85.8138 241.786C86.2339 241.244 86.654 240.763 86.954 240.342C90.0145 236.551 93.015 235.588 94.5152 235.407C94.9953 235.347 95.4754 235.528 95.7754 235.949C96.0755 236.37 96.0755 236.852 95.8354 237.273L94.1552 240.402C93.8551 240.883 93.7951 241.605 93.9751 241.967C94.0351 242.087 94.0951 242.147 94.2152 242.207C94.4552 242.267 95.2353 242.087 95.4754 241.846C100.516 236.551 98.7759 229.149 98.3558 227.705C97.5157 224.696 99.7961 219.762 100.936 217.595L94.2752 215.67C93.075 217.956 89.4744 224.816 88.1542 226.14C86.954 227.344 85.6338 228.728 84.6736 229.931Z" fill="#071824"/>
<path d="M287.206 122.458L281.745 113.19C280.845 111.686 278.025 111.205 276.584 112.288C245.619 135.456 212.674 126.008 207.633 124.744C195.031 121.735 188.67 121.254 178.709 120.652C164.126 119.75 143.123 128.234 129.021 142.376C117.799 153.629 98.6559 190.155 89.9545 215.549C89.5944 216.633 90.0745 217.776 91.0347 218.317L99.7361 222.831C100.816 223.432 102.196 223.011 102.797 221.868C107.237 213.503 126.44 178.722 146.544 167.288C148.044 166.446 150.264 167.349 150.144 169.034C149.904 174.389 146.544 194.187 145.583 212.541C145.463 214.948 147.144 217.114 149.484 217.535L158.305 219.16C173.668 222.77 188.01 218.739 194.371 216.512C196.292 215.79 197.252 213.925 197.552 211.879C198.032 208.509 204.873 181.309 217.295 163.317C218.855 161.03 221.256 159.466 223.956 159.345C235.058 158.683 266.563 154.23 287.146 125.346C287.626 124.504 287.686 123.36 287.206 122.458Z" fill="#005D95"/>
<path d="M279.645 116.019C279.525 115.357 279.765 114.635 280.305 114.153C281.025 113.552 282.165 112.529 283.905 111.024C286.906 108.376 290.746 103.081 294.047 101.456C297.347 99.8917 309.349 95.198 311.27 96.1608C313.19 97.1838 312.23 99.4103 309.529 100.734C306.829 102.058 303.288 103.382 303.288 103.382C303.288 103.382 305.269 103.262 306.709 105.548C308.149 107.835 306.169 108.738 307.009 109.881C308.089 111.325 307.789 113.01 306.889 113.792C304.909 115.477 302.508 112.168 300.708 115.598C299.448 118.005 296.507 119.569 290.566 120.712C288.946 121.013 287.446 121.615 286.066 122.518C285.465 122.879 284.745 122.879 284.205 122.578C282.765 121.796 280.305 119.87 279.645 116.019Z" fill="white"/>
<path d="M285.046 123.721C284.566 123.721 284.146 123.601 283.726 123.36C282.165 122.458 279.465 120.351 278.745 116.139C278.565 115.116 278.925 114.093 279.705 113.491C280.425 112.89 281.565 111.867 283.306 110.362C284.386 109.46 285.526 108.136 286.786 106.812C289.066 104.345 291.407 101.757 293.627 100.674C293.747 100.614 308.81 93.9343 311.63 95.3785C312.59 95.8599 313.13 96.7024 313.13 97.6652C313.13 99.1094 311.87 100.614 309.89 101.516C308.57 102.178 307.009 102.84 305.809 103.322C306.349 103.683 306.949 104.285 307.429 105.067C308.51 106.752 308.089 107.955 307.789 108.737C307.609 109.279 307.609 109.279 307.669 109.339C309.05 111.205 308.63 113.431 307.429 114.454C306.229 115.477 304.969 115.176 304.009 114.996C302.809 114.755 302.209 114.635 301.488 116.019C300.048 118.727 296.868 120.412 290.747 121.615C289.306 121.916 287.866 122.458 286.546 123.3C286.066 123.601 285.586 123.721 285.046 123.721ZM310.37 96.9431C307.849 96.9431 298.368 100.433 294.467 102.299C292.547 103.262 290.327 105.669 288.166 108.015C286.906 109.399 285.706 110.723 284.566 111.746C282.825 113.251 281.685 114.274 280.965 114.875C280.665 115.116 280.545 115.477 280.605 115.898C281.205 119.389 283.426 121.134 284.686 121.856C284.986 122.036 285.346 122.036 285.646 121.796C287.146 120.833 288.766 120.231 290.447 119.87C295.968 118.787 298.788 117.403 299.928 115.236C301.248 112.649 303.169 113.01 304.369 113.311C305.269 113.491 305.809 113.612 306.289 113.191C306.769 112.769 307.069 111.626 306.229 110.543C305.569 109.7 305.869 108.798 306.109 108.256C306.349 107.594 306.529 107.113 305.929 106.15C304.789 104.345 303.289 104.405 303.289 104.405C302.869 104.405 302.449 104.104 302.329 103.683C302.209 103.262 302.449 102.78 302.869 102.66C302.929 102.66 306.409 101.336 309.05 100.012C310.61 99.2899 311.27 98.3271 311.27 97.7253C311.27 97.605 311.27 97.3041 310.73 97.0634C310.67 96.9431 310.55 96.9431 310.37 96.9431Z" fill="#071824"/>
<path d="M199.652 95.6192L183.27 122.819C183.03 123.12 180.629 123.059 177.929 123.3C176.669 123.42 175.348 123.601 174.268 123.781C173.368 123.902 173.128 125.105 173.848 125.587L176.789 127.512C182.91 131.604 190.231 133.71 197.612 133.229C199.652 133.109 201.633 132.748 203.373 132.206L209.674 130.22C210.634 129.919 210.634 128.595 209.674 128.295L201.693 125.888L208.414 111.506L199.652 95.6192Z" fill="white"/>
<path d="M195.452 134.252C188.791 134.252 182.07 132.206 176.249 128.355L173.308 126.429C172.648 126.008 172.348 125.226 172.528 124.443C172.708 123.661 173.308 123.059 174.088 122.939C175.468 122.698 176.729 122.518 177.809 122.458C178.949 122.337 180.029 122.277 180.869 122.217C181.529 122.157 182.25 122.157 182.61 122.097L198.812 95.1378C198.992 94.8369 199.292 94.7166 199.592 94.7166C199.892 94.7166 200.192 94.8971 200.372 95.198L209.074 111.205C209.194 111.445 209.194 111.746 209.074 112.047L202.833 125.406L209.794 127.512C210.574 127.753 211.114 128.475 211.174 129.318C211.174 130.16 210.634 130.882 209.854 131.123L203.553 133.109C201.813 133.65 199.772 134.011 197.612 134.132C196.892 134.252 196.172 134.252 195.452 134.252ZM199.592 97.4245L184.05 123.3C184.05 123.3 184.05 123.36 183.99 123.36C183.63 123.902 182.97 123.902 180.989 124.022C180.149 124.082 179.069 124.142 177.989 124.203C176.909 124.323 175.709 124.504 174.328 124.684C174.328 124.684 174.268 124.684 174.268 124.744C174.268 124.804 174.268 124.865 174.328 124.865L177.269 126.79C183.39 130.822 190.531 132.808 197.492 132.326C199.532 132.206 201.393 131.845 203.013 131.364L209.254 129.378C209.314 129.378 209.314 129.378 209.314 129.257C209.314 129.197 209.254 129.197 209.254 129.137L201.273 126.73C201.033 126.67 200.793 126.489 200.733 126.249C200.613 126.008 200.613 125.707 200.733 125.527L207.274 111.566L199.592 97.4245Z" fill="#071824"/>
<path d="M206.913 112.168C207.753 112.288 208.654 112.288 209.554 112.288L211.174 112.228C211.174 112.228 220.475 111.024 221.916 108.677C223.416 106.391 220.235 98.0262 220.235 98.0262C221.676 96.8829 221.976 95.4988 221.676 95.0174C221.376 94.536 219.275 93.8139 218.435 93.2122C217.775 92.7308 216.215 88.699 215.555 86.9539C215.555 86.9539 214.354 80.154 203.493 81.0567C178.589 83.1026 196.472 106.21 196.472 106.21C196.832 106.631 197.252 107.113 197.672 107.474L206.913 112.168Z" fill="white"/>
<path d="M208.833 113.191C207.453 113.191 206.073 113.01 204.693 112.649C204.213 112.529 203.913 111.987 204.093 111.566C204.213 111.084 204.693 110.783 205.173 110.964C206.553 111.385 208.053 111.506 209.554 111.445L211.114 111.385C214.774 110.904 220.355 109.58 221.195 108.256C222.036 106.932 220.715 101.697 219.455 98.3873C219.335 98.0262 219.455 97.605 219.755 97.3643C220.655 96.6422 220.955 95.8599 220.955 95.559C220.715 95.3785 220.115 95.1378 219.755 94.9573C219.095 94.6564 218.435 94.3555 218.015 93.9945C217.355 93.5131 216.515 91.768 214.834 87.3751C214.834 87.315 214.774 87.2548 214.774 87.1946C214.714 86.9539 213.514 81.2372 203.673 82.0195C197.612 82.5009 193.771 84.246 192.211 87.1344C189.57 92.0688 193.831 99.5908 196.351 104.044L196.591 104.465C196.832 104.886 196.712 105.428 196.231 105.669C195.811 105.909 195.271 105.789 195.031 105.307L194.791 104.886C192.091 100.072 187.59 92.0688 190.651 86.2318C192.511 82.7416 196.832 80.6956 203.553 80.1541C214.354 79.2514 216.335 85.7504 216.575 86.7132C218.255 91.0459 218.855 92.2494 219.155 92.4901C219.455 92.6706 220.055 92.9715 220.595 93.2724C221.676 93.8139 222.276 94.1148 222.576 94.536C223.116 95.3785 222.816 97.0032 221.435 98.3271C222.276 100.614 224.256 106.932 222.816 109.219C221.195 111.746 213.034 112.95 211.414 113.191H211.354L209.734 113.251C209.374 113.191 209.073 113.191 208.833 113.191Z" fill="#071824"/>
<path d="M198.512 78.0479C201.212 77.5063 204.333 77.9275 205.653 77.5063C207.813 76.7842 207.753 74.317 210.754 74.0763C213.394 73.8356 215.855 74.3772 217.175 76.363C217.415 76.724 217.595 77.0851 217.775 77.5063C219.875 83.223 216.995 85.9911 215.735 86.8937C215.735 86.8937 207.693 90.8051 206.253 91.8883C204.933 92.9113 203.433 95.4387 204.273 98.989C204.393 99.4704 204.153 99.9518 203.733 100.193C203.253 100.493 202.652 100.313 202.292 99.8917C201.272 98.4475 199.112 95.6192 197.492 96.2811C195.571 97.0634 194.971 101.817 198.452 103.021C199.532 103.382 199.892 104.766 199.112 105.608C198.452 106.27 197.492 106.752 195.991 106.391C195.991 106.391 187.29 100.193 186.27 92.0087C185.19 83.8248 194.911 78.77 198.512 78.0479Z" fill="#071824"/>
<path d="M280.305 27.3198C279.344 27.3198 278.384 27.0189 277.544 26.4773C276.464 25.7552 275.804 24.6119 275.564 23.3482C275.324 22.0845 275.624 20.8208 276.344 19.7376C277.844 17.5713 280.845 17.0297 283.065 18.5341C284.145 19.2562 284.805 20.3996 285.045 21.6633C285.285 22.927 284.985 24.1906 284.265 25.2738C283.545 26.357 282.405 27.0189 281.145 27.2596C280.905 27.2596 280.605 27.3198 280.305 27.3198ZM280.365 19.4368C279.404 19.4368 278.444 19.9182 277.904 20.7606C277.424 21.4226 277.244 22.2048 277.424 23.0473C277.544 23.8296 278.024 24.5517 278.684 24.9729C280.065 25.9357 281.925 25.5747 282.885 24.1906C283.365 23.5287 283.545 22.7464 283.365 21.904C283.245 21.1217 282.765 20.3996 282.105 19.9783C281.565 19.6173 280.965 19.4368 280.365 19.4368Z" fill="#071824"/>
<path d="M309.47 32.3745C309.23 32.3745 308.99 32.2542 308.81 32.0737C308.51 31.7126 308.51 31.1109 308.93 30.81L311.81 28.3428C312.17 28.0419 312.77 28.0419 313.07 28.4631C313.37 28.8242 313.37 29.4259 312.95 29.7268L310.07 32.194C309.89 32.3144 309.65 32.3745 309.47 32.3745Z" fill="#071824"/>
<path d="M300.288 40.1974C300.048 40.1974 299.808 40.077 299.628 39.8965C299.328 39.5355 299.328 38.9337 299.748 38.6328L302.628 36.1656C302.988 35.8647 303.589 35.8647 303.889 36.286C304.189 36.647 304.189 37.2488 303.769 37.5497L300.888 40.0169C300.708 40.1372 300.468 40.1974 300.288 40.1974Z" fill="#071824"/>
<path d="M303.649 31.8931C303.409 31.8931 303.169 31.7728 302.989 31.5923L300.528 28.7038C300.228 28.3428 300.228 27.741 300.648 27.4401C301.008 27.1393 301.608 27.1393 301.909 27.5605L304.369 30.4489C304.669 30.81 304.669 31.4117 304.249 31.7126C304.069 31.833 303.829 31.8931 303.649 31.8931Z" fill="#071824"/>
<path d="M311.45 41.1C311.21 41.1 310.97 40.9797 310.79 40.7991L308.329 37.9107C308.029 37.5497 308.029 36.9479 308.449 36.647C308.809 36.3461 309.409 36.3461 309.709 36.7674L312.17 39.6558C312.47 40.0169 312.47 40.6186 312.05 40.9195C311.87 41.0398 311.69 41.1 311.45 41.1Z" fill="#071824"/>
<path d="M69.3112 378.144C68.8311 378.144 68.411 377.783 68.411 377.302L68.291 373.45C68.291 372.969 68.6511 372.548 69.1311 372.488C69.6712 372.488 70.0313 372.849 70.0913 373.33L70.2113 377.181C70.2113 377.663 69.8513 378.084 69.3112 378.144C69.3712 378.144 69.3112 378.144 69.3112 378.144Z" fill="#071824"/>
<path d="M69.7907 390.24C69.3106 390.24 68.8905 389.878 68.8905 389.397L68.7705 385.546C68.7705 385.064 69.1306 384.643 69.6106 384.583C70.1507 384.583 70.5108 384.944 70.5708 385.425L70.6908 389.277C70.6908 389.758 70.3308 390.179 69.7907 390.24Z" fill="#071824"/>
<path d="M61.5095 382.537C61.0294 382.537 60.6094 382.176 60.6094 381.695C60.6094 381.213 60.9694 380.792 61.4495 380.732L65.2901 380.611C65.7702 380.611 66.1903 380.972 66.2503 381.454C66.2503 381.935 65.8902 382.357 65.4101 382.417L61.5095 382.537C61.5695 382.537 61.5695 382.537 61.5095 382.537Z" fill="#071824"/>
<path d="M73.571 382.116C73.091 382.116 72.6709 381.755 72.6709 381.273C72.6709 380.792 73.031 380.371 73.511 380.31L77.3516 380.19C77.8917 380.19 78.2518 380.551 78.3118 381.033C78.3118 381.514 77.9517 381.935 77.4717 381.995L73.571 382.116C73.6311 382.116 73.6311 382.116 73.571 382.116Z" fill="#071824"/>
<path d="M49.447 325.37C49.0869 325.37 48.7869 325.19 48.6069 324.828C32.7043 290.047 27.3635 251.595 33.2444 213.624C34.7446 204.056 36.905 194.548 39.7254 185.401C39.8455 184.92 40.3855 184.679 40.8656 184.8C41.3457 184.92 41.5857 185.462 41.4657 185.943C38.6453 195.029 36.4849 204.417 35.0447 213.925C29.2238 251.534 34.5046 289.626 50.2871 324.106C50.4672 324.588 50.2871 325.069 49.8671 325.31C49.687 325.37 49.567 325.37 49.447 325.37Z" fill="#071824"/>
<path d="M51.7277 330.184C51.3676 330.184 51.0676 330.004 50.9475 329.703C50.1674 328.138 49.3873 326.513 48.6672 324.889C48.4871 324.407 48.6672 323.926 49.0872 323.685C49.5673 323.505 50.0474 323.685 50.2874 324.106C51.0075 325.671 51.7877 327.296 52.5678 328.86C52.8078 329.282 52.6278 329.823 52.1477 330.064C51.9677 330.124 51.8477 330.184 51.7277 330.184Z" fill="#071824"/>
<path d="M40.2059 348.718C39.9059 348.718 39.5458 348.538 39.4258 348.237C28.324 326.453 20.9429 303.045 17.5223 278.674C13.9817 253.46 14.8219 227.885 19.9227 202.612C20.0427 202.13 20.5228 201.829 21.0029 201.89C21.4829 202.01 21.783 202.491 21.723 202.973C11.7614 252.136 18.6025 303.466 41.0461 347.455C41.2861 347.876 41.1061 348.417 40.626 348.658C40.446 348.718 40.326 348.718 40.2059 348.718Z" fill="#071824"/>
<path d="M27.4841 194.548C27.364 194.548 27.244 194.548 27.124 194.488L19.4428 191.359C19.1427 191.238 18.9627 190.938 18.9027 190.637C18.8427 190.336 18.9627 189.975 19.2628 189.794L27.184 183.596C27.4841 183.355 27.8441 183.355 28.1442 183.476C28.4442 183.656 28.6243 183.957 28.6243 184.318L28.3842 193.645C28.3842 193.946 28.2042 194.187 27.9641 194.368C27.8441 194.488 27.6641 194.548 27.4841 194.548ZM21.5431 190.276L26.5839 192.322L26.7039 186.184L21.5431 190.276Z" fill="#071824"/>
<path d="M291.226 217.054C290.926 217.054 290.686 216.933 290.506 216.693C290.206 216.272 290.266 215.73 290.686 215.429L316.91 195.932C317.33 195.631 317.87 195.691 318.17 196.113C318.47 196.534 318.41 197.075 317.99 197.376L291.766 216.873C291.586 216.994 291.406 217.054 291.226 217.054Z" fill="#071824"/>
<path d="M251.62 182.754C251.32 182.754 251.079 182.633 250.899 182.393C250.599 181.971 250.659 181.43 251.079 181.129L318.05 131.424C318.47 131.123 319.01 131.183 319.31 131.604C319.61 132.026 319.55 132.567 319.13 132.868L252.22 182.573C251.98 182.693 251.8 182.754 251.62 182.754Z" fill="#071824"/>
<path d="M298.967 160.368C298.667 160.368 298.427 160.248 298.247 160.007C297.947 159.586 298.007 159.044 298.427 158.744L333.653 132.567C334.073 132.266 334.613 132.326 334.913 132.748C335.213 133.169 335.153 133.71 334.733 134.011L299.507 160.188C299.327 160.308 299.147 160.368 298.967 160.368Z" fill="#071824"/>
<path d="M89.8337 222.53C89.2336 222.53 88.6335 222.409 88.0334 222.169C86.7732 221.687 85.753 220.725 85.2129 219.461C84.0728 216.873 85.273 213.865 87.7934 212.721C88.2734 212.541 88.7535 212.721 88.9935 213.203C89.1736 213.684 88.9935 214.165 88.5135 214.406C86.8932 215.128 86.1131 217.114 86.8332 218.799C87.1933 219.641 87.8534 220.243 88.6335 220.544C89.4136 220.845 90.3138 220.845 91.0939 220.484C92.7141 219.762 93.4943 217.776 92.7741 216.091C92.5941 215.61 92.7741 215.128 93.2542 214.887C93.7343 214.707 94.2144 214.887 94.4544 215.369C95.5946 217.956 94.3944 220.965 91.874 222.109C91.2139 222.409 90.4938 222.53 89.8337 222.53Z" fill="#071824"/>
<path d="M108.377 42.9655L109.997 49.2839L117.078 49.0432C117.738 50.4273 118.459 51.7511 119.299 53.0148L115.458 58.9722L120.019 63.6057L126.02 59.8147C127.28 60.6571 128.54 61.4394 129.92 62.1013L129.62 69.2021L135.861 70.9472L139.222 64.6889C140.722 64.8092 142.222 64.8092 143.723 64.6889L146.963 71.0073L153.264 69.3826L153.024 62.2819C154.404 61.6199 155.725 60.8978 156.985 60.0554L162.926 63.9066L167.546 59.3333L163.766 53.3157C164.606 52.052 165.386 50.7883 166.046 49.4043L173.127 49.7051L174.868 43.4469L168.627 40.077C168.747 38.5726 168.747 37.0682 168.627 35.5639L174.928 32.3144L173.427 25.9357L166.346 26.1764C165.686 24.7924 164.966 23.4685 164.126 22.2048L167.966 16.2475L163.406 11.6139L157.405 15.405C156.145 14.5625 154.884 13.7802 153.504 13.1183L153.804 6.01758L147.563 4.27249L144.203 10.5308C142.702 10.4104 141.202 10.4104 139.702 10.5308L136.341 4.21231L130.04 5.83705L130.28 12.9378C128.9 13.5997 127.58 14.3218 126.32 15.1643L120.379 11.313L115.758 15.8864L119.539 21.904C118.699 23.1677 117.918 24.4314 117.258 25.8154L110.177 25.5145L108.437 31.7728L114.678 35.1426C114.558 36.647 114.558 38.1514 114.678 39.6558L108.377 42.9655ZM137.482 21.4226C146.423 19.0757 155.544 24.4314 157.885 33.3975C160.225 42.3637 154.884 51.5104 145.943 53.8573C137.002 56.2041 127.88 50.8485 125.54 41.8823C123.199 32.9161 128.54 23.7092 137.482 21.4226Z" fill="white"/>
<path d="M149.844 73.5949C149.484 73.5949 149.183 73.4144 149.063 73.1135L146.063 67.3366C144.923 67.3968 143.723 67.3968 142.582 67.3366L139.522 73.1135C139.342 73.4745 138.922 73.6551 138.502 73.5347L132.261 71.7896C131.841 71.6693 131.601 71.3082 131.601 70.887L131.901 64.388C130.881 63.8464 129.86 63.2447 128.9 62.6429L123.379 66.0729C123.019 66.3136 122.539 66.2535 122.239 65.9526L117.678 61.3191C117.378 61.0182 117.318 60.5368 117.558 60.1757L121.039 54.6997C120.439 53.7369 119.839 52.7139 119.299 51.6909L112.818 51.8113C112.398 51.8113 112.038 51.5706 111.918 51.1494L110.297 44.8309C110.177 44.4097 110.357 43.9885 110.777 43.8079L116.538 40.7991C116.478 39.5956 116.478 38.4523 116.538 37.3089L110.777 34.24C110.417 34.0595 110.237 33.6382 110.357 33.217L112.098 26.9587C112.218 26.5375 112.578 26.2968 112.998 26.2968L119.479 26.5977C120.019 25.5747 120.619 24.5517 121.219 23.5889L117.798 18.0527C117.558 17.6917 117.618 17.2103 117.918 16.9094L122.539 12.336C122.839 12.0351 123.319 11.975 123.679 12.2157L129.14 15.7059C130.1 15.1041 131.121 14.5024 132.141 13.9608L131.901 7.46179C131.901 7.04056 132.141 6.67951 132.561 6.55916L138.862 4.93441C139.282 4.81406 139.702 4.99459 139.882 5.41582L142.882 11.1927C144.083 11.1325 145.223 11.1325 146.363 11.1927L149.423 5.41582C149.604 5.05477 150.024 4.87424 150.444 4.99459L156.685 6.73969C157.105 6.86004 157.345 7.22109 157.345 7.64232L157.045 14.1413C158.065 14.6829 159.085 15.2846 160.045 15.8864L165.566 12.4564C165.926 12.2157 166.406 12.2759 166.706 12.5767L171.267 17.2103C171.567 17.5111 171.627 17.9925 171.387 18.3536L167.906 23.8296C168.507 24.7924 169.107 25.8154 169.647 26.8384L176.128 26.5977C176.548 26.5977 176.908 26.8384 177.028 27.2596L178.648 33.5781C178.768 33.9993 178.588 34.4205 178.168 34.601L172.407 37.6098C172.467 38.8133 172.467 39.9567 172.407 41.1L178.168 44.169C178.528 44.3495 178.708 44.7707 178.588 45.192L176.848 51.4502C176.728 51.8715 176.368 52.1122 175.948 52.1122L169.467 51.8113C168.927 52.8343 168.327 53.8573 167.726 54.8201L171.147 60.3562C171.387 60.7173 171.327 61.1987 171.027 61.4996L166.406 66.0729C166.106 66.3738 165.626 66.434 165.266 66.1933L159.805 62.7031C158.845 63.3049 157.825 63.9066 156.805 64.4482L157.045 70.9472C157.045 71.3684 156.805 71.7295 156.385 71.8498L150.084 73.4745C149.964 73.5949 149.904 73.5949 149.844 73.5949ZM146.543 65.4712C146.903 65.4712 147.203 65.6517 147.323 65.9526L150.264 71.6091L155.184 70.3454L154.944 63.9668C154.944 63.6057 155.124 63.2447 155.484 63.1243C156.805 62.5226 158.125 61.8005 159.265 60.958C159.565 60.7775 159.985 60.7173 160.285 60.958L165.626 64.388L169.227 60.8376L165.866 55.4218C165.686 55.121 165.686 54.6997 165.866 54.3988C166.706 53.1953 167.426 51.9316 168.086 50.6078C168.267 50.3069 168.567 50.0662 168.927 50.0662L175.288 50.3671L176.608 45.4928L170.967 42.4841C170.667 42.3035 170.487 41.9425 170.487 41.5814C170.607 40.1372 170.607 38.693 170.487 37.1886C170.487 36.8275 170.667 36.4665 170.967 36.3461L176.608 33.3975L175.348 28.4631L168.987 28.7038C168.627 28.7038 168.267 28.5233 168.146 28.1622C167.546 26.8384 166.826 25.5145 165.986 24.3712C165.806 24.0703 165.746 23.6491 165.986 23.3482L169.407 17.9925L165.866 14.382L160.465 17.7518C160.165 17.9324 159.745 17.9324 159.445 17.7518C158.245 16.9094 156.985 16.1873 155.664 15.5253C155.364 15.3448 155.124 15.0439 155.124 14.6829L155.424 8.30425L150.564 6.98039L147.563 12.6369C147.383 12.9378 147.023 13.1183 146.663 13.1183C145.223 12.998 143.783 12.998 142.282 13.1183C141.922 13.1183 141.562 12.9378 141.442 12.6369L138.502 6.98039L133.581 8.24408L133.821 14.6227C133.821 14.9838 133.641 15.3448 133.281 15.4652C131.961 16.0669 130.64 16.789 129.5 17.6315C129.2 17.812 128.84 17.8722 128.48 17.6315L123.139 14.2015L119.539 17.7518L122.899 23.1677C123.079 23.4685 123.079 23.8898 122.899 24.1906C122.059 25.3942 121.339 26.6578 120.679 27.9817C120.499 28.2826 120.199 28.5233 119.839 28.5233L113.478 28.2224L112.158 33.0966L117.798 36.1054C118.098 36.286 118.279 36.647 118.279 37.0081C118.159 38.4523 118.159 39.8965 118.279 41.4009C118.279 41.762 118.098 42.123 117.798 42.2434L112.158 45.192L113.418 50.1264L119.779 49.8857C120.139 49.8857 120.499 50.0662 120.619 50.4273C121.219 51.7511 121.939 53.075 122.779 54.2183C122.959 54.5192 123.019 54.9404 122.779 55.2413L119.359 60.5969L122.899 64.2075L128.3 60.8376C128.6 60.6571 129.02 60.6571 129.32 60.8376C130.52 61.6801 131.781 62.4022 133.101 63.0642C133.401 63.2447 133.641 63.5456 133.641 63.9066L133.341 70.2852L138.202 71.6091L141.202 65.9526C141.382 65.6517 141.742 65.4712 142.102 65.4712C143.543 65.5915 144.983 65.5915 146.483 65.4712H146.543ZM144.503 56.9262C136.701 56.9262 129.5 51.6308 127.46 43.6876C125 34.24 130.64 24.6119 140.062 22.1447C144.623 20.9412 149.363 21.6031 153.444 24.0101C157.525 26.4171 160.405 30.2082 161.605 34.7816C162.806 39.3549 162.146 44.1088 159.745 48.2007C157.345 52.2927 153.564 55.1811 149.003 56.3846C147.443 56.7457 145.943 56.9262 144.503 56.9262ZM140.482 23.8898C132.021 26.1163 126.98 34.7816 129.14 43.2663C131.361 51.7511 140.002 56.8059 148.463 54.6396C156.925 52.4131 161.965 43.7477 159.805 35.263C158.725 31.171 156.145 27.741 152.484 25.5747C148.823 23.4084 144.563 22.8066 140.482 23.8898Z" fill="#071824"/>
<path d="M1.74023 105.669L4.56069 116.44L16.6826 116.019C17.7628 118.426 19.083 120.652 20.5232 122.758L13.9822 132.988L21.7834 140.932L32.1051 134.493C34.2054 135.997 36.4258 137.321 38.7662 138.404L38.2261 150.56L48.9678 153.508L54.6687 142.797C57.1891 143.038 59.8295 143.038 62.4099 142.857L67.9908 153.689L78.7326 150.861L78.3125 138.705C80.7129 137.622 82.9332 136.298 85.0336 134.854L95.2352 141.413L103.156 133.59L96.7354 123.24C98.2357 121.134 99.5559 118.907 100.636 116.56L112.758 117.102L115.698 106.33L105.017 100.614C105.257 98.0864 105.257 95.4387 105.077 92.8511L115.879 87.2548L113.058 76.4833L100.936 76.9046C99.8559 74.4975 98.5357 72.271 97.0955 70.1649L103.637 59.935L95.8353 51.9918L85.5136 58.4306C83.4133 56.9262 81.1929 55.6024 78.8526 54.5192L79.3927 42.3637L68.6509 39.4151L63.01 50.1264C60.4896 49.8857 57.8492 49.8857 55.2688 50.0662L49.6879 39.2346L38.8862 42.123L39.3062 54.2785C36.9059 55.3617 34.6855 56.6855 32.5852 58.1297L22.3835 51.5706L14.4623 59.3934L20.8833 69.7437C19.3831 71.8498 18.0628 74.0763 16.9827 76.4232L4.86073 75.8214L1.92026 86.5928L12.602 92.3095C12.3619 94.8369 12.3619 97.4847 12.542 100.072L1.74023 105.669ZM51.6082 68.7207C66.9107 64.6889 82.5132 73.8958 86.5338 89.2406C90.5545 104.585 81.373 120.231 66.0705 124.263C50.7681 128.295 35.1656 119.088 31.1449 103.743C27.1243 88.3981 36.3058 72.7524 51.6082 68.7207Z" fill="#A3CEED"/>
<path d="M72.6717 157.359C72.3117 157.359 72.0116 157.179 71.8916 156.878L66.6108 146.588C64.3304 146.708 62.11 146.708 59.8897 146.528L54.4888 156.758C54.3088 157.119 53.8887 157.299 53.4686 157.179L42.7269 154.23C42.3069 154.11 42.0668 153.749 42.0668 153.328L42.6069 141.774C40.6266 140.811 38.6463 139.668 36.846 138.404L27.0044 144.482C26.6444 144.723 26.1643 144.662 25.8642 144.362L18.063 136.418C17.7629 136.117 17.7029 135.636 17.943 135.275L24.184 125.527C22.9838 123.661 21.8436 121.735 20.8834 119.689L9.36159 120.051C8.94152 120.051 8.58146 119.81 8.46144 119.389L5.64099 108.617C5.52097 108.196 5.701 107.775 6.12107 107.594L16.3827 102.299C16.2627 100.012 16.2627 97.7855 16.4427 95.559L6.24109 90.1432C5.88103 89.9627 5.701 89.5415 5.82102 89.1202L8.76149 78.3488C8.88151 77.9276 9.24157 77.6869 9.66164 77.6869L21.1835 78.2284C22.1436 76.2426 23.2838 74.2568 24.544 72.4516L18.423 62.6429C18.183 62.2819 18.243 61.8005 18.5431 61.4996L26.4643 53.6767C26.7644 53.3759 27.2444 53.3157 27.6045 53.5564L37.3261 59.8147C39.1864 58.6112 41.1067 57.4678 43.147 56.505L42.7869 44.9513C42.7869 44.53 43.027 44.169 43.447 44.0486L54.1888 41.2204C54.6088 41.1 55.0289 41.2806 55.2089 41.7018L60.4898 51.9918C62.7701 51.8715 64.9905 51.8715 67.2108 52.052L72.6117 41.8221C72.7917 41.4611 73.2118 41.2806 73.6319 41.4009L84.3736 44.3495C84.7937 44.4699 85.0337 44.8309 85.0337 45.2521L84.4936 56.8059C86.4739 57.7687 88.4542 58.912 90.2545 60.1757L100.036 54.0378C100.396 53.7971 100.876 53.8573 101.176 54.1582L108.978 62.1013C109.278 62.4022 109.338 62.8836 109.098 63.2447L102.857 72.9932C104.057 74.8586 105.197 76.7842 106.157 78.8302L117.679 78.4691C118.099 78.4691 118.459 78.7098 118.579 79.1311L121.4 89.9025C121.52 90.3238 121.34 90.745 120.919 90.9255L110.658 96.221C110.778 98.5076 110.778 100.734 110.598 102.961L120.799 108.376C121.159 108.557 121.34 108.978 121.219 109.399L118.279 120.171C118.159 120.592 117.799 120.833 117.379 120.833L105.857 120.291C104.897 122.277 103.757 124.263 102.496 126.068L108.617 135.877C108.858 136.238 108.798 136.719 108.497 137.02L100.576 144.843C100.276 145.144 99.7961 145.204 99.436 144.963L89.7144 138.705C87.8542 139.909 85.9338 141.052 83.8935 142.015L84.2536 153.568C84.2536 153.99 84.0135 154.351 83.5935 154.471L72.8518 157.299C72.8518 157.359 72.7317 157.359 72.6717 157.359ZM67.0908 144.723C67.4509 144.723 67.7509 144.903 67.871 145.204L73.0918 155.374L82.4533 152.907L82.0932 141.473C82.0932 141.112 82.2733 140.751 82.6333 140.631C84.9737 139.547 87.194 138.284 89.2344 136.9C89.5344 136.719 89.8945 136.659 90.2545 136.9L99.8561 143.098L106.757 136.298L100.696 126.55C100.516 126.249 100.516 125.827 100.696 125.527C102.136 123.481 103.457 121.254 104.537 118.967C104.717 118.667 105.017 118.426 105.377 118.426L116.779 118.967L119.359 109.64L109.278 104.285C108.978 104.104 108.798 103.743 108.798 103.382C109.038 100.915 109.038 98.3271 108.858 95.7396C108.858 95.3785 109.038 95.0175 109.338 94.8971L119.479 89.6618L117.019 80.2744L105.617 80.6355C105.257 80.6355 104.897 80.4549 104.777 80.0939C103.697 77.747 102.436 75.5205 101.056 73.4746C100.876 73.1737 100.816 72.7525 101.056 72.4516L107.237 62.8235L100.396 55.9634L90.7346 61.981C90.4346 62.1615 90.0145 62.1615 89.7144 61.981C87.6741 60.5368 85.4538 59.2129 83.1734 58.1298C82.8734 57.9492 82.6333 57.6483 82.6333 57.2873L83.1734 45.8539L73.8719 43.2664L68.5311 53.3759C68.351 53.6767 67.991 53.8573 67.6309 53.8573C65.1705 53.6166 62.5901 53.6166 60.0097 53.7971C59.6496 53.7971 59.2896 53.6166 59.1696 53.3157L53.9487 43.146L44.5872 45.6132L44.9473 57.0466C44.9473 57.4076 44.7673 57.7687 44.4072 57.889C42.0668 58.9722 39.8465 60.2359 37.8061 61.6199C37.5061 61.8005 37.086 61.8606 36.786 61.6199L27.1844 55.4218L20.2833 62.2217L26.3443 71.9702C26.5243 72.271 26.5243 72.6923 26.3443 72.9932C24.9041 75.0391 23.5839 77.2656 22.5037 79.5523C22.3237 79.8532 22.0236 80.0939 21.6636 80.0939L10.2617 79.5523L7.68132 88.8795L17.7629 94.2352C18.063 94.4157 18.243 94.7768 18.243 95.1378C18.003 97.605 18.003 100.193 18.183 102.78C18.183 103.141 18.003 103.502 17.7029 103.623L7.5613 108.918L10.0217 118.305L21.4235 117.944C21.7836 117.944 22.1436 118.125 22.2637 118.486C23.3438 120.833 24.604 123.059 25.9842 125.105C26.1643 125.406 26.2243 125.827 25.9842 126.128L19.8033 135.756L26.6444 142.616L36.3659 136.539C36.666 136.358 37.086 136.358 37.3861 136.539C39.4264 137.983 41.6468 139.307 43.9271 140.39C44.2272 140.57 44.4672 140.871 44.4672 141.232L43.9271 152.666L53.2286 155.253L58.5695 145.144C58.7495 144.843 59.1096 144.662 59.4696 144.662C61.93 144.903 64.5104 144.903 67.0908 144.723C67.0908 144.723 67.0308 144.723 67.0908 144.723ZM63.5503 128.836C50.4682 128.836 38.4662 119.99 34.9857 106.692C30.905 90.9255 40.3265 74.6781 56.1091 70.5861C63.7303 68.6003 71.7116 69.6835 78.4927 73.7153C85.2737 77.6869 90.1345 84.1257 92.1148 91.768C94.0952 99.4103 93.015 107.414 88.9943 114.214C85.0337 121.013 78.6127 125.888 70.9915 127.873C68.4711 128.535 66.0107 128.836 63.5503 128.836ZM56.5291 72.3914C41.7668 76.2426 32.8253 91.4671 36.726 106.33C38.5863 113.491 43.147 119.509 49.508 123.3C55.869 127.031 63.3702 128.114 70.5114 126.188C77.6525 124.323 83.6535 119.75 87.4341 113.371C91.1547 106.992 92.2349 99.4705 90.3145 92.3096C88.4542 85.1486 83.8935 79.1311 77.5325 75.34C71.1715 71.5489 63.6703 70.526 56.5291 72.3914Z" fill="#071824"/>
<path d="M471.135 499.097H348.116C340.735 499.097 335.214 492.297 336.714 485.076L355.377 394.091C356.937 386.388 363.658 380.912 371.459 380.912H476.956L471.135 499.097Z" fill="#A3CEED"/>
<path d="M471.135 500H348.116C344.335 500 340.794 498.315 338.394 495.366C335.994 492.418 335.033 488.567 335.814 484.896L354.477 393.91C356.097 385.907 363.238 380.07 371.459 380.07H476.956C477.196 380.07 477.436 380.19 477.616 380.371C477.796 380.551 477.856 380.792 477.856 381.033L472.035 499.218C472.035 499.639 471.615 500 471.135 500ZM371.459 381.815C364.138 381.815 357.717 387.05 356.277 394.211L337.614 485.197C336.954 488.386 337.734 491.636 339.834 494.163C341.875 496.69 344.935 498.135 348.176 498.135H470.355L476.056 381.755H371.459V381.815Z" fill="#071824"/>
<path d="M486.918 499.097H463.034C455.653 499.097 450.132 492.298 451.632 485.076L472.215 384.884C472.695 382.597 474.676 380.972 477.016 380.972H483.077C485.597 380.972 487.758 382.958 487.938 385.486L496.339 488.868C496.819 494.344 492.438 499.097 486.918 499.097Z" fill="#005D95"/>
<path d="M486.917 500H463.034C459.253 500 455.712 498.315 453.312 495.366C450.912 492.418 449.951 488.567 450.732 484.896L471.315 384.703C471.855 381.995 474.255 380.07 476.956 380.07H483.077C486.077 380.07 488.598 382.417 488.838 385.425L497.239 488.807C497.479 491.696 496.459 494.584 494.539 496.75C492.618 498.736 489.798 500 486.917 500ZM476.956 381.815C475.095 381.815 473.415 383.139 473.055 385.004L452.472 485.197C451.812 488.386 452.592 491.636 454.692 494.163C456.733 496.69 459.793 498.135 463.034 498.135H486.917C489.318 498.135 491.598 497.172 493.218 495.366C494.839 493.561 495.679 491.274 495.439 488.807L487.037 385.425C486.857 383.379 485.117 381.755 483.077 381.755H476.956V381.815Z" fill="#071824"/>
<path d="M447.491 429.594H360.897C360.417 429.594 359.997 429.173 359.997 428.692C359.997 428.21 360.417 427.789 360.897 427.789H447.491C449.951 427.789 452.052 426.104 452.592 423.757L461.053 387.833C461.173 387.351 461.653 387.05 462.133 387.171C462.613 387.291 462.914 387.772 462.794 388.254L454.332 424.179C453.612 427.368 450.792 429.594 447.491 429.594Z" fill="#071824"/>
<path d="M417.246 428.692L414.546 439.584C414.126 441.449 412.445 442.713 410.585 442.713H391.502C389.402 442.713 387.901 440.727 388.502 438.741L391.322 428.692H417.246Z" fill="white"/>
<path d="M410.525 443.615H391.442C390.182 443.615 388.982 443.014 388.202 441.991C387.422 440.968 387.182 439.704 387.542 438.44L390.362 428.391C390.482 428.03 390.842 427.729 391.202 427.729H417.186C417.486 427.729 417.726 427.849 417.906 428.09C418.087 428.331 418.147 428.571 418.087 428.872L415.386 439.764C414.846 442.051 412.866 443.615 410.525 443.615ZM391.922 429.594L389.282 438.982C389.102 439.644 389.222 440.366 389.642 440.968C390.062 441.509 390.722 441.87 391.442 441.87H410.525C412.026 441.87 413.286 440.847 413.646 439.403L416.046 429.594H391.922Z" fill="#071824"/>
<path d="M457.693 380.311L459.914 368.937C460.934 361.776 457.153 357.805 451.752 357.805H402.004C396.604 357.805 391.443 363.522 390.543 368.937L388.322 380.311H396.304L398.224 370.622C398.944 366.41 401.524 364.244 405.725 364.244H447.612C451.812 364.244 452.352 366.41 451.632 370.622L449.712 380.311H457.693Z" fill="white"/>
<path d="M457.693 381.213H449.712C449.472 381.213 449.172 381.093 448.992 380.912C448.812 380.732 448.752 380.431 448.812 380.19L450.732 370.502C451.152 368.095 451.032 366.711 450.492 366.049C450.012 365.507 449.112 365.206 447.612 365.206H405.725C401.884 365.206 399.724 367.072 399.124 370.803L397.204 380.551C397.143 380.972 396.723 381.273 396.303 381.273H388.322C388.082 381.273 387.782 381.153 387.602 380.972C387.422 380.792 387.362 380.491 387.422 380.25L389.642 368.877C390.602 363.281 395.883 357.023 402.004 357.023H451.752C454.633 357.023 457.093 358.046 458.713 359.971C460.634 362.198 461.354 365.387 460.814 369.178L458.593 380.611C458.473 380.912 458.113 381.213 457.693 381.213ZM450.792 379.408H456.913L459.013 368.757C459.493 365.507 458.893 362.799 457.333 360.994C456.013 359.49 454.093 358.647 451.692 358.647H401.944C396.903 358.647 392.163 364.123 391.383 368.997L389.342 379.348H395.523L397.323 370.382C398.104 365.748 400.984 363.281 405.725 363.281H447.612C449.652 363.281 451.032 363.762 451.872 364.725C453.072 366.169 452.892 368.456 452.532 370.682L450.792 379.408Z" fill="#071824"/>
<path d="M448.452 355.879H406.385C404.705 355.879 403.085 357.263 402.785 358.948L402.185 362.619C401.885 364.304 403.025 365.688 404.765 365.688H446.832C448.512 365.688 450.132 364.304 450.432 362.619L451.032 358.948C451.272 357.263 450.132 355.879 448.452 355.879Z" fill="#A3CEED"/>
<path d="M446.772 366.651H404.705C403.625 366.651 402.664 366.229 402.004 365.447C401.344 364.665 401.044 363.642 401.284 362.499L401.884 358.828C402.244 356.661 404.225 354.977 406.385 354.977H448.452C449.532 354.977 450.492 355.398 451.152 356.18C451.812 356.962 452.112 357.985 451.872 359.129L451.272 362.799C450.912 364.966 448.932 366.651 446.772 366.651ZM406.385 356.782C405.125 356.782 403.925 357.865 403.685 359.129L403.085 362.799C402.965 363.341 403.085 363.883 403.445 364.244C403.745 364.605 404.225 364.785 404.765 364.785H446.832C448.092 364.785 449.292 363.702 449.532 362.438L450.132 358.768C450.252 358.226 450.132 357.684 449.772 357.323C449.472 356.962 448.992 356.782 448.452 356.782H406.385Z" fill="#071824"/>
<path d="M462.794 485.618C462.494 485.618 462.194 485.437 462.014 485.137C461.774 484.715 461.894 484.174 462.374 483.933L478.396 474.786V394.271C478.396 393.79 478.816 393.369 479.296 393.369C479.776 393.369 480.196 393.79 480.196 394.271V475.268C480.196 475.569 480.016 475.87 479.716 476.05L463.274 485.498C463.094 485.558 462.974 485.618 462.794 485.618Z" fill="#CDE5F5"/>
</g>
<defs>
<clipPath id="clip0_248_586">
<rect width="500" height="500" fill="white"/>
</clipPath>
</defs>
</svg>
