<svg width="90" height="90" viewBox="0 0 90 90" fill="none" xmlns="http://www.w3.org/2000/svg">
<g clip-path="url(#clip0_58_571)">
<path d="M1.02993 73.3317C3.65656 79.7362 9.79983 82.7699 13.7181 84.7054C29.1848 92.3386 60.281 92.817 77.0936 78.7576C84.8432 72.2879 93.4503 56.9888 88.5661 34.0566C84.2354 13.6905 64.3512 1.77318 47.3432 0.196518C33.2441 -1.1083 14.8252 4.05661 8.31286 16.5285C4.22096 24.3683 9.13775 26.8584 5.78391 44.6257C2.88594 59.9899 -2.1828 65.5028 1.02993 73.3317Z" fill="white"/>
<g clip-path="url(#clip1_58_571)">
<path d="M26.612 66.291V67.2587C19.5567 61.9559 15 53.5285 15 44.0347C15 28.0006 27.996 15.0046 44.03 15.0046C60.0622 15.0046 73.0601 28.0006 73.0601 44.0347C73.0601 48.1955 72.1893 52.1535 70.6012 55.7327C66.4414 52.7049 60.5773 53.0716 56.8313 56.827C56.0186 57.6401 55.3704 58.5488 54.8766 59.5164H49.8361V55.307C54.4122 53.1297 57.5774 48.4657 57.5774 43.0661V32.4217C57.5774 29.2088 54.982 26.6157 51.7714 26.6157V21.7774H42.0947C35.6782 21.7774 30.4827 26.9649 30.4827 33.3894V43.0651C30.4827 48.4648 33.647 53.1288 38.224 55.306V59.5155H33.3857C29.6398 59.5174 26.612 62.547 26.612 66.291Z" fill="#005D95"/>
<path d="M70.6012 55.7335C71.0473 56.0629 71.472 56.4215 71.8784 56.8278C76.0406 60.9782 76.0406 67.724 71.8784 71.8744C67.7261 76.0361 60.9827 76.0361 56.8304 71.8744C56.4335 71.4794 56.0668 71.0518 55.738 70.6076C53.3661 67.3455 53.0769 63.0407 54.8757 59.5173C55.369 58.5496 56.0177 57.641 56.8304 56.8278C60.5773 53.0725 66.4414 52.7058 70.6012 55.7335Z" fill="#A0D468"/>
<path d="M54.8671 59.5173H54.8766C53.0778 63.0407 53.366 67.3456 55.7389 70.6077C52.1574 72.184 48.1998 73.0647 44.03 73.0647C37.4864 73.0647 31.4598 70.9068 26.612 67.2587V66.291C26.612 62.547 29.6397 59.5173 33.3857 59.5173H38.224L41.127 61.4527L44.03 60.485L46.933 61.4527L49.836 59.5173H54.8671Z" fill="#E6E9ED"/>
<path d="M49.836 55.3079V59.5173L46.933 61.4526L44.03 60.485L41.127 61.4526L38.224 59.5173V55.3079C39.9831 56.1489 41.9496 56.6143 44.03 56.6143C46.1085 56.6143 48.0751 56.1489 49.836 55.3079Z" fill="#F5F7FA"/>
<path d="M57.5774 38.2286V43.067C57.5774 48.4666 54.4122 53.1306 49.836 55.3079C48.0751 56.1489 46.1085 56.6143 44.03 56.6143C41.9497 56.6143 39.9831 56.1498 38.224 55.3079C33.647 53.1306 30.4827 48.4666 30.4827 43.067V38.2102L34.3534 34.3589C34.3534 34.3589 38.7735 36.2942 44.03 36.2942C49.2846 36.2942 53.7067 34.3589 53.7067 34.3589L57.5774 38.2286Z" fill="#EAC6BB"/>
<path d="M57.5774 32.4227V38.2287L53.7067 34.358C53.7067 34.358 49.2846 36.2933 44.03 36.2933C38.7735 36.2933 34.3534 34.358 34.3534 34.358L30.4827 38.2093V33.3903C30.4827 26.9658 35.6782 21.7783 42.0947 21.7783H51.7714V26.6167C54.982 26.6167 57.5774 29.2102 57.5774 32.4227Z" fill="#965353"/>
<path d="M44.0598 66.2891C43.5249 66.2891 43.0883 65.8563 43.0883 65.3214C43.0883 64.7861 43.515 64.3538 44.0503 64.3538H44.0598C44.5951 64.3538 45.0275 64.7861 45.0275 65.3214C45.0275 65.8563 44.5951 66.2891 44.0598 66.2891Z" fill="#CCD1D9"/>
<path d="M44.0598 70.1599C43.5249 70.1599 43.0883 69.7271 43.0883 69.1923C43.0883 68.6569 43.515 68.2246 44.0503 68.2246H44.0598C44.5951 68.2246 45.0275 68.6569 45.0275 69.1923C45.0275 69.7271 44.5951 70.1599 44.0598 70.1599Z" fill="#CCD1D9"/>
<path d="M69.1913 63.3862H65.3206V59.5155C65.3206 58.9802 64.8883 58.5479 64.3529 58.5479C63.8181 58.5479 63.3853 58.9802 63.3853 59.5155V63.3862H59.5146C58.9797 63.3862 58.5469 63.8185 58.5469 64.3539C58.5469 64.8887 58.9797 65.3215 59.5146 65.3215H63.3853V69.1922C63.3853 69.7271 63.8181 70.1599 64.3529 70.1599C64.8883 70.1599 65.3206 69.7271 65.3206 69.1922V65.3215H69.1913C69.7266 65.3215 70.1589 64.8887 70.1589 64.3539C70.1589 63.8185 69.7266 63.3862 69.1913 63.3862Z" fill="white"/>
</g>
</g>
<defs>
<clipPath id="clip0_58_571">
<rect width="90" height="90" fill="white"/>
</clipPath>
<clipPath id="clip1_58_571">
<rect width="60" height="60" fill="white" transform="translate(15 15)"/>
</clipPath>
</defs>
</svg>
