<svg width="90" height="90" viewBox="0 0 90 90" fill="none" xmlns="http://www.w3.org/2000/svg">
<g clip-path="url(#clip0_72_199)">
<path d="M4.21288 16.9677C11.1619 5.15893 24.3977 2.27476 29.3815 1.1864C46.3632 -2.51404 71.4992 1.93737 83.6166 22.0503C94.2573 39.7036 88.3289 58.565 87.4711 61.1553C86.027 65.487 82.4222 75.8917 72.205 82.9334C56.2873 93.9042 32.0308 91.4444 23.7354 80.1146C19.8374 74.7925 22.9862 72.3437 18.4476 62.9402C12.378 50.3587 4.83178 50.6634 1.31383 40.5852C-2.66016 29.2009 3.57227 18.056 4.21288 16.9677Z" fill="white"/>
<path d="M74.0625 55.3125V58.125H37.1813C37.6871 57.2514 38.048 56.3016 38.25 55.3125H74.0625Z" fill="#8CC152"/>
<path d="M71.25 34.6875V49.6875C70.8805 49.687 70.5146 49.7594 70.1731 49.9006C69.8317 50.0417 69.5214 50.2489 69.2602 50.5102C68.9989 50.7714 68.7917 51.0817 68.6506 51.4231C68.5094 51.7646 68.437 52.1305 68.4375 52.5H38.4375V35.625C38.438 35.9945 38.3656 36.3604 38.2244 36.7019C38.0833 37.0433 37.8761 37.3536 37.6148 37.6148C37.3536 37.8761 37.0433 38.0833 36.7019 38.2244C36.3604 38.3656 35.9945 38.438 35.625 38.4375H31.875C31.2294 38.4384 30.5907 38.3042 30 38.0438V34.6875C30.3695 34.688 30.7354 34.6156 31.0769 34.4744C31.4183 34.3332 31.7286 34.1261 31.9898 33.8648C32.2511 33.6036 32.4582 33.2933 32.5994 32.9519C32.7406 32.6104 32.813 32.2445 32.8125 31.875H68.4375C68.437 32.2445 68.5094 32.6104 68.6506 32.9519C68.7917 33.2933 68.9989 33.6036 69.2602 33.8648C69.5214 34.1261 69.8317 34.3332 70.1731 34.4744C70.5146 34.6156 70.8805 34.688 71.25 34.6875ZM56.25 42.1875C56.25 41.075 55.9201 39.9874 55.302 39.0624C54.6839 38.1374 53.8054 37.4164 52.7776 36.9907C51.7498 36.5649 50.6188 36.4535 49.5276 36.6706C48.4365 36.8876 47.4342 37.4234 46.6475 38.21C45.8609 38.9967 45.3251 39.999 45.1081 41.0901C44.891 42.1813 45.0024 43.3123 45.4282 44.3401C45.8539 45.3679 46.5749 46.2464 47.4999 46.8645C48.4249 47.4826 49.5125 47.8125 50.625 47.8125C52.1165 47.8113 53.5465 47.2183 54.6012 46.1637C55.6558 45.109 56.2488 43.679 56.25 42.1875Z" fill="#8CC152"/>
<path d="M50.625 47.8125C53.7316 47.8125 56.25 45.2941 56.25 42.1875C56.25 39.0809 53.7316 36.5625 50.625 36.5625C47.5184 36.5625 45 39.0809 45 42.1875C45 45.2941 47.5184 47.8125 50.625 47.8125Z" fill="#A0D468"/>
<path d="M37.1812 58.125H74.0625V60.9375H34.6875C35.7015 60.1794 36.55 59.2224 37.1812 58.125Z" fill="#8CC152"/>
<path d="M74.0625 29.0625V55.3125H38.25C38.375 54.6953 38.4378 54.0672 38.4375 53.4375V52.5H68.4375C68.437 52.1305 68.5094 51.7646 68.6506 51.4231C68.7917 51.0817 68.9989 50.7714 69.2602 50.5102C69.5214 50.2489 69.8317 50.0417 70.1731 49.9006C70.5146 49.7594 70.8805 49.687 71.25 49.6875V34.6875C70.8805 34.688 70.5146 34.6156 70.1731 34.4744C69.8317 34.3333 69.5214 34.1261 69.2602 33.8648C68.9989 33.6036 68.7917 33.2933 68.6506 32.9519C68.5094 32.6104 68.437 32.2445 68.4375 31.875H32.8125C32.813 32.2445 32.7406 32.6104 32.5994 32.9519C32.4583 33.2933 32.2511 33.6036 31.9898 33.8648C31.7286 34.1261 31.4183 34.3333 31.0769 34.4744C30.7354 34.6156 30.3695 34.688 30 34.6875V38.0438C29.1647 37.6787 28.4539 37.0782 27.9544 36.3157C27.4549 35.5531 27.1884 34.6616 27.1875 33.75V29.0625H74.0625Z" fill="#A0D468"/>
<path d="M38.4375 53.4375C38.4402 55.0835 38.0067 56.7009 37.1813 58.125C36.3585 59.5502 35.1751 60.7337 33.7499 61.5566C32.3248 62.3794 30.7081 62.8126 29.0625 62.8125C28.816 62.8116 28.5718 62.8596 28.344 62.9535C28.1161 63.0474 27.9091 63.1855 27.7348 63.3598C27.5605 63.534 27.4224 63.7411 27.3285 63.969C27.2346 64.1968 27.1866 64.441 27.1875 64.6875C27.1884 64.441 27.1404 64.1968 27.0465 63.969C26.9526 63.7411 26.8145 63.534 26.6402 63.3598C26.466 63.1855 26.2589 63.0474 26.031 62.9535C25.8032 62.8596 25.559 62.8116 25.3125 62.8125C24.081 62.8136 22.8615 62.5719 21.7235 62.1012C20.5856 61.6304 19.5516 60.9399 18.6809 60.0691C17.8101 59.1984 17.1196 58.1644 16.6488 57.0265C16.1781 55.8886 15.9364 54.669 15.9375 53.4375V35.625C15.937 35.9945 16.0094 36.3604 16.1506 36.7019C16.2918 37.0433 16.4989 37.3536 16.7602 37.6148C17.0214 37.8761 17.3317 38.0833 17.6731 38.2244C18.0146 38.3656 18.3805 38.438 18.75 38.4375H22.5C23.7431 38.437 24.9351 37.943 25.8141 37.0641C26.693 36.1851 27.1871 34.9931 27.1875 33.75C27.1884 34.6616 27.4549 35.5531 27.9544 36.3157C28.4539 37.0782 29.1647 37.6787 30 38.0438C30.5907 38.3042 31.2294 38.4384 31.875 38.4375H35.625C35.9945 38.438 36.3604 38.3656 36.7019 38.2244C37.0433 38.0833 37.3536 37.8761 37.6148 37.6148C37.8761 37.3536 38.0833 37.0433 38.2244 36.7019C38.3656 36.3604 38.438 35.9945 38.4375 35.625V53.4375Z" fill="#FFCE54"/>
<path d="M29.0625 62.8125C30.294 62.8139 31.5137 62.5723 32.6518 62.1016C33.7898 61.631 34.8239 60.9405 35.6947 60.0697C36.5655 59.1988 37.256 58.1648 37.7267 57.0268C38.1973 55.8887 38.4389 54.669 38.4375 53.4375V35.625C38.438 35.9945 38.3656 36.3604 38.2244 36.7019C38.0833 37.0433 37.8761 37.3536 37.6148 37.6148C37.3536 37.8761 37.0433 38.0833 36.7019 38.2244C36.3604 38.3656 35.9945 38.438 35.625 38.4375H31.875C31.2294 38.4384 30.5907 38.3043 30 38.0438C29.1647 37.6787 28.4539 37.0782 27.9544 36.3157C27.4549 35.5531 27.1884 34.6616 27.1875 33.75V64.6875C27.1867 64.441 27.2346 64.1968 27.3285 63.969C27.4224 63.7411 27.5605 63.534 27.7348 63.3598C27.9091 63.1855 28.1161 63.0474 28.344 62.9535C28.5718 62.8596 28.816 62.8116 29.0625 62.8125Z" fill="#F6BB42"/>
</g>
<defs>
<clipPath id="clip0_72_199">
<rect width="90" height="90" fill="white"/>
</clipPath>
</defs>
</svg>
