<svg width="90" height="90" viewBox="0 0 90 90" fill="none" xmlns="http://www.w3.org/2000/svg">
<g clip-path="url(#clip0_68_146)">
<path d="M52.3236 80.2733C65.5049 75.8777 69.4571 81.2416 76.6015 77.2378C87.5896 71.0688 91.9978 50.7883 89.1748 36.0567C85.7003 18.0175 70.2932 1.66475 49.5874 0.174178C27.5244 -1.41431 9.10967 7.89903 3.06189 31.0627C-1.65038 49.1128 -2.39956 75.3011 11.5418 84.8103C13.051 85.8439 21.3138 91.2404 31.7047 89.739C40.2932 88.4986 41.8784 83.7549 52.3236 80.2733Z" fill="white"/>
<path d="M15.9375 69.375C15.9375 69.8906 16.3594 70.3125 16.875 70.3125H73.125C73.6406 70.3125 74.0625 69.8906 74.0625 69.375V23.4375H15.9375V69.375Z" fill="#E6E9ED"/>
<path d="M74.0625 21.5625V23.4375H15.9375V21.5625C15.9375 20.5228 16.7719 19.6875 17.8125 19.6875H72.1875C73.2281 19.6875 74.0625 20.5228 74.0625 21.5625Z" fill="#CCD1D9"/>
<path d="M18.7556 20.623H18.7462C18.2287 20.623 17.8134 21.0421 17.8134 21.5605C17.8134 22.078 18.2381 22.498 18.7556 22.498C19.274 22.498 19.6931 22.078 19.6931 21.5605C19.6931 21.0421 19.274 20.623 18.7556 20.623Z" fill="#E6E9ED"/>
<path d="M21.5672 20.623H21.5578C21.0394 20.623 20.625 21.0421 20.625 21.5605C20.625 22.078 21.0488 22.498 21.5672 22.498C22.0856 22.498 22.5047 22.078 22.5047 21.5605C22.5047 21.0421 22.0856 20.623 21.5672 20.623Z" fill="#E6E9ED"/>
<path d="M24.3825 20.623H24.3731C23.8556 20.623 23.4403 21.0421 23.4403 21.5605C23.4403 22.078 23.865 22.498 24.3825 22.498C24.9009 22.498 25.32 22.078 25.32 21.5605C25.32 21.0421 24.9009 20.623 24.3825 20.623Z" fill="#E6E9ED"/>
<path d="M45 26.2434C52.2469 26.2434 58.125 32.1225 58.125 39.3684C58.125 46.6247 52.2469 52.4934 45 52.4934C37.7531 52.4934 31.875 46.6247 31.875 39.3684C31.875 32.1234 37.7531 26.2434 45 26.2434Z" fill="#A0D468"/>
<path d="M52.9735 62.8171H37.0228C35.73 62.8171 34.6791 63.8681 34.6791 65.1609C34.6791 66.4537 35.73 67.5046 37.0228 67.5046H52.9735C54.2663 67.5046 55.3172 66.4537 55.3172 65.1609C55.3172 63.8681 54.2663 62.8171 52.9735 62.8171Z" fill="#004873"/>
<path d="M66.5672 57.1941H23.4291C22.9106 57.1941 22.4916 56.775 22.4916 56.2566C22.4916 55.7382 22.9106 55.3191 23.4291 55.3191H66.5672C67.0856 55.3191 67.5047 55.7382 67.5047 56.2566C67.5047 56.775 67.0856 57.1941 66.5672 57.1941Z" fill="#CCD1D9"/>
<path d="M58.1278 60.0076H31.8684C31.35 60.0076 30.9309 59.5885 30.9309 59.0701C30.9309 58.5516 31.35 58.1326 31.8684 58.1326H58.1278C58.6462 58.1326 59.0653 58.5516 59.0653 59.0701C59.0653 59.5885 58.6462 60.0076 58.1278 60.0076Z" fill="#CCD1D9"/>
<path d="M43.1241 44.9962C42.8841 44.9962 42.6441 44.9043 42.4613 44.7215L38.7141 40.9743C38.3475 40.6078 38.3475 40.0153 38.7141 39.6487C39.0806 39.2821 39.6731 39.2821 40.0397 39.6487L43.7869 43.3959C44.1534 43.7624 44.1534 44.3549 43.7869 44.7215C43.6041 44.9043 43.3641 44.9962 43.1241 44.9962Z" fill="white"/>
<path d="M43.1241 44.9964C42.8841 44.9964 42.6441 44.9045 42.4613 44.7217C42.0947 44.3551 42.0947 43.7626 42.4613 43.396L50.8978 34.9595C51.2644 34.5929 51.8569 34.5929 52.2235 34.9595C52.59 35.3261 52.59 35.9186 52.2235 36.2851L43.7869 44.7217C43.6041 44.9045 43.3641 44.9964 43.1241 44.9964Z" fill="white"/>
<path d="M52.9735 61.8787H37.0228C35.73 61.8787 34.6791 62.9296 34.6791 64.2224C34.6791 65.5152 35.73 66.5662 37.0228 66.5662H52.9735C54.2663 66.5662 55.3172 65.5152 55.3172 64.2224C55.3172 62.9296 54.2663 61.8787 52.9735 61.8787Z" fill="#005D95"/>
</g>
<defs>
<clipPath id="clip0_68_146">
<rect width="90" height="90" fill="white"/>
</clipPath>
</defs>
</svg>
