<svg width="40" height="40" viewBox="0 0 40 40" fill="none" xmlns="http://www.w3.org/2000/svg">
<path d="M36.8421 0H3.15789C2.32037 0 1.51715 0.332706 0.924926 0.924926C0.332706 1.51715 0 2.32037 0 3.15789L0 36.8421C0 37.6796 0.332706 38.4829 0.924926 39.0751C1.51715 39.6673 2.32037 40 3.15789 40H36.8421C37.6796 40 38.4829 39.6673 39.0751 39.0751C39.6673 38.4829 40 37.6796 40 36.8421V3.15789C40 2.32037 39.6673 1.51715 39.0751 0.924926C38.4829 0.332706 37.6796 0 36.8421 0V0ZM25.6895 13.0158C25.6895 13.3921 25.5316 13.5421 25.1632 13.5421C24.4553 13.5421 23.7474 13.5421 23.0421 13.5711C22.3368 13.6 21.9526 13.9211 21.9526 14.6579C21.9368 15.4474 21.9526 16.2211 21.9526 17.0263H24.9816C25.4132 17.0263 25.5605 17.1737 25.5605 17.6079C25.5605 18.6605 25.5605 19.7184 25.5605 20.7816C25.5605 21.2105 25.4237 21.3447 24.9895 21.3474H21.9263V29.9105C21.9263 30.3684 21.7842 30.5132 21.3316 30.5132H18.0368C17.6395 30.5132 17.4842 30.3579 17.4842 29.9605V21.3605H14.8684C14.4579 21.3605 14.3105 21.2105 14.3105 20.7974C14.3105 19.7325 14.3105 18.6684 14.3105 17.6053C14.3105 17.1947 14.4658 17.0395 14.8711 17.0395H17.4842V14.7368C17.4532 13.7025 17.7014 12.679 18.2026 11.7737C18.7237 10.8598 19.5587 10.1659 20.5526 9.82105C21.1977 9.58636 21.8794 9.46872 22.5658 9.47368H25.1526C25.5237 9.47368 25.6789 9.63684 25.6789 10C25.6921 11.0132 25.6921 12.0158 25.6895 13.0158Z" fill="#005D95"/>
</svg>
