<svg width="40" height="40" viewBox="0 0 40 40" fill="none" xmlns="http://www.w3.org/2000/svg">
<path d="M36.8421 0H3.15789C2.32037 0 1.51715 0.332706 0.924926 0.924926C0.332706 1.51715 0 2.32037 0 3.15789L0 36.8421C0 37.6796 0.332706 38.4829 0.924926 39.0751C1.51715 39.6673 2.32037 40 3.15789 40H36.8421C37.6796 40 38.4829 39.6673 39.0751 39.0751C39.6673 38.4829 40 37.6796 40 36.8421V3.15789C40 2.32037 39.6673 1.51715 39.0751 0.924926C38.4829 0.332706 37.6796 0 36.8421 0V0ZM14.1842 30.5263H9.82105V16.4711H14.1842V30.5263ZM12 14.5526C11.4979 14.5547 11.0064 14.4079 10.5877 14.1307C10.169 13.8535 9.84184 13.4584 9.64764 12.9953C9.45343 12.5322 9.40088 12.022 9.49661 11.529C9.59234 11.0361 9.83207 10.5826 10.1855 10.2259C10.5389 9.86917 10.9901 9.62523 11.4822 9.52491C11.9742 9.42458 12.4849 9.47238 12.9498 9.66225C13.4146 9.85213 13.8128 10.1756 14.0938 10.5917C14.3749 11.0078 14.5263 11.4979 14.5289 12C14.5304 12.6733 14.2651 13.3198 13.7912 13.7982C13.3173 14.2765 12.6733 14.5478 12 14.5526ZM30.5263 30.5263H26.1658V23.6842C26.1658 22.0526 26.1342 19.9605 23.8974 19.9605C21.6605 19.9605 21.2658 21.7342 21.2658 23.5658V30.5263H16.9211V16.4711H21.1079V18.3868H21.1684C21.75 17.2816 23.1737 16.1184 25.2974 16.1184C29.7132 16.1184 30.5263 19.0132 30.5263 22.8053V30.5263Z" fill="#005D95"/>
</svg>
