<svg width="120" height="120" viewBox="0 0 120 120" fill="none" xmlns="http://www.w3.org/2000/svg">
<g clip-path="url(#clip0_54_436)">
<path d="M69.7648 107.031C87.3399 101.17 92.6095 108.322 102.135 102.984C116.786 94.7583 122.664 67.7176 118.9 48.0755C114.267 24.0233 93.7242 2.21958 66.1166 0.232156C36.6993 -1.88583 12.1462 10.532 4.08252 41.4169C-2.2005 65.4836 -3.19942 100.401 15.3891 113.08C17.4014 114.458 28.4184 121.654 42.2729 119.652C53.7242 117.998 55.8379 111.673 69.7648 107.031Z" fill="#EAF4FB"/>
<path d="M17.1429 110C16.7065 110 16.3492 109.643 16.3492 109.206V10.7937C16.3492 10.3573 16.7065 10 17.1429 10H21.9048C22.3411 10 22.6984 10.3573 22.6984 10.7937V109.206C22.6984 109.643 22.3411 110 21.9048 110H17.1429Z" fill="#F2C397"/>
<path d="M110 23.8795C110 24.3159 109.643 24.6732 109.206 24.6732H10.7937C10.3573 24.6732 10 24.3159 10 23.8795V19.1176C10 18.6813 10.3573 18.324 10.7937 18.324H109.206C109.643 18.324 110 18.6813 110 19.1176V23.8795Z" fill="#FFD2A6"/>
<path d="M38.5714 24.6732H44.9206V29.4351H38.5714V24.6732Z" fill="#E5A678"/>
<path d="M87.7778 24.6732H94.127V29.4351H87.7778V24.6732Z" fill="#E5A678"/>
<path d="M19.5711 22.2923C19.1332 22.2923 18.7697 21.9365 18.7697 21.4986C18.7697 21.0599 19.1177 20.705 19.554 20.705H19.5711C20.0082 20.705 20.3647 21.0599 20.3647 21.4986C20.3647 21.9365 20.0098 22.2923 19.5711 22.2923Z" fill="#656D78"/>
<path d="M90.9524 30.2288C90.5145 30.2288 90.1587 29.8731 90.1587 29.4352V27.8478C90.1587 27.4092 90.5145 27.0542 90.9524 27.0542C91.3903 27.0542 91.746 27.4092 91.746 27.8478V29.4352C91.746 29.8731 91.3903 30.2288 90.9524 30.2288Z" fill="#F6BB42"/>
<path d="M41.746 30.2288C41.3081 30.2288 40.9524 29.8731 40.9524 29.4352V27.8478C40.9524 27.4092 41.3081 27.0542 41.746 27.0542C42.1839 27.0542 42.5397 27.4092 42.5397 27.8478V29.4352C42.5397 29.8731 42.1839 30.2288 41.746 30.2288Z" fill="#F6BB42"/>
<path d="M18.7302 80.2288V102.451C18.7302 102.889 19.0859 103.245 19.5238 103.245C19.9617 103.245 20.3175 102.889 20.3175 102.451V80.2288C20.3175 77.089 17.7203 76.2605 16.3492 76.2605V77.8478C16.7553 77.854 18.7302 77.9951 18.7302 80.2288Z" fill="#E8B489"/>
<path d="M19.5238 52.451C19.0859 52.451 18.7302 52.0952 18.7302 51.6573V32.6097C18.7302 32.171 19.0859 31.816 19.5238 31.816C19.9617 31.816 20.3175 32.171 20.3175 32.6097V51.6573C20.3175 52.0968 19.9617 52.451 19.5238 52.451Z" fill="#E8B489"/>
<path d="M81.4286 22.2923H49.6825C49.2446 22.2923 48.8889 21.9365 48.8889 21.4986C48.8889 21.0599 49.2446 20.705 49.6825 20.705H81.4286C81.8665 20.705 82.2222 21.0599 82.2222 21.4986C82.2222 21.9365 81.8665 22.2923 81.4286 22.2923Z" fill="#F2C397"/>
<path d="M102.06 81.8145C102.06 82.6873 101.346 83.4018 100.473 83.4018H32.2191C31.3464 83.4018 30.6318 82.6873 30.6318 81.8145V31.0209C30.6318 30.1474 31.3464 29.4336 32.2191 29.4336H100.473C101.346 29.4336 102.06 30.1474 102.06 31.0209V81.8145Z" fill="#005D95"/>
<path d="M98.8858 77.0526V35.7828C97.1334 35.7828 95.7112 34.3621 95.7112 32.6082H36.981C36.981 34.3621 35.5604 35.7828 33.8064 35.7828V77.0526C35.5604 77.0526 36.981 78.4748 36.981 80.2272H95.7112C95.7112 78.4764 97.135 77.0526 98.8858 77.0526Z" fill="#F5F7FA"/>
<path d="M60.7906 48.7207L52.8541 40.5463L44.9175 48.4797V59.5939H60.7906V48.7207Z" fill="#E5A678"/>
<path d="M52.854 38.959L41.7429 50.0701L43.3318 51.6574L52.854 42.1336L62.3763 51.6574L63.9651 50.0701L52.854 38.959Z" fill="#656D78"/>
<path d="M52.854 55.6256C52.4161 55.6256 52.0604 55.979 52.0604 56.4193V59.5939H53.6477V56.4193C53.6477 55.9775 53.2919 55.6256 52.854 55.6256Z" fill="#656D78"/>
<path d="M90.9493 44.5145H70.3144C69.8765 44.5145 69.5207 44.1588 69.5207 43.7209C69.5207 43.2822 69.8765 42.9272 70.3144 42.9272H90.9493C91.3872 42.9272 91.7429 43.2822 91.7429 43.7209C91.7429 44.1588 91.3872 44.5145 90.9493 44.5145Z" fill="#CCD1D9"/>
<path d="M90.9493 49.2765H70.3144C69.8765 49.2765 69.5207 48.9208 69.5207 48.4829C69.5207 48.0442 69.8765 47.6892 70.3144 47.6892H90.9493C91.3872 47.6892 91.7429 48.0442 91.7429 48.4829C91.7429 48.9208 91.3872 49.2765 90.9493 49.2765Z" fill="#CCD1D9"/>
<path d="M90.9493 54.0383H70.3144C69.8765 54.0383 69.5207 53.6826 69.5207 53.2447C69.5207 52.806 69.8765 52.451 70.3144 52.451H90.9493C91.3872 52.451 91.7429 52.806 91.7429 53.2447C91.7429 53.6826 91.3872 54.0383 90.9493 54.0383Z" fill="#CCD1D9"/>
<path d="M79.8382 58.8003H70.3144C69.8765 58.8003 69.5207 58.4446 69.5207 58.0067C69.5207 57.568 69.8765 57.213 70.3144 57.213H79.8382C80.2761 57.213 80.6318 57.568 80.6318 58.0067C80.6318 58.4446 80.2761 58.8003 79.8382 58.8003Z" fill="#CCD1D9"/>
<path d="M49.6795 74.6717C49.2416 74.6717 48.8858 74.316 48.8858 73.8781V69.1162C48.8858 68.6775 49.2416 68.3225 49.6795 68.3225C50.1174 68.3225 50.4731 68.6775 50.4731 69.1162V73.8781C50.4731 74.3175 50.1174 74.6717 49.6795 74.6717Z" fill="#CCD1D9"/>
<path d="M54.4413 74.6717C53.1284 74.6717 52.0604 73.6029 52.0604 72.2908V70.7035C52.0604 69.3905 53.1284 68.3225 54.4413 68.3225C55.7543 68.3225 56.8223 69.3905 56.8223 70.7035V72.2908C56.8223 73.6029 55.7543 74.6717 54.4413 74.6717ZM54.4413 69.9098C54.005 69.9098 53.6477 70.2663 53.6477 70.7035V72.2908C53.6477 72.7271 54.005 73.0844 54.4413 73.0844C54.8777 73.0844 55.235 72.7271 55.235 72.2908V70.7035C55.235 70.2663 54.8777 69.9098 54.4413 69.9098Z" fill="#CCD1D9"/>
<path d="M60.7906 74.6717C59.4776 74.6717 58.4096 73.6029 58.4096 72.2908V70.7035C58.4096 69.3905 59.4776 68.3225 60.7906 68.3225C62.1035 68.3225 63.1715 69.3905 63.1715 70.7035V72.2908C63.1715 73.6029 62.1035 74.6717 60.7906 74.6717ZM60.7906 69.9098C60.3542 69.9098 59.9969 70.2663 59.9969 70.7035V72.2908C59.9969 72.7271 60.3542 73.0844 60.7906 73.0844C61.2269 73.0844 61.5842 72.7271 61.5842 72.2908V70.7035C61.5842 70.2663 61.2269 69.9098 60.7906 69.9098Z" fill="#CCD1D9"/>
<path d="M68.7271 74.6717C67.4141 74.6717 66.3461 73.6029 66.3461 72.2908V70.7035C66.3461 69.3905 67.4141 68.3225 68.7271 68.3225C70.04 68.3225 71.108 69.3905 71.108 70.7035V72.2908C71.108 73.6029 70.04 74.6717 68.7271 74.6717ZM68.7271 69.9098C68.2907 69.9098 67.9334 70.2663 67.9334 70.7035V72.2908C67.9334 72.7271 68.2907 73.0844 68.7271 73.0844C69.1634 73.0844 69.5207 72.7271 69.5207 72.2908V70.7035C69.5207 70.2663 69.1634 69.9098 68.7271 69.9098Z" fill="#CCD1D9"/>
<path d="M75.0763 74.6717C73.7633 74.6717 72.6953 73.6029 72.6953 72.2908V70.7035C72.6953 69.3905 73.7633 68.3225 75.0763 68.3225C76.3892 68.3225 77.4572 69.3905 77.4572 70.7035V72.2908C77.4572 73.6029 76.3892 74.6717 75.0763 74.6717ZM75.0763 69.9098C74.6399 69.9098 74.2826 70.2663 74.2826 70.7035V72.2908C74.2826 72.7271 74.6399 73.0844 75.0763 73.0844C75.5126 73.0844 75.8699 72.7271 75.8699 72.2908V70.7035C75.8699 70.2663 75.5126 69.9098 75.0763 69.9098Z" fill="#CCD1D9"/>
<path d="M81.4255 74.6717C80.1125 74.6717 79.0445 73.6029 79.0445 72.2908V70.7035C79.0445 69.3905 80.1125 68.3225 81.4255 68.3225C82.7384 68.3225 83.8064 69.3905 83.8064 70.7035V72.2908C83.8064 73.6029 82.7384 74.6717 81.4255 74.6717ZM81.4255 69.9098C80.9891 69.9098 80.6318 70.2663 80.6318 70.7035V72.2908C80.6318 72.7271 80.9891 73.0844 81.4255 73.0844C81.8618 73.0844 82.2191 72.7271 82.2191 72.2908V70.7035C82.2191 70.2663 81.8618 69.9098 81.4255 69.9098Z" fill="#CCD1D9"/>
</g>
<defs>
<clipPath id="clip0_54_436">
<rect width="120" height="120" fill="white"/>
</clipPath>
</defs>
</svg>
