<svg width="120" height="120" viewBox="0 0 120 120" fill="none" xmlns="http://www.w3.org/2000/svg">
<g clip-path="url(#clip0_54_514)">
<path d="M47.5807 3.56525C44.9638 4.37684 33.3687 8.15945 21.7879 18.2174C18.9831 20.6522 7.64818 30.4928 2.80481 43.7102C-5.43615 66.2174 4.42409 100.464 32.8482 114.232C65.9422 130.261 107.754 110.536 117.296 84.1305C121.533 72.4203 121.72 53 111.065 40.1884C102.492 29.8696 87.8313 24.971 88.3952 15.2174C88.6699 10.5218 92.212 9.21742 91.2289 6.2609C88.9012 -0.739099 66.0578 -2.20287 47.5807 3.56525Z" fill="#EAF4FB"/>
<path d="M72.9891 78.078L69.3358 76.1564C64.4853 80.3141 59.1465 82.8024 54.8788 82.8024C50.6112 82.8024 45.2724 80.3141 40.4218 76.1564L36.7686 78.078C21.1105 89.2731 10 85.952 10 100.125V109.572H99.7576C99.7576 109.572 99.7576 106.424 99.7576 100.125C99.7576 85.952 88.6471 89.2731 72.9891 78.078Z" fill="#005D95"/>
<path d="M54.8819 79.7419L38.3464 70.2931V75.019L42.0743 88.441L54.8803 82.8931L67.7702 88.2841L71.4158 75.019V70.2931L54.8819 79.7419Z" fill="#F5F7FA"/>
<path d="M54.8788 82.7455L67.5933 88.2112L60.9496 109.572H48.8095L42.2127 88.3819L54.8788 82.7455Z" fill="#E6E9ED"/>
<path d="M57.2395 90.6195H52.5181L48.3666 85.7152L54.8788 82.7455L61.3918 85.616L57.2395 90.6195Z" fill="#D09162"/>
<path d="M60.3906 109.572H49.367V98.4935L52.5181 90.6195H57.2395L60.3906 98.4935V109.572Z" fill="#E5A678"/>
<path d="M64.3276 109.572H60.9496L71.4158 75.019L80.0995 82.4509L71.4127 93.769L74.5639 96.9171L64.3276 109.572Z" fill="#004873"/>
<path d="M45.43 109.572H48.8095L38.3419 75.019L29.6581 82.4509L38.3449 93.769L35.1938 96.9171L45.43 109.572Z" fill="#004873"/>
<path d="M82.2802 44.9502V48.0998C82.2802 66.1308 65.2096 81.1707 54.7212 81.1707C54.0599 81.1707 53.3824 81.1076 52.6881 80.9976C42.1681 79.2806 27.1621 64.9989 27.1621 48.0998V44.9502L33.7451 33.6428C33.7451 33.6428 44.5811 38.1642 54.5005 38.1642C64.4076 38.1642 75.3666 33.6428 75.3666 33.6428L82.2802 44.9502Z" fill="#F0C7B7"/>
<path d="M69.2581 22.3216C69.2581 22.3216 86.1719 19.9755 82.2818 44.9501L75.3666 33.6428C75.3666 33.6428 64.4076 38.1642 54.5005 38.1642C44.5811 38.1642 33.7451 33.6428 33.7451 33.6428L27.1621 44.9501C23.2251 2.95026 73.7918 11.0142 73.7918 11.0142C66.3923 14.0539 69.2581 22.3216 69.2581 22.3216Z" fill="#965353"/>
<path d="M99.7638 93.0332C99.6884 93.0332 99.6092 93.0224 99.5339 93.0001C99.1179 92.8725 98.8849 92.4334 99.011 92.0159L103.342 77.8396C103.469 77.4244 103.904 77.1891 104.326 77.3167C104.742 77.4444 104.975 77.8842 104.849 78.301L100.518 92.4773C100.413 92.8148 100.101 93.0332 99.7638 93.0332Z" fill="#EDAB37"/>
<path d="M109.213 93.0332C108.876 93.0332 108.564 92.8148 108.458 92.4757L104.128 78.2994C104.001 77.8827 104.234 77.4428 104.65 77.3152C105.07 77.1891 105.507 77.4244 105.635 77.8381L109.965 92.0143C110.092 92.4319 109.859 92.8709 109.443 92.9986C109.367 93.0224 109.288 93.0332 109.213 93.0332Z" fill="#EDAB37"/>
<path d="M109.213 91.4568H99.7638C99.3293 91.4568 98.9764 91.8097 98.9764 92.2442C98.9764 95.2838 101.449 97.756 104.488 97.756C107.528 97.756 110 95.2838 110 92.2442C110 91.8097 109.647 91.4568 109.213 91.4568Z" fill="#FFCE54"/>
<path d="M71.8064 93.0332C71.731 93.0332 71.6518 93.0224 71.5765 93.0001C71.1605 92.8725 70.9275 92.4334 71.0536 92.0159L75.3843 77.8396C75.5119 77.4244 75.9464 77.1891 76.3685 77.3167C76.7845 77.4444 77.0175 77.8842 76.8914 78.301L72.5607 92.4773C72.4554 92.8148 72.1432 93.0332 71.8064 93.0332Z" fill="#EDAB37"/>
<path d="M81.2552 93.0332C80.9184 93.0332 80.6062 92.8148 80.5009 92.4757L76.1702 78.2994C76.0441 77.8827 76.277 77.4428 76.693 77.3152C77.1121 77.1891 77.5496 77.4244 77.6773 77.8381L82.008 92.0143C82.1341 92.4319 81.9011 92.8709 81.4851 92.9986C81.4098 93.0224 81.3306 93.0332 81.2552 93.0332Z" fill="#EDAB37"/>
<path d="M88.7386 78.86H76.1371C75.7027 78.86 75.3497 78.5078 75.3497 78.0726C75.3497 77.6381 75.7027 77.2852 76.1371 77.2852H88.7386C89.1731 77.2852 89.526 77.6381 89.526 78.0726C89.526 78.5078 89.1731 78.86 88.7386 78.86Z" fill="#F6BB42"/>
<path d="M104.882 78.86H91.8852C91.4507 78.86 91.0978 78.5078 91.0978 78.0726C91.0978 77.6381 91.4507 77.2852 91.8852 77.2852H104.882C105.316 77.2852 105.669 77.6381 105.669 78.0726C105.669 78.5078 105.316 78.86 104.882 78.86Z" fill="#F6BB42"/>
<path d="M81.2552 91.4568H71.8064C71.3719 91.4568 71.019 91.8097 71.019 92.2442C71.019 95.2838 73.4911 97.756 76.5308 97.756C79.5697 97.756 82.0426 95.2838 82.0426 92.2442C82.0426 91.8097 81.6897 91.4568 81.2552 91.4568Z" fill="#FFCE54"/>
<path d="M90.3119 107.209C89.8774 107.209 89.5245 106.857 89.5245 106.422V74.9168C89.5245 74.4823 89.8774 74.1294 90.3119 74.1294C90.7463 74.1294 91.0993 74.4823 91.0993 74.9168V106.422C91.0993 106.857 90.7463 107.209 90.3119 107.209Z" fill="#F6BB42"/>
<path d="M90.3119 75.7103C91.6091 75.7103 92.6741 76.7753 92.6741 78.0725C92.6741 79.3705 91.6091 80.4347 90.3119 80.4347C89.0139 80.4347 87.9496 79.3705 87.9496 78.0725C87.9496 76.7753 89.0139 75.7103 90.3119 75.7103Z" fill="#FFCE54"/>
<path d="M99.7607 107.997V109.572H80.863V107.997C80.863 107.131 81.572 106.422 82.4378 106.422H98.1859C99.0517 106.422 99.7607 107.131 99.7607 107.997Z" fill="#FFCE54"/>
</g>
<defs>
<clipPath id="clip0_54_514">
<rect width="120" height="120" fill="white"/>
</clipPath>
</defs>
</svg>
