<svg width="120" height="120" viewBox="0 0 120 120" fill="none" xmlns="http://www.w3.org/2000/svg">
<g clip-path="url(#clip0_53_375)">
<path d="M29.0603 30.3005C41.6097 17.6705 38.0097 9.76218 46.5976 3.91064C59.8121 -5.08393 84.4772 2.65053 99.0362 15.0344C116.863 30.1991 126.058 57.8781 115.576 82.9209C104.415 109.6 75.0651 123.433 48.882 119.261C25.4892 115.539 2.50126 97.1008 0.202464 74.9982C-0.0433187 72.6083 -1.15657 59.6451 6.57837 48.4779C12.9687 39.2516 19.0989 40.3234 29.0603 30.3005Z" fill="#EAF4FB"/>
<path d="M24.0594 102.187V106.873H11.5625V61.5609H24.0594V66.25V102.187Z" fill="#005D95"/>
<path d="M70.9375 77.1875L101.125 72.5953C101.469 72.5328 101.828 72.5 102.188 72.5C105.641 72.5 108.438 75.2969 108.438 78.75C108.438 81.0625 107.188 83.0797 105.312 84.1578L63.125 106.875L27.1875 102.188V66.25H41.25L65.7656 71.0328C68.7031 71.5328 70.9375 74.0953 70.9375 77.1875Z" fill="#EAC6BB"/>
<path d="M16.2921 102.188C15.4296 102.188 14.7234 101.489 14.7234 100.625C14.7234 99.7609 15.414 99.0625 16.2765 99.0625H16.2921C17.1562 99.0625 17.8546 99.7609 17.8546 100.625C17.8546 101.489 17.1562 102.188 16.2921 102.188Z" fill="#E5A678"/>
<path d="M74.0219 76.7188L70.9375 77.1875C70.9375 80.6391 68.1391 83.4375 64.6875 83.4375C64.511 83.4375 64.3344 83.4234 64.161 83.4094C64.1579 83.4078 64.1563 83.4062 64.1532 83.4062L44.4969 81.8781C43.6422 81.8234 42.886 82.4563 42.8172 83.3156C42.7516 84.1766 43.3938 84.9266 44.2532 84.9937L63.761 86.5094V86.5156C64.0688 86.5469 64.3813 86.5625 64.6875 86.5625C69.8579 86.5625 74.0625 82.3578 74.0625 77.1875C74.0625 77.0266 74.0297 76.8766 74.0219 76.7188Z" fill="#D3B1A9"/>
<path d="M24.0625 64.6875H27.1891V103.75H24.0625V64.6875Z" fill="#E6E9ED"/>
<path d="M66.25 36.5781C61.9375 36.5781 58.4375 33.0781 58.4375 28.7656C58.4375 24.4375 61.9375 13.125 66.25 13.125C70.5625 13.125 74.0625 24.4375 74.0625 28.7656C74.0625 33.0781 70.5625 36.5781 66.25 36.5781Z" fill="#E5A678"/>
<path d="M74.0469 47.5156C75.7797 47.5156 77.1719 46.1109 77.1719 44.3906V76.2344L70.9375 77.1875C70.9375 74.0938 68.7031 71.5313 65.7656 71.0313L55.3125 68.9844V44.3906C55.3125 46.1109 56.7031 47.5156 58.4375 47.5156H74.0469Z" fill="#E6E9ED"/>
<path d="M66.25 41.2656H74.0469C75.7797 41.2656 77.1719 42.6578 77.1719 44.3906C77.1719 46.1109 75.7797 47.5156 74.0469 47.5156H58.4375C56.7031 47.5156 55.3125 46.1109 55.3125 44.3906C55.3125 42.6578 56.7031 41.2656 58.4375 41.2656H66.25Z" fill="#CCD1D9"/>
<path d="M66.25 27.1907C65.3859 27.1907 64.6875 27.8891 64.6875 28.7532V44.3844H67.8125V28.7532C67.8125 27.8891 67.1141 27.1907 66.25 27.1907Z" fill="#005D95"/>
<path d="M66.25 36.5782C66.7859 36.5782 67.3078 36.5235 67.8125 36.4204V28.7532C67.8125 27.8891 67.1141 27.1907 66.25 27.1907C65.3859 27.1907 64.6875 27.8891 64.6875 28.7532V36.4204C65.1922 36.5235 65.7141 36.5782 66.25 36.5782Z" fill="#D09162"/>
</g>
<defs>
<clipPath id="clip0_53_375">
<rect width="120" height="120" fill="white"/>
</clipPath>
</defs>
</svg>
