<svg width="120" height="120" viewBox="0 0 120 120" fill="none" xmlns="http://www.w3.org/2000/svg">
<g clip-path="url(#clip0_54_521)">
<path d="M1.37483 97.7745C4.877 106.314 13.068 110.359 18.2923 112.939C38.9146 123.117 80.3763 123.755 102.793 105.009C113.126 96.3827 124.602 75.984 118.09 45.4077C112.316 18.253 85.8032 2.36314 63.1259 0.260925C44.3271 -1.47884 19.7685 5.40772 11.0854 22.0369C5.62954 32.49 12.1853 35.81 7.71347 59.4998C3.84951 79.9855 -2.90881 87.336 1.37483 97.7745Z" fill="#EAF4FB"/>
<path d="M21.9875 49.6286C19.6909 49.6286 17.8235 47.7608 17.8235 45.4631C17.8235 43.1682 19.6911 41.3004 21.9875 41.3004C24.2839 41.3004 26.1515 43.1682 26.1515 45.4631C26.1515 47.761 24.2839 49.6286 21.9875 49.6286Z" fill="#434A54"/>
<path d="M21.9875 43.3818H96.9262V39.2191H21.9875C18.5375 39.2191 15.7419 42.0145 15.7419 45.4629V55.3536H19.906V51.3529C20.5575 51.5817 21.2565 51.71 21.9873 51.71C24.7063 51.71 27.0181 49.9706 27.8757 47.5474H21.9875C20.84 47.5474 19.9062 46.6136 19.9062 45.4631C19.9062 44.3156 20.84 43.3818 21.9875 43.3818Z" fill="#005D95"/>
<path d="M84.899 29.8535C88.8817 32.1531 90.2488 37.2448 87.9477 41.2274L52.5613 102.523C50.2617 106.506 45.17 107.87 41.1859 105.569L24.354 95.852L19.1477 52.1435L41.0745 14.1645C43.374 10.1819 48.4658 8.81776 52.4499 11.1173L84.899 29.8535Z" fill="#E5A678"/>
<path d="M101.818 42.0879C105.071 45.338 105.071 50.6115 101.818 53.8645L51.774 103.909C48.5223 107.162 43.2488 107.162 39.9973 103.909L18.3436 82.2565L18.9631 60.1724L63.546 15.5895C66.7961 12.3378 72.0696 12.3378 75.3226 15.5895L101.818 42.0879Z" fill="#F5F7FA"/>
<path d="M87.0964 27.3662L26.6535 87.8135L17.8203 78.9819L78.2645 18.5343L87.0964 27.3662Z" fill="#434A54"/>
<path d="M99.0135 105.837C99.0135 108.138 97.1488 110 94.8477 110H19.9061C17.6065 110 15.7421 108.139 15.7421 105.837V51.71C15.7421 49.4089 17.6067 47.5474 19.9061 47.5474H94.8477C97.1488 47.5474 99.0135 49.4089 99.0135 51.71V105.837Z" fill="#005D95"/>
<path d="M74.032 93.3462H101.095C102.245 93.3462 103.176 92.4156 103.176 91.2651V66.2835C103.176 65.1329 102.245 64.2024 101.095 64.2024H74.032C74.032 64.2024 65.7008 74.1785 65.7008 78.7744C65.7008 83.3704 74.032 93.3462 74.032 93.3462Z" fill="#004873"/>
<path d="M86.5227 78.7745C86.5227 81.0754 84.6582 82.9371 82.3573 82.9371C80.0591 82.9371 78.1945 81.0756 78.1945 78.7745C78.1945 76.4734 80.0591 74.6118 82.3573 74.6118C84.6582 74.6118 86.5227 76.4734 86.5227 78.7745Z" fill="#E5A678"/>
</g>
<defs>
<clipPath id="clip0_54_521">
<rect width="120" height="120" fill="white"/>
</clipPath>
</defs>
</svg>
