<svg width="500" height="500" viewBox="0 0 500 500" fill="none" xmlns="http://www.w3.org/2000/svg">
<path d="M120.982 126.009C173.227 73.4851 158.24 40.5975 193.993 16.2631C249.007 -21.1421 351.691 11.0227 412.303 62.5225C486.517 125.587 524.798 240.694 481.16 344.838C434.694 455.788 312.508 513.312 203.503 495.964C106.115 480.484 10.4129 403.807 0.842674 311.89C-0.180559 301.952 -4.8152 248.042 27.3865 201.602C53.9906 163.233 79.5113 167.691 120.982 126.009Z" fill="#78B7E5"/>
<path d="M447.695 196.663C447.394 196.663 447.093 196.543 446.972 196.241L367.882 77.2196L277.176 195.579C276.875 196 276.333 196.061 275.912 195.759C275.491 195.458 275.43 194.916 275.731 194.495L367.22 75.1114C367.401 74.8705 367.702 74.75 367.943 74.75C368.244 74.75 368.484 74.9307 368.665 75.1716L448.417 195.278C448.718 195.699 448.598 196.241 448.176 196.543C448.056 196.663 447.875 196.663 447.695 196.663Z" fill="#005D95"/>
<path d="M454.857 188.893C457.084 188.893 458.649 191.121 457.867 193.23C449.079 216.48 409.414 233.827 361.863 233.827C313.531 233.827 273.324 215.938 265.439 192.085C264.897 190.519 266.101 188.893 267.726 188.893H454.857Z" fill="#A3CEED"/>
<path d="M361.864 234.731C313.651 234.731 272.722 216.902 264.596 192.386C264.235 191.362 264.416 190.278 265.078 189.375C265.74 188.471 266.703 187.989 267.786 187.989H454.918C456.302 187.989 457.566 188.652 458.288 189.796C459.071 190.881 459.251 192.326 458.77 193.591C454.376 205.156 442.338 215.637 424.822 223.106C407.187 230.635 384.796 234.731 361.864 234.731ZM267.726 189.796C267.244 189.796 266.763 190.037 266.522 190.399C266.221 190.82 266.161 191.302 266.281 191.784C274.166 215.576 314.373 232.863 361.864 232.863C408.27 232.863 448.297 216.058 457.024 192.868C457.265 192.146 457.205 191.362 456.783 190.76C456.362 190.098 455.64 189.736 454.857 189.736H267.726V189.796Z" fill="#005D95"/>
<path d="M197.183 194.977C196.882 194.977 196.581 194.856 196.461 194.555L117.371 75.4729L26.6642 193.832C26.3633 194.254 25.8216 194.314 25.4003 194.013C24.9789 193.712 24.9187 193.17 25.2197 192.748L116.709 73.3647C116.889 73.1238 117.19 73.0033 117.431 73.0033C117.732 73.0033 117.973 73.184 118.153 73.4249L197.905 193.531C198.206 193.953 198.086 194.495 197.665 194.796C197.544 194.916 197.364 194.977 197.183 194.977Z" fill="#005D95"/>
<path d="M204.346 187.206C206.573 187.206 208.138 189.435 207.355 191.543C198.567 214.793 158.902 232.141 111.352 232.141C63.0191 232.141 22.8121 214.251 14.9272 190.399C14.3854 188.833 15.5892 187.206 17.2144 187.206H204.346Z" fill="#A3CEED"/>
<path d="M111.352 232.984C63.1395 232.984 22.2102 215.155 14.0845 190.64C13.7234 189.616 13.9039 188.532 14.566 187.628C15.2281 186.725 16.1912 186.243 17.2746 186.243H204.406C205.79 186.243 207.054 186.905 207.777 188.05C208.559 189.134 208.74 190.579 208.258 191.844C203.864 203.409 191.826 213.89 174.311 221.359C156.675 228.888 134.345 232.984 111.352 232.984ZM17.2144 188.11C16.7329 188.11 16.2514 188.351 16.0106 188.712C15.7096 189.134 15.6495 189.616 15.7698 190.098C23.6547 213.89 63.8618 231.237 111.352 231.237C157.759 231.237 197.785 214.432 206.513 191.242C206.753 190.519 206.693 189.736 206.272 189.134C205.85 188.471 205.128 188.11 204.346 188.11H17.2144Z" fill="#005D95"/>
<path d="M247.201 46.7415H236.788V398.687H247.201V46.7415Z" fill="#A3CEED"/>
<path d="M248.104 399.59H235.885V45.8379H248.104V399.59ZM237.691 397.783H246.298V47.6449H237.691V397.783Z" fill="#005D95"/>
<path d="M372.036 69.2688H111.954V78.1232H372.036V69.2688Z" fill="#A3CEED"/>
<path d="M372.999 79.0266H111.051V68.3652H372.938V79.0266H372.999ZM112.857 77.2196H371.133V70.1722H112.857V77.2196Z" fill="#005D95"/>
<path d="M367.401 84.8092C373.584 84.8092 378.596 79.7932 378.596 73.6057C378.596 67.4182 373.584 62.4022 367.401 62.4022C361.218 62.4022 356.206 67.4182 356.206 73.6057C356.206 79.7932 361.218 84.8092 367.401 84.8092Z" fill="#A3CEED"/>
<path d="M367.401 85.7126C360.72 85.7126 355.303 80.2916 355.303 73.6056C355.303 66.9197 360.72 61.4987 367.401 61.4987C374.082 61.4987 379.499 66.9197 379.499 73.6056C379.499 80.2916 374.022 85.7126 367.401 85.7126ZM367.401 63.3057C361.743 63.3057 357.108 67.9437 357.108 73.6056C357.108 79.2676 361.743 83.9056 367.401 83.9056C373.059 83.9056 377.693 79.2676 377.693 73.6056C377.693 67.9437 373.059 63.3057 367.401 63.3057Z" fill="#005D95"/>
<path d="M115.746 84.8092C121.929 84.8092 126.941 79.7932 126.941 73.6057C126.941 67.4182 121.929 62.4022 115.746 62.4022C109.563 62.4022 104.55 67.4182 104.55 73.6057C104.55 79.7932 109.563 84.8092 115.746 84.8092Z" fill="#A3CEED"/>
<path d="M115.746 85.7126C109.065 85.7126 103.648 80.2916 103.648 73.6056C103.648 66.9197 109.065 61.4987 115.746 61.4987C122.427 61.4987 127.844 66.9197 127.844 73.6056C127.844 80.2916 122.427 85.7126 115.746 85.7126ZM115.746 63.3057C110.088 63.3057 105.453 67.9437 105.453 73.6056C105.453 79.2676 110.088 83.9056 115.746 83.9056C121.404 83.9056 126.038 79.2676 126.038 73.6056C126.038 67.9437 121.404 63.3057 115.746 63.3057Z" fill="#005D95"/>
<path d="M244.059 50.2774C250.125 49.0814 254.073 43.1906 252.878 37.1201C251.683 31.0495 245.797 27.0979 239.73 28.294C233.664 29.49 229.715 35.3808 230.911 41.4513C232.106 47.5219 237.992 51.4735 244.059 50.2774Z" fill="#A3CEED"/>
<path d="M241.904 51.3794C235.223 51.3794 229.806 45.9583 229.806 39.2724C229.806 32.5864 235.223 27.1654 241.904 27.1654C248.586 27.1654 254.003 32.5864 254.003 39.2724C254.003 45.9583 248.586 51.3794 241.904 51.3794ZM241.904 28.9724C236.247 28.9724 231.612 33.6104 231.612 39.2724C231.612 44.9344 236.247 49.5724 241.904 49.5724C247.562 49.5724 252.197 44.9344 252.197 39.2724C252.197 33.6104 247.562 28.9724 241.904 28.9724Z" fill="#005D95"/>
<path d="M167.569 412.3H315.517C317.624 412.3 318.406 408.866 316.6 407.541L309.077 402C296.557 392.724 282.172 387.845 267.485 387.845H213.856C199.591 387.845 185.627 392.784 173.589 402.06L166.486 407.541C164.68 408.927 165.463 412.3 167.569 412.3Z" fill="#A3CEED"/>
<path d="M315.457 413.203H167.569C166.306 413.203 165.222 412.36 164.801 411.035C164.379 409.71 164.56 407.963 165.944 406.879L173.047 401.397C185.265 391.941 199.41 387.002 213.916 387.002H267.545C282.412 387.002 296.978 391.941 309.679 401.337L317.202 406.879C318.406 407.782 318.888 409.469 318.406 411.035C317.804 412.36 316.721 413.203 315.457 413.203ZM213.796 388.748C199.711 388.748 185.988 393.627 174.07 402.783L166.968 408.264C166.306 408.806 166.245 409.77 166.486 410.433C166.606 410.734 166.907 411.396 167.569 411.396H315.517C316.239 411.396 316.54 410.673 316.6 410.433C316.841 409.77 316.721 408.806 316.059 408.264L308.535 402.723C296.136 393.567 281.931 388.748 267.485 388.748H213.796Z" fill="#005D95"/>
<path d="M129.951 453.018L134.946 472.051C135.97 475.846 136.21 479.822 135.729 483.737L134.706 491.748L160.046 487.592L156.796 485.182C151.138 480.966 147.105 474.943 145.48 468.076L141.146 449.705L129.951 453.018Z" fill="white"/>
<path d="M134.766 492.712C134.525 492.712 134.284 492.651 134.164 492.471C133.983 492.29 133.863 491.989 133.923 491.688L134.946 483.677C135.428 479.882 135.187 476.087 134.164 472.353L129.168 453.319C129.048 452.837 129.289 452.355 129.77 452.235L140.905 448.922C141.146 448.862 141.387 448.862 141.628 448.982C141.868 449.102 141.989 449.283 142.049 449.584L146.383 467.956C147.948 474.642 151.86 480.484 157.397 484.58L160.648 486.989C160.949 487.23 161.069 487.592 161.009 487.953C160.949 488.315 160.648 488.556 160.287 488.616L134.946 492.772C134.886 492.651 134.826 492.712 134.766 492.712ZM131.094 453.68L135.91 471.871C136.933 475.786 137.234 479.822 136.692 483.857L135.849 490.724L157.879 487.11L156.314 485.965C150.476 481.629 146.322 475.364 144.637 468.317L140.484 450.909L131.094 453.68Z" fill="#071824"/>
<path d="M132.298 495.723C132.118 492.35 132.057 485.664 134.224 481.508C134.585 480.785 135.488 480.424 136.271 480.725L142.049 483.074C142.952 483.436 143.915 482.773 143.915 481.809V481.388C143.915 480.846 144.336 480.364 144.938 480.303L149.934 480.063C151.8 479.942 153.666 480.303 155.351 481.086C160.527 483.375 171.482 488.857 174.13 494.579C174.732 495.904 173.769 497.35 172.325 497.41C167.81 497.591 156.374 497.952 134.465 497.771C133.321 497.771 132.358 496.868 132.298 495.723Z" fill="#005D95"/>
<path d="M146.262 498.735C142.711 498.735 138.799 498.735 134.465 498.675C132.84 498.675 131.455 497.35 131.395 495.723C131.215 492.109 131.154 485.363 133.442 481.026C134.044 479.882 135.428 479.34 136.632 479.822L142.41 482.171C142.591 482.231 142.771 482.171 142.831 482.11C142.892 482.05 143.012 481.93 143.012 481.749V481.327C143.012 480.303 143.855 479.4 144.878 479.4L149.874 479.159C151.86 479.039 153.906 479.46 155.712 480.243C161.731 482.954 172.204 488.375 174.913 494.217C175.334 495.061 175.274 496.085 174.732 496.928C174.19 497.771 173.288 498.313 172.325 498.374C168.472 498.494 160.407 498.735 146.262 498.735ZM133.201 495.663C133.261 496.326 133.803 496.868 134.465 496.868C156.013 497.048 167.449 496.687 172.264 496.506C172.626 496.506 172.987 496.265 173.227 495.964C173.408 495.663 173.468 495.302 173.288 494.94C170.76 489.459 159.624 483.978 154.99 481.87C153.425 481.147 151.679 480.846 149.994 480.906L144.998 481.147C144.938 481.147 144.878 481.207 144.878 481.327V481.749C144.878 482.532 144.517 483.195 143.855 483.616C143.253 484.038 142.41 484.098 141.748 483.857L135.97 481.508C135.609 481.388 135.187 481.508 135.007 481.87C132.96 485.845 133.02 492.23 133.201 495.663Z" fill="#071824"/>
<path d="M152.642 494.88C148.068 494.88 142.53 494.76 135.849 494.458C135.368 494.458 134.946 494.037 135.007 493.495C135.007 493.013 135.428 492.591 135.97 492.651C157.819 493.675 167.991 492.531 168.111 492.471C168.593 492.41 169.074 492.772 169.135 493.254C169.195 493.736 168.834 494.217 168.352 494.278C168.232 494.338 163.176 494.88 152.642 494.88Z" fill="#071824"/>
<path d="M158.36 489.519C158.18 489.519 157.999 489.459 157.879 489.399L149.272 483.677C148.85 483.375 148.73 482.833 149.031 482.412C149.332 481.99 149.874 481.87 150.295 482.171L158.902 487.833C159.324 488.134 159.444 488.676 159.143 489.098C158.962 489.338 158.661 489.519 158.36 489.519Z" fill="#071824"/>
<path d="M78.6686 456.27L75.5989 477.774H67.8344L68.5567 456.632L78.6686 456.27Z" fill="white"/>
<path d="M75.5989 478.677H67.8344C67.5936 478.677 67.3529 478.557 67.1723 478.376C66.9917 478.195 66.9315 477.954 66.9315 477.714L67.714 456.571C67.714 456.09 68.1354 455.728 68.5567 455.728L78.6084 455.367C78.8492 455.367 79.1502 455.487 79.3307 455.668C79.5113 455.849 79.5715 456.15 79.5715 456.391L76.5018 477.894C76.3814 478.376 76.0203 478.677 75.5989 478.677ZM68.7373 476.87H74.7563L77.5852 457.174L69.4595 457.475L68.7373 476.87Z" fill="#071824"/>
<path d="M75.298 497.832C72.1079 498.193 67.6538 498.976 60.9125 497.892C58.9263 497.591 57.6623 495.603 58.204 493.615C59.6485 488.495 62.658 479.099 66.45 474.099C66.751 473.738 67.2927 473.859 67.4131 474.28L67.5335 475.184C67.5936 475.726 68.3159 475.846 68.5567 475.364L69.3994 473.618C69.5799 473.316 69.9411 473.075 70.3022 473.015L73.2515 472.895C73.8534 472.835 74.4553 473.256 74.5757 473.859L74.6961 475.244C74.7563 475.786 75.4786 475.967 75.7193 475.485L76.9833 474.16C77.2241 473.798 77.7658 473.979 77.7658 474.461L77.6454 480.063C77.525 484.098 77.826 488.134 78.5483 492.109L78.9094 494.097C79.0298 495.964 77.1037 497.591 75.298 497.832Z" fill="#005D95"/>
<path d="M67.5334 499.337C65.5472 499.337 63.3201 499.217 60.7319 498.795C59.5281 498.615 58.5049 497.892 57.8428 496.868C57.1807 495.844 57.0002 494.579 57.3011 493.374C58.7457 488.134 61.8154 478.617 65.7277 473.557C66.0287 473.136 66.5704 472.895 67.1121 473.015C67.6538 473.075 68.0752 473.437 68.2557 473.919L68.6771 473.076C69.0382 472.473 69.6401 472.112 70.3022 472.052L73.3117 471.931C74.3349 471.811 75.3582 472.594 75.5387 473.678V473.798L75.5989 474.401L76.3814 473.618C76.7425 473.196 77.3444 473.015 77.826 473.196C78.3677 473.377 78.7288 473.919 78.7288 474.521L78.5482 480.123C78.4279 484.098 78.7288 488.074 79.3909 491.989L79.752 494.037C79.9928 496.446 77.6454 498.494 75.4184 498.735C74.997 498.795 74.5757 498.856 74.1544 498.856C72.3487 499.036 70.1818 499.337 67.5334 499.337ZM66.6306 475.304C63.1396 480.243 60.3708 488.977 59.0466 493.796C58.8661 494.458 58.9864 495.241 59.3476 495.844C59.7087 496.446 60.3106 496.808 61.0329 496.928C66.8112 497.832 70.9643 497.35 73.9136 496.988C74.3349 496.928 74.8165 496.868 75.1776 496.868C76.5018 496.747 78.0667 495.482 77.9463 494.157L77.5852 492.17C76.8629 488.134 76.562 484.038 76.6823 479.942L76.8027 475.545L76.3814 475.967C76.0804 476.449 75.4785 476.69 74.8766 476.569C74.2146 476.449 73.7932 475.906 73.733 475.244L73.6126 473.919C73.5525 473.798 73.4321 473.678 73.3117 473.678L70.3022 473.798C70.242 473.798 70.1818 473.859 70.1216 473.919L69.3391 475.666C69.0382 476.268 68.4363 476.569 67.8344 476.509C67.2325 476.449 66.751 475.967 66.6306 475.304Z" fill="#071824"/>
<path d="M68.6771 495.302C66.6908 495.302 64.3434 495.061 61.7552 494.398C61.2737 494.278 60.9727 493.796 61.0931 493.314C61.2135 492.832 61.695 492.531 62.1765 492.651C69.3994 494.519 74.3349 492.712 74.3951 492.651C74.8767 492.471 75.3582 492.712 75.5388 493.194C75.7193 493.675 75.4786 494.157 74.997 494.338C74.9368 494.398 72.5292 495.302 68.6771 495.302Z" fill="#071824"/>
<path d="M72.1681 487.471H65.0656C64.5841 487.471 64.1628 487.05 64.1628 486.568C64.1628 486.086 64.5841 485.664 65.0656 485.664H72.1681C72.6496 485.664 73.0709 486.086 73.0709 486.568C73.0709 487.05 72.7098 487.471 72.1681 487.471Z" fill="#071824"/>
<path d="M128.687 314.661C128.687 314.661 138.859 380.376 139.28 396.037C139.701 411.758 146.202 459.222 146.202 459.222C146.202 459.222 137.836 462.354 128.265 460.186C128.265 460.186 98.2305 376.099 96.0034 350.319C93.7764 324.539 101.24 312.733 101.24 312.733L128.687 314.661Z" fill="#071824"/>
<path d="M118.755 310.565C118.755 310.565 84.3265 415.853 83.7246 458.68C83.7246 458.68 76.1407 460.487 65.186 458.68C65.186 458.68 58.204 341.164 78.3677 308.216L118.755 310.565Z" fill="#071824"/>
<path d="M108.944 220.395C106.777 232.863 94.1375 246.235 81.3772 244.489C79.2705 244.187 73.6728 243.043 67.7742 236.176C59.6485 242.019 49.2958 240.453 43.6981 233.707C36.8966 225.455 37.7995 210.216 47.7308 202.385C39.8459 202.325 37.7393 199.313 37.1374 198.109C33.4658 191.061 43.1564 174.617 52.2451 174.617C55.6158 174.617 60.0698 178.774 68.7974 187.026C77.826 195.579 78.2473 197.265 80.9558 197.566C89.0213 198.41 91.4289 184.737 102.083 183.171C109.366 182.147 117.551 187.267 118.153 192.085C118.695 196.241 113.338 197.687 110.329 205.939C108.222 212.083 109.968 214.673 108.944 220.395Z" fill="#071824"/>
<path d="M98.3508 178.533C98.9527 180.46 98.3508 185.821 95.4617 186.785C92.5726 187.748 88.5398 183.833 87.9379 181.906C87.336 179.978 89.1417 177.689 92.0308 176.726C94.92 175.822 97.7489 176.605 98.3508 178.533Z" fill="#071824"/>
<path d="M132.96 315.504C132.96 315.504 136.15 336.827 132.238 340.923C132.238 340.923 119.478 326.949 118.876 316.829L132.96 315.504Z" fill="white"/>
<path d="M132.238 341.826C131.997 341.826 131.756 341.706 131.576 341.525C131.034 340.923 118.575 327.189 117.973 316.889C117.973 316.408 118.334 315.986 118.815 315.926L132.9 314.601C133.381 314.54 133.803 314.902 133.863 315.384C134.224 317.612 136.993 337.248 132.9 341.585C132.719 341.706 132.539 341.826 132.238 341.826ZM119.899 317.612C120.922 325.804 129.59 336.345 132.178 339.417C134.224 335.2 133.02 322.31 132.178 316.468L119.899 317.612Z" fill="#071824"/>
<path d="M115.264 315.685C115.264 315.685 111.292 332.912 106.597 337.188C101.902 341.465 89.0213 322.31 81.8587 321.889C77.0435 321.588 71.8671 329.358 69.0382 334.478C68.5566 335.321 67.2927 334.899 67.413 333.936C68.3761 327.31 70.6031 315.805 74.6961 312.613L115.264 315.685Z" fill="white"/>
<path d="M104.972 338.754C101.842 338.754 97.6887 334.899 93.355 330.924C89.3223 327.189 84.7478 322.973 81.7985 322.853C78.6084 322.672 74.2145 327.069 69.8206 334.96C69.3993 335.743 68.5567 336.044 67.714 335.743C66.8713 335.441 66.3898 334.658 66.5102 333.815C67.714 325.623 70.0012 315.143 74.1543 311.89C74.3349 311.77 74.5757 311.709 74.7562 311.709L115.385 314.842C115.625 314.842 115.866 315.022 116.047 315.203C116.227 315.444 116.287 315.685 116.227 315.926C116.047 316.649 112.134 333.454 107.259 337.911C106.537 338.453 105.754 338.754 104.972 338.754ZM81.5577 320.985C81.6781 320.985 81.7383 320.985 81.8587 320.985C85.4701 321.166 90.1047 325.443 94.5588 329.539C99.0129 333.634 104.009 338.272 105.995 336.526C109.787 333.032 113.218 320.263 114.181 316.528L74.997 313.516C72.2884 315.926 69.8808 323.334 68.3159 333.875C71.6264 327.912 76.6221 320.985 81.5577 320.985Z" fill="#071824"/>
<path d="M158.722 233.586L190.562 241.838L186.048 259.908L154.207 253.825L158.722 233.586Z" fill="white"/>
<path d="M186.048 260.812C185.988 260.812 185.928 260.812 185.867 260.812L154.027 254.728C153.786 254.668 153.545 254.548 153.425 254.307C153.304 254.126 153.244 253.825 153.304 253.584L157.819 233.345C157.879 233.104 157.999 232.924 158.24 232.743C158.421 232.622 158.722 232.562 158.962 232.623L190.863 240.935C191.345 241.055 191.646 241.537 191.525 242.019L187.011 260.029C186.83 260.511 186.469 260.812 186.048 260.812ZM155.291 253.102L185.386 258.884L189.479 242.561L159.384 234.731L155.291 253.102Z" fill="#071824"/>
<path d="M191.826 255.029L154.508 242.441C154.508 242.441 152.221 251.897 148.549 252.078C143.493 252.379 142.771 247.922 134.345 236.598C129.65 230.273 123.27 228.466 123.27 228.466L109.727 240.152L126.159 275.328C126.159 275.328 171 315.022 191.826 255.029Z" fill="#E5A678"/>
<path d="M122.006 228.165C115.385 226.78 103.648 222.202 85.2895 229.008C85.2895 229.008 76.3212 234.128 75.7795 241.537C75.1776 249.608 80.8956 264.245 78.8492 275.027C75.1174 294.663 70.7837 301.108 68.677 317.191C68.677 317.191 76.0804 315.444 81.4975 315.805L132.298 317.733C135.669 317.853 138.618 315.384 138.979 312.01C139.521 307.312 139.521 298.94 137.595 284.243C136.572 276.713 137.053 251.897 131.756 236.658C130.252 232.321 126.52 229.069 122.006 228.165Z" fill="#E5A678"/>
<path d="M66.2694 269.245L73.733 284.363L50.9209 302.554C50.9209 302.554 42.9157 285.809 42.1332 280.267L66.2694 269.245Z" fill="white"/>
<path d="M50.9209 303.518C50.8607 303.518 50.8006 303.518 50.7404 303.518C50.4996 303.457 50.2588 303.277 50.1385 303.036C49.8375 302.373 42.073 286.11 41.2303 280.508C41.1701 280.087 41.4109 279.725 41.772 279.545L65.9083 268.522C66.3296 268.341 66.8713 268.522 67.1121 268.943L74.5757 284.062C74.7563 284.424 74.6359 284.905 74.3349 285.146L51.5228 303.337C51.3423 303.457 51.1617 303.518 50.9209 303.518ZM43.1564 280.87C44.1796 285.869 49.5968 297.675 51.2821 301.168L72.5894 284.122L65.8481 270.449L43.1564 280.87Z" fill="#071824"/>
<path d="M79.9326 268.341L78.3677 259.908C78.1269 258.704 76.8027 258.101 75.7795 258.643L73.1913 260.029C69.941 261.776 68.5567 265.691 69.941 269.124L72.7098 274.123L41.2905 289.603C41.2905 289.603 33.8871 271.473 38.6421 256.776C46.828 231.659 100.277 225.575 100.277 225.575L79.9326 268.341Z" fill="#E5A678"/>
<path d="M137.595 287.315C137.173 287.315 136.752 287.013 136.692 286.532C132.78 262.378 134.645 253.162 134.706 252.74C134.826 252.259 135.308 251.957 135.789 252.018C136.271 252.138 136.572 252.62 136.511 253.102C136.511 253.222 134.706 262.559 138.498 286.23C138.558 286.712 138.257 287.194 137.775 287.254C137.655 287.315 137.655 287.315 137.595 287.315Z" fill="#071824"/>
<path d="M189.178 214.613C189.178 214.613 198.146 206.24 200.734 204.132C203.623 201.723 197.003 200.94 188.456 208.77L189.178 214.613Z" fill="white"/>
<path d="M188.516 216.42L187.492 208.348L187.854 208.047C194.174 202.265 199.41 201.06 201.216 201.662C201.818 201.843 202.239 202.265 202.299 202.807C202.42 203.469 202.058 204.132 201.276 204.794C198.748 206.903 189.84 215.155 189.78 215.215L188.516 216.42ZM189.419 209.071L189.9 212.745C192.488 210.336 198.206 205.096 200.193 203.409C200.253 203.409 200.253 203.349 200.313 203.349C200.253 203.349 200.253 203.349 200.193 203.349C198.688 203.349 194.595 204.433 189.419 209.071Z" fill="#071824"/>
<path d="M189.96 212.866C190.02 213.348 190.081 213.769 190.141 214.251C190.261 215.034 190.442 216.901 189.358 218.106C188.275 219.25 182.978 222.142 180.45 223.467C179.608 223.949 178.825 224.551 178.223 225.274C177.381 226.298 179.788 238.887 179.788 238.887L168.954 236.477C168.954 236.477 171.662 219.01 173.649 212.866C175.635 206.722 180.932 203.831 182.256 204.011C183.64 204.192 184.062 206.842 184.062 206.842C184.062 206.842 187.011 204.553 188.817 205.758C189.78 206.421 189.298 207.505 189.419 208.529L189.96 212.866Z" fill="white"/>
<path d="M180.992 240.091L167.991 237.2L168.111 236.357C168.232 235.634 170.82 218.769 172.806 212.625C174.913 206.18 180.51 202.867 182.437 203.168C183.64 203.349 184.302 204.493 184.664 205.457C185.867 204.794 187.854 204.072 189.358 205.096C190.442 205.818 190.382 206.903 190.382 207.686C190.382 207.987 190.382 208.228 190.382 208.469L190.863 212.806C190.923 213.227 190.984 213.709 191.044 214.131C191.224 215.034 191.405 217.263 190.02 218.769C188.937 219.913 184.483 222.443 180.932 224.31C180.209 224.672 179.608 225.214 179.066 225.816C178.765 226.96 179.728 233.345 180.751 238.766L180.992 240.091ZM170.037 235.815L178.705 237.742C176.538 226.057 177.32 225.093 177.561 224.732C178.223 223.889 179.066 223.166 180.029 222.684C184.724 220.154 187.974 218.227 188.696 217.504C189.539 216.6 189.358 215.094 189.238 214.432C189.178 213.95 189.118 213.468 189.057 212.986L188.576 208.649C188.516 208.288 188.516 207.927 188.576 207.565C188.576 206.842 188.576 206.662 188.335 206.541C187.312 205.879 185.265 207.083 184.664 207.565L183.46 208.469L183.219 206.963C183.099 206.059 182.617 204.975 182.196 204.915C181.293 204.855 176.417 207.385 174.552 213.167C172.866 218.468 170.579 232.261 170.037 235.815Z" fill="#071824"/>
<path d="M181.774 219.251C181.534 219.251 181.353 219.251 181.112 219.13C179.909 218.769 178.524 217.383 178.464 214.492C178.283 210.216 183.52 206.18 183.761 205.999C184.182 205.698 184.724 205.758 185.025 206.18C185.326 206.601 185.265 207.144 184.844 207.445C183.52 208.469 180.149 211.661 180.27 214.432C180.33 216.239 180.992 217.263 181.594 217.383C182.015 217.504 182.376 217.142 182.497 216.901C183.46 215.396 183.279 213.89 183.279 213.83C183.219 213.348 183.58 212.866 184.062 212.806C184.543 212.745 185.025 213.046 185.085 213.589C185.085 213.649 185.386 215.817 184.062 217.865C183.46 218.769 182.617 219.251 181.774 219.251Z" fill="#071824"/>
<path d="M132.599 318.696C132.479 318.696 132.418 318.696 132.298 318.696L81.4976 316.769C76.261 316.408 68.978 318.154 68.9178 318.154C68.6169 318.215 68.3159 318.154 68.1353 317.974C67.8946 317.793 67.8344 317.492 67.8344 317.191C68.978 308.577 70.6633 302.855 72.6496 296.229C74.3349 290.567 76.261 284.182 78.0065 274.967C78.9094 270.208 78.1871 264.486 77.4046 260.029C77.3444 259.788 77.1639 259.607 76.9231 259.547C76.8027 259.487 76.5018 259.426 76.2008 259.607L73.6126 260.992C70.7837 262.498 69.5799 265.871 70.7837 268.883L73.4923 273.822C73.6126 274.063 73.6126 274.304 73.5525 274.545C73.4923 274.786 73.3117 274.967 73.0709 275.087L41.6516 290.567C41.4109 290.688 41.1701 290.688 40.9294 290.627C40.6886 290.567 40.508 290.387 40.3876 290.146C40.0867 289.363 32.9241 271.533 37.7393 256.716C44.3 236.538 78.9696 228.406 93.5958 225.876C95.7626 225.394 97.9295 225.093 100.036 224.913H100.096C100.157 224.913 100.157 224.913 100.217 224.913C108.463 224.25 114.662 225.756 119.237 226.84C120.26 227.081 121.283 227.322 122.126 227.503C122.487 227.563 122.848 227.683 123.27 227.804C123.33 227.804 123.33 227.804 123.39 227.804C123.39 227.804 123.571 227.864 123.871 227.984H123.932C124.112 228.045 124.233 228.105 124.413 228.165C124.594 228.225 124.774 228.286 124.895 228.406C127.122 229.37 131.395 231.659 134.826 236.297C137.354 239.67 139.16 242.441 140.604 244.669C144.156 250.09 145.359 251.596 148.249 251.476C150.536 251.355 152.703 245.392 153.425 242.501C153.485 242.26 153.666 242.019 153.846 241.898C154.087 241.778 154.328 241.778 154.568 241.838L191.886 254.427C192.127 254.487 192.308 254.668 192.428 254.909C192.548 255.15 192.548 255.391 192.488 255.632C186.65 272.497 178.344 283.159 167.75 287.375C157.096 291.651 146.142 288.459 138.377 284.725C140.002 296.952 140.424 306.228 139.762 312.432C139.521 315.865 136.331 318.696 132.599 318.696ZM79.9928 314.902C80.5345 314.902 81.0762 314.902 81.5578 314.962L132.358 316.889C135.247 317.01 137.836 314.841 138.137 311.95C138.618 307.734 138.738 299.602 136.752 284.423C136.692 284.002 136.632 283.52 136.572 282.978C136.572 282.677 136.692 282.315 136.993 282.135C137.294 281.954 137.595 281.954 137.896 282.074C145.359 285.929 156.555 289.664 167.269 285.387C177.14 281.472 185.025 271.413 190.683 255.571L155.11 243.585C154.388 246.175 152.161 252.801 148.549 252.981C144.457 253.222 142.831 250.753 139.28 245.392C137.836 243.163 136.03 240.453 133.562 237.14C130.372 232.863 126.399 230.695 124.353 229.791C124.172 229.731 124.052 229.671 123.871 229.611C123.691 229.551 123.571 229.49 123.45 229.43L123.51 229.249H123.45L123.39 229.49C123.27 229.43 123.149 229.43 123.089 229.37C123.029 229.37 123.029 229.37 122.969 229.37C122.547 229.249 122.186 229.129 121.885 229.069C120.982 228.888 119.959 228.647 118.876 228.406C114.422 227.322 108.342 225.816 100.337 226.479C100.337 226.479 100.337 226.479 100.277 226.479H100.217C98.1101 226.659 96.0034 226.96 93.8967 227.442C79.5715 229.972 45.6844 237.803 39.4246 257.077C35.3919 269.425 40.3275 284.544 41.7118 288.339L71.3856 273.702L69.0984 269.546C69.0984 269.546 69.0382 269.485 69.0382 269.425C67.4732 265.57 69.0382 261.173 72.7098 259.185L75.298 257.8C76.0203 257.439 76.8027 257.378 77.5852 257.68C78.3075 257.981 78.9094 258.583 79.1501 259.366C79.1501 259.426 79.1501 259.426 79.2103 259.487C79.9928 264.125 80.7753 270.028 79.8122 275.147C78.0667 284.484 76.0804 290.929 74.3951 296.591C72.5292 302.795 70.9041 308.216 69.8207 315.986C71.8671 315.624 76.1406 314.902 79.9928 314.902ZM123.571 228.888L123.631 228.647L123.571 228.888Z" fill="#071824"/>
<path d="M70.7837 286.712L79.2705 299.422L83.3634 296.651C85.8914 294.964 88.9611 294.302 91.9104 294.844C91.9104 294.844 96.3043 295.446 98.1702 296.952C102.684 300.626 98.7119 302.915 97.8091 303.337C96.4247 304.06 94.4986 304.782 92.392 304.481C91.1882 304.301 87.9981 304.722 85.1089 306.288C82.9421 307.493 80.4141 309.902 76.9231 308.939C73.9738 308.155 72.6496 306.409 72.6496 306.409L61.6348 294.241L70.7837 286.712Z" fill="white"/>
<path d="M78.5482 310.023C77.9463 310.023 77.4046 309.963 76.7425 309.782C73.733 308.999 72.2884 307.252 72.0477 306.951L61.0329 294.844C60.8523 294.663 60.7921 294.422 60.7921 294.181C60.7921 293.94 60.9125 293.699 61.0931 293.579L70.1216 286.05C70.3022 285.869 70.6031 285.809 70.8439 285.869C71.0846 285.929 71.3254 286.05 71.4458 286.291L79.4511 298.217L82.8217 295.928C85.5303 294.061 88.8407 293.398 92.0308 293.94C92.1512 293.94 96.6655 294.543 98.7119 296.229C100.457 297.675 101.3 299.12 101.18 300.566C101.059 301.951 99.9759 303.216 98.2304 304.18C96.184 305.264 94.1375 305.686 92.2716 305.385C91.3086 305.264 88.299 305.626 85.5303 307.071C85.109 307.312 84.6876 307.553 84.2061 307.854C82.7013 308.878 80.8355 310.023 78.5482 310.023ZM63.0192 294.302L73.3719 305.746L73.4321 305.806C73.4321 305.806 74.6359 307.312 77.224 308.035C79.5715 308.698 81.4975 307.493 83.3032 306.288C83.7848 305.987 84.2663 305.686 84.7478 305.445C87.7573 303.819 91.128 303.337 92.5725 303.518C94.4384 303.758 96.2441 303.096 97.4479 302.494C98.6518 301.891 99.374 301.048 99.4342 300.325C99.5546 299.301 98.5314 298.277 97.6285 297.615C96.2441 296.53 92.9337 295.868 91.7901 295.687C88.9611 295.205 86.1924 295.808 83.845 297.374L79.752 300.144C79.5715 300.265 79.3307 300.325 79.0899 300.265C78.8492 300.205 78.6686 300.084 78.488 299.903L70.5429 288.037L63.0192 294.302Z" fill="#071824"/>
<path d="M115.024 211.962L113.037 228.346L122.186 232.02C122.186 232.02 108.643 241.597 90.8872 231.418L100.457 227.322L105.393 208.288L115.024 211.962Z" fill="white"/>
<path d="M107.379 236.959C102.504 236.959 96.7257 235.755 90.4057 232.201C90.1048 232.02 89.9242 231.719 89.9242 231.358C89.9242 230.996 90.165 230.695 90.4659 230.575L99.675 226.659L104.49 208.047C104.55 207.806 104.731 207.565 104.972 207.445C105.213 207.324 105.453 207.324 105.694 207.385L115.264 211.059C115.625 211.179 115.866 211.601 115.866 212.023L114 227.744L122.487 231.117C122.788 231.237 123.029 231.538 123.029 231.84C123.089 232.141 122.908 232.502 122.668 232.683C122.607 232.803 116.588 236.959 107.379 236.959ZM92.9337 231.538C105.875 238.164 116.348 234.128 120.14 232.201L112.736 229.25C112.375 229.069 112.134 228.707 112.195 228.286L114.06 212.565L106.055 209.493L101.36 227.563C101.3 227.804 101.12 228.045 100.819 228.165L92.9337 231.538Z" fill="#071824"/>
<path d="M103.948 210.938C103.948 210.938 100.879 212.625 98.3508 208.649C96.3645 205.517 100.879 204.795 100.879 204.795C100.879 204.795 99.4342 201.12 104.611 200.397C109.847 199.735 113.639 197.807 113.639 197.807C113.639 197.807 117.431 204.493 118.635 210.035C119.357 213.408 119.177 216.359 116.649 217.263C109.727 219.672 105.152 212.866 105.152 212.866L103.948 210.938Z" fill="white"/>
<path d="M113.76 218.709C108.102 218.709 104.49 213.468 104.49 213.408L103.648 212.083C102.083 212.504 99.6148 212.264 97.6285 209.192C96.7859 207.866 96.9063 206.843 97.2072 206.18C97.6887 205.035 98.9527 204.433 99.8556 204.192C99.7954 203.53 99.8556 202.686 100.337 201.843C101.059 200.638 102.504 199.855 104.55 199.554C109.546 198.892 113.278 197.024 113.278 197.024C113.699 196.783 114.241 196.964 114.482 197.386C114.662 197.687 118.334 204.252 119.598 209.854C120.862 215.516 118.876 217.504 117.01 218.106C115.866 218.528 114.783 218.709 113.76 218.709ZM103.949 210.035C104.249 210.035 104.55 210.155 104.731 210.457L105.995 212.384C106.176 212.625 110.208 218.588 116.408 216.42C118.093 215.817 118.575 213.769 117.852 210.216C116.889 205.879 114.301 200.819 113.338 198.952C111.954 199.554 108.764 200.759 104.791 201.301C103.286 201.482 102.323 201.964 101.902 202.686C101.421 203.469 101.782 204.433 101.782 204.433C101.902 204.674 101.842 204.975 101.721 205.216C101.601 205.457 101.36 205.638 101.059 205.638C100.457 205.758 99.1333 206.18 98.8323 206.843C98.712 207.144 98.7722 207.565 99.1333 208.107C101.18 211.36 103.467 210.155 103.527 210.095C103.648 210.095 103.828 210.035 103.949 210.035Z" fill="#071824"/>
<path d="M371.614 263.884V291.23C371.614 317.974 350.548 339.598 324.546 339.598C298.543 339.598 277.477 361.282 277.477 387.965C277.477 390.375 279.403 392.302 281.811 392.302H406.464C445.468 392.302 477.067 359.836 477.067 319.781V261.414C477.067 245.452 464.488 232.562 448.959 232.562H402.071C385.277 232.562 371.614 246.597 371.614 263.884Z" fill="#005D95"/>
<path d="M386 343.031H374.684V474.642H386V343.031Z" fill="#005D95"/>
<path d="M327.435 478.918L377.393 474.581H381.967L433.008 478.918V482.412H327.435V478.918Z" fill="#005D95"/>
<path d="M346.334 455.969C345.191 454.825 338.449 433.924 338.449 433.924L325.208 443.38L339.714 462.896L346.334 455.969Z" fill="white"/>
<path d="M339.714 463.799C339.413 463.799 339.172 463.679 338.991 463.438L324.485 443.922C324.365 443.742 324.305 443.501 324.305 443.26C324.365 443.019 324.485 442.778 324.666 442.657L337.908 433.201C338.149 433.02 338.45 432.96 338.69 433.08C338.991 433.201 339.172 433.381 339.292 433.683C342.422 443.44 346.214 454.403 346.936 455.367C347.297 455.728 347.237 456.27 346.936 456.571L340.376 463.498C340.195 463.739 339.954 463.799 339.714 463.799ZM326.472 443.621L339.774 461.511L345.131 455.849C343.566 452.716 339.894 441.513 337.908 435.429L326.472 443.621Z" fill="#071824"/>
<path d="M322.439 482.352L331.227 482.291C337.065 482.231 342.482 479.28 345.672 474.401L354.4 460.607C356.807 456.812 355.483 451.753 351.511 449.645C347.899 447.717 344.047 445.85 343.205 445.91C341.399 446.091 340.677 454.644 340.677 454.644L332.852 454.945C332.852 454.945 329 471.088 325.569 472.895C323.101 474.22 321.355 476.208 320.212 477.954C318.827 479.882 320.212 482.352 322.439 482.352Z" fill="#071824"/>
<path d="M323.342 479.822C322.92 479.822 322.499 479.521 322.439 479.039C322.379 478.557 322.68 478.075 323.221 478.015L335.259 476.208C337.727 475.846 339.834 474.401 341.098 472.293L351.752 454.524C351.992 454.102 352.534 453.981 353.015 454.222C353.437 454.463 353.557 455.005 353.316 455.487L342.663 473.256C341.098 475.846 338.51 477.593 335.56 478.015L323.522 479.822C323.402 479.822 323.402 479.822 323.342 479.822Z" fill="white"/>
<path d="M338.209 466.45C338.149 466.45 338.028 466.45 337.968 466.39L331.287 464.583C330.805 464.462 330.504 463.98 330.625 463.498C330.745 463.017 331.227 462.715 331.708 462.836L338.389 464.643C338.871 464.763 339.172 465.245 339.051 465.727C338.931 466.149 338.57 466.45 338.209 466.45Z" fill="white"/>
<path d="M334.718 469.883C334.657 469.883 334.597 469.883 334.477 469.883L329.963 468.799C329.481 468.678 329.18 468.197 329.3 467.715C329.421 467.233 329.902 466.932 330.384 467.052L334.898 468.136C335.38 468.257 335.681 468.739 335.56 469.221C335.5 469.582 335.139 469.883 334.718 469.883Z" fill="white"/>
<path d="M301.132 451.994L285.783 467.474L277.597 464.462L291.802 444.705L301.132 451.994Z" fill="white"/>
<path d="M285.783 468.377C285.663 468.377 285.603 468.377 285.482 468.317L277.356 465.305C277.116 465.185 276.875 465.004 276.815 464.703C276.755 464.462 276.755 464.161 276.935 463.92L291.08 444.163C291.2 443.983 291.441 443.802 291.682 443.802C291.922 443.742 292.163 443.802 292.344 443.983L301.673 451.271C301.854 451.452 301.974 451.692 302.034 451.933C302.034 452.174 301.974 452.415 301.794 452.656L286.445 468.136C286.204 468.257 286.024 468.377 285.783 468.377ZM279.042 464.04L285.542 466.45L299.807 452.114L291.983 446.031L279.042 464.04Z" fill="#071824"/>
<path d="M290.598 465.004C290.598 465.004 291.321 471.57 290.057 477.412C289.395 480.484 286.626 482.713 283.436 482.713H245.696C242.988 482.713 241.784 479.34 243.831 477.593C250.512 471.991 262.851 463.378 278.019 460.848L282.232 466.751L290.598 465.004Z" fill="#071824"/>
<path d="M286.626 478.376H247.562C247.081 478.376 246.659 477.954 246.659 477.473C246.659 476.991 247.081 476.569 247.562 476.569H286.626C287.107 476.569 287.529 476.991 287.529 477.473C287.529 478.015 287.167 478.376 286.626 478.376Z" fill="white"/>
<path d="M269.351 471.449C268.99 471.449 268.689 471.268 268.509 470.907L266.462 465.908C266.282 465.426 266.462 464.944 266.944 464.703C267.425 464.522 267.907 464.703 268.147 465.185L270.194 470.184C270.374 470.666 270.194 471.148 269.712 471.389C269.592 471.449 269.472 471.449 269.351 471.449Z" fill="white"/>
<path d="M262.55 472.774C262.189 472.774 261.827 472.533 261.707 472.172L260.202 467.654C260.022 467.173 260.323 466.691 260.804 466.51C261.286 466.329 261.767 466.631 261.948 467.112L263.453 471.63C263.633 472.112 263.332 472.594 262.851 472.774C262.73 472.774 262.67 472.774 262.55 472.774Z" fill="white"/>
<path d="M382.509 343.874C382.509 343.874 312.267 335.682 291.381 353.813C270.495 371.883 324.365 449.705 324.365 449.705L341.399 437.056L325.268 382.062L390.213 363.631L382.509 343.874Z" fill="#071824"/>
<path d="M421.151 379.653C410.919 382.906 392.681 387.062 367.16 386.761C359.937 386.64 353.196 390.676 349.946 397.121C342.362 411.938 326.05 438.682 299.386 455.969L286.686 449.102L319.189 375.919C322.138 369.233 327.675 364.053 334.537 361.523L398.941 337.911C398.941 337.911 418.924 332.309 428.675 350.139C430.42 353.331 433.67 347.609 434.453 350.199C437.041 359.053 429.939 376.882 421.151 379.653Z" fill="#071824"/>
<path d="M304.442 409.89C304.322 409.89 304.201 409.89 304.081 409.83C303.599 409.649 303.419 409.107 303.599 408.625L318.286 375.557C321.356 368.691 327.134 363.27 334.176 360.679L364.993 349.356C365.475 349.175 365.956 349.416 366.137 349.898C366.318 350.38 366.077 350.861 365.595 351.042L334.778 362.366C328.157 364.775 322.8 369.835 319.911 376.28L305.225 409.348C305.104 409.71 304.803 409.89 304.442 409.89Z" fill="white"/>
<path d="M321.596 438.321C321.356 438.321 321.175 438.26 320.994 438.08C320.633 437.718 320.633 437.176 320.994 436.815C323.944 433.743 326.773 430.49 329.541 427.117C329.842 426.756 330.444 426.696 330.805 426.997C331.167 427.298 331.227 427.9 330.926 428.262C328.157 431.695 325.208 435.008 322.258 438.08C322.078 438.26 321.837 438.321 321.596 438.321Z" fill="white"/>
<path d="M330.203 428.563C330.023 428.563 329.782 428.503 329.662 428.382C329.301 428.081 329.24 427.479 329.541 427.117C330.866 425.431 332.25 423.684 333.574 421.937C333.875 421.515 334.417 421.455 334.838 421.756C335.259 422.058 335.32 422.6 335.019 423.021C333.695 424.768 332.31 426.575 330.986 428.262C330.745 428.442 330.444 428.563 330.203 428.563Z" fill="white"/>
<path d="M366.558 287.074C366.558 287.074 360.359 343.212 318.888 346.886L366.558 347.549C366.558 347.549 384.194 311.77 384.916 297.795C385.639 283.882 366.558 287.074 366.558 287.074Z" fill="white"/>
<path d="M366.558 348.452C366.498 348.452 366.498 348.452 366.558 348.452L318.888 347.79C318.406 347.79 318.045 347.428 317.985 346.946C317.985 346.464 318.346 346.043 318.828 346.043C335.681 344.537 348.682 334.237 357.47 315.324C364.091 301.108 365.655 287.194 365.655 287.014C365.716 286.592 366.017 286.291 366.378 286.231C366.799 286.17 377.152 284.484 382.629 289.363C384.916 291.411 386 294.302 385.819 297.916C385.097 311.89 368.063 346.525 367.341 347.97C367.16 348.271 366.859 348.452 366.558 348.452ZM327.736 346.103L365.956 346.645C368.123 342.248 383.351 310.505 383.953 297.796C384.134 294.724 383.231 292.314 381.365 290.688C377.272 287.074 369.568 287.616 367.281 287.917C366.859 290.989 364.873 303.397 359.035 316.046C351.691 331.888 340.978 342.128 327.736 346.103Z" fill="#071824"/>
<path d="M425.605 251.416C417.539 249.548 414.229 249.488 384.916 250.572C377.754 250.813 369.267 259.788 368.424 266.896C370.711 273.702 381.185 307.373 362.887 333.695C360.299 337.429 356.747 341.525 351.932 345.44C354.641 347.669 358.914 350.5 364.572 352.187C374.022 355.018 378.777 351.946 386.361 352.187C406.464 352.789 413.868 375.196 426.869 372.425C430.36 371.702 434.934 368.992 439.268 359.896C441.736 352.367 443.903 343.513 445.107 333.514C448.417 306.409 443 283.821 438.245 269.666C436.74 265.209 435.055 253.644 425.605 251.416Z" fill="white"/>
<path d="M424.582 373.569C419.044 373.569 414.349 369.413 409.474 365.016C403.395 359.595 396.473 353.451 386.301 353.09C383.652 353.03 381.305 353.331 379.018 353.692C374.865 354.295 370.531 354.897 364.331 353.09C359.697 351.705 355.363 349.416 351.39 346.163L350.548 345.44L351.39 344.718C355.604 341.344 359.215 337.429 362.225 333.153C378.957 309.119 371.614 279.003 367.642 267.137L367.582 266.956V266.775C368.424 259.547 377.031 249.91 384.916 249.609C414.71 248.524 417.78 248.585 425.846 250.512C434.513 252.56 436.981 261.716 438.425 267.197C438.666 268.04 438.847 268.763 439.027 269.365C446.19 290.567 448.537 312.191 445.949 333.574C444.866 342.549 442.88 351.464 440.111 360.137L440.051 360.258C436.439 367.847 432.105 372.184 427.049 373.329C426.207 373.509 425.364 373.569 424.582 373.569ZM385.518 351.283C385.819 351.283 386.06 351.283 386.361 351.283C397.195 351.584 404.358 357.969 410.678 363.631C416.155 368.51 420.91 372.726 426.628 371.522C431.082 370.558 435.055 366.522 438.365 359.535C441.134 350.982 443.06 342.188 444.144 333.394C446.732 312.252 444.384 290.929 437.282 269.968C437.101 269.305 436.861 268.582 436.62 267.679C435.235 262.619 433.008 254.066 425.364 252.259C417.539 250.392 414.53 250.331 384.916 251.416C378.476 251.656 370.29 259.788 369.327 266.775C373.36 279.003 380.703 309.601 363.609 334.177C360.72 338.273 357.289 342.067 353.316 345.38C356.868 348.091 360.72 350.078 364.753 351.283C370.591 353.03 374.503 352.427 378.717 351.825C380.823 351.584 383.05 351.283 385.518 351.283Z" fill="#071824"/>
<path d="M361.081 293.338C361.081 293.338 365.836 255.391 379.439 252.138C374.624 266.896 373.059 282.918 373.721 299.904C373.721 300.627 372.999 301.048 372.397 300.687L361.081 293.338Z" fill="white"/>
<path d="M372.878 301.771C372.517 301.771 372.216 301.65 371.915 301.47L360.118 293.82L360.178 293.278C360.359 291.712 365.174 254.668 379.258 251.295L380.823 250.934L380.342 252.44C375.828 266.414 373.962 281.954 374.684 299.904C374.684 300.566 374.383 301.169 373.781 301.53C373.48 301.711 373.179 301.771 372.878 301.771ZM362.044 292.917L372.818 299.904C372.096 282.496 373.781 267.317 377.995 253.584C367.22 258.824 362.646 288.459 362.044 292.917Z" fill="#071824"/>
<path d="M268.569 289.664H318.045C320.152 289.664 322.078 290.688 323.161 292.435L341.76 347.127H385.578V347.97C385.578 350.56 383.472 352.668 380.884 352.668H287.95C285.362 352.668 283.255 350.56 283.255 347.97V347.247L266.462 296.109C266.221 295.326 265.92 294.603 265.619 293.82C264.897 291.893 266.342 289.664 268.569 289.664Z" fill="#A3CEED"/>
<path d="M380.944 353.572H287.95C284.88 353.572 282.352 351.042 282.352 347.97V347.428L265.619 296.35C265.439 295.808 265.258 295.326 265.018 294.724C264.957 294.483 264.837 294.302 264.777 294.061C264.355 292.856 264.476 291.531 265.198 290.447C265.981 289.363 267.184 288.7 268.569 288.7H318.045C320.453 288.7 322.68 289.905 323.944 291.893C324.004 291.953 324.004 292.013 324.064 292.073L342.422 346.163H385.578C386.06 346.163 386.481 346.585 386.481 347.067V347.91C386.481 351.042 384.014 353.572 380.944 353.572ZM284.098 346.886C284.158 347.006 284.158 347.127 284.158 347.247V347.97C284.158 350.078 285.843 351.765 287.95 351.765H380.944C382.99 351.765 384.676 350.139 384.736 348.091H341.82C341.459 348.091 341.098 347.85 340.978 347.488L322.439 292.917C321.476 291.531 319.851 290.688 318.105 290.688H268.629C267.846 290.688 267.184 291.049 266.763 291.652C266.342 292.254 266.282 292.917 266.522 293.579C266.582 293.82 266.703 294.001 266.763 294.242C267.004 294.784 267.184 295.326 267.365 295.928L284.098 346.886Z" fill="#071824"/>
<path d="M304.984 317.733C305.706 320.022 304.623 322.431 302.576 323.033C300.59 323.636 298.363 322.25 297.641 319.961C296.918 317.673 298.002 315.263 300.048 314.661C302.095 313.998 304.262 315.384 304.984 317.733Z" fill="white"/>
<path d="M331.648 348.151H299.386C298.905 348.151 298.483 347.729 298.483 347.247C298.483 346.766 298.905 346.344 299.386 346.344H331.648C332.13 346.344 332.551 346.766 332.551 347.247C332.551 347.729 332.13 348.151 331.648 348.151Z" fill="white"/>
<path d="M288.672 348.151H282.954C282.473 348.151 282.051 347.729 282.051 347.247C282.051 346.766 282.473 346.344 282.954 346.344H288.672C289.154 346.344 289.575 346.766 289.575 347.247C289.575 347.729 289.154 348.151 288.672 348.151Z" fill="white"/>
<path d="M356.808 342.368C359.637 337.911 364.873 335.682 367.702 335.863C380.703 336.586 405.802 323.455 424.461 317.07C427.712 312.372 425.364 302.072 426.809 289.724L450.584 291.772C452.931 303.518 452.028 323.515 449.982 326.166C448.598 329.418 441.254 338.815 426.207 346.163C402.733 357.608 371.253 350.139 371.253 350.139C371.253 350.139 355.303 358.571 348.441 349.416C348.441 349.355 353.979 346.765 356.808 342.368Z" fill="white"/>
<path d="M357.951 354.536C354.159 354.536 350.307 353.391 347.659 349.898C347.478 349.657 347.418 349.416 347.478 349.115C347.538 348.874 347.719 348.633 347.96 348.512C348.02 348.512 353.317 345.982 355.965 341.826C358.854 337.309 364.271 334.719 367.702 334.899C376.369 335.381 390.875 329.418 404.9 323.636C411.28 320.985 417.901 318.275 423.799 316.227C425.364 313.637 425.364 309.18 425.304 303.518C425.244 299.361 425.244 294.603 425.846 289.543C425.906 289.062 426.327 288.7 426.809 288.76L450.584 290.808C451.005 290.869 451.306 291.109 451.366 291.531C453.714 303.096 452.931 323.214 450.704 326.527C449.38 329.478 442.398 339.116 426.508 346.886C404.298 357.728 374.744 351.765 371.313 350.982C369.929 351.765 363.97 354.536 357.951 354.536ZM349.826 349.657C356.507 356.764 370.651 349.355 370.832 349.295C371.012 349.175 371.253 349.175 371.434 349.235C371.735 349.295 402.853 356.523 425.786 345.32C440.171 338.272 447.755 329.117 449.139 325.804C449.2 325.744 449.2 325.684 449.26 325.623C450.885 323.515 452.089 304.903 449.801 292.615L427.591 290.688C427.11 295.326 427.11 299.723 427.17 303.578C427.23 309.722 427.23 314.54 425.184 317.552C425.063 317.733 424.943 317.853 424.702 317.913C418.803 319.901 412.122 322.672 405.622 325.382C391.417 331.225 376.67 337.309 367.642 336.767C365.174 336.646 360.238 338.694 357.53 342.85C355.363 346.284 351.631 348.633 349.826 349.657Z" fill="#071824"/>
<path d="M351.27 350.681C351.089 350.681 351.029 350.681 350.969 350.681C350.488 350.62 350.126 350.199 350.187 349.717C350.247 349.235 350.668 348.874 351.15 348.934C351.21 348.934 355.243 349.175 361.563 343.453C361.924 343.091 362.526 343.151 362.827 343.513C363.188 343.874 363.128 344.477 362.766 344.778C356.627 350.259 352.353 350.681 351.27 350.681Z" fill="#071824"/>
<path d="M355.363 352.849C355.062 352.849 354.881 352.849 354.881 352.849C354.4 352.789 354.039 352.307 354.159 351.825C354.219 351.343 354.701 350.982 355.182 351.042C355.243 351.042 358.794 351.403 364.271 346.585C364.632 346.284 365.234 346.284 365.535 346.645C365.836 347.006 365.836 347.609 365.475 347.91C360.359 352.367 356.687 352.849 355.363 352.849Z" fill="#071824"/>
<path d="M453.533 300.325C453.714 300.325 453.834 300.205 453.834 300.084C453.654 297.374 452.39 277.256 450.584 269.124C446.491 250.813 421.211 250.753 421.211 250.753C425.846 266.474 427.35 281.532 425.906 295.988C425.786 296.892 426.448 297.675 427.35 297.735L453.533 300.325Z" fill="white"/>
<path d="M453.593 301.229C453.533 301.229 453.533 301.229 453.473 301.229L427.23 298.639C426.568 298.578 425.966 298.277 425.545 297.735C425.123 297.193 424.943 296.53 425.003 295.868C425.304 292.676 425.485 289.423 425.545 286.17C425.545 285.688 425.966 285.267 426.448 285.267C426.929 285.267 427.35 285.688 427.35 286.17C427.35 289.483 427.11 292.796 426.809 296.049C426.809 296.229 426.869 296.41 426.989 296.591C427.11 296.711 427.29 296.832 427.471 296.832L452.931 299.361C452.63 294.964 451.427 276.834 449.741 269.305C445.829 251.897 421.512 251.656 421.271 251.656C420.79 251.656 420.368 251.235 420.368 250.753C420.368 250.271 420.79 249.849 421.271 249.849C421.512 249.849 447.334 250.09 451.547 268.883C453.413 277.135 454.677 297.675 454.857 299.964C454.857 300.325 454.737 300.626 454.496 300.867C454.135 301.108 453.894 301.229 453.593 301.229Z" fill="#071824"/>
<path d="M399.904 230.394L398.82 245.513C398.58 247.5 397.135 249.127 395.269 249.609C403.395 254.367 415.493 254.668 418.141 249.187C416.276 248.765 414.771 246.055 414.47 244.127L411.581 224.13L399.904 230.394Z" fill="white"/>
<path d="M408.692 254.126C404.117 254.126 398.881 252.801 394.788 250.392C394.487 250.211 394.306 249.849 394.366 249.488C394.426 249.127 394.667 248.825 395.028 248.765C396.593 248.344 397.737 247.079 397.917 245.452L399.001 230.394C399.001 230.093 399.181 229.792 399.482 229.671L411.039 223.467C411.28 223.347 411.581 223.347 411.882 223.467C412.122 223.588 412.303 223.828 412.363 224.13L415.252 244.127C415.553 245.874 416.877 248.103 418.262 248.404C418.503 248.464 418.743 248.645 418.864 248.886C418.984 249.127 418.984 249.428 418.864 249.669C418.021 251.416 416.275 252.741 413.868 253.524C412.363 253.885 410.557 254.126 408.692 254.126ZM397.255 249.669C402.432 252.199 408.992 253.042 413.326 251.717C414.41 251.355 415.854 250.753 416.697 249.609C414.891 248.524 413.748 246.055 413.447 244.308L410.738 225.575L400.746 230.936L399.723 245.573C399.482 247.32 398.58 248.765 397.255 249.669Z" fill="#071824"/>
<path d="M382.689 209.372C386.301 207.445 383.412 213.468 395.329 203.108C400.084 199.012 400.265 206.662 401.469 205.638C406.043 201.723 405.863 201.843 408.752 201.301C410.678 200.94 413.206 203.59 413.988 206.12C415.011 209.433 412.784 211.36 413.567 218.95C414.109 224.25 415.794 226.9 414.229 228.406C412.664 229.912 410.136 228.045 408.33 229.611C405.983 231.599 408.691 236.056 406.946 239.188C405.863 241.176 402.251 243.525 394.667 243.344C393.463 243.344 392.38 242.38 392.199 241.176C391.959 239.61 391.658 237.622 391.477 235.755C390.815 226.659 392.741 223.648 390.815 222.082C387.866 219.672 382.87 224.13 380.703 222.021C378.536 219.853 377.754 211.962 382.689 209.372Z" fill="#071824"/>
<path d="M400.807 214.432L400.626 216.902C400.566 218.046 400.566 219.251 400.626 220.395C400.807 222.564 401.047 226.358 401.047 228.466C401.047 231.599 391.417 232.201 391.417 232.201L390.213 230.816L389.07 230.876C388.829 230.876 388.648 230.876 388.407 230.755C387.926 230.514 387.685 229.972 387.745 229.49C388.227 226.72 389.009 220.636 388.106 215.938C388.167 215.998 393.524 211.601 400.807 214.432Z" fill="white"/>
<path d="M391.417 233.165C391.176 233.165 390.935 233.044 390.755 232.863L389.792 231.839H389.07C388.648 231.839 388.287 231.779 387.986 231.599C387.143 231.177 386.722 230.273 386.842 229.37C387.264 226.961 388.106 220.756 387.204 216.118C387.143 215.817 387.264 215.456 387.505 215.275C387.745 215.094 393.343 210.637 401.047 213.589C401.409 213.709 401.649 214.071 401.649 214.492L401.469 216.962C401.409 218.106 401.409 219.251 401.469 220.335C401.649 222.443 401.89 226.298 401.89 228.527C401.95 232.201 393.945 233.044 391.417 233.165C391.477 233.165 391.417 233.165 391.417 233.165ZM390.213 230.032C390.454 230.032 390.695 230.153 390.875 230.334L391.778 231.358C395.811 231.056 400.145 229.852 400.145 228.527C400.145 226.418 399.904 222.624 399.723 220.516C399.603 219.311 399.603 218.106 399.723 216.902L399.844 215.095C394.487 213.287 390.454 215.516 389.13 216.42C389.852 221.058 389.19 226.72 388.648 229.731C388.648 229.852 388.648 229.972 388.829 230.032C388.889 230.032 388.949 230.093 389.009 230.032H390.213C390.153 230.032 390.213 230.032 390.213 230.032Z" fill="#071824"/>
<path d="M402.492 222.082C402.492 222.082 402.853 216.119 405.501 216.841C408.21 217.624 407.608 224.19 402.492 222.082Z" fill="white"/>
<path d="M401.409 251.476L413.447 252.379L408.511 260.752L402.311 260.451L401.409 251.476Z" fill="#005D95"/>
<path d="M389.972 309.36L395.811 317.07L404.478 311.529L408.511 260.752L402.311 260.451L389.972 309.36Z" fill="#005D95"/>
<path d="M398.399 246.537L392.621 251.054L401.288 256.415L406.224 250.873L411.581 257.86C413.627 254.849 416.817 252.259 421.452 250.03L414.65 245.693C407.608 250.813 402.612 249.849 398.399 246.537Z" fill="white"/>
<path d="M411.581 258.764C411.28 258.764 411.039 258.644 410.858 258.403L406.164 252.259L401.95 257.017C401.649 257.318 401.168 257.439 400.807 257.198L392.139 251.837C391.898 251.656 391.718 251.415 391.718 251.114C391.718 250.813 391.838 250.512 392.079 250.331L397.857 245.814C398.158 245.573 398.64 245.573 399.001 245.814C403.636 249.488 408.33 249.187 414.229 244.97C414.53 244.73 414.951 244.73 415.252 244.97L422.054 249.307C422.355 249.488 422.475 249.789 422.475 250.151C422.475 250.452 422.234 250.753 421.933 250.934C417.6 252.982 414.41 255.511 412.423 258.463C412.183 258.644 411.942 258.764 411.581 258.764C411.641 258.764 411.581 258.764 411.581 258.764ZM406.765 250.09C406.826 250.151 406.886 250.211 406.946 250.271L411.581 256.355C413.507 253.885 416.215 251.777 419.646 249.91L414.711 246.778C411.882 248.765 409.293 249.849 406.765 250.09ZM394.186 250.994L401.108 255.27L405.562 250.271L405.622 250.211C403.094 250.211 400.746 249.368 398.399 247.681L394.186 250.994Z" fill="#071824"/>
<path d="M378.717 486.206L406.224 371.943L433.731 486.206H440.291L410.076 359.776L402.311 359.716L372.096 486.206H378.717Z" fill="white"/>
<path d="M222.463 485.785L249.97 371.582L277.477 485.785H284.098L253.822 359.354H246.118L215.902 485.785H222.463Z" fill="white"/>
<path d="M285.241 486.688H276.815L276.634 486.026L250.03 375.437L223.185 486.688H214.759L245.395 358.451H254.544L254.725 359.113L285.241 486.688ZM278.199 484.881H282.954L253.16 360.258H246.84L217.046 484.881H221.801L250.03 367.727L278.199 484.881Z" fill="#071824"/>
<path d="M435.717 351.644H218.791V361.944H435.717V351.644Z" fill="white"/>
<path d="M436.68 362.848H217.889V350.741H436.62V362.848H436.68ZM219.694 361.041H434.814V352.548H219.694V361.041Z" fill="#071824"/>
<path d="M370.049 360.439C369.568 360.439 369.146 360.017 369.146 359.535V353.813C369.146 353.331 369.568 352.909 370.049 352.909C370.531 352.909 370.952 353.331 370.952 353.813V359.535C370.952 360.017 370.591 360.439 370.049 360.439Z" fill="#005D95"/>
<path d="M438.666 425.792H433.851C432.527 425.792 431.504 426.816 431.504 428.141H441.014C441.014 426.876 439.99 425.792 438.666 425.792Z" fill="#005D95"/>
<path d="M477.128 425.792H472.313C470.988 425.792 469.965 426.816 469.965 428.141H479.475C479.475 426.876 478.392 425.792 477.128 425.792Z" fill="#005D95"/>
<path d="M475.864 425.672L476.646 421.094C477.188 417.841 475.021 415.191 471.771 415.191H443C439.75 415.191 436.68 417.841 436.138 421.094L435.356 425.672H437.583L438.185 422.118C438.606 419.588 441.014 417.54 443.542 417.54H470.507C473.035 417.54 474.72 419.588 474.299 422.118L473.697 425.672H475.864Z" fill="#005D95"/>
<path d="M470.326 413.324H445.046C444.023 413.324 443.06 414.167 442.88 415.191L442.518 417.42C442.338 418.444 443.06 419.287 444.023 419.287H469.303C470.326 419.287 471.289 418.444 471.47 417.42L471.831 415.191C472.012 414.107 471.35 413.324 470.326 413.324Z" fill="#A3CEED"/>
<path d="M469.303 420.07H444.023C443.301 420.07 442.579 419.769 442.157 419.227C441.676 418.685 441.495 417.962 441.616 417.179L441.977 414.95C442.217 413.504 443.542 412.36 445.046 412.36H470.326C471.049 412.36 471.771 412.661 472.192 413.203C472.674 413.745 472.854 414.468 472.734 415.251L472.373 417.48C472.132 418.986 470.808 420.07 469.303 420.07ZM445.046 414.227C444.445 414.227 443.903 414.709 443.782 415.311L443.421 417.54C443.361 417.781 443.421 417.962 443.542 418.142C443.662 418.263 443.843 418.383 444.083 418.383H469.363C469.965 418.383 470.507 417.902 470.627 417.299L470.988 415.071C471.049 414.83 470.988 414.649 470.868 414.468C470.748 414.348 470.567 414.227 470.326 414.227H445.046Z" fill="#071824"/>
<path d="M483.929 499.097H410.076C405.622 499.097 402.311 495.001 403.214 490.664L414.41 436.152C415.373 431.575 419.405 428.262 424.04 428.262H487.36L483.929 499.097Z" fill="#A3CEED"/>
<path d="M483.929 500H410.076C407.668 500 405.441 498.916 403.936 497.109C402.432 495.242 401.83 492.832 402.311 490.543L413.507 436.032C414.53 431.033 418.984 427.418 424.04 427.418H487.36C487.601 427.418 487.842 427.539 488.022 427.72C488.203 427.9 488.263 428.141 488.263 428.382L484.772 499.157C484.832 499.639 484.411 500 483.929 500ZM424.1 429.165C419.887 429.165 416.215 432.177 415.312 436.333L404.117 490.845C403.756 492.652 404.177 494.519 405.381 495.904C406.525 497.35 408.27 498.133 410.136 498.133H483.147L486.578 429.165H424.1Z" fill="#071824"/>
<path d="M493.439 499.097H479.114C474.66 499.097 471.349 495.001 472.252 490.664L484.591 430.611C484.892 429.225 486.096 428.262 487.48 428.262H491.152C492.657 428.262 493.981 429.406 494.101 430.972L499.157 492.892C499.338 496.266 496.75 499.097 493.439 499.097Z" fill="#005D95"/>
<path d="M493.439 500H479.114C476.706 500 474.479 498.916 472.975 497.109C471.47 495.242 470.868 492.832 471.349 490.543L483.688 430.49C484.05 428.744 485.615 427.418 487.42 427.418H491.092C493.078 427.418 494.763 428.985 494.944 430.972L500 492.892C500.12 494.7 499.519 496.567 498.255 497.892C497.051 499.217 495.245 500 493.439 500ZM487.42 429.165C486.457 429.165 485.615 429.828 485.434 430.792L473.095 490.845C472.734 492.652 473.155 494.519 474.359 495.904C475.563 497.29 477.248 498.133 479.114 498.133H493.439C494.824 498.133 496.028 497.591 496.991 496.567C497.893 495.543 498.375 494.278 498.255 492.892L493.199 430.972C493.138 429.948 492.236 429.105 491.152 429.105H487.42V429.165Z" fill="#071824"/>
<path d="M472.072 457.776H414.229C413.748 457.776 413.326 457.355 413.326 456.873C413.326 456.391 413.748 455.969 414.229 455.969H472.072C473.396 455.969 474.479 455.066 474.78 453.801L479.896 432.237C480.017 431.755 480.498 431.454 480.98 431.575C481.461 431.695 481.762 432.177 481.642 432.659L476.526 454.222C476.044 456.331 474.239 457.776 472.072 457.776Z" fill="#071824"/>
<path d="M451.547 456.873L449.922 463.438C449.681 464.522 448.658 465.305 447.514 465.305H436.078C434.814 465.305 433.911 464.101 434.272 462.896L435.958 456.873H451.547Z" fill="white"/>
<path d="M447.574 466.209H436.138C435.235 466.209 434.453 465.787 433.911 465.125C433.369 464.402 433.189 463.559 433.43 462.715L435.115 456.692C435.235 456.331 435.596 456.029 435.958 456.029H451.547C451.848 456.029 452.089 456.15 452.269 456.391C452.45 456.632 452.51 456.873 452.45 457.174L450.825 463.739C450.463 465.185 449.139 466.209 447.574 466.209ZM436.68 457.776L435.175 463.197C435.115 463.498 435.175 463.8 435.356 464.041C435.536 464.281 435.837 464.402 436.138 464.402H447.574C448.297 464.402 448.899 463.92 449.079 463.197L450.403 457.776H436.68Z" fill="#071824"/>
<path d="M468.641 494.519H407.187C406.705 494.519 406.284 494.097 406.284 493.615C406.284 493.133 406.705 492.712 407.187 492.712H468.641C469.122 492.712 469.544 493.133 469.544 493.615C469.544 494.097 469.122 494.519 468.641 494.519Z" fill="#071824"/>
<path d="M478.933 494.519C478.633 494.519 478.332 494.338 478.151 494.037C477.91 493.615 478.031 493.073 478.512 492.832L487.962 487.471V432.538C487.962 432.056 488.383 431.635 488.865 431.635C489.346 431.635 489.768 432.056 489.768 432.538V488.014C489.768 488.315 489.587 488.616 489.286 488.797L479.415 494.459C479.234 494.459 479.114 494.519 478.933 494.519Z" fill="#A3CEED"/>
<path d="M74.1543 82.2792C73.3718 82.2792 72.6496 82.0985 71.9273 81.7371C70.7235 81.1348 69.8206 80.1108 69.3993 78.8459C68.978 77.581 69.0983 76.2559 69.6401 75.0512C70.242 73.8465 71.2652 72.943 72.5292 72.5214C73.7932 72.0997 75.1174 72.2202 76.3212 72.7623C77.525 73.3646 78.4278 74.3886 78.8492 75.6535C79.2705 76.9184 79.1501 78.2436 78.6084 79.4482C78.0065 80.6529 76.9833 81.5564 75.7193 81.9781C75.2377 82.1588 74.696 82.2792 74.1543 82.2792ZM74.1543 74.0874C73.7932 74.0874 73.4922 74.1477 73.1311 74.2681C72.3486 74.5091 71.6865 75.1114 71.2652 75.8342C70.9041 76.6173 70.8439 77.4605 71.0846 78.2436C71.3254 79.0266 71.9273 79.6892 72.6496 80.1108C73.432 80.4722 74.2747 80.5324 75.0572 80.2915C75.8396 80.0506 76.5017 79.4482 76.9231 78.7254C77.2842 77.9424 77.3444 77.0991 77.1036 76.3161C76.8629 75.533 76.261 74.8705 75.5387 74.4488C75.1174 74.2079 74.6358 74.0874 74.1543 74.0874Z" fill="#071824"/>
<path d="M53.4489 98.2412C53.0878 98.2412 52.7266 98.0002 52.6062 97.5786L51.2219 93.1213C51.1015 92.6394 51.3422 92.1576 51.8238 91.9769C52.3053 91.8564 52.7868 92.0973 52.9674 92.5792L54.3518 97.0365C54.4721 97.5184 54.2314 98.0002 53.7499 98.1809C53.6295 98.2412 53.5693 98.2412 53.4489 98.2412Z" fill="#071824"/>
<path d="M56.6992 108.662C56.338 108.662 55.9769 108.421 55.8565 107.999L54.4721 103.542C54.3518 103.06 54.5925 102.578 55.074 102.397C55.5556 102.277 56.0371 102.518 56.2177 103L57.602 107.457C57.7224 107.939 57.4816 108.421 57.0001 108.601C56.8797 108.601 56.7594 108.662 56.6992 108.662Z" fill="#071824"/>
<path d="M46.9484 103.482C46.5872 103.482 46.2261 103.241 46.1057 102.819C45.9853 102.337 46.2261 101.855 46.7076 101.675L51.1617 100.289C51.6432 100.169 52.1247 100.41 52.3053 100.891C52.4257 101.373 52.1849 101.855 51.7034 102.036L47.2493 103.421C47.1289 103.482 47.0687 103.482 46.9484 103.482Z" fill="#071824"/>
<path d="M57.3613 100.289C57.0001 100.289 56.639 100.048 56.5186 99.6266C56.3982 99.1447 56.639 98.6628 57.1205 98.4821L61.5746 97.0967C62.0561 96.9763 62.5376 97.2172 62.7182 97.6991C62.8386 98.1809 62.5978 98.6628 62.1163 98.8435L57.6622 100.229C57.5418 100.289 57.4214 100.289 57.3613 100.289Z" fill="#071824"/>
<path d="M408.511 48.7892C408.33 48.7892 408.15 48.729 407.969 48.6085C393.223 38.0074 377.814 29.6952 362.345 23.8525C361.864 23.6718 361.623 23.1297 361.803 22.7081C361.984 22.2262 362.526 21.9853 362.947 22.166C378.596 28.0086 394.125 36.4413 408.992 47.1027C409.414 47.4039 409.474 47.946 409.173 48.3676C409.113 48.6688 408.812 48.7892 408.511 48.7892Z" fill="#071824"/>
<path d="M472.493 115.167C472.192 115.167 471.891 115.046 471.711 114.745C471.53 114.444 451.848 83.3031 417.6 55.8968C417.238 55.5956 417.118 54.9933 417.479 54.6319C417.78 54.2705 418.382 54.15 418.743 54.5114C453.292 82.0985 473.095 113.54 473.276 113.842C473.516 114.263 473.396 114.805 472.975 115.107C472.854 115.167 472.674 115.167 472.493 115.167Z" fill="#071824"/>
<path d="M466.534 90.0493C466.233 90.0493 465.993 89.9289 465.812 89.6879C465.451 89.2061 429.939 41.501 385.759 23.3706C385.277 23.1899 385.097 22.6478 385.277 22.166C385.458 21.6841 386 21.5034 386.481 21.6841C431.142 39.9951 466.956 88.1219 467.317 88.6037C467.618 89.0254 467.497 89.5675 467.136 89.8686C466.895 89.9891 466.715 90.0493 466.534 90.0493Z" fill="#071824"/>
<path d="M485.795 133.116C485.675 133.116 485.614 133.116 485.494 133.056L471.109 127.756C470.808 127.635 470.627 127.394 470.567 127.153C470.507 126.852 470.567 126.551 470.748 126.31L480.017 115.769C480.258 115.528 480.559 115.408 480.86 115.468C481.16 115.528 481.461 115.769 481.522 116.07L486.638 131.852C486.758 132.153 486.638 132.514 486.397 132.755C486.277 133.056 486.036 133.116 485.795 133.116ZM472.975 126.551L484.351 130.767L480.318 118.239L472.975 126.551Z" fill="#071824"/>
</svg>
