<svg width="600" height="600" viewBox="0 0 600 600" fill="none" xmlns="http://www.w3.org/2000/svg">
<path d="M348.824 534.641C436.699 505.465 463.047 541.069 510.677 514.492C583.93 473.544 613.319 338.926 594.499 241.141C571.336 121.401 468.621 12.9273 330.583 2.961C183.496 -7.58305 60.7311 54.2369 20.4126 207.992C-11.0025 327.805 -15.9971 501.637 76.9454 564.757C87.0069 571.618 142.092 607.439 211.364 597.472C268.621 589.239 279.189 557.824 348.824 534.641Z" fill="#78B7E5"/>
<path d="M54.4335 174.41C54.3611 174.41 54.2887 174.41 54.2887 174.41C53.7097 174.338 53.2754 173.76 53.3477 173.182L54.2164 167.622C54.2887 167.044 54.8678 166.611 55.4469 166.683C56.026 166.755 56.4603 167.333 56.3879 167.91L55.5193 173.471C55.4469 174.049 55.0126 174.41 54.4335 174.41Z" fill="#071824"/>
<path d="M52.4792 187.338C52.4068 187.338 52.3344 187.338 52.3344 187.338C51.7553 187.265 51.321 186.688 51.3934 186.11L52.262 180.549C52.3344 179.971 52.9135 179.538 53.4926 179.61C54.0716 179.682 54.5059 180.26 54.4336 180.838L53.5649 186.399C53.4926 186.976 52.9859 187.338 52.4792 187.338Z" fill="#071824"/>
<path d="M50.2352 177.588C50.1628 177.588 50.0904 177.588 50.0904 177.588L44.5168 176.721C43.9377 176.649 43.5034 176.071 43.5758 175.494C43.6481 174.916 44.2272 174.482 44.8063 174.555L50.38 175.421C50.959 175.494 51.3934 176.071 51.321 176.649C51.1762 177.155 50.7419 177.588 50.2352 177.588Z" fill="#071824"/>
<path d="M63.1197 179.538C63.0473 179.538 62.9749 179.538 62.9749 179.538L57.4013 178.671C56.8222 178.599 56.3879 178.021 56.4603 177.443C56.5327 176.866 57.1117 176.432 57.6908 176.505L63.2645 177.371C63.8436 177.443 64.2779 178.021 64.2055 178.599C64.1331 179.104 63.6988 179.538 63.1197 179.538Z" fill="#071824"/>
<path d="M38.1469 220.559C36.6268 220.559 35.1791 220.197 33.8762 219.403C31.8494 218.247 30.3293 216.298 29.7503 213.987C28.5197 209.292 31.2703 204.381 35.9754 203.081C38.2193 202.431 40.5356 202.72 42.5624 203.876C44.5892 205.031 46.1093 206.981 46.6884 209.292C47.9189 213.987 45.1683 218.897 40.4633 220.197C39.7394 220.486 38.9432 220.559 38.1469 220.559ZM38.2917 204.959C37.7126 204.959 37.1335 205.031 36.5545 205.176C33.0076 206.187 30.9084 209.87 31.8494 213.481C32.2837 215.214 33.4419 216.659 34.962 217.598C36.4821 218.464 38.2193 218.681 39.8842 218.248C43.431 217.236 45.5302 213.553 44.5892 209.942C44.1549 208.209 42.9967 206.765 41.4766 205.826C40.4632 205.248 39.3775 204.959 38.2917 204.959Z" fill="#071824"/>
<path d="M38.0745 254.791C36.8439 254.791 35.6858 254.502 34.6 253.852C32.9352 252.913 31.777 251.396 31.2703 249.519C30.2569 245.691 32.5008 241.791 36.2649 240.78C38.0745 240.274 39.9565 240.491 41.549 241.43C43.2138 242.369 44.372 243.885 44.8787 245.763C45.8921 249.591 43.6481 253.491 39.8841 254.502C39.305 254.718 38.726 254.791 38.0745 254.791ZM38.1469 242.658C37.7126 242.658 37.2783 242.73 36.8439 242.802C34.2381 243.524 32.718 246.269 33.3695 248.941C33.7314 250.241 34.5276 251.324 35.6858 251.974C36.7716 252.624 38.0745 252.768 39.305 252.407C41.9109 251.685 43.431 248.941 42.7795 246.269C42.4176 244.969 41.6214 243.885 40.4632 243.235C39.8117 242.874 38.9431 242.658 38.1469 242.658Z" fill="#071824"/>
<path d="M302.859 540.924L331.524 157.8C331.886 152.672 336.373 148.483 341.513 148.411L586.102 147.328C591.241 147.328 595.078 151.444 594.643 156.572L566.051 539.697C565.689 544.824 561.202 549.013 556.062 549.085L311.473 550.168C306.334 550.241 302.497 546.052 302.859 540.924Z" fill="#A3CEED"/>
<path d="M311.401 551.252C308.65 551.252 306.116 550.169 304.307 548.219C302.425 546.269 301.556 543.597 301.773 540.78L330.438 157.728C330.872 152.022 335.794 147.4 341.513 147.328L586.102 146.245C586.102 146.245 586.102 146.245 586.174 146.245C588.925 146.245 591.458 147.328 593.268 149.278C595.15 151.228 596.019 153.9 595.802 156.716L567.137 539.769C566.703 545.474 561.781 550.096 556.062 550.169L311.401 551.252C311.473 551.252 311.401 551.252 311.401 551.252ZM303.945 540.997C303.8 543.235 304.452 545.258 305.899 546.774C307.275 548.291 309.229 549.085 311.401 549.085C311.401 549.085 311.401 549.085 311.473 549.085L556.062 548.002C560.622 548.002 564.604 544.247 564.966 539.625L593.558 156.572C593.702 154.333 593.051 152.311 591.603 150.794C590.228 149.278 588.274 148.483 586.102 148.483C586.102 148.483 586.102 148.483 586.03 148.483L341.44 149.567C336.88 149.567 332.899 153.322 332.537 157.944L303.945 540.997Z" fill="#005D95"/>
<path d="M283.749 526.192L310.025 174.555C310.387 169.427 314.875 165.238 320.014 165.166L564.604 164.083C569.743 164.083 573.579 168.199 573.145 173.327L546.869 525.036C546.507 530.164 542.019 534.352 536.88 534.425L292.291 535.508C287.224 535.508 283.388 531.319 283.749 526.192Z" fill="white"/>
<path d="M273.543 524.603L299.819 172.966C300.181 167.838 304.669 163.649 309.808 163.577L554.397 162.494C559.537 162.494 563.373 166.61 562.939 171.738L536.663 523.375C536.301 528.503 531.813 532.691 526.674 532.764L282.085 533.847C276.945 533.919 273.109 529.73 273.543 524.603Z" fill="#78B7E5"/>
<path d="M258.198 548.508L287.948 150.65C288.31 145.522 292.798 141.334 297.937 141.261L542.526 140.178C547.666 140.178 551.502 144.295 551.068 149.422L521.317 547.28C520.955 552.407 516.468 556.596 511.328 556.668L266.739 557.752C261.6 557.824 257.763 553.635 258.198 548.508Z" fill="#A3CEED"/>
<path d="M266.739 558.907C263.988 558.907 261.455 557.824 259.645 555.874C257.763 553.924 256.895 551.252 257.112 548.435L258.198 548.507L257.112 548.435L286.862 150.578C287.296 144.872 292.219 140.25 297.937 140.178L542.526 139.095C542.526 139.095 542.526 139.095 542.599 139.095C545.349 139.095 547.883 140.178 549.692 142.128C551.574 144.078 552.443 146.75 552.226 149.567L522.403 547.424C521.969 553.13 517.047 557.752 511.328 557.824L266.739 558.907ZM542.526 141.261L297.865 142.345C293.304 142.345 289.323 146.1 288.961 150.722L259.211 548.58C259.066 550.818 259.718 552.841 261.165 554.357C262.541 555.874 264.568 556.668 266.667 556.668L511.256 555.585C515.816 555.585 519.797 551.83 520.159 547.207L549.91 149.35C550.054 147.111 549.403 145.089 547.955 143.572C546.58 142.056 544.625 141.261 542.526 141.261Z" fill="#005D95"/>
<path d="M452.769 86.4468H143.54C133.768 86.4468 124.575 95.0409 122.91 105.657L52.6963 560.496C51.0315 571.112 57.6185 579.706 67.3905 579.706H376.62C386.392 579.706 395.585 571.112 397.249 560.496L467.463 105.657C469.128 95.0409 462.541 86.4468 452.769 86.4468Z" fill="#005D95"/>
<path d="M442.852 84.208H133.623C123.851 84.208 114.658 92.8744 112.993 103.563L42.7796 561.796C41.1147 572.484 47.7018 581.151 57.4738 581.151H366.703C376.475 581.151 385.668 572.484 387.333 561.796L457.546 103.563C459.211 92.8744 452.624 84.208 442.852 84.208Z" fill="#A3CEED"/>
<path d="M354.759 531.536H84.6906L148.534 114.901H418.531L354.759 531.536Z" fill="white"/>
<path d="M137.894 272.557C137.604 272.557 137.242 272.412 137.097 272.195C136.88 271.979 136.808 271.618 136.88 271.329L148.679 202.359C148.751 201.854 149.186 201.493 149.765 201.493L392.544 199.109C392.834 199.109 393.196 199.254 393.341 199.47C393.558 199.687 393.63 200.048 393.558 200.337L381.252 270.679C381.18 271.184 380.746 271.546 380.166 271.546L137.894 272.557ZM150.633 203.587L139.196 270.39L379.37 269.451L391.314 201.276L150.633 203.587Z" fill="#A3CEED"/>
<path d="M147.376 216.37C146.797 216.37 146.29 215.864 146.29 215.286C146.29 214.709 146.797 214.203 147.376 214.203L389.721 212.759C390.3 212.759 390.807 213.264 390.807 213.842C390.807 214.42 390.3 214.925 389.721 214.925L147.376 216.37Z" fill="#A3CEED"/>
<path d="M307.492 259.629H148.896L151.285 247.28H309.881L307.492 259.629Z" fill="#E5A678"/>
<path d="M310.677 240.852H152.081L154.47 228.503H313.065L310.677 240.852Z" fill="#E5A678"/>
<path d="M374.81 240.852H322.258L324.647 228.503H377.199L374.81 240.852Z" fill="#E5A678"/>
<path d="M370.322 260.135H317.771L320.159 247.785H372.711L370.322 260.135Z" fill="#E5A678"/>
<path d="M343.612 507.342L99.0228 506.837C98.7333 506.837 98.3714 506.692 98.1542 506.476C97.9371 506.259 97.8647 505.898 97.9371 505.609L113.645 419.884C113.717 419.379 114.151 419.018 114.73 419.018L357.51 416.635C357.799 416.635 358.161 416.779 358.379 416.996C358.596 417.212 358.668 417.573 358.596 417.862L344.625 506.404C344.553 506.909 344.119 507.342 343.612 507.342ZM100.326 504.67L342.671 505.176L356.279 418.801L115.671 421.112L100.326 504.67Z" fill="#A3CEED"/>
<path d="M112.342 433.895C111.763 433.895 111.256 433.39 111.256 432.812C111.256 432.234 111.763 431.728 112.342 431.728L354.687 430.284C355.266 430.284 355.773 430.79 355.773 431.367C355.773 431.945 355.266 432.451 354.687 432.451L112.342 433.895C112.414 433.895 112.342 433.895 112.342 433.895Z" fill="#A3CEED"/>
<path d="M272.458 477.227H113.862L116.251 464.805H274.846L272.458 477.227Z" fill="#E5A678"/>
<path d="M275.642 458.377H117.047L119.508 446.028H278.031L275.642 458.377Z" fill="#E5A678"/>
<path d="M339.776 458.377H287.224L289.613 446.028H342.164L339.776 458.377Z" fill="#E5A678"/>
<path d="M335.288 477.66H282.736L285.197 465.311H337.749L335.288 477.66Z" fill="#E5A678"/>
<path d="M268.838 496.076H110.243L112.631 483.727H271.227L268.838 496.076Z" fill="#E5A678"/>
<path d="M331.669 496.582H279.117L281.506 484.232H334.057L331.669 496.582Z" fill="#E5A678"/>
<path d="M362.07 398.652H116.54C116.25 398.652 115.888 398.507 115.671 398.291C115.454 398.074 115.382 397.713 115.454 397.424L135.577 291.839C135.65 291.334 136.084 290.973 136.663 290.973L379.443 288.589C379.732 288.589 380.094 288.734 380.239 288.95C380.456 289.167 380.528 289.528 380.456 289.817L363.084 397.713C363.011 398.291 362.577 398.652 362.07 398.652ZM117.843 396.485H361.129L378.14 290.756L137.532 293.067L117.843 396.485Z" fill="#A3CEED"/>
<path d="M134.274 305.85C133.695 305.85 133.188 305.344 133.188 304.766C133.188 304.189 133.695 303.683 134.274 303.683L376.62 302.239C377.199 302.239 377.705 302.744 377.705 303.322C377.705 303.9 377.199 304.405 376.62 304.405L134.274 305.85Z" fill="#A3CEED"/>
<path d="M294.318 349.109H135.722L138.111 336.76H296.706L294.318 349.109Z" fill="#E5A678"/>
<path d="M297.575 330.332H138.979L141.368 317.983H299.964L297.575 330.332Z" fill="#E5A678"/>
<path d="M361.636 330.332H309.084L311.545 317.983H364.025L361.636 330.332Z" fill="#E5A678"/>
<path d="M357.22 349.615H304.669L307.058 337.265H359.609L357.22 349.615Z" fill="#E5A678"/>
<path d="M290.699 368.031H132.103L134.491 355.681H293.087L290.699 368.031Z" fill="#E5A678"/>
<path d="M353.529 368.536H300.977L303.438 356.187H355.917L353.529 368.536Z" fill="#E5A678"/>
<path d="M286.283 387.458H127.687L130.148 375.108H288.744L286.283 387.458Z" fill="#E5A678"/>
<path d="M349.186 387.963H296.634L299.023 375.614H351.574L349.186 387.963Z" fill="#E5A678"/>
<path d="M358.74 165.238H195.874L198.335 152.528H361.202L358.74 165.238Z" fill="#E5A678"/>
<path d="M355.845 185.604H192.906L195.367 172.894H358.306L355.845 185.604Z" fill="#E5A678"/>
<path d="M127.108 533.341C126.529 533.341 126.022 532.836 126.022 532.258C126.022 531.68 126.529 531.175 127.108 531.175L183.858 530.453C184.437 530.453 184.944 530.958 184.944 531.536C184.944 532.114 184.437 532.619 183.858 532.619L127.108 533.341Z" fill="#071824"/>
<path d="M382.338 352.287C382.266 352.287 382.193 352.287 382.193 352.287C381.614 352.215 381.18 351.637 381.252 351.059L417.228 115.985H149.403L130.583 238.83C130.51 239.408 129.931 239.841 129.352 239.769C128.773 239.697 128.339 239.119 128.411 238.541L147.376 114.829C147.448 114.324 147.883 113.89 148.462 113.89H418.531C418.82 113.89 419.182 114.035 419.327 114.251C419.544 114.468 419.616 114.829 419.544 115.118L383.351 351.42C383.351 351.926 382.917 352.287 382.338 352.287Z" fill="#071824"/>
<path d="M120.304 300.072C120.232 300.072 120.159 300.072 120.159 300.072C119.58 300 119.146 299.422 119.218 298.844L126.095 253.852C126.167 253.274 126.746 252.841 127.325 252.913C127.904 252.985 128.339 253.563 128.266 254.141L121.39 299.133C121.317 299.639 120.883 300.072 120.304 300.072Z" fill="#071824"/>
<path d="M425.552 313.794C425.48 313.794 425.407 313.794 425.407 313.794C424.828 313.722 424.394 313.144 424.466 312.566L456.533 103.418C457.329 98.2908 456.098 93.3077 453.131 89.9134C450.597 86.9523 446.978 85.2913 442.924 85.2913H133.623C124.43 85.2913 115.599 93.5243 114.079 103.707L94.173 233.558C94.1006 234.136 93.5215 234.569 92.9424 234.497C92.3633 234.425 91.929 233.847 92.0014 233.269L111.907 103.418C113.645 92.2244 123.344 83.1969 133.623 83.1969H442.852C447.557 83.1969 451.755 85.0746 454.723 88.5412C458.053 92.441 459.5 98.0019 458.632 103.78L426.565 312.927C426.493 313.433 426.059 313.794 425.552 313.794Z" fill="#071824"/>
<path d="M371.915 139.167H196.453C189.287 139.167 184.437 132.812 185.668 125.012L188.78 104.502C191.531 86.6634 206.949 72.2195 223.236 72.2195H365.617C381.904 72.2195 392.906 86.6634 390.156 104.502L387.043 125.012C385.885 132.812 379.081 139.167 371.915 139.167Z" fill="#071824"/>
<path d="M371.915 140.25H196.453C192.906 140.25 189.721 138.806 187.55 136.206C185.016 133.245 183.93 129.129 184.654 124.795L187.767 104.285C190.59 85.9412 206.515 71.064 223.308 71.064H365.689C373.29 71.064 380.166 74.1695 385.016 79.7304C390.518 86.0857 392.761 95.1854 391.386 104.574L388.274 125.084C386.826 133.462 379.587 140.25 371.915 140.25ZM223.308 73.2306C207.528 73.2306 192.617 87.3134 189.938 104.574L186.826 125.084C186.247 128.767 187.115 132.306 189.215 134.762C191.024 136.856 193.63 138.012 196.525 138.012H371.987C378.646 138.012 384.944 132.09 386.03 124.723L389.142 104.213C390.517 95.402 388.346 86.9523 383.279 81.1025C378.863 75.975 372.638 73.1584 365.617 73.1584H223.308V73.2306Z" fill="#071824"/>
<path d="M367.571 139.167H192.11C184.944 139.167 180.094 132.812 181.325 125.012L184.437 104.502C187.188 86.6634 202.606 72.2195 218.893 72.2195H361.274C377.561 72.2195 388.563 86.6634 385.813 104.502L382.7 125.012C381.469 132.812 374.738 139.167 367.571 139.167Z" fill="#A3CEED"/>
<path d="M367.571 140.25H192.11C188.563 140.25 185.378 138.806 183.207 136.206C180.673 133.245 179.587 129.129 180.311 124.795L183.424 104.285C186.247 85.9412 202.171 71.064 218.965 71.064H361.346C368.947 71.064 375.823 74.1695 380.673 79.7304C386.174 86.0857 388.491 95.1854 387.043 104.574L383.93 125.084C382.483 133.462 375.244 140.25 367.571 140.25ZM218.892 73.2306C203.113 73.2306 188.201 87.3134 185.523 104.574L182.41 125.084C181.831 128.767 182.7 132.306 184.799 134.762C186.609 136.856 189.215 138.012 192.11 138.012H367.571C374.231 138.012 380.528 132.09 381.614 124.723L384.727 104.213C386.102 95.402 383.93 86.9523 378.864 81.1025C374.448 75.975 368.223 73.1584 361.202 73.1584H218.892V73.2306Z" fill="#071824"/>
<path d="M303.8 1.0833C285.487 1.0833 268.114 17.3327 265.074 37.4097L256.388 94.0299C255.375 100.385 259.356 105.585 265.219 105.585H310.46C316.323 105.585 321.824 100.385 322.837 94.0299L331.524 37.4097C334.491 17.3327 322.114 1.0833 303.8 1.0833ZM297.72 40.6596C292.001 40.6596 288.165 35.6042 289.106 29.3211C290.047 23.1103 295.476 17.9827 301.194 17.9827C306.913 17.9827 310.749 23.038 309.808 29.3211C308.867 35.6042 303.438 40.6596 297.72 40.6596Z" fill="#071824"/>
<path d="M310.387 106.74H265.147C262.179 106.74 259.573 105.585 257.691 103.418C255.592 100.963 254.723 97.5686 255.23 93.9576L263.916 37.3375C267.029 16.8272 284.908 0.0722198 303.728 0.0722198C312.269 0.0722198 319.942 3.53876 325.299 9.74964C331.451 16.8994 333.985 27.0101 332.392 37.6264L323.706 94.2465C322.765 101.107 316.757 106.74 310.387 106.74ZM303.8 2.16659C285.993 2.16659 269.128 18.0549 266.088 37.5542L257.401 94.1743C256.967 97.1353 257.618 99.9519 259.356 101.902C260.803 103.563 262.83 104.502 265.147 104.502H310.387C315.671 104.502 320.738 99.7352 321.679 93.8854L330.365 37.2653C331.886 27.299 329.497 17.766 323.778 11.1218C318.784 5.34425 311.69 2.16659 303.8 2.16659ZM297.72 41.7429C294.824 41.7429 292.219 40.5874 290.409 38.493C288.382 36.1098 287.514 32.7155 288.02 29.2489C289.034 22.5325 294.969 17.0438 301.122 17.0438C304.017 17.0438 306.623 18.1993 308.433 20.2937C310.46 22.6769 311.328 26.0713 310.822 29.5378C309.808 36.2542 303.945 41.7429 297.72 41.7429ZM301.194 19.1382C295.983 19.1382 291.06 23.8325 290.192 29.5378C289.757 32.4266 290.409 35.1709 292.074 37.0486C293.449 38.7097 295.476 39.5763 297.72 39.5763C302.932 39.5763 307.854 34.882 308.722 29.1767C309.157 26.2879 308.505 23.5436 306.84 21.6659C305.465 20.0048 303.438 19.1382 301.194 19.1382Z" fill="#071824"/>
<path d="M300.977 1.0833C282.664 1.0833 265.291 17.3327 262.251 37.4097L253.565 94.0299C252.552 100.385 256.533 105.585 262.396 105.585H307.637C313.5 105.585 319.001 100.385 320.014 94.0299L328.701 37.4097C331.668 17.3327 319.291 1.0833 300.977 1.0833ZM294.897 40.6596C289.178 40.6596 285.342 35.6042 286.283 29.3211C287.224 23.1103 292.653 17.9827 298.371 17.9827C304.09 17.9827 307.926 23.038 306.985 29.3211C306.044 35.6042 300.615 40.6596 294.897 40.6596Z" fill="#A3CEED"/>
<path d="M307.564 106.74H262.324C259.356 106.74 256.75 105.585 254.868 103.418C252.769 100.963 251.9 97.5686 252.407 93.9576L261.093 37.3375C264.206 16.8272 282.085 0.0722198 300.905 0.0722198C309.446 0.0722198 317.119 3.53876 322.476 9.74964C328.628 16.8994 331.162 27.0101 329.569 37.6264L320.883 94.2465C319.942 101.107 313.934 106.74 307.564 106.74ZM300.977 2.16659C283.17 2.16659 266.305 18.0549 263.265 37.5542L254.578 94.1743C254.144 97.1353 254.795 99.9519 256.533 101.902C257.98 103.563 260.007 104.502 262.324 104.502H307.564C312.848 104.502 317.915 99.7352 318.856 93.8854L327.542 37.2653C329.063 27.299 326.674 17.766 320.955 11.1218C315.961 5.34425 308.867 2.16659 300.977 2.16659ZM294.897 41.7429C292.001 41.7429 289.396 40.5874 287.586 38.493C285.559 36.1098 284.691 32.7155 285.197 29.2489C286.211 22.5325 292.146 17.0438 298.299 17.0438C301.194 17.0438 303.8 18.1993 305.61 20.2937C307.637 22.6769 308.505 26.0713 307.999 29.5378C306.985 36.2542 301.122 41.7429 294.897 41.7429ZM298.371 19.1382C293.16 19.1382 288.237 23.8325 287.369 29.5378C286.934 32.4266 287.586 35.1709 289.251 37.0486C290.626 38.7097 292.653 39.5763 294.897 39.5763C300.109 39.5763 305.031 34.882 305.899 29.1767C306.334 26.2879 305.682 23.5436 304.017 21.6659C302.642 20.0048 300.615 19.1382 298.371 19.1382Z" fill="#071824"/>
<path d="M89.7575 290.611L89.9747 304.55C90.1918 306.283 91.4224 307.728 93.1596 308.161L93.8835 308.594C95.0416 308.883 95.6207 309.1 96.3446 311.772C87.4412 314.588 78.8997 313.938 70.865 308.811C70.5031 308.089 70.6478 307.15 71.7336 307.078L72.9642 306.789C74.629 306.428 75.932 305.055 76.2215 303.394L77.7416 285.556L89.7575 290.611Z" fill="white"/>
<path d="M86.2831 314.444C80.637 314.444 75.2805 312.855 70.286 309.677C70.1412 309.533 69.9964 309.389 69.8516 309.244C69.4897 308.45 69.4897 307.655 69.8516 307.005C70.0688 306.644 70.5031 306.139 71.5165 305.994L72.6747 305.705C73.9052 305.416 74.8462 304.478 75.1358 303.178L76.6558 285.412C76.6558 285.051 76.873 284.762 77.1625 284.545C77.4521 284.401 77.814 284.328 78.1759 284.473L90.1919 289.528C90.5538 289.673 90.8433 290.106 90.8433 290.539L91.0605 304.405C91.2053 305.705 92.1463 306.716 93.3768 307.078C93.4492 307.078 93.594 307.15 93.6663 307.15L94.2454 307.511C95.7655 307.944 96.5618 308.594 97.358 311.411C97.5028 311.988 97.2132 312.566 96.6341 312.711C93.0873 313.866 89.6128 314.444 86.2831 314.444ZM71.8784 308.089C78.9722 312.422 86.5002 313.361 94.9693 310.977C94.535 309.822 94.2454 309.75 93.594 309.605C93.5216 309.605 93.3768 309.533 93.3044 309.461L92.7253 309.1C90.6262 308.522 89.1785 306.789 88.8889 304.622C88.8889 304.55 88.8889 304.55 88.8889 304.478L88.6718 291.261L78.6826 287.073L77.2349 303.394V303.467C76.873 305.561 75.2081 307.294 73.109 307.728L71.8784 308.016C71.9508 308.089 71.8784 308.089 71.8784 308.089Z" fill="#071824"/>
<path d="M96.7065 263.601C93.2321 263.24 95.9827 267.357 83.7496 262.879C78.755 261.074 80.999 267.212 79.6961 266.779C74.8463 265.118 72.9642 266.635 71.8061 267.429C70.4308 268.368 68.9831 270.607 69.2002 272.773C69.4174 275.662 73.2538 276.745 74.991 282.884C76.2216 287.217 75.7873 289.817 77.4521 290.467C79.1894 291.189 80.5647 288.95 82.4467 289.6C84.9078 290.467 84.1839 294.728 86.5726 296.678C88.0927 297.906 91.6396 298.628 97.5752 296.1C98.5162 295.667 99.0953 294.656 98.8781 293.645C98.5886 292.345 98.2266 290.684 97.7199 289.167C95.4036 281.873 92.8701 280.067 93.9559 278.262C95.5484 275.518 100.905 277.395 101.918 275.084C102.932 272.773 101.484 264.179 96.7065 263.601Z" fill="#071824"/>
<path d="M84.4734 279.779C84.9077 280.645 85.2696 281.584 85.5592 282.523C86.1383 284.328 87.0793 287.289 87.8031 288.95C88.6717 290.973 94.6073 289.384 96.4893 288.878C96.7789 288.806 96.9236 288.445 96.8513 288.156L96.2722 286.423L97.7199 286.134C97.8646 286.062 98.0818 285.989 98.1542 285.845C98.4437 285.484 98.5161 284.978 98.2266 284.617C97.0684 282.74 94.9692 279.562 94.0282 275.734C93.9558 275.373 93.5939 275.012 93.232 274.94C91.8567 274.723 88.6717 274.362 85.4144 276.384C84.3286 277.179 83.8943 278.623 84.4734 279.779Z" fill="white"/>
<path d="M90.409 291.117C88.4546 291.117 87.2241 290.539 86.7174 289.384C85.9935 287.65 84.9801 284.545 84.4734 282.812C84.1839 281.945 83.822 281.006 83.46 280.212C82.6638 278.479 83.2429 276.456 84.9077 275.445C88.527 273.279 92.1462 273.64 93.5216 273.857C94.3178 274.001 94.9693 274.651 95.1864 275.445C95.9827 278.767 97.7199 281.584 98.8781 283.462L99.24 283.967C99.7467 284.762 99.6019 285.773 99.0228 286.423C98.8057 286.712 98.4437 286.928 98.0818 287L97.9371 287.073L97.6475 287.145L97.8647 287.795C98.0094 288.156 98.0094 288.662 97.7923 289.023C97.5751 289.456 97.2132 289.745 96.7789 289.817C94.173 290.756 92.0739 291.117 90.409 291.117ZM85.4868 279.345C85.9211 280.284 86.283 281.223 86.645 282.234C87.1517 283.895 88.1651 287 88.8165 288.589C88.9613 289.023 91.2776 289.239 95.6931 288.012L94.9693 285.628L97.4304 285.123L97.1408 284.689C95.9103 282.667 94.0283 279.706 93.1596 276.023C92.0015 275.806 89.0337 275.518 86.1383 277.323C85.4144 277.829 85.1249 278.623 85.4868 279.345ZM95.7655 288.589C95.7655 288.589 95.8379 288.589 95.7655 288.589V288.589Z" fill="#071824"/>
<path d="M83.3877 286.351C79.7684 287.65 78.5379 284.256 79.3341 282.234C79.696 281.367 80.8542 281.295 81.3609 282.09L83.6772 285.773C83.7496 285.989 83.6048 286.278 83.3877 286.351Z" fill="white"/>
<path d="M46.5437 557.318L47.3399 571.762L57.0395 573.423L57.9082 556.307L46.5437 557.318Z" fill="white"/>
<path d="M57.0395 574.506C56.9671 574.506 56.8947 574.506 56.8947 574.506L47.1951 572.845C46.6884 572.773 46.3265 572.34 46.3265 571.834L45.5303 557.318C45.5303 556.741 45.9646 556.235 46.5437 556.163L57.9081 555.224C58.1977 555.224 58.5596 555.296 58.7767 555.513C58.9939 555.729 59.1387 556.018 59.1387 556.379L58.27 573.495C58.27 573.784 58.1253 574.073 57.8357 574.29C57.5462 574.434 57.329 574.506 57.0395 574.506ZM48.3533 570.895L56.0261 572.195L56.75 557.535L47.7018 558.257L48.3533 570.895Z" fill="#071824"/>
<path d="M57.329 598.628C53.2031 598.989 46.5437 599.133 38.7261 597.689C36.1926 597.183 34.6001 594.656 35.324 592.128C37.4232 585.195 41.0424 572.051 46.4713 566.129L47.5571 569.523L49.4391 566.49C49.7286 566.057 50.1629 565.768 50.6696 565.768L54.506 565.479C55.3023 565.407 56.0261 565.985 56.1709 566.779L56.6052 569.74L58.1253 565.985L61.1655 593.934C61.455 596.317 59.7178 598.411 57.329 598.628Z" fill="#A3CEED"/>
<path d="M51.5383 600C47.8466 600 43.3587 599.711 38.5089 598.772C36.9889 598.483 35.6859 597.545 34.8173 596.245C34.0211 594.945 33.8039 593.356 34.2382 591.839L34.6725 590.323C36.8441 583.173 40.391 571.112 45.6027 565.407C45.8922 565.118 46.2541 564.974 46.6161 565.046C46.978 565.118 47.2675 565.407 47.4123 565.768L47.7742 566.923L48.4257 565.84C48.86 565.118 49.6562 564.685 50.4525 564.612L54.2889 564.324C55.3747 564.251 56.3881 564.901 56.8948 565.84L57.0395 565.479C57.2567 565.046 57.691 564.757 58.1977 564.829C58.7044 564.901 59.0663 565.262 59.1387 565.768L62.1789 593.717C62.396 596.75 60.2245 599.35 57.2567 599.639C55.809 599.856 53.7822 600 51.5383 600ZM46.037 568.44C41.7663 574.218 38.7261 584.617 36.7717 590.973L36.3374 592.489C36.0479 593.356 36.1926 594.295 36.6993 595.161C37.206 595.956 38.0022 596.533 38.9433 596.678C46.5437 598.122 53.1307 597.978 57.2567 597.617C59.0663 597.472 60.3692 595.883 60.2245 594.078L57.6186 570.39C57.4015 570.751 56.9671 570.896 56.6052 570.896C56.0985 570.823 55.7366 570.462 55.6642 569.957L55.2299 566.996C55.1575 566.779 54.9404 566.562 54.7232 566.635L50.8868 566.923C50.742 566.923 50.5973 566.996 50.5249 567.14L48.6429 570.173C48.4257 570.534 47.9914 570.751 47.5571 570.679C47.1228 570.607 46.7608 570.318 46.6885 569.957L46.037 568.44Z" fill="#071824"/>
<path d="M48.4981 595.234C45.2408 595.234 41.5491 594.873 37.8575 593.861C37.2784 593.717 36.9165 593.067 37.1336 592.489C37.2784 591.911 37.9299 591.55 38.509 591.767C47.8466 594.367 57.9082 592.128 57.9806 592.128C58.5596 591.984 59.1387 592.345 59.2835 592.923C59.4283 593.5 59.0663 594.078 58.4873 594.223C58.1253 594.295 53.9994 595.234 48.4981 595.234Z" fill="#071824"/>
<path d="M53.5651 584.473L44.3722 584.256C43.7931 584.256 43.2864 583.751 43.2864 583.173C43.2864 582.595 43.7931 582.09 44.3722 582.09L53.5651 582.234C54.1441 582.234 54.6508 582.74 54.6508 583.317C54.6508 583.967 54.1441 584.473 53.5651 584.473Z" fill="#071824"/>
<path d="M92.7255 551.902L93.1598 573.062L104.959 573.64L106.551 552.624L92.7255 551.902Z" fill="white"/>
<path d="M104.959 574.723C104.886 574.723 104.886 574.723 104.959 574.723L93.1597 574.145C92.5807 574.145 92.1464 573.64 92.1464 573.062L91.712 551.902C91.712 551.613 91.8568 551.324 92.074 551.107C92.2911 550.891 92.5807 550.819 92.8702 550.819L106.623 551.541C106.913 551.541 107.202 551.685 107.347 551.902C107.564 552.119 107.637 552.407 107.637 552.696L106.044 573.712C105.972 574.29 105.465 574.723 104.959 574.723ZM94.2455 571.979L103.945 572.484L105.393 553.635L93.8836 553.057L94.2455 571.979Z" fill="#071824"/>
<path d="M89.4681 584.762C89.3234 586.784 90.6263 588.589 92.5083 589.095C99.1677 590.973 114.296 595.306 118.567 596.172C124.141 597.328 131.162 595.884 134.347 592.778C137.459 589.6 128.267 581.295 123.779 578.19C117.192 573.568 111.039 564.829 108.361 564.324C105.61 563.818 100.109 571.473 100.109 571.473L91.9292 567.573C91.9292 567.573 90.1196 574.651 89.4681 584.762Z" fill="#A3CEED"/>
<path d="M122.62 597.689C121.173 597.689 119.725 597.545 118.35 597.256C113.934 596.389 98.5886 592.056 92.2187 590.178C89.83 589.528 88.2375 587.217 88.3823 584.69C89.0338 574.579 90.8434 567.573 90.9158 567.285C90.9881 566.996 91.2053 566.707 91.4948 566.562C91.7844 566.418 92.1463 566.418 92.4358 566.562L99.8191 570.101C101.629 567.646 105.755 562.735 108.578 563.24C110.243 563.529 112.125 565.551 115.454 568.946C118.133 571.762 121.245 575.012 124.43 577.251C127.325 579.273 135.65 586.062 136.084 590.756C136.156 591.839 135.867 592.778 135.143 593.5C132.61 596.1 127.615 597.689 122.62 597.689ZM92.7254 569.162C92.2187 571.618 91.0605 577.468 90.5538 584.834C90.4815 586.278 91.4225 587.651 92.8702 588.084C99.2401 589.889 114.513 594.223 118.856 595.089C124.213 596.172 130.872 594.8 133.623 591.984C133.768 591.839 133.985 591.55 133.913 590.973C133.623 587.939 127.398 582.017 123.2 579.056C119.797 576.673 116.685 573.423 113.862 570.462C111.69 568.151 109.157 565.551 108.143 565.335C106.913 565.118 103.438 568.729 100.977 572.051C100.688 572.484 100.109 572.629 99.602 572.412L92.7254 569.162Z" fill="#071824"/>
<path d="M123.2 593.789C110.605 593.789 93.0874 585.701 92.1464 585.195C91.5673 584.906 91.3501 584.328 91.6397 583.751C91.9292 583.173 92.5083 582.956 93.0874 583.245C93.3769 583.39 122.259 596.75 131.234 589.528C131.669 589.167 132.392 589.239 132.754 589.673C133.116 590.106 133.044 590.828 132.61 591.189C130.221 593.067 126.964 593.789 123.2 593.789Z" fill="#071824"/>
<path d="M109.229 580.356C108.94 580.356 108.578 580.212 108.361 579.923C107.999 579.49 108.071 578.768 108.505 578.406L114.73 573.351C115.165 572.99 115.889 573.062 116.251 573.495C116.612 573.929 116.54 574.651 116.106 575.012L109.881 580.068C109.736 580.284 109.446 580.356 109.229 580.356Z" fill="#071824"/>
<path d="M54.3612 411.218C54.3612 411.218 43.5034 477.805 40.4632 500.409C37.4231 523.014 41.9109 559.918 41.9109 559.918L60.152 559.846C60.152 559.846 63.6265 515.503 65.5809 503.226C65.5809 503.226 74.1223 486.904 77.1625 472.099C80.2026 457.294 89.106 434.112 89.106 434.112C89.106 434.112 89.4679 552.046 89.6127 561.29C89.6127 561.29 103.8 562.662 109.084 559.701C109.084 559.701 120.304 517.236 120.159 493.837C120.014 470.438 119.797 411.868 119.797 411.868L54.3612 411.218Z" fill="#005D95"/>
<path d="M96.7789 562.735C92.9425 562.735 89.7575 562.446 89.5404 562.446C88.9613 562.374 88.5994 561.94 88.527 561.363C88.3822 553.418 88.1651 464.3 88.0927 440.106C85.2697 447.906 80.3475 462.133 78.2483 472.316C75.3529 486.326 67.5353 501.854 66.6667 503.587C64.7123 515.936 61.2378 559.557 61.2378 559.99C61.1654 560.568 60.7311 561.001 60.152 561.001H41.9834C41.4043 561.001 40.97 560.568 40.8976 560.063C40.8252 559.702 36.4097 522.797 39.4499 500.265C42.4901 477.877 53.2754 411.724 53.3478 411.001C53.4202 410.496 53.8545 410.063 54.4336 410.063L119.942 410.785C120.521 410.785 121.028 411.29 121.028 411.868C121.028 411.868 121.317 470.438 121.39 493.837C121.535 517.092 110.387 559.557 110.243 559.918C110.17 560.207 109.953 560.424 109.736 560.568C106.696 562.301 101.267 562.735 96.7789 562.735ZM90.6985 560.279C93.8111 560.496 103.8 561.002 108.216 558.907C109.446 554.213 119.291 515.503 119.146 493.837C119.001 472.316 118.784 420.968 118.784 412.951L55.3022 412.229C53.9993 420.318 44.3721 479.538 41.5491 500.482C38.7984 520.703 42.2005 552.841 42.9244 558.763H59.1386C59.6453 552.118 62.7579 514.203 64.5675 503.009C64.5675 502.865 64.6399 502.793 64.7123 502.648C64.7847 502.504 73.1813 486.254 76.1491 471.81C79.1893 457.078 88.0927 433.895 88.1651 433.678C88.3822 433.173 88.8889 432.884 89.3956 433.028C89.9023 433.101 90.2642 433.534 90.2642 434.112C90.2642 435.267 90.5538 545.835 90.6985 560.279Z" fill="#071824"/>
<path d="M62.3237 504.165C62.2513 504.165 62.2513 504.165 62.3237 504.165L56.6777 503.876C56.0986 503.876 55.5919 503.37 55.6643 502.72C55.6643 502.143 56.2433 501.637 56.8224 501.709L62.3961 501.998C62.9752 501.998 63.4819 502.504 63.4095 503.154C63.3371 503.659 62.9028 504.165 62.3237 504.165Z" fill="#78B7E5"/>
<path d="M100.109 540.347H100.036C99.4572 540.274 98.9505 539.769 99.0229 539.191C99.7468 528.214 112.776 509.148 113.355 508.353C113.717 507.848 114.369 507.703 114.875 508.065C115.382 508.426 115.527 509.076 115.165 509.581C115.02 509.798 101.918 528.936 101.194 539.336C101.194 539.913 100.688 540.347 100.109 540.347Z" fill="#78B7E5"/>
<path d="M107.781 314.444C128.122 352.504 122.62 371.353 149.692 334.81C150.489 333.727 152.226 334.088 152.515 335.388L155.194 345.571C155.194 345.571 99.1675 430.934 109.084 348.098L107.781 314.444Z" fill="#071824"/>
<path d="M54.7231 414.035C62.5407 416.707 70.2859 421.04 82.8809 418.801L89.1784 412.229L94.8244 418.151C103.221 421.401 112.776 421.329 122.91 418.801L114.441 346.798L111.545 324.844C109.374 312.277 103.873 308.45 92.4357 307.439C89.6851 307.222 87.9478 318.488 84.6905 318.272C81.216 318.055 76.1491 306.428 72.0955 306.355C66.739 306.211 60.9482 306.211 54.7955 306.355C46.5436 306.572 39.1603 309.1 33.4419 314.949C25.4071 323.11 50.4524 355.104 50.4524 355.104C50.4524 355.104 56.1708 386.302 54.7231 414.035Z" fill="#071824"/>
<path d="M70.5754 310.111C73.3261 323.977 77.6692 337.843 83.6047 351.781C89.106 338.926 93.1596 326.143 95.114 313.288C95.5483 310.4 93.4491 307.728 90.4813 307.511C85.342 312.855 79.7683 311.7 73.7604 306.428C71.7336 306.355 70.1411 308.161 70.5754 310.111Z" fill="white"/>
<path d="M83.5323 352.865C83.098 352.865 82.7361 352.576 82.5189 352.215C76.511 338.06 72.0955 323.977 69.4172 310.327C69.2001 309.027 69.4896 307.8 70.3583 306.789C71.2269 305.778 72.4574 305.272 73.7604 305.416C73.9775 305.416 74.1947 305.561 74.4118 305.705C80.4198 310.977 85.2696 311.338 89.6127 306.861C89.8298 306.644 90.1194 306.5 90.4813 306.5C92.2185 306.572 93.7386 307.439 94.8244 308.739C95.9102 310.039 96.3445 311.772 96.1273 313.505C94.2453 325.855 90.4089 338.493 84.5457 352.215C84.401 352.576 83.9666 352.865 83.5323 352.865ZM71.5888 309.894C74.0499 322.605 78.1035 335.749 83.5323 348.965C88.8164 336.326 92.2185 324.555 93.9558 313.144C94.1006 312.061 93.811 310.905 93.1595 310.039C92.5805 309.316 91.7118 308.811 90.8432 308.666C85.8487 313.577 79.9131 313.216 73.326 307.583C72.8193 307.655 72.385 307.872 72.0231 308.233C71.6612 308.666 71.5164 309.316 71.5888 309.894Z" fill="#071824"/>
<path d="M86.3553 323.182L89.0336 335.243L84.4009 351.854L79.5511 338.71L82.3741 323.255L78.7549 316.177L82.8808 311.338L85.921 311.266L89.6126 316.394L86.3553 323.182Z" fill="#005D95"/>
<path d="M73.5433 322.821C70.6479 317.766 68.3315 311.194 71.5165 307.005L75.8596 302.311C75.8596 302.311 78.2483 309.461 83.9667 311.266L73.5433 322.821Z" fill="white"/>
<path d="M73.5432 323.905C73.4708 323.905 73.4708 323.905 73.3984 323.905C73.0365 323.832 72.747 323.688 72.6022 323.327C69.7068 318.199 67.0286 311.05 70.6478 306.355L70.7202 306.283L75.0633 301.589C75.3528 301.3 75.7148 301.156 76.0767 301.3C76.4386 301.372 76.7282 301.661 76.8729 302.022C76.8729 302.094 79.1169 308.666 84.3286 310.327C84.6905 310.472 84.9801 310.688 85.0524 311.05C85.1248 311.411 85.0524 311.772 84.8353 312.061L74.3394 323.544C74.1223 323.76 73.8328 323.905 73.5432 323.905ZM72.3127 307.727C69.6344 311.266 71.7336 317.116 73.7604 320.944L82.157 311.7C78.6102 309.894 76.511 306.355 75.4976 304.261L72.3127 307.727Z" fill="#071824"/>
<path d="M85.0524 311.194C88.9612 309.172 89.685 302.817 89.685 302.817C89.685 302.817 94.2453 306.211 95.2587 311.194C96.7064 318.488 93.7386 323.471 93.7386 323.471L85.0524 311.194Z" fill="white"/>
<path d="M93.6662 324.555C93.3043 324.555 93.0148 324.41 92.7976 324.121L84.1114 311.844C83.9666 311.555 83.8942 311.266 83.9666 310.977C84.039 310.689 84.2562 310.4 84.5457 310.255C87.3687 308.811 88.4545 304.333 88.5993 302.744C88.6717 302.383 88.8888 302.022 89.2507 301.878C89.6127 301.733 90.047 301.733 90.3365 302.022C90.5537 302.167 95.2587 305.705 96.2721 311.05C97.7922 318.705 94.752 323.832 94.6072 324.049C94.4625 324.338 94.1005 324.555 93.6662 324.555C93.7386 324.555 93.7386 324.555 93.6662 324.555ZM86.5725 311.483L93.5215 321.233C94.2453 319.283 95.0415 315.816 94.1729 311.338C93.5938 308.522 91.7118 306.139 90.4089 304.839C89.9022 306.861 88.8164 309.822 86.5725 311.483Z" fill="#071824"/>
<path d="M26.7102 431.078L29.678 434.834C32.7181 438.517 39.0156 434.617 47.7018 427.395L170.901 323.905L162.794 308.378L36.6269 413.89C28.0131 421.184 23.67 427.323 26.7102 431.078Z" fill="#005D95"/>
<path d="M32.7905 437.289C32.5733 437.289 32.4286 437.289 32.2114 437.289C30.8361 437.145 29.7503 436.567 28.8093 435.484L25.8415 431.728C22.5118 427.684 25.8415 421.546 35.903 413.096L162.07 307.583C162.287 307.366 162.649 307.294 163.011 307.366C163.301 307.439 163.59 307.655 163.735 307.944L171.842 323.399C172.059 323.832 171.987 324.41 171.553 324.699L48.4257 428.19C40.7528 434.617 36.1202 437.289 32.7905 437.289ZM162.432 310.039L37.3507 414.757C28.6645 421.979 25.19 427.54 27.5064 430.356L30.4742 434.112C30.9808 434.689 31.5599 435.051 32.3562 435.123C35.8307 435.412 41.9834 430.717 46.9056 426.529L169.526 323.544L162.432 310.039Z" fill="#071824"/>
<path d="M152.443 259.413C143.322 296.678 165.834 334.16 202.823 343.26C239.812 352.287 277.235 329.466 286.355 292.2C295.476 254.935 272.964 217.453 235.975 208.353C198.987 199.254 161.636 222.147 152.443 259.413ZM161.274 261.579C169.236 229.225 201.665 209.364 233.804 217.236C265.943 225.108 285.487 257.679 277.524 290.034C269.562 322.388 237.134 342.248 204.995 334.377C172.928 326.505 153.312 293.861 161.274 261.579Z" fill="#005D95"/>
<path d="M219.254 346.293C213.681 346.293 208.107 345.643 202.606 344.271C165.11 335.099 142.164 296.895 151.43 259.124C155.917 240.852 167.21 225.325 183.207 215.575C199.204 205.754 218.096 202.793 236.265 207.27C254.434 211.748 269.779 223.014 279.406 239.119C289.106 255.224 291.929 274.145 287.441 292.417C282.953 310.688 271.661 326.216 255.664 335.965C244.444 342.754 231.922 346.293 219.254 346.293ZM219.616 207.415C207.311 207.415 195.15 210.809 184.365 217.453C168.802 226.914 157.872 241.935 153.529 259.702C144.553 296.317 166.775 333.293 203.113 342.176C220.702 346.509 238.943 343.621 254.506 334.16C270.069 324.699 280.999 309.677 285.342 291.911C289.685 274.145 286.934 255.802 277.597 240.274C268.259 224.675 253.348 213.77 235.758 209.437C230.402 208.065 224.973 207.415 219.616 207.415ZM219.182 337.121C214.405 337.121 209.627 336.543 204.777 335.388C172.132 327.443 152.153 294.15 160.261 261.29C168.368 228.43 201.448 208.209 234.093 216.153C266.739 224.097 286.717 257.39 278.61 290.25C271.734 318.272 246.616 337.121 219.182 337.121ZM219.689 216.586C193.196 216.586 169.019 234.786 162.36 261.796C154.542 293.5 173.869 325.566 205.284 333.221C236.772 340.948 268.693 321.377 276.511 289.673C284.329 257.968 265.002 225.903 233.587 218.247C228.882 217.164 224.249 216.586 219.689 216.586Z" fill="#071824"/>
<path d="M34.2382 314.155L50.6696 355.826C43.6482 373.519 46.4712 389.48 61.8893 410.351L55.447 422.051C-6.29749 400.602 6.15275 345.571 34.2382 314.155Z" fill="#071824"/>
<path d="M68.6935 414.107C64.4951 412.013 61.0207 409.34 58.1253 406.307C54.506 409.99 51.2487 414.035 48.2809 418.296C57.7633 422.99 66.4495 424.362 69.6345 423.495C78.8274 420.968 89.7575 421.473 89.7575 421.473C84.401 412.157 68.6935 414.107 68.6935 414.107Z" fill="white"/>
<path d="M67.3182 424.795C62.9027 424.795 55.5194 423.062 47.8466 419.234C47.5571 419.09 47.3399 418.873 47.2675 418.512C47.1951 418.223 47.2675 417.862 47.4123 417.646C50.4525 413.24 53.7822 409.124 57.4014 405.513C57.6186 405.296 57.9081 405.152 58.1977 405.224C58.4872 405.224 58.7768 405.368 58.9939 405.585C61.8893 408.618 65.2914 411.146 68.9831 413.024C71.3718 412.807 85.4869 411.796 90.771 420.896C90.9881 421.257 90.9881 421.69 90.771 421.979C90.5538 422.34 90.1919 422.484 89.7576 422.484C89.6852 422.484 78.8274 422.051 69.9964 424.506C69.2726 424.651 68.3316 424.795 67.3182 424.795ZM49.8734 417.862C58.9215 422.123 66.7391 423.134 69.345 422.412C76.2216 420.534 83.8944 420.318 87.586 420.318C81.7952 413.674 68.9107 415.19 68.7659 415.19C68.5487 415.19 68.3316 415.19 68.1144 415.118C64.3504 413.24 60.9483 410.857 57.9805 407.896C55.2299 410.857 52.4793 414.251 49.8734 417.862Z" fill="#071824"/>
<path d="M151.43 346.148C157.003 345.426 167.209 342.393 161.419 330.477C160.84 329.321 159.464 328.888 158.306 329.393C154.759 331.127 149.33 336.976 148.172 342.754C147.81 344.704 149.475 346.365 151.43 346.148Z" fill="white"/>
<path d="M150.995 347.232C149.909 347.232 148.896 346.798 148.1 346.004C147.231 345.065 146.869 343.837 147.086 342.537C148.317 336.182 154.18 330.188 157.799 328.455C158.596 328.021 159.537 328.021 160.405 328.31C161.274 328.599 161.925 329.177 162.36 330.043C164.459 334.377 164.748 338.132 163.156 341.021C160.912 345.137 155.628 346.654 151.502 347.232C151.357 347.232 151.212 347.232 150.995 347.232ZM159.32 330.26C159.102 330.26 158.958 330.332 158.813 330.404C155.628 331.921 150.344 337.626 149.33 342.971C149.258 343.548 149.403 344.126 149.765 344.487C150.199 344.921 150.706 345.137 151.285 345.065C154.18 344.704 159.392 343.476 161.274 340.01C162.504 337.771 162.215 334.738 160.405 330.982C160.261 330.693 160.043 330.477 159.754 330.404C159.609 330.332 159.464 330.26 159.32 330.26Z" fill="#071824"/>
<path d="M384.944 549.158H176.982V568.873H384.944V549.158Z" fill="#071824"/>
<path d="M386.681 557.174H175.172C170.684 557.174 167.065 553.563 167.065 549.085C167.065 544.608 170.684 540.997 175.172 540.997H386.681C391.169 540.997 394.788 544.608 394.788 549.085C394.788 553.563 391.169 557.174 386.681 557.174Z" fill="#CDE5F5"/>
<path d="M386.681 558.257H175.172C170.105 558.257 165.979 554.141 165.979 549.085C165.979 544.03 170.105 539.913 175.172 539.913H386.681C391.748 539.913 395.874 544.03 395.874 549.085C395.874 554.141 391.748 558.257 386.681 558.257ZM175.172 542.152C171.335 542.152 168.151 545.258 168.151 549.157C168.151 553.057 171.263 556.163 175.172 556.163H386.681C390.518 556.163 393.702 553.057 393.702 549.157C393.702 545.258 390.59 542.152 386.681 542.152H175.172Z" fill="#071824"/>
<path d="M398.552 562.59H163.301C157.582 567.862 154.253 575.373 154.253 583.173V586.062C154.253 589.817 157.293 592.778 160.984 592.778H400.724C404.488 592.778 407.456 589.745 407.456 586.062V583.173C407.6 575.301 404.343 567.862 398.552 562.59Z" fill="#CDE5F5"/>
<path d="M400.796 593.861H161.057C156.714 593.861 153.167 590.323 153.167 586.062V583.173C153.167 575.084 156.569 567.285 162.505 561.796C162.722 561.579 162.939 561.507 163.228 561.507H398.48C398.769 561.507 398.987 561.579 399.204 561.796C405.139 567.285 408.541 575.084 408.541 583.173V586.062C408.686 590.395 405.139 593.861 400.796 593.861ZM163.735 563.674C158.451 568.729 155.411 575.806 155.411 583.173V586.062C155.411 589.167 157.944 591.695 161.129 591.695H400.869C403.981 591.695 406.515 589.167 406.515 586.062V583.173C406.515 575.806 403.474 568.729 398.19 563.674H163.735Z" fill="#071824"/>
<path d="M395.584 578.768H166.341C165.762 578.768 165.255 578.262 165.255 577.684C165.255 577.106 165.762 576.601 166.341 576.601H395.657C396.236 576.601 396.743 577.106 396.743 577.684C396.67 578.262 396.163 578.768 395.584 578.768Z" fill="#071824"/>
<path d="M496.2 580.284C493.377 584.689 487.513 585.989 483.098 583.245L326.674 484.376L336.808 468.344L493.232 567.14C497.72 570.029 499.023 575.879 496.2 580.284Z" fill="#78B7E5"/>
<path d="M450.525 563.746C450.308 563.746 450.09 563.674 449.946 563.601L326.095 485.315C325.588 485.026 325.443 484.304 325.733 483.799L335.867 467.766C336.156 467.26 336.88 467.116 337.387 467.405L448.787 537.53C449.294 537.819 449.439 538.541 449.149 539.047C448.86 539.552 448.136 539.697 447.629 539.408L337.097 469.86L328.121 484.015L451.031 561.652C451.538 561.94 451.683 562.663 451.393 563.168C451.176 563.529 450.887 563.746 450.525 563.746Z" fill="#071824"/>
<path d="M265.321 497.016L253.82 515.138L284.215 534.341L295.717 516.219L265.321 497.016Z" fill="#A3CEED"/>
<path d="M284.184 535.436C283.967 535.436 283.749 535.363 283.605 535.291L253.203 516.081C252.696 515.792 252.552 515.07 252.841 514.564L264.35 496.437C264.495 496.221 264.785 496.004 265.002 495.932C265.291 495.859 265.581 495.932 265.798 496.076L296.2 515.286C296.706 515.575 296.851 516.298 296.562 516.803L285.052 534.93C284.908 535.147 284.618 535.363 284.401 535.436C284.329 535.363 284.256 535.436 284.184 535.436ZM255.302 514.781L283.822 532.836L294.173 516.514L265.653 498.459L255.302 514.781Z" fill="#071824"/>
<path d="M247.629 507.703C245.458 511.098 246.471 515.503 249.873 517.67L283.532 538.902C286.934 541.069 291.35 540.058 293.521 536.663C295.693 533.269 294.68 528.864 291.278 526.697L257.618 505.465C254.216 503.37 249.801 504.381 247.629 507.703Z" fill="#CDE5F5"/>
<path d="M287.369 541.141C285.776 541.141 284.256 540.708 282.953 539.841L249.294 518.609C245.385 516.153 244.3 511.026 246.688 507.126C249.149 503.226 254.289 502.143 258.198 504.526L291.857 525.758C295.765 528.214 296.851 533.341 294.462 537.241C293.304 539.119 291.422 540.419 289.251 540.924C288.599 541.069 288.02 541.141 287.369 541.141ZM248.57 508.281C246.761 511.17 247.629 514.925 250.452 516.731L284.111 537.963C285.487 538.83 287.152 539.119 288.744 538.758C290.337 538.397 291.712 537.458 292.58 536.086C294.39 533.197 293.521 529.441 290.698 527.636L257.039 506.404C254.144 504.598 250.38 505.465 248.57 508.281Z" fill="#071824"/>
<path d="M352.402 426.77L363.904 408.647L333.508 389.444L322.007 407.567L352.402 426.77Z" fill="#A3CEED"/>
<path d="M352.371 427.901C352.153 427.901 351.936 427.829 351.791 427.756L321.39 408.546C320.883 408.257 320.738 407.535 321.028 407.029L332.537 388.902C332.682 388.686 332.971 388.469 333.189 388.397C333.478 388.325 333.768 388.397 333.985 388.541L364.387 407.752C364.893 408.04 365.038 408.763 364.748 409.268L353.239 427.395C353.094 427.612 352.805 427.829 352.588 427.901C352.588 427.901 352.443 427.901 352.371 427.901ZM323.489 407.246L352.009 425.301L362.36 408.979L333.84 390.924L323.489 407.246Z" fill="#071824"/>
<path d="M324.213 387.097C326.384 383.703 330.8 382.764 334.202 384.858L367.861 406.091C371.263 408.257 372.204 412.663 370.105 416.057C367.933 419.451 363.518 420.39 360.116 418.296L326.457 397.063C323.055 394.969 322.041 390.491 324.213 387.097Z" fill="#CDE5F5"/>
<path d="M363.88 420.534C362.287 420.534 360.767 420.101 359.464 419.235L325.805 398.002C321.897 395.547 320.811 390.419 323.199 386.519C325.661 382.619 330.8 381.536 334.709 383.919L368.368 405.152C370.25 406.307 371.553 408.185 372.059 410.352C372.566 412.518 372.132 414.757 370.974 416.635C369.815 418.512 367.933 419.812 365.762 420.318C365.11 420.462 364.531 420.534 363.88 420.534ZM325.081 387.675C323.272 390.563 324.14 394.319 326.963 396.124L360.623 417.357C361.998 418.223 363.663 418.512 365.255 418.151C366.848 417.79 368.223 416.851 369.092 415.479C370.901 412.59 370.033 408.835 367.21 407.029L333.55 385.797C330.727 383.991 326.891 384.858 325.081 387.675Z" fill="#071824"/>
<path d="M313.427 403.779L303.366 413.024C296.924 418.946 291.35 425.662 286.645 433.028L273.254 454.261C268.549 461.627 264.857 469.571 262.251 477.949L258.125 490.948C256.822 494.993 258.487 499.398 262.034 501.709L295.042 522.581C298.95 525.036 304.017 524.314 307.13 520.847L318.567 507.92C322.114 503.876 325.371 499.615 328.266 495.065L347.159 465.311C350.054 460.761 352.588 455.994 354.687 451.083L361.491 435.267C363.301 431.006 361.781 426.095 357.872 423.64L324.864 402.768C321.245 400.457 316.612 400.891 313.427 403.779Z" fill="#CDE5F5"/>
<path d="M300.109 525.036C298.154 525.036 296.2 524.531 294.463 523.375L261.455 502.504C257.474 499.976 255.664 495.065 257.039 490.515L261.165 477.516C263.844 469.066 267.535 461.05 272.313 453.611L285.704 432.451C290.409 425.012 296.127 418.151 302.642 412.229L312.704 402.985C316.178 399.735 321.39 399.302 325.443 401.83L358.451 422.701C362.794 425.445 364.531 430.934 362.505 435.628L355.7 451.444C353.529 456.428 350.995 461.266 348.1 465.816L329.207 495.571C326.312 500.12 322.982 504.526 319.435 508.57L307.999 521.497C305.899 523.808 303.004 525.036 300.109 525.036ZM314.151 404.574L304.162 413.818C297.792 419.668 292.219 426.312 287.586 433.606L274.195 454.766C269.562 462.061 265.87 469.933 263.337 478.166L259.211 491.165C258.053 494.776 259.501 498.676 262.685 500.698L295.693 521.57C299.168 523.736 303.655 523.158 306.334 520.053L317.771 507.126C321.317 503.154 324.502 498.893 327.398 494.415L346.29 464.661C349.113 460.183 351.647 455.416 353.746 450.578L360.478 434.762C362.07 431.006 360.767 426.673 357.293 424.506L324.285 403.635C321.1 401.613 316.974 402.046 314.151 404.574Z" fill="#071824"/>
<path d="M289.198 429.203L270.842 458.126L328.575 494.599L346.931 465.677L289.198 429.203Z" fill="#A3CEED"/>
<path d="M328.556 495.715C328.339 495.715 328.122 495.643 327.977 495.571L270.213 459.1C269.707 458.811 269.562 458.089 269.852 457.583L288.165 428.695C288.31 428.479 288.599 428.262 288.816 428.19C289.106 428.117 289.396 428.19 289.613 428.334L347.376 464.805C347.883 465.094 348.027 465.816 347.738 466.322L329.424 495.209C329.28 495.426 328.99 495.643 328.773 495.715C328.701 495.643 328.628 495.715 328.556 495.715ZM272.313 457.8L328.266 493.115L345.422 466.033L289.468 430.717L272.313 457.8Z" fill="#071824"/>
<path d="M462.179 274.145C468.114 267.79 476.873 266.418 483.46 268.223C491.784 270.534 496.055 277.684 499.023 282.812C504.307 291.839 501.773 295.089 505.899 300.289C513.21 309.533 530.945 303.394 539.559 310.544C560.333 327.588 548.969 355.826 530.583 369.186C518.277 378.069 501.629 372.942 497.068 371.57C483.315 367.309 460.441 359.003 458.27 339.143C456.75 325.782 470.431 315.094 463.12 303.972C461.238 301.156 459.718 300.361 458.342 296.822C456.026 290.973 455.519 281.295 462.179 274.145Z" fill="#071824"/>
<path d="M483.75 275.734C480.637 273.207 482.591 265.696 484.618 261.651C485.342 260.135 488.744 253.346 493.16 253.635C497.72 253.924 502.063 261.507 500.471 267.573C498.444 275.084 487.441 278.695 483.75 275.734Z" fill="#071824"/>
<path d="M504.958 321.738C495.476 318.633 481.071 316.466 463.771 321.955C457.474 323.977 452.986 329.466 452.19 336.038L438.147 416.707C437.423 422.557 445.313 428.262 450.887 430.356C456.677 432.523 465.436 434.617 477.814 434.617C491.06 434.617 507.13 434.545 512.486 432.162C512.631 432.09 512.776 432.017 512.993 431.945C519.942 428.695 523.996 421.401 523.344 413.818L520.449 401.974C517.264 388.902 515.816 375.469 516.106 361.964L516.54 338.493C516.902 330.982 512.197 324.121 504.958 321.738Z" fill="white"/>
<path d="M438.581 356.476C438.581 356.476 449.801 325.494 462.396 322.46L456.026 366.37L438.581 356.476Z" fill="white"/>
<path d="M532.827 374.531C537.604 370.703 539.631 364.42 537.966 358.57C536.446 353.298 534.491 346.943 532.754 342.321C526.963 326.577 514.948 323.038 510.315 321.955C509.591 321.81 501.267 320.655 501.267 320.655L506.261 368.825L527.615 377.564L532.827 374.531Z" fill="white"/>
<path d="M477.814 435.773C467.318 435.773 458.125 434.328 450.525 431.44C444.517 429.129 436.337 423.062 437.134 416.635L446.616 362.253L438.147 357.415C437.713 357.126 437.495 356.62 437.64 356.115C438.147 354.815 449.511 324.555 462.179 321.449H462.251C462.541 321.377 462.685 321.305 462.903 321.233C463.12 321.16 463.265 321.088 463.554 321.016C476.366 316.972 489.106 316.538 501.484 319.716C502.859 319.933 509.881 320.799 510.677 321.016C521.969 323.688 529.786 330.766 533.912 342.104C535.65 346.943 537.749 353.659 539.124 358.426C540.934 364.781 538.835 371.497 533.623 375.542C533.55 375.542 533.55 375.614 533.478 375.614L528.266 378.647C527.977 378.792 527.615 378.864 527.325 378.719L517.553 374.747C518.132 383.919 519.508 393.091 521.607 401.974L524.502 413.818C524.502 413.89 524.502 413.89 524.502 413.962C525.226 422.051 520.811 429.779 513.572 433.173C513.427 433.245 513.21 433.317 513.065 433.389C507.637 435.556 493.232 435.773 477.814 435.773ZM439.957 355.97L448.281 360.737C448.643 360.953 448.86 361.387 448.788 361.892L439.233 416.923C438.654 422.051 446.037 427.395 451.249 429.417C458.632 432.162 467.535 433.606 477.814 433.606C489.323 433.606 506.696 433.606 512.052 431.295C512.197 431.223 512.342 431.151 512.486 431.078C518.929 428.117 522.837 421.257 522.186 414.107L519.363 402.335C517.047 392.802 515.671 382.908 515.165 373.014C515.165 372.653 515.309 372.292 515.599 372.075C515.888 371.858 516.323 371.786 516.612 371.931L527.47 376.336L532.103 373.592C536.518 370.053 538.4 364.275 536.808 358.787C535.432 354.02 533.406 347.376 531.668 342.61C527.76 332.065 520.449 325.421 509.953 322.894C509.446 322.749 504.307 322.099 501.122 321.666C501.05 321.666 500.977 321.666 500.832 321.666C488.817 318.56 476.439 318.994 463.988 322.894C463.844 322.966 463.699 322.966 463.626 323.038C463.409 323.182 463.047 323.255 462.541 323.399C462.468 323.399 462.468 323.399 462.396 323.399C452.045 326.216 441.839 350.987 439.957 355.97Z" fill="#071824"/>
<path d="M517.626 413.096C517.264 413.096 516.83 412.879 516.685 412.518C507.202 394.608 478.321 393.885 465.798 396.341C457.836 397.93 449.656 403.202 449.584 403.274C449.077 403.635 448.426 403.491 448.064 402.985C447.702 402.479 447.847 401.83 448.353 401.468C448.715 401.252 457.039 395.908 465.364 394.246C475.715 392.224 507.781 390.997 518.639 411.579C518.929 412.085 518.712 412.735 518.205 413.024C517.988 413.096 517.843 413.096 517.626 413.096Z" fill="#071824"/>
<path d="M483.026 381.752L427.941 381.68C426.565 381.68 425.335 380.741 424.973 379.369L415.635 340.587C415.129 338.71 416.649 336.832 418.603 336.832L473.688 336.904C475.063 336.904 476.294 337.843 476.656 339.215L485.994 377.997C486.428 379.947 484.98 381.752 483.026 381.752Z" fill="#005D95"/>
<path d="M483.026 382.836L427.941 382.764C426.059 382.764 424.394 381.464 423.959 379.658L414.549 340.876C414.26 339.649 414.549 338.349 415.346 337.337C416.142 336.326 417.3 335.749 418.603 335.749L473.688 335.821C475.57 335.821 477.235 337.121 477.669 338.926L487.007 377.708C487.296 378.936 487.007 380.236 486.211 381.247C485.487 382.258 484.329 382.836 483.026 382.836ZM483.026 380.669C483.605 380.669 484.184 380.38 484.546 379.947C484.908 379.441 485.052 378.864 484.908 378.286L475.57 339.504C475.353 338.637 474.557 338.06 473.688 338.06L418.603 337.987C418.024 337.987 417.445 338.276 417.083 338.71C416.721 339.215 416.576 339.793 416.721 340.371L426.059 379.153C426.276 380.019 427.072 380.597 427.941 380.597L483.026 380.669Z" fill="#071824"/>
<path d="M445.965 360.014C446.544 362.325 448.715 363.842 450.887 363.337C453.058 362.831 454.361 360.52 453.854 358.209C453.275 355.898 451.104 354.381 448.932 354.887C446.761 355.392 445.385 357.703 445.965 360.014Z" fill="white"/>
<path d="M418.893 355.392L419.616 358.209C419.906 359.364 421.209 360.014 422.295 359.509L431.632 355.104C432.863 354.526 434.383 355.104 434.745 356.403C435.614 359.076 434.89 363.77 423.019 368.536C415.78 371.497 415.491 363.553 416.721 358.715C417.228 356.476 418.893 355.392 418.893 355.392Z" fill="white"/>
<path d="M420.196 370.197C419.037 370.197 418.024 369.836 417.155 369.114C414.622 366.948 414.767 361.964 415.635 358.353C416.287 355.826 418.169 354.526 418.241 354.454C418.531 354.237 418.893 354.237 419.255 354.309C419.616 354.454 419.834 354.742 419.906 355.031L420.63 357.848C420.702 358.209 420.919 358.353 421.064 358.426C421.209 358.498 421.498 358.57 421.788 358.426L431.126 354.02C431.994 353.587 433.008 353.587 433.876 353.948C434.745 354.309 435.469 355.031 435.758 355.97C436.916 359.364 435.686 364.492 423.38 369.475C422.222 369.981 421.137 370.197 420.196 370.197ZM418.314 357.559C418.096 357.92 417.879 358.353 417.734 358.859C416.938 362.109 417.011 366.081 418.603 367.453C419.472 368.175 420.775 368.175 422.584 367.453C430.908 364.059 434.89 360.231 433.659 356.62C433.587 356.331 433.297 356.042 433.008 355.898C432.718 355.753 432.356 355.753 431.994 355.898L422.729 360.376C421.933 360.737 420.992 360.737 420.123 360.376C419.327 360.014 418.675 359.292 418.458 358.353L418.314 357.559Z" fill="#071824"/>
<path d="M499.312 343.476C499.312 343.476 524.068 357.415 529.135 361.748C534.202 366.081 539.776 369.403 532.537 378.936C526.384 387.025 515.599 379.803 496.562 352.576C495.693 351.276 494.245 350.481 492.653 350.193C490.771 349.759 487.948 348.243 486.717 343.26C486.717 343.26 477.669 344.559 476.873 340.154L490.409 337.988C492.219 337.699 494.101 338.276 495.404 339.576L499.312 343.476Z" fill="white"/>
<path d="M526.963 383.125C526.891 383.125 526.891 383.125 526.819 383.125C519.797 382.98 509.953 373.447 495.765 353.154C495.114 352.215 493.956 351.492 492.581 351.204C490.771 350.77 487.658 349.398 486.066 344.415C483.46 344.632 476.801 344.776 475.932 340.298C475.86 340.01 475.932 339.721 476.149 339.504C476.366 339.287 476.583 339.143 476.873 339.071L490.409 336.904C492.581 336.543 494.752 337.265 496.345 338.782L500.109 342.609C502.28 343.837 525.009 356.692 530.004 360.953C530.366 361.314 530.8 361.603 531.162 361.964C535.939 365.936 540.861 370.053 533.55 379.658C531.668 381.969 529.425 383.125 526.963 383.125ZM486.79 342.104C487.296 342.104 487.731 342.465 487.875 342.898C488.961 347.304 491.278 348.676 493.015 349.037C494.969 349.47 496.562 350.481 497.575 351.854C511.184 371.281 520.738 380.814 526.891 380.886C528.773 380.886 530.366 380.019 531.813 378.214C537.821 370.27 534.419 367.453 529.714 363.481C529.352 363.12 528.918 362.831 528.484 362.47C523.489 358.209 499.023 344.487 498.806 344.343C498.733 344.271 498.661 344.198 498.588 344.126L494.752 340.154C493.739 339.071 492.219 338.637 490.771 338.854L478.683 340.804C480.347 342.465 484.98 342.248 486.717 342.032C486.645 342.104 486.717 342.104 486.79 342.104Z" fill="#071824"/>
<path d="M473.905 306.861C472.602 307.511 470.937 307.222 469.924 306.211C468.766 305.055 467.752 303.755 467.029 302.455H465.508C465.002 302.455 464.64 302.094 464.567 301.589L464.278 295.667C463.12 293.789 462.613 292.2 462.541 290.9C462.324 288.734 464.35 284.762 466.305 283.823C468.983 282.523 473.833 281.801 476.366 285.628C477.452 287.289 479.189 288.445 480.275 288.228C481.288 288.084 481.723 287.217 482.157 286.278C483.098 284.617 485.342 283.101 487.586 285.701C489.83 288.373 488.237 290.756 486.862 292.85C486.283 293.645 486.934 295.956 487.152 296.895L490.409 310.761C491.278 314.299 493.811 317.26 497.213 318.56L500.688 319.933C500.688 319.933 496.851 331.632 481.361 331.271C469.562 330.982 470.431 321.377 470.431 321.377L471.951 320.727C476.004 318.921 478.248 314.516 477.235 310.183L476.222 305.633L473.905 306.861Z" fill="white"/>
<path d="M482.085 332.427C481.868 332.427 481.65 332.427 481.433 332.427C477.235 332.354 474.05 331.127 471.951 328.743C469.055 325.566 469.417 321.449 469.417 321.305C469.417 320.944 469.707 320.583 470.069 320.438L471.589 319.788C475.136 318.199 477.163 314.299 476.294 310.472L475.57 307.222L474.339 307.8C472.602 308.666 470.503 308.305 469.055 306.933C468.042 305.922 467.101 304.766 466.305 303.539H465.436C465.436 303.539 465.436 303.539 465.364 303.539C464.35 303.539 463.409 302.672 463.409 301.661L463.265 296.1C462.251 294.367 461.672 292.706 461.527 291.045C461.31 288.517 463.409 284.112 465.87 282.884C469.49 281.078 474.629 281.006 477.307 285.051C478.248 286.495 479.696 287.289 480.13 287.217C480.492 287.145 480.709 286.784 481.216 285.989L481.288 285.845C481.94 284.689 483.17 283.462 484.835 283.317C485.776 283.245 487.152 283.462 488.527 285.051C491.35 288.373 489.178 291.55 487.876 293.5C487.803 293.717 487.731 294.439 488.237 296.461L491.567 310.616C492.291 313.866 494.607 316.466 497.72 317.694L501.194 319.066C501.701 319.283 501.991 319.86 501.846 320.438C501.773 320.438 497.647 332.427 482.085 332.427ZM471.661 322.171C471.734 323.255 471.951 325.566 473.616 327.371C475.28 329.249 477.959 330.188 481.506 330.26C481.723 330.26 481.94 330.26 482.157 330.26C493.739 330.26 498.154 323.182 499.457 320.583L496.996 319.644C493.232 318.199 490.409 315.022 489.468 311.05L486.138 296.967C485.704 295.161 485.342 293.356 486.066 292.273C487.514 290.106 488.455 288.373 486.862 286.495C486.283 285.773 485.632 285.412 485.052 285.484C484.329 285.556 483.605 286.278 483.243 286.928L483.17 287.073C482.664 288.012 482.012 289.095 480.565 289.384C478.827 289.673 476.728 288.012 475.57 286.278C473.326 282.884 468.911 283.895 466.884 284.906C465.364 285.628 463.554 289.095 463.771 290.9C463.916 292.2 464.423 293.645 465.364 295.233C465.436 295.378 465.508 295.595 465.508 295.739L465.726 301.444H467.029C467.391 301.444 467.752 301.661 467.97 301.95C468.766 303.25 469.707 304.405 470.72 305.489C471.444 306.211 472.53 306.428 473.471 305.922L475.932 304.694C476.222 304.55 476.583 304.55 476.873 304.694C477.163 304.839 477.38 305.128 477.452 305.416L478.465 309.966C479.551 314.805 477.09 319.716 472.53 321.738L471.661 322.171Z" fill="#071824"/>
<path d="M474.701 549.085L482.881 573.495C482.881 573.495 473.978 572.701 473.109 572.918C472.24 573.062 461.817 550.674 461.817 550.674L474.701 549.085Z" fill="white"/>
<path d="M482.953 574.579H482.881C478.683 574.218 473.978 573.929 473.399 574.001C472.385 574.218 472.096 574.29 466.232 562.301C463.554 556.74 460.948 551.107 460.876 551.107C460.731 550.818 460.731 550.457 460.876 550.096C461.021 549.807 461.383 549.591 461.672 549.519L474.557 547.93C475.063 547.858 475.57 548.146 475.715 548.652L483.894 573.062C484.039 573.423 483.967 573.784 483.75 574.073C483.605 574.434 483.243 574.579 482.953 574.579ZM473.616 571.834C475.136 571.834 478.61 572.051 481.361 572.34L473.978 550.313L463.482 551.613C467.608 560.496 472.313 569.957 473.616 571.834ZM473.037 571.834H472.964C472.964 571.834 472.964 571.834 473.037 571.834Z" fill="#071824"/>
<path d="M481.071 568.151C481.071 568.151 468.766 563.096 466.45 569.451C463.554 577.54 458.994 589.817 458.994 589.817C458.198 591.984 459.718 594.222 461.962 594.439C466.45 594.8 473.181 595.089 476.294 594.006C481.216 592.272 489.468 576.673 489.468 576.673L486.935 563.385C486.935 563.312 482.519 562.663 481.071 568.151Z" fill="#A3CEED"/>
<path d="M469.2 595.811C466.739 595.811 464.133 595.667 461.889 595.45C460.442 595.306 459.211 594.584 458.415 593.356C457.619 592.128 457.474 590.684 457.981 589.384C457.981 589.312 462.541 577.034 465.436 569.09C465.943 567.646 466.956 566.562 468.476 565.912C472.24 564.251 478.031 565.912 480.42 566.779C482.012 562.735 485.414 562.013 487.152 562.301C487.586 562.374 487.948 562.735 488.093 563.168L490.626 576.456C490.699 576.673 490.626 576.962 490.554 577.179C489.685 578.84 482.012 593.211 476.801 595.017C474.919 595.595 472.168 595.811 469.2 595.811ZM472.24 567.357C471.155 567.357 470.141 567.501 469.273 567.862C468.332 568.296 467.752 568.873 467.463 569.812C464.568 577.756 460.08 590.034 460.007 590.178C459.79 590.9 459.863 591.623 460.224 592.273C460.659 592.922 461.31 593.284 462.034 593.356C468.766 593.861 473.688 593.789 475.932 592.995C479.551 591.695 485.921 580.934 488.31 576.529L485.994 564.468C484.908 564.612 482.881 565.262 482.012 568.512C481.94 568.801 481.723 569.09 481.433 569.235C481.144 569.379 480.854 569.379 480.565 569.235C479.117 568.512 475.353 567.357 472.24 567.357Z" fill="#071824"/>
<path d="M474.846 590.178H462.179C461.6 590.178 461.093 589.673 461.093 589.095C461.093 588.517 461.6 588.012 462.179 588.012H474.846C475.425 588.012 475.932 588.517 475.932 589.095C475.932 589.673 475.425 590.178 474.846 590.178Z" fill="#071824"/>
<path d="M498.009 555.079L495.186 579.634L483.967 576.601L484.835 554.43L498.009 555.079Z" fill="white"/>
<path d="M495.186 580.717C495.114 580.717 494.969 580.717 494.897 580.645L483.677 577.612C483.17 577.468 482.881 577.034 482.881 576.529L483.749 554.357C483.749 554.068 483.894 553.779 484.111 553.635C484.329 553.418 484.618 553.346 484.908 553.346L498.082 553.996C498.371 553.996 498.661 554.141 498.878 554.357C499.095 554.574 499.167 554.863 499.095 555.152L496.272 579.706C496.272 579.995 496.055 580.284 495.838 580.501C495.621 580.717 495.403 580.717 495.186 580.717ZM485.125 575.806L494.318 578.334L496.851 556.163L485.993 555.657L485.125 575.806Z" fill="#071824"/>
<path d="M496.272 597.761H478.538C476.149 597.761 474.267 595.667 474.629 593.284C475.208 589.311 477.162 582.667 482.953 573.568C483.605 572.557 484.69 571.979 485.849 571.979H491.278C492.219 571.979 493.015 572.701 493.087 573.568L493.521 577.467L495.186 575.806C495.838 575.156 496.924 575.373 497.213 576.24C498.227 579.345 500.108 586.134 500.253 593.789C500.253 595.956 498.444 597.761 496.272 597.761Z" fill="#A3CEED"/>
<path d="M496.272 598.845H478.538C477.09 598.845 475.715 598.195 474.701 597.111C473.76 596.028 473.326 594.584 473.543 593.139C474.122 589.095 476.077 582.306 482.012 572.99C482.881 571.69 484.256 570.896 485.849 570.896H491.278C492.798 570.896 494.028 571.979 494.173 573.495L494.318 575.084C494.897 574.506 495.693 574.29 496.489 574.434C497.286 574.651 497.937 575.156 498.154 575.951C499.24 579.273 501.122 586.062 501.267 593.789C501.267 595.161 500.76 596.389 499.819 597.4C498.878 598.339 497.648 598.845 496.272 598.845ZM485.849 572.99C485.053 572.99 484.256 573.423 483.822 574.073C478.104 583.028 476.221 589.528 475.642 593.428C475.498 594.222 475.787 595.089 476.294 595.667C476.801 596.317 477.597 596.678 478.465 596.678H496.2C496.996 596.678 497.72 596.389 498.227 595.811C498.733 595.234 499.023 594.511 499.023 593.789C498.878 586.351 497.068 579.779 495.983 576.529C495.983 576.529 495.983 576.456 495.91 576.456C495.838 576.456 495.766 576.456 495.766 576.529L494.101 578.19C493.811 578.479 493.377 578.623 492.942 578.479C492.581 578.334 492.291 577.973 492.219 577.54L491.784 573.64C491.712 573.279 491.422 572.99 491.06 572.99H485.849Z" fill="#071824"/>
<path d="M496.489 594.584H478.465C477.886 594.584 477.38 594.078 477.38 593.5C477.38 592.922 477.886 592.417 478.465 592.417H496.417C496.996 592.417 497.503 592.922 497.503 593.5C497.575 594.15 497.068 594.584 496.489 594.584Z" fill="#071824"/>
<path d="M455.881 407.535C456.316 406.379 457.257 405.513 458.487 405.152C465.002 403.13 487.586 397.785 510.894 412.663C511.98 413.385 512.704 414.54 512.776 415.84C513.645 427.612 516.757 489.36 497.213 562.446L484.039 561.507L481.361 436.567C481.361 436.567 461.817 482.354 477.742 555.296L464.061 557.824C464.061 557.824 444.01 531.536 440.391 491.31C437.061 455.705 452.334 416.201 455.881 407.535Z" fill="#071824"/>
<path d="M493.811 504.959C493.232 504.959 492.725 504.526 492.725 503.948C492.725 503.37 493.16 502.865 493.739 502.792C504.524 502.359 505.755 487.193 505.755 486.976C505.827 486.399 506.334 485.965 506.913 485.965C507.492 486.038 507.926 486.543 507.926 487.121C507.926 487.337 506.551 504.454 493.811 504.959Z" fill="#78B7E5"/>
<path d="M480.13 449.133C479.479 449.133 479.045 448.628 479.045 448.05L479.407 436.206C479.479 434.184 478.538 432.378 476.873 431.223L471.734 427.612C471.227 427.251 471.155 426.601 471.444 426.095C471.806 425.59 472.458 425.518 472.964 425.806L478.104 429.417C480.348 431.006 481.65 433.534 481.506 436.278L481.144 448.122C481.216 448.7 480.709 449.133 480.13 449.133Z" fill="#78B7E5"/>
</svg>
