<svg width="500" height="500" viewBox="0 0 500 500" fill="none" xmlns="http://www.w3.org/2000/svg">
<g clip-path="url(#clip0_262_82)">
<path d="M22.647 155.185C11.8652 179.176 -4.03653 225.042 2.34824 282.088C10.6003 355.33 51.258 413.041 90.7713 445.492C221.96 553.118 462.172 483.563 493.976 382.221C499.758 363.851 498.132 346.084 496.144 324.269C489.82 254.834 456.33 234.228 433.862 160.503C413.383 93.4252 433.561 85.8714 414.407 56.0188C372.906 -8.70197 253.041 -11.9652 170.581 19.0355C138.898 30.9403 62.0398 67.5006 22.647 155.185Z" fill="#78B7E5"/>
<path d="M478.918 354.182L474.822 357.989C472.533 360.104 465.968 357.868 463.016 357.445L24.9363 299.855L23.4305 21.211C23.3702 14.8054 26.7433 8.64153 32.2246 4.89485C36.1398 2.23592 40.7176 1.08774 45.1748 1.63162L476.87 55.9584C481.207 56.5023 484.339 60.0677 484.339 64.5395V342.096C484.279 346.568 482.351 350.979 478.918 354.182Z" fill="#A3CEED"/>
<path d="M466.328 359.862L24.2129 304.206V18.9751C24.2129 15.3493 27.5257 12.3882 31.0795 12.8716L462.835 67.1985C467.172 67.7423 470.304 71.3077 470.304 75.7796V356.297C470.304 358.412 468.376 360.104 466.328 359.862Z" fill="white"/>
<path d="M195.94 315.627L52.5233 300.399C47.5842 299.855 44.0304 296.048 44.0906 291.334L45.2953 188.24C45.3555 182.137 48.1263 178.088 54.511 178.753L201.18 192.954C206.119 193.498 209.673 197.305 209.613 202.018L208.408 305.112C208.288 311.276 202.325 316.292 195.94 315.627Z" fill="#B8D9F1"/>
<path d="M192.687 211.687C192.627 211.687 192.627 211.687 192.567 211.687L61.7994 198.513C61.3175 198.453 60.9561 198.03 61.0163 197.547C61.0766 197.063 61.4982 196.701 61.9801 196.761L192.747 209.935C193.229 209.995 193.591 210.418 193.531 210.902C193.591 211.385 193.169 211.687 192.687 211.687Z" fill="#A3CEED"/>
<path d="M192.687 228.245C192.627 228.245 192.627 228.245 192.566 228.245L168.413 225.828C167.931 225.767 167.569 225.344 167.63 224.861C167.69 224.378 168.111 224.015 168.593 224.075L192.747 226.493C193.229 226.553 193.59 226.976 193.53 227.46C193.59 227.883 193.169 228.245 192.687 228.245Z" fill="#A3CEED"/>
<path d="M147.934 223.773C147.873 223.773 147.873 223.773 147.813 223.773L61.7994 215.011C61.3175 214.95 60.9561 214.527 61.0163 214.044C61.0766 213.561 61.4982 213.198 61.9801 213.258L147.994 222.021C148.476 222.081 148.837 222.504 148.777 222.988C148.777 223.471 148.355 223.773 147.934 223.773Z" fill="#A3CEED"/>
<path d="M192.687 244.743C192.627 244.743 192.627 244.743 192.567 244.743L61.7994 231.569C61.3175 231.508 60.9561 231.085 61.0163 230.602C61.0766 230.118 61.4982 229.756 61.9801 229.816L192.808 242.93C193.29 242.99 193.651 243.413 193.591 243.897C193.591 244.38 193.169 244.743 192.687 244.743Z" fill="#A3CEED"/>
<path d="M192.687 261.24C192.627 261.24 192.627 261.24 192.566 261.24L115.829 253.505C115.347 253.445 114.985 253.022 115.046 252.538C115.106 252.055 115.528 251.692 116.009 251.752L192.747 259.488C193.229 259.548 193.59 259.971 193.53 260.454C193.59 260.877 193.169 261.24 192.687 261.24Z" fill="#A3CEED"/>
<path d="M94.3858 251.329C94.3256 251.329 94.3256 251.329 94.2653 251.329L61.7994 248.066C61.3175 248.006 60.9561 247.583 61.0163 247.099C61.0766 246.616 61.4982 246.253 61.9801 246.314L94.446 249.577C94.9279 249.637 95.2893 250.06 95.2291 250.544C95.2291 251.027 94.8677 251.329 94.3858 251.329Z" fill="#A3CEED"/>
<path d="M192.687 277.737H192.627L171.304 275.804C170.822 275.743 170.461 275.32 170.461 274.837C170.521 274.353 170.943 273.991 171.425 273.991L192.747 275.925C193.229 275.985 193.591 276.408 193.591 276.891C193.591 277.375 193.169 277.737 192.687 277.737Z" fill="#A3CEED"/>
<path d="M156.306 274.112C156.246 274.112 156.246 274.112 156.186 274.112L61.7994 264.624C61.3175 264.564 60.9561 264.141 61.0163 263.657C61.0766 263.174 61.4982 262.811 61.9801 262.872L156.366 272.359C156.848 272.42 157.21 272.843 157.149 273.326C157.149 273.749 156.788 274.112 156.306 274.112Z" fill="#A3CEED"/>
<path d="M192.687 294.295C192.627 294.295 192.627 294.295 192.567 294.295L61.7994 281.122C61.3175 281.061 60.9561 280.638 61.0163 280.155C61.0766 279.671 61.4982 279.309 61.9801 279.369L192.808 292.482C193.29 292.543 193.651 292.966 193.591 293.449C193.591 293.933 193.169 294.295 192.687 294.295Z" fill="#A3CEED"/>
<path d="M437.236 207.336L237.38 186.488C232.501 186.004 229.008 182.379 229.008 177.967V66.9567C229.008 61.0346 235.031 56.2001 241.476 56.8649L441.332 77.7133C446.211 78.1968 449.704 81.8226 449.704 86.234V197.184C449.704 203.106 443.681 208.001 437.236 207.336Z" fill="#B8D9F1"/>
<path d="M252.078 176.759L243.164 175.792C241.598 175.61 240.453 174.462 240.453 173.012V163.343C240.453 161.47 242.381 159.898 244.429 160.08L253.524 160.926C255.15 161.047 256.295 162.255 256.295 163.706L256.174 173.495C256.114 175.429 254.126 177 252.078 176.759Z" fill="white"/>
<path d="M278.159 179.417L269.064 178.451C267.498 178.269 266.354 177.121 266.354 175.671V142.857C266.354 140.984 268.281 139.413 270.389 139.594L279.484 140.561C281.051 140.742 282.195 141.89 282.195 143.341V176.154C282.195 178.088 280.207 179.659 278.159 179.417Z" fill="white"/>
<path d="M303.999 182.137L294.904 181.17C293.338 180.989 292.193 179.84 292.193 178.39V146.604C292.193 144.67 294.181 143.099 296.229 143.341L305.324 144.368C306.89 144.549 307.975 145.697 307.975 147.148V178.874C308.035 180.807 306.107 182.378 303.999 182.137Z" fill="white"/>
<path d="M329.779 184.735L320.804 183.889C319.238 183.768 318.094 182.56 318.094 181.109V125.03C318.094 123.157 320.021 121.586 322.069 121.767L331.165 122.673C332.731 122.855 333.875 124.003 333.875 125.453L333.755 181.412C333.755 183.345 331.827 184.917 329.779 184.735Z" fill="white"/>
<path d="M355.741 187.576L346.646 186.669C345.08 186.488 343.936 185.34 343.936 183.889V135.062C343.936 133.128 345.863 131.557 347.971 131.798L357.066 132.826C358.633 133.007 359.777 134.155 359.777 135.605V184.312C359.717 186.186 357.789 187.757 355.741 187.576Z" fill="white"/>
<path d="M381.581 190.174L372.486 189.207C370.92 189.026 369.775 187.878 369.775 186.427V141.951C369.775 140.017 371.703 138.446 373.811 138.687L382.906 139.654C384.472 139.836 385.617 140.984 385.617 142.434V186.85C385.617 188.845 383.689 190.416 381.581 190.174Z" fill="white"/>
<path d="M407.482 192.833L398.386 191.926C396.82 191.745 395.676 190.597 395.676 189.147V112.098C395.676 110.225 397.603 108.654 399.711 108.835L408.807 109.802C410.373 109.983 411.517 111.131 411.517 112.582V189.63C411.457 191.503 409.53 193.075 407.482 192.833Z" fill="white"/>
<path d="M433.321 195.552L424.226 194.585C422.66 194.404 421.516 193.256 421.516 191.806V132.765C421.516 130.832 423.443 129.26 425.551 129.502L434.647 130.469C436.213 130.65 437.357 131.798 437.357 133.249V192.229C437.297 194.162 435.369 195.734 433.321 195.552Z" fill="white"/>
<path d="M247.68 139.715C247.439 139.715 247.198 139.654 247.017 139.473C246.656 139.11 246.656 138.567 247.017 138.204L279.302 105.934L302.432 125.514L333.693 94.2712L368.147 123.399L401.215 90.3432L431.633 116.147C431.995 116.449 432.055 117.053 431.754 117.416C431.453 117.779 430.85 117.839 430.489 117.537L401.336 92.8209L368.268 125.876L333.754 96.6884L302.492 127.87L279.363 108.291L248.222 139.352C248.101 139.594 247.921 139.715 247.68 139.715Z" fill="#071824"/>
<path d="M250.045 142.993C252.621 141.906 253.924 139.154 252.957 136.847C251.989 134.54 249.117 133.55 246.541 134.638C243.965 135.725 242.661 138.477 243.629 140.784C244.596 143.091 247.469 144.08 250.045 142.993Z" fill="#A3CEED"/>
<path d="M247.86 144.368C246.415 144.368 244.969 143.824 244.005 142.918C242.981 141.951 242.379 140.682 242.379 139.231C242.379 136.21 244.969 133.611 248.222 133.37C249.848 133.249 251.474 133.793 252.558 134.82C253.582 135.787 254.185 137.056 254.185 138.506C254.185 141.528 251.595 144.126 248.342 144.368C248.222 144.307 248.041 144.368 247.86 144.368ZM248.703 135.122C248.583 135.122 248.463 135.122 248.342 135.122C246.053 135.303 244.186 137.116 244.186 139.171C244.186 140.077 244.547 140.923 245.21 141.528C245.993 142.253 247.077 142.615 248.222 142.495C250.51 142.313 252.378 140.5 252.378 138.446C252.378 137.539 252.016 136.693 251.354 136.089C250.691 135.485 249.727 135.122 248.703 135.122Z" fill="#071824"/>
<path d="M304.64 130.46C307.215 129.373 308.519 126.621 307.551 124.314C306.584 122.007 303.712 121.018 301.136 122.105C298.561 123.193 297.257 125.944 298.225 128.251C299.192 130.558 302.064 131.547 304.64 130.46Z" fill="#A3CEED"/>
<path d="M302.493 131.859C301.047 131.859 299.602 131.315 298.638 130.409C297.614 129.442 297.012 128.173 297.012 126.722C297.012 123.701 299.602 121.102 302.854 120.861C304.481 120.74 306.107 121.284 307.191 122.311C308.215 123.278 308.818 124.547 308.818 125.997C308.818 129.019 306.227 131.617 302.975 131.859C302.794 131.859 302.613 131.859 302.493 131.859ZM303.276 122.613C303.156 122.613 303.035 122.613 302.915 122.613C300.626 122.794 298.758 124.607 298.758 126.662C298.758 127.568 299.12 128.414 299.782 129.019C300.566 129.744 301.65 130.106 302.794 129.986C305.083 129.804 306.95 127.991 306.95 125.937C306.95 125.03 306.589 124.184 305.926 123.58C305.264 122.976 304.3 122.613 303.276 122.613Z" fill="#071824"/>
<path d="M280.161 112.301C282.737 111.214 284.041 108.463 283.074 106.155C282.106 103.848 279.234 102.858 276.658 103.945C274.082 105.032 272.778 107.784 273.746 110.091C274.713 112.399 277.585 113.388 280.161 112.301Z" fill="#005D95"/>
<path d="M277.977 113.609C276.532 113.609 275.086 113.065 274.122 112.159C273.098 111.192 272.496 109.923 272.496 108.472C272.496 105.451 275.086 102.852 278.339 102.611C279.965 102.49 281.591 103.034 282.676 104.061C283.7 105.028 284.302 106.297 284.302 107.747C284.302 110.769 281.712 113.367 278.459 113.609C278.279 113.609 278.158 113.609 277.977 113.609ZM278.821 104.363C278.7 104.363 278.58 104.363 278.459 104.363C276.17 104.544 274.303 106.357 274.303 108.412C274.303 109.318 274.665 110.164 275.327 110.769C276.11 111.494 277.194 111.856 278.339 111.736C280.628 111.554 282.495 109.741 282.495 107.687C282.495 106.78 282.133 105.934 281.471 105.33C280.748 104.726 279.845 104.363 278.821 104.363Z" fill="#071824"/>
<path d="M373.085 124.728C373.085 127.266 370.856 129.502 368.085 129.744C365.315 129.925 363.086 128.052 363.086 125.514C363.086 122.976 365.315 120.74 368.085 120.498C370.856 120.256 373.085 122.13 373.085 124.728Z" fill="#A3CEED"/>
<path d="M367.665 130.65C366.159 130.65 364.773 130.106 363.749 129.2C362.725 128.233 362.123 126.904 362.123 125.514C362.123 122.492 364.773 119.833 367.966 119.591C369.592 119.471 371.218 120.014 372.363 121.042C373.387 122.009 373.989 123.338 373.989 124.728C373.989 127.75 371.339 130.408 368.146 130.65C368.026 130.65 367.845 130.65 367.665 130.65ZM368.508 121.344C368.387 121.344 368.267 121.344 368.146 121.344C365.858 121.525 363.99 123.338 363.99 125.453C363.99 126.36 364.352 127.206 365.014 127.81C365.797 128.535 366.881 128.898 368.026 128.777C370.315 128.596 372.182 126.783 372.182 124.668C372.182 123.761 371.821 122.915 371.158 122.311C370.496 121.707 369.532 121.344 368.508 121.344Z" fill="#071824"/>
<path d="M338.811 94.8151C338.811 97.3531 336.583 99.589 333.812 99.8308C331.041 100.012 328.812 98.1387 328.812 95.6006C328.812 93.0626 331.041 90.8267 333.812 90.5849C336.583 90.3432 338.811 92.277 338.811 94.8151Z" fill="#005D95"/>
<path d="M333.391 100.737C331.885 100.737 330.5 100.193 329.476 99.2869C328.452 98.32 327.85 96.9905 327.85 95.6007C327.85 92.5791 330.5 89.9202 333.692 89.6785C335.319 89.5576 336.945 90.1015 338.089 91.1288C339.113 92.0957 339.716 93.4252 339.716 94.8151C339.716 97.8366 337.065 100.495 333.873 100.737C333.692 100.737 333.572 100.737 333.391 100.737ZM334.234 91.431C334.114 91.431 333.993 91.431 333.873 91.431C331.584 91.6123 329.717 93.4252 329.717 95.5402C329.717 96.4467 330.078 97.2927 330.741 97.897C331.524 98.6222 332.608 98.9847 333.752 98.8639C336.041 98.6826 337.909 96.8697 337.909 94.7546C337.909 93.8482 337.547 93.0021 336.885 92.3978C336.222 91.7935 335.258 91.431 334.234 91.431Z" fill="#071824"/>
<path d="M435.608 115.905C435.608 118.443 433.38 120.679 430.609 120.921C427.838 121.102 425.609 119.229 425.609 116.691C425.609 114.153 427.838 111.917 430.609 111.675C433.38 111.494 435.608 113.367 435.608 115.905Z" fill="#A3CEED"/>
<path d="M430.188 121.827C428.682 121.827 427.297 121.284 426.273 120.377C425.249 119.41 424.646 118.081 424.646 116.691C424.646 113.669 427.297 111.01 430.489 110.769C432.115 110.648 433.742 111.192 434.886 112.219C435.91 113.186 436.513 114.515 436.513 115.905C436.513 118.927 433.862 121.586 430.67 121.827C430.549 121.827 430.369 121.827 430.188 121.827ZM431.031 112.582C430.911 112.582 430.79 112.582 430.67 112.582C428.381 112.763 426.514 114.576 426.514 116.691C426.514 117.597 426.875 118.443 427.538 119.048C428.321 119.773 429.405 120.135 430.549 120.014C432.838 119.833 434.706 118.02 434.706 115.905C434.706 114.999 434.344 114.153 433.682 113.548C433.019 112.944 432.055 112.582 431.031 112.582Z" fill="#071824"/>
<path d="M403.135 95.5466C405.741 94.4465 407.07 91.6844 406.102 89.3772C405.134 87.0701 402.237 86.0917 399.631 87.1918C397.025 88.2919 395.696 91.0541 396.664 93.3612C397.632 95.6683 400.529 96.6467 403.135 95.5466Z" fill="#005D95"/>
<path d="M400.975 96.9301C399.469 96.9301 398.084 96.3863 397.06 95.4798C396.036 94.5129 395.434 93.1835 395.434 91.7936C395.434 88.7721 398.084 86.1131 401.276 85.8714C402.903 85.7506 404.529 86.2944 405.673 87.3217C406.697 88.2886 407.3 89.6181 407.3 91.008C407.3 94.0295 404.649 96.6884 401.457 96.9301C401.337 96.9301 401.156 96.9301 400.975 96.9301ZM401.818 87.6239C401.698 87.6239 401.577 87.6239 401.457 87.6239C399.168 87.8052 397.301 89.6181 397.301 91.7332C397.301 92.6396 397.662 93.4856 398.325 94.0899C399.108 94.8151 400.192 95.1777 401.337 95.0568C403.625 94.8755 405.493 93.0626 405.493 90.9476C405.493 90.0411 405.131 89.1951 404.469 88.5908C403.806 87.9865 402.842 87.6239 401.818 87.6239Z" fill="#071824"/>
<path d="M349.718 331.943L233.105 316.775C232.202 316.655 231.6 315.929 231.6 315.023V203.65C231.6 202.502 232.624 201.535 233.768 201.716L350.32 216.884C351.224 217.005 351.826 217.73 351.826 218.637V329.949C351.886 331.158 350.862 332.064 349.718 331.943Z" fill="#B8D9F1"/>
<path d="M295.808 247.281L285.448 245.951C284.363 245.83 283.641 244.924 283.641 243.836V234.167C283.641 232.777 284.906 231.69 286.231 231.81L296.591 233.14C297.675 233.261 298.398 234.167 298.398 235.255V244.924C298.398 246.314 297.193 247.462 295.808 247.281Z" fill="white"/>
<path d="M314.962 249.758L304.602 248.429C303.518 248.308 302.795 247.401 302.795 246.314V236.645C302.795 235.255 304.06 234.167 305.385 234.288L315.745 235.618C316.829 235.738 317.552 236.645 317.552 237.733V247.401C317.552 248.852 316.287 249.94 314.962 249.758Z" fill="#A3CEED"/>
<path d="M334.116 252.296L323.756 250.967C322.672 250.846 321.949 249.939 321.949 248.852V239.183C321.949 237.793 323.214 236.705 324.539 236.826L334.899 238.156C335.984 238.276 336.706 239.183 336.706 240.271V249.94C336.706 251.329 335.442 252.417 334.116 252.296Z" fill="#A3CEED"/>
<path d="M257.499 261.3L247.139 259.971C246.055 259.85 245.332 258.944 245.332 257.856V248.187C245.332 246.797 246.597 245.709 247.922 245.83L258.282 247.16C259.366 247.281 260.089 248.187 260.089 249.275V258.944C260.15 260.394 258.885 261.482 257.499 261.3Z" fill="#A3CEED"/>
<path d="M276.654 263.838L266.293 262.509C265.209 262.388 264.486 261.482 264.486 260.394V250.725C264.486 249.335 265.751 248.247 267.076 248.368L277.437 249.698C278.521 249.819 279.244 250.725 279.244 251.813V261.482C279.304 262.872 278.039 264.02 276.654 263.838Z" fill="white"/>
<path d="M295.808 266.316L285.448 264.987C284.363 264.866 283.641 263.959 283.641 262.872V253.203C283.641 251.813 284.906 250.725 286.231 250.846L296.591 252.175C297.675 252.296 298.398 253.203 298.398 254.29V263.959C298.398 265.41 297.193 266.497 295.808 266.316Z" fill="#A3CEED"/>
<path d="M296.108 267.223C295.988 267.223 295.867 267.223 295.687 267.223L285.326 265.893C283.821 265.712 282.736 264.443 282.736 262.872V253.203C282.736 252.296 283.158 251.39 283.821 250.786C284.543 250.181 285.447 249.879 286.35 250L296.711 251.329C298.216 251.511 299.301 252.78 299.301 254.351V264.02C299.301 264.926 298.879 265.833 298.216 266.437C297.614 266.981 296.831 267.223 296.108 267.223ZM295.928 265.41C296.289 265.47 296.711 265.349 297.012 265.047C297.313 264.745 297.494 264.382 297.494 263.959V254.29C297.494 253.686 297.072 253.203 296.47 253.082L286.109 251.752C285.748 251.692 285.326 251.813 285.025 252.115C284.724 252.417 284.543 252.78 284.543 253.203V262.872C284.543 263.476 284.965 263.959 285.567 264.08L295.928 265.41Z" fill="#071824"/>
<path d="M314.962 268.794L304.602 267.464C303.518 267.343 302.795 266.437 302.795 265.349V255.68C302.795 254.291 304.06 253.203 305.385 253.324L315.745 254.653C316.829 254.774 317.552 255.68 317.552 256.768V266.437C317.552 267.887 316.287 268.975 314.962 268.794Z" fill="white"/>
<path d="M334.116 271.332L323.756 270.002C322.672 269.881 321.949 268.975 321.949 267.887V258.218C321.949 256.829 323.214 255.741 324.539 255.862L334.899 257.191C335.984 257.312 336.706 258.218 336.706 259.306V268.975C336.706 270.365 335.442 271.513 334.116 271.332Z" fill="#A3CEED"/>
<path d="M257.499 280.396L247.139 279.067C246.055 278.946 245.332 278.04 245.332 276.952V267.283C245.332 265.893 246.597 264.805 247.922 264.926L258.282 266.256C259.366 266.377 260.089 267.283 260.089 268.371V278.04C260.15 279.43 258.885 280.578 257.499 280.396Z" fill="white"/>
<path d="M276.654 282.874L266.293 281.545C265.209 281.424 264.486 280.517 264.486 279.429V269.761C264.486 268.371 265.751 267.283 267.076 267.404L277.437 268.733C278.521 268.854 279.244 269.761 279.244 270.848V280.517C279.304 281.907 278.039 283.055 276.654 282.874Z" fill="white"/>
<path d="M295.808 285.352L285.448 284.022C284.363 283.901 283.641 282.995 283.641 281.907V272.238C283.641 270.848 284.906 269.761 286.231 269.882L296.591 271.211C297.675 271.332 298.398 272.238 298.398 273.326V282.995C298.398 284.445 297.193 285.533 295.808 285.352Z" fill="white"/>
<path d="M314.962 287.829L304.602 286.5C303.518 286.379 302.795 285.473 302.795 284.385V274.716C302.795 273.326 304.06 272.238 305.385 272.359L315.745 273.689C316.829 273.809 317.552 274.716 317.552 275.804V285.473C317.552 286.923 316.287 288.011 314.962 287.829Z" fill="white"/>
<path d="M334.116 290.367L323.756 289.038C322.672 288.917 321.949 288.011 321.949 286.923V277.254C321.949 275.864 323.214 274.776 324.539 274.897L334.899 276.227C335.984 276.348 336.706 277.254 336.706 278.342V288.011C336.706 289.401 335.442 290.549 334.116 290.367Z" fill="#A3CEED"/>
<path d="M257.499 299.432L247.139 298.102C246.055 297.982 245.332 297.075 245.332 295.987V286.319C245.332 284.929 246.597 283.841 247.922 283.962L258.282 285.291C259.366 285.412 260.089 286.319 260.089 287.406V297.075C260.15 298.465 258.885 299.613 257.499 299.432Z" fill="white"/>
<path d="M276.654 301.91L266.293 300.58C265.209 300.459 264.486 299.553 264.486 298.465V288.796C264.486 287.406 265.751 286.319 267.076 286.439L277.437 287.769C278.521 287.89 279.244 288.796 279.244 289.884V299.553C279.304 300.943 278.039 302.091 276.654 301.91Z" fill="white"/>
<path d="M295.808 304.387L285.448 303.058C284.363 302.937 283.641 302.03 283.641 300.943V291.274C283.641 289.884 284.906 288.796 286.231 288.917L296.591 290.247C297.675 290.367 298.398 291.274 298.398 292.362V302.03C298.398 303.481 297.193 304.569 295.808 304.387Z" fill="#A3CEED"/>
<path d="M314.962 306.925L304.602 305.596C303.518 305.475 302.795 304.568 302.795 303.481V293.812C302.795 292.422 304.06 291.334 305.385 291.455L315.745 292.785C316.829 292.905 317.552 293.812 317.552 294.9V304.568C317.552 305.958 316.287 307.107 314.962 306.925Z" fill="white"/>
<path d="M38.9707 129.562V31.2424C38.9707 29.913 40.1754 28.8252 41.5005 28.9461L207.986 50.9427C209.01 51.0636 209.733 51.9096 209.733 52.9973V181.774C209.733 183.104 208.529 184.191 207.203 184.01L40.7777 162.074C39.7537 161.953 39.0309 161.107 39.0309 160.019V129.562H38.9707Z" fill="#B8D9F1"/>
<path d="M124.022 124.184L52.043 115.241V98.743L123.119 108.17L124.022 124.184Z" fill="#A3CEED"/>
<path d="M119.685 107.747L193.11 117.476C194.133 117.597 194.856 118.443 194.856 119.531V131.557C194.856 132.886 193.652 133.974 192.326 133.793L119.504 124.003L119.685 107.747Z" fill="white"/>
<path d="M107.156 123.459C107.096 123.459 107.096 123.459 107.036 123.459L53.6685 116.389C52.1626 116.207 51.1387 114.938 51.1387 113.428V101.342C51.1387 100.435 51.5603 99.5286 52.2229 98.9243C52.8854 98.32 53.789 98.0179 54.6925 98.1387L111.071 105.632C111.553 105.693 111.914 106.176 111.854 106.659C111.794 107.143 111.312 107.505 110.83 107.445L54.4515 99.9517C54.0901 99.8912 53.6685 100.012 53.4275 100.314C53.1264 100.556 52.9457 100.979 52.9457 101.342V113.428C52.9457 114.032 53.3673 114.515 53.9094 114.576L107.276 121.646C107.758 121.707 108.12 122.19 108.06 122.673C107.999 123.096 107.578 123.459 107.156 123.459Z" fill="#071824"/>
<path d="M186.603 91.1893L121.009 82.4269C117.877 82.0039 115.588 79.4054 115.588 76.1421C115.588 71.9724 119.322 68.6488 123.418 69.1926L189.013 77.955C192.145 78.378 194.434 80.9765 194.434 84.2398C194.434 88.349 190.699 91.6727 186.603 91.1893Z" fill="#B8D9F1"/>
<path d="M99.7462 94.8755L55.7153 88.349C53.6071 88.0469 52.0411 86.234 52.1013 84.0585L52.4627 51.0031C52.5229 48.1629 55.0527 45.927 57.7633 46.2896L101.433 51.7887C103.601 52.0909 105.167 53.8434 105.167 56.0793V90.1015C105.167 93.0022 102.577 95.2985 99.7462 94.8755Z" fill="white"/>
<path d="M52.2812 84.3002V77.0486L64.9303 63.6935C66.135 62.4244 68.0625 62.3036 69.2672 63.4518L77.9408 71.6703C79.0852 72.758 80.9525 72.6976 82.1572 71.5494L82.9402 70.8242C84.1449 69.6761 86.0121 69.6156 87.1566 70.7034L104.925 87.6843L104.986 90.0411C105.046 93.0626 102.335 95.4798 99.4442 95.0568L56.0157 88.6512C53.8473 88.349 52.2812 86.4757 52.2812 84.3002Z" fill="#005D95"/>
<path d="M98.7227 62.787C98.7227 65.5064 96.5543 67.8028 93.8438 67.9236C91.1333 68.0445 88.9648 65.9898 88.9648 63.2705C88.9648 60.5511 91.1333 58.2548 93.8438 58.1339C96.5543 58.0131 98.7227 60.0677 98.7227 62.787Z" fill="#A3CEED"/>
<path d="M350.198 346.145C350.138 346.145 350.138 346.145 350.078 346.145L300.325 339.86C299.843 339.799 299.481 339.316 299.542 338.832C299.602 338.349 300.084 337.986 300.566 338.047L350.319 344.332C350.801 344.392 351.162 344.875 351.102 345.359C350.981 345.782 350.62 346.145 350.198 346.145Z" fill="#071824"/>
<path d="M466.751 360.769C466.57 360.769 466.39 360.769 466.209 360.708L386.58 350.677C386.098 350.616 385.737 350.133 385.797 349.65C385.857 349.166 386.339 348.803 386.821 348.864L466.45 358.956C467.173 359.016 467.896 358.775 468.498 358.291C469.1 357.747 469.401 357.022 469.401 356.297V75.7796C469.401 71.8516 466.57 68.5884 462.715 68.1049L30.9602 13.7177C29.5749 13.5364 28.069 14.0198 26.9246 15.0471C25.7801 16.0745 25.1176 17.5248 25.1176 18.9751V293.449C25.1176 293.933 24.6959 294.356 24.2141 294.356C23.7322 294.356 23.3105 293.933 23.3105 293.449V18.9751C23.3105 16.9809 24.2141 15.0471 25.7199 13.7177C27.2257 12.3882 29.2134 11.7235 31.1409 11.9652L462.896 66.292C467.655 66.8963 471.148 70.8847 471.148 75.7191V356.236C471.148 357.505 470.606 358.714 469.582 359.621C468.859 360.406 467.775 360.769 466.751 360.769Z" fill="#071824"/>
<path d="M186.303 167.754L124.443 159.838C119.625 159.234 116.191 155.306 116.191 150.411V107.868C116.191 101.281 122.215 95.9028 128.66 96.6884L190.52 104.605C195.339 105.209 198.772 109.137 198.772 114.032V156.575C198.772 163.162 192.748 168.6 186.303 167.754Z" fill="white"/>
<path d="M116.371 151.015V141.528L136.128 120.135C137.995 118.081 141.007 117.839 142.934 119.591L156.487 131.98C158.294 133.611 161.185 133.49 163.052 131.617L164.257 130.409C166.184 128.535 169.076 128.414 170.883 130.046L198.53 155.668V157.723C198.53 163.766 192.928 168.782 186.965 167.996L123.9 159.778C119.503 159.113 116.371 155.487 116.371 151.015Z" fill="#E5A678"/>
<path d="M187.568 168.782C187.086 168.782 186.604 168.782 186.182 168.721L124.322 160.805C119.082 160.14 115.287 155.789 115.287 150.471V107.928C115.287 104.484 116.793 101.221 119.443 98.8639C122.094 96.5676 125.467 95.4798 128.779 95.9028L190.639 103.819C195.88 104.484 199.675 108.835 199.675 114.153V156.696C199.675 160.14 198.169 163.403 195.518 165.76C193.23 167.694 190.399 168.782 187.568 168.782ZM127.394 97.5344C124.985 97.5344 122.575 98.4409 120.648 100.133C118.359 102.127 117.094 104.967 117.094 107.868V150.411C117.094 154.822 120.226 158.388 124.503 158.932L186.363 166.848C189.134 167.211 192.025 166.304 194.254 164.31C196.542 162.316 197.807 159.475 197.807 156.575V114.032C197.807 109.62 194.675 106.055 190.399 105.511L128.539 97.5949C128.177 97.5949 127.816 97.5344 127.394 97.5344Z" fill="#071824"/>
<path d="M186.445 124.77C189.462 121.755 189.663 117.05 186.893 114.259C184.123 111.468 179.432 111.65 176.414 114.664C173.397 117.678 173.197 122.384 175.966 125.175C178.736 127.965 183.427 127.784 186.445 124.77Z" fill="#A3CEED"/>
<path d="M264.425 479.877C263.943 479.877 263.521 479.454 263.521 478.97V339.92C263.521 339.437 263.943 339.014 264.425 339.014C264.907 339.014 265.328 339.437 265.328 339.92V478.97C265.328 479.514 264.967 479.877 264.425 479.877Z" fill="#071824"/>
<path d="M58.4852 343.486H285.145C288.156 343.486 290.626 341.008 290.626 337.986V337.02C290.626 333.998 288.156 331.52 285.145 331.52H58.4852C55.4735 331.52 53.0039 333.998 53.0039 337.02V337.986C53.0641 341.068 55.4735 343.486 58.4852 343.486Z" fill="#A3CEED"/>
<path d="M118.9 342.881C118.418 342.881 117.996 342.458 117.996 341.975V334.663C117.996 334.179 118.418 333.756 118.9 333.756C119.381 333.756 119.803 334.179 119.803 334.663V341.975C119.803 342.458 119.381 342.881 118.9 342.881Z" fill="#B8D9F1"/>
<path d="M108.117 468.818L111.249 484.469C111.37 485.013 111.852 485.376 112.334 485.255L121.489 482.898C121.911 482.777 122.091 482.354 122.031 481.931L119.381 467.911L108.117 468.818Z" fill="white"/>
<path d="M112.153 486.161C111.852 486.161 111.551 486.041 111.25 485.92C110.828 485.618 110.527 485.195 110.407 484.651L107.275 468.999C107.214 468.758 107.275 468.455 107.455 468.274C107.636 468.093 107.877 467.911 108.118 467.911L119.382 467.005C119.863 466.945 120.225 467.307 120.345 467.73L122.996 481.75C123.176 482.657 122.634 483.563 121.791 483.744L112.635 486.101C112.394 486.161 112.274 486.161 112.153 486.161ZM109.202 469.604L112.153 484.288V484.349L121.128 482.052L118.659 468.878L109.202 469.604Z" fill="#071824"/>
<path d="M78.6045 455.342L70.8945 468.093L79.6887 472.806L87.6395 461.385L78.6045 455.342Z" fill="white"/>
<path d="M79.6884 473.713C79.5679 473.713 79.3872 473.652 79.2667 473.592L70.4726 468.878C70.2317 468.758 70.1112 468.576 70.051 468.335C69.9907 468.093 70.051 467.851 70.1714 467.609L77.8814 454.859C78.0018 454.677 78.2428 454.496 78.4837 454.436C78.7246 454.375 78.9656 454.436 79.2065 454.556L88.2416 460.599C88.4223 460.72 88.603 460.962 88.603 461.204C88.6632 461.445 88.603 461.687 88.4825 461.868L80.5316 473.229C80.2907 473.532 79.9895 473.713 79.6884 473.713ZM72.1592 467.73L79.4474 471.598L86.3743 461.627L78.9053 456.611L72.1592 467.73Z" fill="#071824"/>
<path d="M107.997 477.58C107.395 479.816 106.07 486.161 105.467 489.969C105.106 492.386 106.612 494.622 108.961 495.286C115.466 497.039 131.067 496.978 144.077 497.583C144.981 497.643 146.607 497.16 147.33 495.045C149.799 487.733 136.126 485.436 122.634 478.003C122.393 477.883 122.032 477.883 121.791 478.064C121.61 478.185 121.429 478.306 121.188 478.487C118.839 479.998 114.924 479.998 112.575 478.547L109.865 476.916C109.202 476.372 108.238 476.734 107.997 477.58Z" fill="#005D95"/>
<path d="M144.198 498.429C144.138 498.429 144.078 498.429 144.018 498.429C140.705 498.308 137.151 498.187 133.718 498.066C123.418 497.764 113.66 497.462 108.66 496.132C105.89 495.407 104.143 492.688 104.504 489.848C105.046 486.041 106.371 479.695 107.034 477.339C107.215 476.674 107.697 476.13 108.359 475.888C109.022 475.647 109.745 475.707 110.287 476.07L112.997 477.701C115.105 478.97 118.659 478.97 120.707 477.641C120.948 477.52 121.129 477.399 121.249 477.278C121.791 476.916 122.454 476.855 123.056 477.157C127.092 479.393 131.248 481.206 134.862 482.777C143.415 486.464 150.161 489.425 148.174 495.347C147.451 497.643 145.584 498.429 144.198 498.429ZM109.263 477.52C109.202 477.52 109.142 477.52 109.142 477.52C109.082 477.52 108.962 477.641 108.901 477.762C108.239 480.058 106.974 486.403 106.432 490.089C106.131 492.023 107.335 493.836 109.263 494.38C114.021 495.649 124.14 495.951 133.898 496.253C137.332 496.374 140.885 496.435 144.198 496.616C144.499 496.616 145.885 496.616 146.547 494.682C147.933 490.573 143.054 488.216 134.26 484.409C130.585 482.838 126.49 481.025 122.394 478.789C122.213 478.91 122.032 479.031 121.852 479.152C119.261 480.783 114.925 480.844 112.274 479.212L109.564 477.58C109.383 477.52 109.323 477.52 109.263 477.52Z" fill="#071824"/>
<path d="M105.108 491.721C105.108 491.782 105.108 491.842 105.108 491.842C104.747 494.259 107.036 495.709 109.204 496.737C115.649 499.758 141.61 498.006 142.634 497.945H142.694C142.995 497.945 146.308 497.945 147.272 495.891C147.392 495.649 147.453 495.286 147.513 494.924C147.573 494.38 147.573 493.836 147.453 493.292C147.332 492.869 146.91 492.567 146.489 492.688C141.67 493.897 130.346 494.743 119.143 493.111C114.987 492.507 108.421 490.633 106.674 489.606C106.192 489.304 105.59 489.606 105.47 490.15C105.349 490.573 105.229 491.117 105.108 491.721Z" fill="white"/>
<path d="M126.249 499.456C119.202 499.456 111.914 499.033 108.782 497.583C107.396 496.918 103.662 495.166 104.204 491.721C104.204 491.661 104.204 491.6 104.264 491.54L104.565 489.969C104.686 489.425 105.047 488.941 105.529 488.76C106.011 488.518 106.613 488.579 107.095 488.881C108.601 489.787 114.986 491.661 119.202 492.265C131.008 494.017 142.031 492.93 146.187 491.902C146.608 491.782 147.09 491.842 147.512 492.084C147.873 492.325 148.174 492.748 148.295 493.171C148.415 493.836 148.476 494.501 148.415 495.166C148.355 495.649 148.235 496.072 148.114 496.374C146.97 498.912 143.416 498.973 142.693 498.973C141.187 498.973 133.899 499.456 126.249 499.456ZM106.312 490.452L106.011 491.902V492.023C105.83 493.474 106.914 494.682 109.565 495.951C114.564 498.308 133.297 497.704 142.512 497.099H142.633C143.657 497.16 145.825 496.797 146.367 495.589C146.367 495.528 146.488 495.347 146.548 494.924C146.608 494.561 146.608 494.138 146.488 493.715C141.067 495.105 129.622 495.649 118.901 494.138C114.805 493.413 108.3 491.54 106.312 490.452Z" fill="#071824"/>
<path d="M123.599 484.772C123.297 484.772 123.056 484.651 122.876 484.409C122.575 483.986 122.635 483.442 123.056 483.14L126.972 480.118C127.393 479.816 127.935 479.877 128.237 480.3C128.538 480.723 128.477 481.267 128.056 481.569L124.141 484.59C124.02 484.711 123.779 484.772 123.599 484.772Z" fill="#071824"/>
<path d="M128.839 486.887C128.538 486.887 128.297 486.766 128.116 486.524C127.815 486.101 127.875 485.557 128.297 485.255L131.73 482.656C132.152 482.354 132.694 482.415 132.995 482.838C133.296 483.261 133.236 483.805 132.814 484.107L129.381 486.705C129.2 486.826 129.019 486.887 128.839 486.887Z" fill="#071824"/>
<path d="M80.2897 470.087L70.1705 468.637L64.2073 481.387C63.3038 483.321 64.0266 485.799 65.8336 486.887C68.1828 488.337 71.6161 490.271 75.5915 491.54C83.1207 493.957 90.5897 500.906 97.0949 497.522C103.54 494.078 103.118 493.836 103.48 491.479C103.781 489.122 97.3961 484.53 93.0593 481.508C89.4453 479.031 80.2897 470.087 80.2897 470.087Z" fill="#005D95"/>
<path d="M93.2403 499.335C89.6262 499.335 85.8918 497.401 82.2175 495.528C79.9286 494.38 77.5795 493.171 75.2906 492.386C71.1345 491.056 67.5807 489.062 65.2918 487.612C63.1234 486.282 62.2801 483.261 63.3643 480.964L69.6287 467.609L80.7117 469.241L80.9526 469.422C81.0731 469.483 90.0479 478.366 93.5414 480.783C100.468 485.618 104.685 489.123 104.323 491.661C104.323 491.842 104.263 491.963 104.263 492.144C103.962 494.622 103.48 495.226 97.5169 498.368C96.0712 499.033 94.6859 499.335 93.2403 499.335ZM70.6526 469.604L64.9304 481.75C64.2076 483.261 64.81 485.255 66.1953 486.101C68.3637 487.491 71.7971 489.425 75.7725 490.694C78.2421 491.479 80.6514 492.748 83.0005 493.957C87.9397 496.495 92.5777 498.852 96.5531 496.737C102.155 493.776 102.155 493.473 102.396 491.902C102.396 491.781 102.456 491.6 102.456 491.419C102.637 490.15 99.2636 487.068 92.397 482.294C89.0841 479.998 81.2538 472.383 79.8082 470.993L70.6526 469.604Z" fill="#071824"/>
<path d="M83.6027 481.387C83.3015 481.387 83.0003 481.267 82.8196 480.964C82.5185 480.541 82.6389 479.998 83.0606 479.695L87.6383 476.734C88.06 476.432 88.6021 476.553 88.9032 476.976C89.2044 477.399 89.0839 477.943 88.6623 478.245L84.0846 481.206C83.9641 481.327 83.7834 481.387 83.6027 481.387Z" fill="#071824"/>
<path d="M86.8566 484.832C86.5554 484.832 86.2542 484.711 86.0735 484.409C85.7724 483.986 85.8928 483.442 86.3145 483.14L90.8922 480.179C91.3139 479.877 91.856 479.998 92.1571 480.421C92.4583 480.844 92.3379 481.387 91.9162 481.69L87.3385 484.651C87.218 484.772 87.0373 484.832 86.8566 484.832Z" fill="#071824"/>
<path d="M102.938 493.232C102.938 493.232 97.8785 496.978 92.2768 494.984C86.6751 493.05 64.1477 481.146 64.1477 481.146L63.0032 483.684C62.4009 484.953 62.943 486.524 64.1477 487.249C69.7494 490.392 84.6874 498.489 92.5177 499.033C102.215 499.698 102.938 493.232 102.938 493.232Z" fill="white"/>
<path d="M93.8429 500C93.4212 500 92.9394 500 92.4575 499.94C84.5669 499.396 69.7494 491.419 63.726 488.035C62.0997 487.128 61.4371 485.074 62.1599 483.321L63.3044 480.783C63.4249 480.541 63.6056 480.36 63.8465 480.3C64.0874 480.239 64.3284 480.239 64.5693 480.36C64.8102 480.481 87.0967 492.265 92.5177 494.138C97.6376 495.891 102.336 492.507 102.396 492.507C102.697 492.265 103.059 492.265 103.36 492.446C103.661 492.628 103.842 492.99 103.781 493.353C103.842 493.413 102.938 500 93.8429 500ZM64.5693 482.415L63.7863 484.107C63.4249 484.953 63.726 485.98 64.5693 486.464C69.1471 489.062 84.8078 497.583 92.5177 498.127C97.5171 498.489 99.9265 496.797 101.011 495.286C98.8423 496.253 95.4692 497.099 91.9154 495.891C86.916 494.138 68.7857 484.651 64.5693 482.415Z" fill="#071824"/>
<path d="M87.0364 368.806C87.0364 368.806 121.972 383.067 134.862 398.719C147.21 413.706 91.6744 468.032 91.6744 468.032C91.6141 468.274 72.8212 457.638 72.8212 457.336L87.2171 425.852C92.879 413.585 104.263 406.575 99.6252 402.224C95.4089 398.296 71.978 400.35 59.9312 399.927C38.5482 399.202 38.7892 367.96 38.7892 367.96L87.0364 368.806Z" fill="#005D95"/>
<path d="M116.852 407.663C119.864 418.963 122.755 453.046 123.418 472.081C123.418 472.323 104.203 472.504 104.143 472.202C103.962 470.51 89.7469 418.963 81.7961 405.306C77.5797 398.054 50.3541 400.109 44.2705 398.9C28.0676 395.697 29.1518 362.823 29.1518 362.823L105.046 393.22C111.491 394.247 115.105 401.196 116.852 407.663Z" fill="#005D95"/>
<path d="M100.891 459.451C100.71 459.451 100.469 459.391 100.348 459.27C99.987 458.968 99.8666 458.364 100.228 458.001L115.467 438.905C115.768 438.542 116.371 438.422 116.732 438.784C117.093 439.086 117.214 439.691 116.852 440.053L101.613 459.149C101.433 459.33 101.192 459.451 100.891 459.451Z" fill="#B8D9F1"/>
<path d="M24.2123 310.853C24.2123 310.853 24.8749 284.687 40.2345 279.55C41.5596 279.127 42.8848 278.886 44.2702 278.825L57.8227 278.342C61.8584 278.281 65.1713 279.309 69.4479 280.88C73.0619 282.209 77.0373 284.687 79.3864 286.802C89.6864 296.169 89.8068 327.713 98.7214 326.988C101.733 326.746 106.733 321.731 111.672 315.567C115.647 310.672 122.454 304.629 122.454 304.629L134.38 310.672C131.549 315.506 129.019 320.462 126.911 325.659C122.574 336.476 115.406 345.601 106.431 353.396C103.48 355.995 99.2635 356.539 95.7097 354.726C89.9875 351.885 81.4344 347.293 76.1338 342.942C74.2063 349.71 75.8929 357.143 80.7116 362.34C82.1572 363.911 83.7232 365.361 85.3495 366.51C86.9759 367.658 87.3373 369.954 86.2531 371.586C84.446 374.245 80.8923 377.327 74.0256 376.601C65.0508 375.635 39.4515 375.755 28.1275 375.876C25.1158 375.876 22.7065 373.399 22.7667 370.377L24.2123 310.853Z" fill="#071824"/>
<path d="M76.3756 343.969C76.1949 343.969 76.0142 343.909 75.8335 343.788C74.2675 342.519 69.3885 338.047 66.8587 334.3C66.5575 333.877 66.678 333.333 67.0996 333.031C67.5213 332.729 68.0634 332.85 68.3645 333.273C70.7739 336.838 75.4119 341.129 76.9177 342.337C77.3394 342.64 77.3996 343.244 77.0984 343.607C76.8575 343.848 76.6166 343.969 76.3756 343.969Z" fill="#A3CEED"/>
<path d="M123.959 304.931L125.766 295.021C125.766 295.021 127.272 287.467 129.079 286.5C130.404 285.775 131.307 288.555 131.006 292.059C130.946 292.664 131.729 292.845 131.97 292.301C132.934 290.186 133.898 287.708 134.018 286.439C134.199 283.901 134.681 278.765 136.969 279.248C139.258 279.732 143.414 287.769 140.282 294.658C137.15 301.547 129.862 307.892 129.862 307.892L123.959 304.931Z" fill="white"/>
<path d="M129.923 308.859C129.802 308.859 129.622 308.799 129.501 308.738L123.538 305.717C123.177 305.535 122.996 305.112 123.056 304.75L124.863 294.839C125.225 292.966 126.61 286.802 128.598 285.654C129.2 285.352 129.802 285.352 130.345 285.714C131.429 286.379 131.85 288.252 131.911 290.186C132.874 287.89 133.055 286.862 133.055 286.439C133.356 282.209 134.019 279.732 135.284 278.825C135.826 278.402 136.428 278.281 137.091 278.402C138.717 278.765 140.042 281.061 140.524 282.028C142.15 285.291 143.114 290.428 141.006 295.021C137.814 301.97 130.646 308.315 130.345 308.557C130.345 308.799 130.164 308.859 129.923 308.859ZM124.984 304.448L129.803 306.865C131.429 305.354 136.97 299.976 139.56 294.356C141.428 290.307 140.524 285.775 139.078 282.874C138.175 281.061 137.211 280.276 136.85 280.155C136.729 280.094 136.609 280.155 136.488 280.215C136.067 280.517 135.284 281.786 134.983 286.5C134.922 287.648 134.2 289.763 132.874 292.664C132.573 293.328 131.911 293.631 131.248 293.449C130.586 293.268 130.104 292.664 130.164 291.939C130.405 289.219 129.863 287.588 129.501 287.225C128.598 287.829 127.333 291.757 126.67 295.141L124.984 304.448Z" fill="#071824"/>
<path d="M58.7863 278.281L59.6296 266.195C60.2319 266.135 60.5933 266.135 60.7138 266.135C64.0869 266.074 65.1711 264.987 65.4723 262.207C65.653 260.454 65.7132 257.916 64.8699 254.653C64.8097 254.291 64.8097 253.928 64.9302 253.626L65.5325 252.296C65.653 251.873 65.4723 251.39 65.1711 251.088L64.8699 250.846C63.7857 249.94 62.8822 248.852 62.0992 247.583C61.4366 246.435 60.2922 244.32 59.5091 243.957C57.2805 242.869 48.3057 238.216 43.3063 246.435C39.3911 252.84 45.7759 261.663 48.125 264.564C48.6671 265.289 44.3302 278.946 44.3302 278.946L38.7285 280.336C38.7285 280.336 43.0653 288.071 56.2565 284.868C65.653 282.572 64.1471 279.067 64.1471 279.067L58.7863 278.281Z" fill="white"/>
<path d="M50.1737 286.56C41.3193 286.56 38.1269 281.061 37.9462 280.759C37.8257 280.517 37.7655 280.215 37.886 279.973C38.0064 279.732 38.2474 279.55 38.4883 279.43L43.6082 278.161C45.4152 272.48 47.162 266.195 47.2222 264.926C44.331 261.3 38.4883 252.538 42.524 245.951C46.0175 240.21 51.8 239.243 59.6303 243.051L59.8713 243.171C60.7145 243.594 61.5578 244.924 62.5818 246.676L62.883 247.16C63.6058 248.368 64.449 249.335 65.4128 250.181L65.7139 250.423C66.3163 250.967 66.6174 251.813 66.3765 252.599C66.3765 252.659 66.3765 252.659 66.3163 252.719L65.7139 254.049C65.6537 254.17 65.6537 254.351 65.7139 254.472C66.4367 257.131 66.6174 259.669 66.3163 262.328C65.9549 265.651 64.3888 266.981 60.6543 267.041C60.5941 267.041 60.5338 267.041 60.4134 267.041L59.6906 277.496L64.1479 278.161C64.449 278.221 64.7502 278.402 64.8707 278.704C64.9309 278.825 65.2923 279.792 64.6297 281.122C63.666 283.116 60.835 284.627 56.3175 285.714C54.0888 286.319 51.9807 286.56 50.1737 286.56ZM40.2351 280.88C41.9216 282.753 46.4994 286.258 56.0163 283.962C61.1362 282.753 62.642 281.182 63.0637 280.396C63.1841 280.215 63.2444 280.034 63.2444 279.853L58.6666 279.188C58.1847 279.127 57.8836 278.704 57.8836 278.221L58.7268 266.135C58.7871 265.712 59.0882 265.349 59.5701 265.289C60.1724 265.228 60.5941 265.228 60.7145 265.228C63.7865 265.168 64.3286 264.262 64.5695 262.146C64.8104 259.729 64.6297 257.373 63.9672 254.955C63.8467 254.411 63.8467 253.807 64.0876 253.324L64.6297 252.055C64.6297 251.994 64.6297 251.873 64.5093 251.813L64.2081 251.571C63.0637 250.665 62.0999 249.456 61.2566 248.066L60.9555 247.522C60.5338 246.797 59.5099 244.984 59.028 244.743L58.7871 244.622C56.197 243.353 48.4269 239.606 43.9696 246.858C40.476 252.599 46.138 260.696 48.728 263.959C49.0894 264.382 49.5713 265.047 45.114 279.188C44.9936 279.49 44.7526 279.732 44.4515 279.792L40.2351 280.88Z" fill="#071824"/>
<path d="M46.0777 235.98C48.487 235.436 51.318 235.859 52.4624 235.376C54.3899 234.651 54.3899 232.415 57.0402 231.75C60.2326 230.964 61.5577 232.354 62.8226 234.228C63.0033 234.53 63.184 234.892 63.3647 235.315C65.3524 240.694 62.8226 243.353 61.7384 244.199C61.7384 244.199 54.5706 247.885 53.3659 248.973C52.2215 249.94 50.8964 252.296 51.7396 255.68C51.8601 256.103 51.6794 256.587 51.318 256.768C50.8963 257.01 50.3542 256.889 50.0531 256.466C49.1496 255.137 47.1016 252.478 45.656 253.082C43.849 253.868 44.3911 259.306 48.4268 259.971C49.6314 260.152 50.6554 261.421 50.5349 262.751C50.4747 263.597 49.6314 264.624 48.487 264.866C47.7642 265.047 47.0414 264.745 46.4391 264.322C43.849 262.63 36.4403 255.499 35.5368 249.154C34.2718 241.54 42.825 236.705 46.0777 235.98Z" fill="#071824"/>
<path d="M60.5943 266.92C60.5341 266.92 60.5341 266.92 60.5943 266.92C60.4136 266.92 57.4622 266.8 55.2938 264.926C54.9324 264.624 54.8721 264.08 55.1733 263.718C55.4745 263.355 56.0166 263.295 56.378 263.597C58.1248 265.047 60.5943 265.168 60.5943 265.168C61.0762 265.168 61.4376 265.591 61.3774 266.014C61.3774 266.558 61.016 266.92 60.5943 266.92Z" fill="#071824"/>
<path d="M69.63 498.187H28.3097C26.1413 498.187 24.3945 496.435 24.3945 494.259C24.3945 491.781 26.3822 489.787 28.8518 489.787H46.5605C48.0061 489.787 49.2108 488.579 49.2108 487.128V412.134C49.2108 411.651 49.6325 411.228 50.1143 411.228C50.5962 411.228 51.0178 411.651 51.0178 412.134V487.189C51.0178 489.666 49.0301 491.661 46.5605 491.661H28.8518C27.4062 491.661 26.2015 492.869 26.2015 494.32C26.2015 495.468 27.1653 496.435 28.3097 496.435H69.63C70.1119 496.435 70.5335 496.858 70.5335 497.341C70.5335 497.764 70.1119 498.187 69.63 498.187Z" fill="#071824"/>
<path d="M19.9357 312.727H25.8988C41.8608 312.727 55.7145 323.967 59.0876 339.799L66.0747 372.069C67.701 379.623 74.3267 385.001 81.9162 385.001H94.5653C101.131 385.001 106.492 390.379 106.492 397.087C106.492 403.735 101.131 409.173 94.5653 409.173H74.0858V409.234H38.1263C25.5374 409.234 14.6351 400.35 11.9246 387.902L0.901851 336.657C-1.74843 324.39 7.52756 312.727 19.9357 312.727Z" fill="#A3CEED"/>
<path d="M55.8351 475.949C55.3533 475.949 54.9316 475.526 54.9316 475.042V441.262C54.9316 440.778 55.3533 440.355 55.8351 440.355C56.317 440.355 56.7387 440.778 56.7387 441.262V475.042C56.7387 475.586 56.317 475.949 55.8351 475.949Z" fill="#071824"/>
<path d="M74.1469 410.08H38.1272C25.1769 410.08 13.853 400.834 11.0822 388.023L-0.000779977 336.838C-0.121247 336.355 0.179921 335.871 0.661791 335.751C1.14366 335.63 1.62553 335.932 1.746 336.415L12.829 387.6C15.4191 399.565 26.0202 408.206 38.1272 408.206H74.0867C74.5686 408.206 74.9902 408.629 74.9902 409.113C75.0504 409.717 74.6288 410.08 74.1469 410.08Z" fill="#071824"/>
<path d="M186.423 393.884C190.158 411.107 175.34 458.182 172.208 469.664C171.786 471.175 170.401 472.202 168.895 472.202H155.041C153.114 472.202 151.548 470.631 151.608 468.697C151.728 455.1 154.198 405.427 145.765 391.165C140.886 382.886 131.912 379.139 125.888 375.211C111.432 365.784 116.853 344.875 116.853 344.875L171.244 377.266C178.773 378.354 184.797 386.451 186.423 393.884Z" fill="white"/>
<path d="M168.894 473.109H155.041C153.836 473.109 152.752 472.625 151.909 471.839C151.065 470.993 150.644 469.906 150.644 468.758C150.644 467.005 150.704 464.588 150.764 461.868C151.186 443.075 152.149 403.916 144.861 391.709C141.187 385.424 135.043 381.859 129.622 378.716C128.056 377.81 126.61 376.964 125.285 376.057C110.528 366.389 115.889 344.936 115.949 344.694L116.25 343.546L171.545 376.481C179.616 377.81 185.7 386.331 187.326 393.764C190.639 408.992 179.977 446.096 174.797 463.923C174.075 466.461 173.472 468.516 173.051 469.966C172.569 471.779 170.822 473.109 168.894 473.109ZM117.515 346.265C116.672 350.737 114.624 366.751 126.369 374.426C127.695 375.272 129.08 376.118 130.646 377.024C136.248 380.288 142.572 384.034 146.548 390.682C154.077 403.372 153.113 442.833 152.692 461.808C152.631 464.588 152.571 466.945 152.571 468.697C152.571 469.362 152.812 470.027 153.294 470.51C153.776 470.993 154.438 471.296 155.101 471.296H168.955C170.099 471.296 171.123 470.51 171.424 469.422C171.846 467.911 172.388 465.917 173.171 463.319C177.869 447.003 188.832 408.871 185.639 394.066C184.134 387.056 178.291 379.2 171.183 378.173H171.003L170.822 378.112L117.515 346.265Z" fill="#071824"/>
<path d="M165.821 350.254C165.821 350.254 213.285 350.677 228.283 368.564C241.715 384.639 221.778 455.463 217.622 469.604C217.2 471.054 215.815 472.081 214.309 472.081H196.48C196.118 472.081 195.817 471.779 195.817 471.416V396.423C195.817 391.709 194.914 394.247 190.878 391.649C185.276 388.083 175.157 391.105 161.183 391.226C116.791 391.528 123.958 349.649 123.958 349.649L165.821 350.254Z" fill="white"/>
<path d="M214.25 473.048H196.42C195.577 473.048 194.854 472.323 194.854 471.477V396.423C194.854 394.126 194.794 394.126 193.891 393.945C193.108 393.764 191.963 393.461 190.337 392.434C186.964 390.259 181.362 390.742 174.254 391.346C170.399 391.709 166.002 392.072 161.124 392.132C147.39 392.192 137.15 388.385 130.585 380.59C119.984 368.081 122.875 350.254 123.056 349.468L123.176 348.683L165.822 349.287C167.809 349.287 213.888 349.952 228.947 367.96C234.789 374.97 235.331 392.495 230.392 419.93C226.598 441.141 220.755 461.929 218.406 469.845C217.924 471.719 216.177 473.048 214.25 473.048ZM196.661 471.235H214.25C215.394 471.235 216.358 470.51 216.719 469.422C220.815 455.463 240.692 384.941 227.561 369.229C213.045 351.885 166.304 351.221 165.822 351.221L124.742 350.616C124.321 354.121 123.176 369.048 132.031 379.502C138.235 386.814 148.053 390.44 161.184 390.38C165.942 390.319 170.339 389.956 174.194 389.594C181.603 388.929 187.506 388.446 191.421 390.923C192.746 391.769 193.71 392.011 194.433 392.192C196.36 392.676 196.782 393.401 196.782 396.483V471.235H196.661Z" fill="#071824"/>
<path d="M154.919 472.263L153.955 484.409L165.098 484.469L167.387 472.323L154.919 472.263Z" fill="white"/>
<path d="M165.822 485.376L152.992 485.315L154.076 471.356L168.472 471.477L165.822 485.376ZM154.98 483.503L164.376 483.563L166.304 473.229L155.763 473.169L154.98 483.503Z" fill="#071824"/>
<path d="M198.771 472.263L198.952 484.409L210.397 484.469L212.384 472.323L198.771 472.263Z" fill="white"/>
<path d="M211.119 485.376L198.048 485.315L197.867 471.356L213.468 471.477L211.119 485.376ZM199.855 483.503L209.613 483.563L211.36 473.229L199.734 473.169L199.855 483.503Z" fill="#071824"/>
<path d="M210.215 482.898H199.554C198.771 482.898 198.108 483.321 197.807 484.046C196.843 486.343 194.916 491.661 195.217 496.737C195.277 498.127 196.422 499.214 197.807 499.214H229.008C230.454 499.214 231.538 497.885 231.237 496.495C230.875 494.803 229.731 492.628 226.298 490.633C220.756 487.43 213.769 484.228 211.601 483.2C211.179 483.019 210.697 482.898 210.215 482.898Z" fill="#005D95"/>
<path d="M164.678 482.898H154.017C153.234 482.898 152.571 483.321 152.27 484.046C151.306 486.343 149.379 491.661 149.68 496.737C149.74 498.127 150.885 499.214 152.27 499.214H183.471C184.917 499.214 186.001 497.885 185.7 496.495C185.338 494.803 184.194 492.628 180.761 490.633C175.219 487.43 168.232 484.228 166.064 483.2C165.702 483.019 165.22 482.898 164.678 482.898Z" fill="#005D95"/>
<path d="M209.611 325.054L215.213 322.939C217.622 322.033 220.212 322.093 222.562 323.06C225.513 324.269 229.488 326.202 232.259 328.801C232.922 329.466 232.5 330.674 231.597 330.674H209.852L209.611 325.054Z" fill="white"/>
<path d="M231.597 331.581H209.01L208.648 324.45L214.913 322.093C217.503 321.126 220.394 321.187 222.924 322.214C225.875 323.423 230.031 325.477 232.862 328.136C233.465 328.68 233.645 329.587 233.344 330.312C233.103 331.097 232.381 331.581 231.597 331.581ZM210.757 329.768H231.597C231.597 329.768 231.658 329.768 231.658 329.707C231.658 329.647 231.718 329.587 231.597 329.466C228.947 326.928 225.032 325.054 222.201 323.906C220.093 323 217.683 323 215.515 323.785L210.516 325.659L210.757 329.768Z" fill="#071824"/>
<path d="M163.895 282.995C172.388 290.367 174.255 309.161 179.736 313.996C184.435 318.165 204.794 323.544 210.094 324.934C210.877 325.115 211.359 325.78 211.359 326.565V331.762H179.134C174.617 331.762 170.34 329.949 167.208 326.746C156.848 316.05 133.296 291.878 128.297 277.254L144.259 276.348C144.199 276.287 154.438 274.837 163.895 282.995Z" fill="#005D95"/>
<path d="M160.341 318.044C160.341 318.044 161.064 322.214 159.137 327.169C156.788 333.333 157.932 340.343 162.389 345.178C164.257 347.232 166.425 349.045 168.654 350.133C168.654 350.133 167.208 356.962 156.727 357.445C152.451 357.626 141.187 358.049 132.815 357.566C121.37 356.901 112.938 354.786 112.938 354.786L113.841 301.728C113.841 301.728 113.239 279.43 128.719 277.133L160.341 318.044Z" fill="#005D95"/>
<path d="M161.124 322.456C160.883 322.456 160.642 322.335 160.461 322.154C156.185 317.501 152.812 312.122 150.523 306.261C150.342 305.777 150.583 305.294 151.065 305.112C151.547 304.931 152.029 305.173 152.209 305.656C154.378 311.337 157.63 316.534 161.787 321.006C162.148 321.368 162.088 321.972 161.726 322.275C161.606 322.395 161.365 322.456 161.124 322.456Z" fill="#B8D9F1"/>
<path d="M154.741 244.924C154.741 244.924 156.728 248.006 156.849 250.604C156.849 251.269 157.15 253.444 158.776 255.801C158.957 256.043 158.897 256.345 158.656 256.526L157.03 257.916C156.909 258.037 156.849 258.158 156.849 258.279C156.849 259.185 156.367 263.718 156.247 264.382C156.126 265.108 155.524 265.712 155.223 265.893C154.44 266.316 151.187 265.833 151.187 265.833C151.187 265.833 150.705 264.685 148.958 269.338C147.031 274.353 150.886 276.287 150.886 276.287C152.331 277.073 152.09 278.523 150.524 279.007C145.103 280.699 134.563 282.451 128.479 277.858C127.334 277.012 127.816 275.985 128.78 275.864C141.851 273.87 136.61 257.312 136.912 257.191C137.695 257.01 142.212 252.357 144.802 251.027C146.609 250.121 148.717 251.45 150.163 250.121L154.741 244.924Z" fill="white"/>
<path d="M139.2 281.665C135.285 281.665 131.189 280.94 127.996 278.523C126.852 277.617 126.912 276.71 127.033 276.287C127.213 275.562 127.876 275.018 128.719 274.897C131.55 274.474 133.658 273.266 134.983 271.392C137.935 267.162 136.67 260.394 136.188 258.158C136.007 257.312 135.887 256.526 136.67 256.285C136.971 256.103 137.995 255.197 138.838 254.532C140.585 252.961 142.814 251.027 144.5 250.181C145.524 249.698 146.609 249.758 147.512 249.819C148.536 249.879 149.138 249.879 149.62 249.456L154.078 244.32C154.258 244.078 154.559 244.017 154.8 244.017C155.102 244.017 155.342 244.199 155.523 244.44C155.583 244.561 157.692 247.764 157.812 250.544C157.812 250.906 157.993 252.961 159.559 255.257C159.98 255.862 159.86 256.708 159.318 257.191L157.872 258.46C157.812 259.729 157.39 263.899 157.27 264.503C157.089 265.531 156.306 266.377 155.824 266.618C154.981 267.102 152.692 266.86 151.307 266.679C151.066 266.981 150.644 267.766 149.982 269.579C148.355 273.81 151.307 275.381 151.487 275.441C152.511 275.985 152.993 276.831 152.933 277.737C152.813 278.704 152.09 279.43 151.006 279.792C149.379 280.276 144.5 281.665 139.2 281.665ZM128.779 276.771C128.779 276.771 128.9 276.891 129.081 277.073C135.827 282.209 147.934 278.825 150.283 278.1C150.765 277.979 150.945 277.737 150.945 277.617C150.945 277.496 150.825 277.254 150.464 277.073C148.897 276.287 146.368 273.568 148.114 268.975C149.44 265.47 150.162 264.805 151.006 264.805C151.247 264.805 151.427 264.866 151.608 264.987C153.054 265.168 154.499 265.228 154.8 265.108C154.921 265.047 155.222 264.624 155.342 264.262C155.463 263.718 155.945 259.185 155.945 258.339C155.945 257.916 156.125 257.554 156.427 257.312L157.812 256.103C156.186 253.565 155.945 251.329 155.945 250.665C155.885 249.335 155.162 247.643 154.559 246.495L150.885 250.665L150.825 250.725C149.741 251.752 148.476 251.632 147.331 251.571C146.548 251.511 145.826 251.45 145.223 251.752C143.778 252.478 141.609 254.411 139.983 255.801C138.959 256.708 138.357 257.252 137.875 257.554C137.875 257.614 137.875 257.675 137.935 257.735C138.417 260.152 139.802 267.464 136.429 272.359C134.803 274.716 132.273 276.106 128.96 276.65C128.84 276.71 128.779 276.771 128.779 276.771Z" fill="#071824"/>
<path d="M148.355 257.735C147.09 257.735 145.403 257.131 144.56 254.955C143.958 253.445 144.198 252.115 145.222 251.329C146.246 250.544 147.752 250.665 148.957 251.571C149.379 251.873 149.86 252.659 149.981 252.84C150.222 253.263 150.101 253.807 149.68 254.109C149.258 254.351 148.716 254.23 148.415 253.807C148.234 253.505 147.933 253.142 147.873 253.021C147.27 252.598 146.668 252.598 146.367 252.84C146.066 253.082 146.005 253.626 146.307 254.351C147.09 256.285 148.595 255.983 148.897 255.862C149.379 255.741 149.86 256.043 149.981 256.526C150.101 257.01 149.86 257.493 149.379 257.614C149.138 257.735 148.776 257.735 148.355 257.735Z" fill="#071824"/>
<path d="M158.234 238.035C157.21 236.282 156.126 234.832 152.813 234.107C150.524 233.623 146.73 235.315 144.862 237.249C144.682 237.43 144.441 237.43 144.32 237.249C143.959 236.766 142.995 235.618 142.152 235.497C139.742 235.195 137.213 238.277 136.309 239.908C135.647 241.056 134.562 243.715 133.96 246.797C133.9 246.978 133.719 247.16 133.538 247.099C132.816 247.039 131.37 246.978 130.045 247.945C127.696 249.637 127.937 252.175 127.937 252.478C128.238 256.043 131.792 258.762 134.562 260.213C136.43 261.18 137.092 261.361 138.237 261.603C138.297 261.603 138.357 261.603 138.417 261.603C139.381 261.784 141.007 261.844 142.875 261.24C145.826 260.273 145.645 255.378 145.645 255.378L145.284 254.472C145.043 253.928 145.043 253.263 145.284 252.719C146.007 251.027 148.537 252.357 148.597 252.296C153.416 251.329 155.102 249.94 155.945 249.033C159.198 245.649 160.644 242.204 158.234 238.035Z" fill="#071824"/>
<path d="M146.308 465.313C145.826 465.313 145.404 464.89 145.404 464.407V418.177C145.404 417.694 145.826 417.271 146.308 417.271C146.79 417.271 147.211 417.694 147.211 418.177V464.407C147.211 464.89 146.79 465.313 146.308 465.313Z" fill="#071824"/>
<path d="M116.191 312.727H122.155C138.117 312.727 151.97 323.967 155.343 339.799L162.33 372.069C163.957 379.623 170.582 385.001 178.172 385.001H190.761C197.326 385.001 202.687 390.379 202.687 397.087C202.687 403.735 197.326 409.173 190.761 409.173H170.281V409.234H134.322C121.733 409.234 110.831 400.35 108.12 387.902L97.0371 336.717C94.5073 324.39 103.723 312.727 116.191 312.727Z" fill="#A3CEED"/>
<path d="M170.401 410.08H134.442C121.491 410.08 110.167 400.834 107.397 388.023L96.3137 336.838C96.1932 336.355 96.4944 335.871 96.9762 335.751C97.4581 335.63 97.94 335.932 98.0605 336.415L109.143 387.6C111.734 399.565 122.335 408.206 134.442 408.206H170.401C170.883 408.206 171.305 408.629 171.305 409.113C171.305 409.717 170.883 410.08 170.401 410.08Z" fill="#071824"/>
<path d="M331.223 16.86C331.163 16.86 331.103 16.86 330.982 16.86C297.312 8.64152 257.799 7.79549 219.731 14.3824C219.249 14.4428 218.767 14.1407 218.707 13.6572C218.647 13.1738 218.948 12.6903 219.43 12.6299C257.738 5.98259 297.553 6.88904 331.464 15.168C331.946 15.2888 332.247 15.7723 332.127 16.2557C332.006 16.6183 331.645 16.86 331.223 16.86Z" fill="#071824"/>
<path d="M426.634 35.2308C425.912 35.2308 425.189 35.11 424.466 34.8078C421.575 33.5992 420.189 30.2756 421.394 27.3749C422.599 24.4743 425.912 23.0844 428.803 24.293C430.188 24.8973 431.272 25.985 431.875 27.3749C432.477 28.7648 432.477 30.336 431.875 31.7259C430.971 33.9014 428.863 35.2308 426.634 35.2308ZM426.695 25.6224C425.189 25.6224 423.743 26.5289 423.141 28.0396C422.297 30.0338 423.261 32.2698 425.249 33.1158C427.237 33.9618 429.465 32.9949 430.309 31.0007C430.73 30.0338 430.73 29.0065 430.309 28.0396C429.887 27.0728 429.164 26.3476 428.2 25.9246C427.658 25.7433 427.176 25.6224 426.695 25.6224Z" fill="#071824"/>
<path d="M330.742 482.173C330.38 482.173 330.079 482.113 329.718 482.052C328.212 481.75 326.947 480.964 326.044 479.695C325.2 478.426 324.839 476.916 325.14 475.405C325.441 473.894 326.224 472.625 327.489 471.719C328.754 470.873 330.26 470.51 331.766 470.812C333.272 471.114 334.536 471.9 335.44 473.169C336.283 474.438 336.645 475.949 336.343 477.459C336.042 478.97 335.259 480.239 333.994 481.146C332.97 481.81 331.886 482.173 330.742 482.173ZM330.742 472.565C328.935 472.565 327.248 473.894 326.947 475.767C326.766 476.795 327.007 477.822 327.549 478.668C328.152 479.514 328.995 480.118 330.019 480.3C332.127 480.662 334.115 479.272 334.536 477.157C334.717 476.13 334.476 475.103 333.934 474.257C333.332 473.411 332.489 472.806 331.465 472.625C331.163 472.625 330.922 472.565 330.742 472.565Z" fill="#071824"/>
<path d="M314.718 491.661C314.417 491.661 314.176 491.54 313.996 491.238L311.767 487.974C311.466 487.551 311.586 487.007 312.008 486.705C312.429 486.403 312.972 486.524 313.273 486.947L315.501 490.21C315.803 490.633 315.682 491.177 315.26 491.479C315.08 491.6 314.899 491.661 314.718 491.661Z" fill="#071824"/>
<path d="M306.949 480.239C306.648 480.239 306.407 480.118 306.226 479.816L303.997 476.553C303.696 476.13 303.817 475.586 304.238 475.284C304.66 474.982 305.202 475.103 305.503 475.526L307.732 478.789C308.033 479.212 307.913 479.756 307.491 480.058C307.31 480.179 307.13 480.239 306.949 480.239Z" fill="#071824"/>
<path d="M313.755 481.508C313.454 481.508 313.213 481.387 313.033 481.146C312.731 480.723 312.852 480.179 313.273 479.877L316.526 477.641C316.948 477.339 317.49 477.459 317.791 477.883C318.092 478.306 317.972 478.849 317.55 479.152L314.297 481.387C314.117 481.448 313.936 481.508 313.755 481.508Z" fill="#071824"/>
<path d="M302.492 489.364C302.191 489.364 301.95 489.243 301.769 489.002C301.468 488.579 301.588 488.035 302.01 487.733L305.262 485.497C305.684 485.195 306.226 485.315 306.527 485.738C306.828 486.161 306.708 486.705 306.286 487.007L303.034 489.243C302.853 489.304 302.672 489.364 302.492 489.364Z" fill="#071824"/>
<path d="M401.997 22.3592C401.876 22.3592 401.756 22.3592 401.635 22.2988L398.021 20.788C397.539 20.6067 397.359 20.0628 397.539 19.5794C397.72 19.096 398.262 18.9147 398.744 19.096L402.358 20.6067C402.84 20.788 403.021 21.3319 402.84 21.8153C402.659 22.1779 402.358 22.3592 401.997 22.3592Z" fill="#071824"/>
<path d="M389.348 17.0413C389.228 17.0413 389.107 17.0413 388.987 16.9809L385.373 15.4701C384.891 15.2888 384.71 14.745 384.891 14.2615C385.072 13.7781 385.614 13.5968 386.096 13.7781L389.71 15.2888C390.192 15.4701 390.372 16.014 390.192 16.4974C390.011 16.86 389.649 17.0413 389.348 17.0413Z" fill="#071824"/>
<path d="M395.732 14.3824C395.612 14.3824 395.491 14.3824 395.371 14.322C394.889 14.1407 394.708 13.5968 394.889 13.1134L396.395 9.48754C396.576 9.00409 397.118 8.8228 397.6 9.00409C398.081 9.18538 398.262 9.72926 398.081 10.2127L396.576 13.8385C396.395 14.2011 396.094 14.3824 395.732 14.3824Z" fill="#071824"/>
<path d="M390.492 27.1332C390.372 27.1332 390.251 27.1332 390.131 27.0727C389.649 26.8914 389.468 26.3476 389.649 25.8641L391.155 22.2383C391.335 21.7549 391.878 21.5736 392.359 21.7549C392.841 21.9362 393.022 22.48 392.841 22.9635L391.335 26.5893C391.155 26.9519 390.853 27.1332 390.492 27.1332Z" fill="#071824"/>
<path d="M415.251 164.068C408.023 158.569 401.035 152.768 391.217 153.493C386.399 153.855 385.495 155.004 380.616 153.07C378.629 152.284 375.858 149.202 373.509 150.23C370.316 151.62 369.413 158.811 370.919 164.672C372.485 170.474 377.665 174.1 380.737 178.994C385.495 186.609 390.193 192.893 396.397 199.48C402.662 206.128 408.806 213.984 409.107 223.169C409.408 231.508 404.951 239.183 403.686 247.401C400.674 267.283 415.913 280.517 433.501 285.05C440.428 286.802 447.957 286.862 454.523 284.022C465.666 279.248 465.124 270.607 469.642 261.24C471.509 257.372 475.063 254.714 477.894 251.571C486.567 242.084 494.096 215.071 475.725 211.264C471.147 210.297 466.028 211.748 461.871 209.572C456.209 206.551 456.812 200.326 454.884 195.19C452.897 189.993 449.102 185.521 444.886 182.016C435.971 174.462 424.466 171.078 415.251 164.068Z" fill="#071824"/>
<path d="M462.172 455.402C464.099 459.33 468.135 468.032 470.243 476.795C471.086 480.36 470.183 482.354 469.34 485.255C468.195 489.425 466.87 491.358 467.412 492.507C468.617 494.984 482.29 494.38 486.868 486.826C488.313 484.409 488.614 480.904 486.205 468.395C483.736 455.523 484.639 453.529 482.772 451.958C476.929 447.063 463.858 454.436 462.172 455.402Z" fill="white"/>
<path d="M472.05 494.743C471.749 494.743 471.508 494.743 471.267 494.743C469.521 494.682 467.352 494.259 466.69 492.93C466.148 491.842 466.629 490.633 467.292 488.76C467.653 487.793 468.135 486.524 468.557 485.013C468.677 484.59 468.798 484.228 468.918 483.805C469.581 481.569 470.123 479.816 469.46 476.976C467.593 469.06 464.039 461.083 461.449 455.765L461.088 454.979L461.811 454.556C464.341 453.106 477.291 446.096 483.495 451.233C484.88 452.381 485.061 453.71 485.483 457.215C485.784 459.512 486.205 462.956 487.229 468.214C489.699 481.146 489.337 484.651 487.771 487.31C484.398 492.869 476.809 494.743 472.05 494.743ZM463.377 455.765C465.967 461.143 469.34 468.878 471.147 476.613C471.93 479.877 471.328 481.992 470.605 484.349C470.484 484.711 470.364 485.134 470.243 485.497C469.822 487.068 469.34 488.337 468.978 489.364C468.497 490.633 468.135 491.721 468.316 492.144C468.436 492.325 469.34 492.869 471.448 492.93C475.544 493.111 483.133 491.479 486.205 486.403C487.53 484.228 487.771 480.783 485.422 468.576C484.398 463.258 483.977 459.814 483.676 457.457C483.254 454.073 483.133 453.348 482.29 452.683C477.411 448.634 466.509 454.073 463.377 455.765Z" fill="#071824"/>
<path d="M470.244 492.084C469.762 492.084 469.401 491.721 469.341 491.238C469.28 490.754 469.642 490.271 470.184 490.271C475.304 489.848 478.978 487.974 481.026 484.832C484.881 478.849 481.929 469.906 481.869 469.845C481.688 469.362 481.929 468.878 482.411 468.697C482.893 468.516 483.375 468.758 483.556 469.241C483.676 469.664 486.869 479.091 482.471 485.799C480.122 489.425 476.026 491.54 470.304 492.084C470.304 492.084 470.304 492.084 470.244 492.084Z" fill="#005D95"/>
<path d="M400.01 471.658C400.01 471.658 399.288 477.218 401.637 489.908C401.998 491.721 400.01 493.232 398.203 493.413C390.674 494.078 372.965 495.286 358.208 494.803C356.823 494.743 355.859 493.715 355.558 492.809C352.847 484.832 374.592 482.294 375.435 476.855C377.001 467.186 400.01 471.658 400.01 471.658Z" fill="white"/>
<path d="M365.317 495.83C362.907 495.83 360.498 495.77 358.149 495.709C356.402 495.649 355.077 494.38 354.655 493.111C352.788 487.733 359.835 484.711 366.1 482.052C369.894 480.421 374.231 478.547 374.532 476.734C374.833 474.921 375.797 473.411 377.424 472.263C383.989 467.67 399.529 470.631 400.192 470.752L401.035 470.933L400.915 471.779C400.915 471.9 400.252 477.399 402.541 489.787C402.722 490.694 402.481 491.6 401.878 492.446C401.095 493.534 399.71 494.259 398.325 494.38C396.277 494.501 380.676 495.83 365.317 495.83ZM388.988 471.537C385.013 471.537 380.917 472.021 378.447 473.773C377.243 474.619 376.52 475.707 376.339 477.037C375.857 479.816 371.701 481.629 366.822 483.744C361.04 486.222 355.077 488.76 356.402 492.567C356.583 493.051 357.245 493.897 358.269 493.957C375.496 494.501 395.855 492.748 398.144 492.567C399.047 492.507 399.951 492.023 400.433 491.358C400.734 490.935 400.854 490.573 400.794 490.15C398.927 480.058 398.987 474.498 399.108 472.444C397.361 472.142 393.265 471.537 388.988 471.537Z" fill="#071824"/>
<path d="M367.967 492.507C365.197 492.507 362.486 492.446 359.896 492.265C359.414 492.205 359.053 491.782 359.053 491.298C359.113 490.815 359.535 490.452 360.016 490.452C375.798 491.6 395.193 488.76 397 487.612C397.422 487.37 397.964 487.491 398.265 487.914C398.506 488.337 398.385 488.881 397.964 489.183C395.856 490.452 381.58 492.507 367.967 492.507Z" fill="#005D95"/>
<path d="M364.052 272.964C364.052 272.964 365.919 406.333 359.595 466.522C358.571 476.311 366.522 484.711 376.34 484.167C379.412 483.986 382.966 483.321 387.061 481.931C396.277 478.789 403.565 478.245 408.746 478.547C413.805 478.849 418.082 474.74 418.022 469.664C417.961 443.8 417.299 378.414 412.601 350.979C412.601 350.979 432.478 408.75 448.741 459.693C450.668 465.736 456.39 469.664 462.715 469.362C469.883 468.999 479.821 467.126 490.663 460.962C498.072 456.792 501.566 447.97 499.156 439.811C490.362 409.536 463.378 331.218 405.372 265.531L364.052 272.964Z" fill="#071824"/>
<path d="M416.275 365.059C415.913 365.059 415.552 364.818 415.431 364.394C413.082 356.478 406.999 340.525 402.12 328.197C399.469 321.61 393.807 316.655 386.881 315.023C386.399 314.902 386.098 314.419 386.218 313.935C386.338 313.452 386.82 313.15 387.302 313.27C394.771 315.023 400.915 320.341 403.806 327.532C408.685 339.86 414.769 355.934 417.178 363.851C417.299 364.334 417.058 364.818 416.576 364.999C416.455 365.059 416.335 365.059 416.275 365.059Z" fill="#B8D9F1"/>
<path d="M273.34 186.79C272.678 185.883 272.979 184.554 274.003 184.01C274.726 183.648 275.629 183.829 276.232 184.373L285.749 193.619L286.773 193.437C288.76 193.075 290.688 194.465 290.929 196.459C290.929 196.459 290.808 202.381 292.555 204.677C301.71 216.582 322.672 237.491 325.864 237.491C329.358 237.491 335.14 234.228 335.14 234.228L361.282 239.304C361.282 239.304 347.85 260.636 324.961 255.56C305.686 251.269 288.218 219.604 283.159 209.753C282.556 208.545 281.592 207.638 280.388 207.034C279.906 206.792 279.424 206.49 279.002 206.067L275.087 202.502C273.581 201.172 273.099 198.997 273.883 197.124L274.846 194.767C275.81 192.47 275.449 189.811 274.063 187.757L273.34 186.79Z" fill="white"/>
<path d="M331.947 257.252C329.658 257.252 327.309 257.01 324.779 256.466C305.083 252.055 287.314 219.966 282.374 210.176C281.893 209.21 281.049 208.364 280.025 207.82C279.483 207.518 278.941 207.155 278.459 206.732L274.544 203.167C272.797 201.595 272.195 198.997 273.098 196.821L274.062 194.465C274.906 192.41 274.604 190.114 273.339 188.361L272.617 187.334C272.135 186.669 272.014 185.823 272.195 185.037C272.376 184.252 272.918 183.587 273.641 183.164C274.725 182.62 276.05 182.802 276.953 183.708L286.109 192.652L286.651 192.531C287.856 192.289 289.06 192.591 290.084 193.316C291.108 194.042 291.711 195.129 291.891 196.338C291.891 196.398 291.891 196.459 291.891 196.459C291.831 198.03 292.072 202.441 293.337 204.133C302.974 216.643 323.213 236.403 325.984 236.585C329.176 236.585 334.718 233.503 334.778 233.442C334.959 233.321 335.199 233.321 335.38 233.321L361.522 238.397C361.823 238.458 362.064 238.639 362.184 238.941C362.305 239.243 362.305 239.546 362.124 239.787C362.003 239.969 350.86 257.252 331.947 257.252ZM274.845 184.675C274.725 184.675 274.544 184.735 274.424 184.796C274.183 184.917 274.002 185.158 273.882 185.46C273.821 185.763 273.882 186.065 274.062 186.307L274.785 187.334C276.411 189.63 276.773 192.591 275.689 195.19L274.725 197.547C274.122 199.057 274.544 200.81 275.689 201.898L279.604 205.463C279.965 205.765 280.387 206.067 280.808 206.309C282.194 207.034 283.278 208.122 283.941 209.451C288.819 218.999 306.227 250.544 325.14 254.774C327.49 255.318 329.718 255.56 331.887 255.56C347.065 255.56 357.004 243.776 359.715 240.089L335.26 235.315C333.995 235.98 329.116 238.518 325.863 238.518C321.888 238.518 300.445 216.582 291.831 205.342C289.964 202.925 289.964 197.547 289.964 196.64C289.843 195.915 289.482 195.311 288.88 194.888C288.277 194.465 287.555 194.283 286.832 194.465L285.808 194.646C285.507 194.706 285.205 194.585 285.025 194.404L275.508 185.158C275.448 184.796 275.146 184.675 274.845 184.675Z" fill="#071824"/>
<path d="M352.246 210.781C356.763 204.496 364.112 200.81 371.821 200.931L416.214 201.535C420.129 201.595 423.321 204.798 423.321 208.726L423.622 235.195L428.02 276.891C407.962 261.905 387.121 274.716 375.436 278.644C363.75 282.572 360.196 277.254 360.196 277.254L361.341 242.204C361.341 242.204 357.426 251.088 346.825 257.735C345.439 258.581 343.632 258.037 342.97 256.526C339.837 249.577 333.814 244.803 333.392 234.711C333.272 232.475 334.296 230.36 335.982 228.91C342.247 223.834 348.089 216.643 352.246 210.781Z" fill="#E5A678"/>
<path d="M379.772 293.449L444.282 329.285C447.414 331.037 451.269 329.889 453.016 326.746L474.459 287.95C476.206 284.808 475.062 280.94 471.93 279.188L407.419 243.353C404.287 241.6 400.432 242.748 398.685 245.891L377.242 284.687C375.556 287.829 376.7 291.757 379.772 293.449Z" fill="#B8D9F1"/>
<path d="M380.436 298.888L439.043 331.46C442.176 333.212 446.031 332.064 447.777 328.922L469.221 290.065C470.967 286.923 469.823 283.055 466.691 281.303L408.083 248.731C404.951 246.979 401.096 248.127 399.349 251.269L377.906 290.065C376.22 293.208 377.364 297.136 380.436 298.888Z" fill="white"/>
<path d="M373.749 301.064L441.09 338.47C444.223 340.222 448.078 339.074 449.824 335.932L471.268 297.136C473.014 293.993 471.87 290.126 468.738 288.373L401.396 250.967C398.264 249.214 394.409 250.363 392.663 253.505L371.219 292.301C369.533 295.444 370.617 299.372 373.749 301.064Z" fill="#A3CEED"/>
<path d="M411.093 304.75L421.393 299.251C421.393 299.251 411.876 300.58 412.96 297.317C413.502 295.625 414.345 295.746 416.514 295.685C418.08 295.685 420.79 295.504 423.2 295.383C426.995 295.141 430.548 293.268 432.837 290.186C439.463 281.303 442.655 268.915 441.39 263.718C440.427 259.971 436.752 254.834 434.102 250.725C440.969 245.286 444.221 245.347 451.209 240.573C458.075 251.994 458.858 263.355 458.256 267.223C455.666 283.418 439.282 297.075 434.162 301.003C433.199 301.728 432.235 302.574 431.392 303.42C427.898 306.865 421.152 312.545 416.393 311.337C409.587 309.584 411.093 304.75 411.093 304.75Z" fill="white"/>
<path d="M417.659 312.364C417.117 312.364 416.575 312.304 416.093 312.183C413.503 311.518 411.696 310.37 410.792 308.678C409.648 306.623 410.25 304.569 410.25 304.508C410.31 304.266 410.491 304.085 410.672 303.964L417.237 300.459C415.25 300.459 413.262 300.157 412.419 299.13C411.937 298.586 411.816 297.861 412.057 297.075C412.78 294.9 414.165 294.839 416.093 294.839H416.454C417.779 294.839 420.008 294.718 423.14 294.537C426.694 294.295 429.947 292.543 432.115 289.703C438.5 281.182 441.813 269.096 440.488 264.02C439.705 260.998 437.054 256.949 434.645 253.384C434.163 252.659 433.741 251.994 433.32 251.329C433.079 250.967 433.139 250.423 433.5 250.121C437.355 247.039 440.066 245.709 442.957 244.32C445.246 243.232 447.595 242.023 450.667 239.908C450.848 239.787 451.149 239.727 451.39 239.787C451.631 239.848 451.872 239.969 451.992 240.21C458.618 251.269 459.883 262.751 459.16 267.464C456.51 284.022 439.825 297.921 434.765 301.789C433.802 302.514 432.898 303.299 432.055 304.146C427.899 307.953 422.297 312.364 417.659 312.364ZM411.877 305.354C411.816 305.838 411.756 306.804 412.358 307.771C413.081 308.98 414.467 309.886 416.515 310.37C419.647 311.155 424.827 308.376 430.669 302.695C431.573 301.849 432.537 301.003 433.561 300.218C438.5 296.471 454.763 282.934 457.293 267.041C457.775 264.141 457.534 253.445 450.848 241.842C448.077 243.715 445.848 244.803 443.74 245.83C441.15 247.099 438.62 248.368 435.247 250.906C435.548 251.329 435.85 251.813 436.151 252.236C438.62 255.922 441.391 260.152 442.234 263.416C443.62 268.915 440.186 281.726 433.561 290.609C431.151 293.872 427.357 295.927 423.261 296.169C420.129 296.35 417.84 296.471 416.515 296.471H416.153C414.226 296.471 414.105 296.531 413.804 297.438C413.744 297.679 413.804 297.74 413.804 297.74C414.467 298.526 418.201 298.586 421.273 298.163C421.695 298.102 422.116 298.344 422.237 298.767C422.357 299.19 422.176 299.613 421.815 299.855L411.877 305.354Z" fill="#071824"/>
<path d="M416.695 201.716C423.622 201.837 430.188 205.04 434.585 210.418C440.066 217.126 447.716 227.036 454.161 237.491C454.823 238.639 454.944 240.029 454.342 241.177C449.884 249.577 441.632 248.429 435.308 252.175C434.344 252.719 433.139 252.478 432.477 251.571C426.935 243.715 420.55 238.458 420.55 238.458L414.467 201.656L416.695 201.716Z" fill="#E5A678"/>
<path d="M384.53 161.832C383.325 162.86 382.602 163.162 381.579 164.129C379.531 166.123 377.784 171.924 374.35 173.072C373.989 174.946 375.495 175.187 376.097 176.275C375.676 177.182 374.953 181.532 374.23 184.191C373.989 185.098 374.471 186.125 375.314 186.488C376.82 187.092 378.507 187.515 380.434 187.636C380.434 187.636 390.132 198.755 380.253 206.369C380.253 206.369 389.529 214.044 400.01 202.864C401.877 200.931 393.384 183.648 393.384 183.648C393.685 183.527 397.48 182.076 397.842 178.934C397.962 177.786 397.721 175.912 396.697 175.55C395.673 175.187 393.987 176.215 392.902 178.39C392.661 177.846 392.481 177.182 392.24 176.456C391.939 175.429 391.758 174.22 392.059 173.616C382.663 171.018 391.156 161.772 384.53 161.832Z" fill="white"/>
<path d="M388.085 209.814C383.146 209.814 379.772 207.095 379.712 207.095C379.471 206.913 379.351 206.671 379.411 206.369C379.411 206.067 379.532 205.825 379.772 205.644C382.182 203.771 383.567 201.535 383.808 198.936C384.29 194.223 380.917 189.63 380.013 188.482C378.206 188.301 376.58 187.938 375.014 187.273C373.689 186.73 372.966 185.279 373.388 183.889C373.749 182.681 374.05 180.989 374.351 179.599C374.653 178.088 374.894 177.061 375.074 176.396C374.954 176.275 374.833 176.154 374.713 176.033C374.11 175.489 373.147 174.643 373.508 172.891C373.568 172.589 373.809 172.287 374.11 172.226C375.978 171.562 377.363 169.084 378.628 166.908C379.411 165.518 380.134 164.249 380.977 163.403C381.579 162.799 382.122 162.437 382.664 162.074C383.085 161.772 383.447 161.53 383.989 161.107C384.17 160.986 384.35 160.926 384.531 160.926C385.856 160.926 386.76 161.228 387.422 161.893C388.386 162.92 388.326 164.431 388.205 166.062C388.024 168.842 387.904 171.501 392.361 172.71C392.602 172.77 392.843 172.951 392.964 173.193C393.084 173.435 393.084 173.737 392.964 173.979C392.964 173.979 392.723 174.462 393.205 176.215C393.205 176.275 393.205 176.335 393.265 176.335C394.469 174.946 395.915 174.281 397.12 174.704C398.686 175.308 399.047 177.665 398.867 179.055C398.505 181.774 396.096 183.406 394.71 184.131C395.433 185.642 396.939 188.845 398.324 192.229C401.878 200.689 401.577 202.683 400.794 203.529C396.096 208.424 391.699 209.814 388.085 209.814ZM381.76 206.309C384.23 207.82 391.337 210.781 399.348 202.26C400.011 200.931 396.337 191.745 392.542 184.071C392.422 183.829 392.422 183.587 392.542 183.345C392.662 183.104 392.843 182.922 393.084 182.802C393.205 182.741 396.638 181.472 396.999 178.813C397.12 177.725 396.819 176.517 396.457 176.396C396.036 176.215 394.71 176.879 393.807 178.753C393.626 179.055 393.325 179.236 392.964 179.236C392.602 179.236 392.301 178.994 392.181 178.692C391.879 178.088 391.639 177.302 391.458 176.638C391.157 175.61 391.036 174.825 391.096 174.16C386.037 172.408 386.278 168.54 386.398 165.881C386.458 164.672 386.519 163.524 386.097 163.101C385.856 162.86 385.434 162.739 384.832 162.739C384.41 163.101 383.989 163.343 383.688 163.585C383.206 163.947 382.724 164.249 382.242 164.733C381.579 165.337 380.917 166.546 380.194 167.815C378.869 170.051 377.423 172.649 375.255 173.677C375.255 174.1 375.496 174.281 375.918 174.643C376.279 174.946 376.64 175.248 376.881 175.792C377.002 176.033 377.002 176.336 376.881 176.577C376.701 177 376.399 178.571 376.098 179.961C375.797 181.412 375.436 183.104 375.074 184.373C374.954 184.856 375.195 185.4 375.677 185.581C377.122 186.186 378.749 186.548 380.495 186.669C380.736 186.669 380.977 186.79 381.098 186.971C381.278 187.213 386.157 192.833 385.555 199.057C385.314 201.837 384.049 204.254 381.76 206.309Z" fill="#071824"/>
<path d="M388.266 186.488C388.266 186.488 385.013 188.482 380.797 187.696L388.266 186.488Z" fill="white"/>
<path d="M382.844 188.784C382.121 188.784 381.398 188.724 380.615 188.542C380.133 188.422 379.832 187.999 379.892 187.455C380.013 186.971 380.434 186.669 380.977 186.73C384.832 187.455 387.783 185.702 387.843 185.642C388.265 185.4 388.807 185.521 389.108 185.944C389.349 186.367 389.229 186.911 388.807 187.213C388.626 187.334 386.217 188.784 382.844 188.784Z" fill="#071824"/>
</g>
<defs>
<clipPath id="clip0_262_82">
<rect width="500" height="500" fill="white"/>
</clipPath>
</defs>
</svg>
