<svg width="500" height="500" viewBox="0 0 500 500" fill="none" xmlns="http://www.w3.org/2000/svg">
<g clip-path="url(#clip0_191_52)">
<path d="M108.22 22.4428C209.741 -33.2732 345.726 24.6089 416.525 88.7485C436.805 107.1 485.876 152.828 497.465 226.113C511.83 317.148 464.751 427.497 356.651 474.729C239.015 526.113 107.496 477.377 45.9316 398.375C-11.6493 324.428 -0.121062 237.425 3.98323 206.318C8.81182 169.856 23.1769 69.1336 108.22 22.4428Z" fill="#78B7E5"/>
<path d="M2.83673 94.2239L10.2003 95.4874C11.4075 95.6679 12.3732 96.5704 12.675 97.7136C12.9768 98.917 13.3993 100.12 13.8218 101.264C14.2443 102.407 13.9425 103.61 13.0975 104.452L7.84639 109.687C6.82032 110.71 6.63924 112.335 7.42389 113.538L10.6228 118.532C11.4075 119.735 12.9768 120.277 14.3046 119.795L21.3664 117.268C22.5132 116.847 23.7807 117.148 24.6257 117.99C25.5311 118.833 26.4364 119.675 27.4022 120.457C28.3075 121.239 28.73 122.443 28.4282 123.586L26.4968 130.746C26.1347 132.13 26.7986 133.634 28.0661 134.296L33.3775 137.004C34.7054 137.665 36.2747 137.365 37.2404 136.221L42.069 130.566C42.8536 129.663 44.0608 129.242 45.2679 129.543C46.4751 129.844 47.6822 130.084 48.9497 130.325C50.1569 130.505 51.1226 131.408 51.4244 132.551L53.3558 139.651C53.718 141.035 55.0458 141.998 56.4944 141.937L62.4698 141.637C63.9183 141.576 65.1858 140.493 65.4273 139.049L66.7551 131.769C66.9966 130.566 67.8416 129.603 68.9884 129.302C70.1955 128.941 71.4026 128.58 72.6098 128.159C73.7566 127.738 75.0241 128.039 75.8691 128.881L81.1805 134.055C82.2066 135.078 83.8363 135.259 85.1038 134.477L90.1738 131.288C91.4413 130.505 91.9241 129.001 91.4413 127.617L88.9063 120.698C88.4838 119.555 88.7856 118.291 89.6306 117.449C90.5359 116.546 91.3809 115.644 92.1656 114.681C92.9502 113.779 94.1574 113.418 95.3645 113.718L102.607 115.584C104.056 115.945 105.505 115.283 106.168 114.019L108.945 108.785C109.609 107.521 109.307 105.897 108.16 104.994L102.487 100.241C101.581 99.4585 101.159 98.2551 101.461 97.1119C101.762 95.9086 102.064 94.7052 102.245 93.5018C102.487 92.2985 103.332 91.3358 104.539 91.0349L111.721 89.0494C113.11 88.6883 114.075 87.3646 114.015 85.9206L113.773 80.0241C113.713 78.58 112.627 77.3767 111.178 77.136L103.815 75.8725C102.607 75.692 101.642 74.7894 101.34 73.6462C101.038 72.4429 100.616 71.2395 100.193 70.0963C99.7706 68.9531 100.072 67.7497 100.917 66.9074L106.168 61.6727C107.195 60.6498 107.376 59.0253 106.591 57.8219L103.392 52.8279C102.607 51.6246 101.038 51.083 99.7102 51.5644L92.7088 54.0915C91.562 54.5126 90.2945 54.272 89.4495 53.4296C88.5441 52.5271 87.6388 51.6847 86.673 50.9025C85.7677 50.1203 85.4055 48.917 85.7073 47.7738L87.6388 40.6137C88.0009 39.2299 87.337 37.7256 86.0695 37.0638L80.758 34.3562C79.4302 33.6944 77.8609 33.9952 76.8952 35.1384L72.0666 40.7942C71.2819 41.6968 70.0748 42.1179 68.8676 41.8171C67.6605 41.5163 66.4533 41.2756 65.1858 41.0349C63.9787 40.8544 63.013 39.9519 62.7112 38.8087L60.7798 31.7088C60.4176 30.3249 59.0898 29.3622 57.6412 29.4224L51.6658 29.7232C50.2172 29.7834 48.9497 30.8664 48.7083 32.3105L47.3804 39.5909C47.139 40.7942 46.294 41.7569 45.1472 42.0578C43.9401 42.4188 42.7329 42.7798 41.5258 43.201C40.379 43.6222 39.1115 43.3213 38.2665 42.479L32.955 37.3045C31.929 36.2816 30.2993 36.1011 29.0318 36.8833L23.9618 40.0722C22.6943 40.8544 22.2114 42.3586 22.6943 43.7425L25.2293 50.6619C25.6518 51.8051 25.35 53.0686 24.505 53.911C23.5996 54.8135 22.7547 55.716 21.97 56.6787C21.125 57.4007 19.8575 57.7617 18.7107 57.4609L11.4678 55.5957C10.0193 55.2347 8.57068 55.8965 7.90675 57.1601L5.13031 62.3947C4.46638 63.6583 4.76817 65.2828 5.91496 66.1853L11.5885 70.9386C12.4939 71.7208 12.9164 72.9242 12.6146 74.0674C12.3128 75.2708 12.011 76.4742 11.83 77.6775C11.5885 78.8809 10.7435 79.7834 9.5364 80.1444L2.35387 82.13C0.965655 82.491 -6.17504e-05 83.8147 0.0602956 85.2587L0.301725 91.1553C0.301725 92.7196 1.38816 93.923 2.83673 94.2239ZM50.7604 65.8243C61.8058 62.3947 73.5755 68.4116 77.0159 79.3622C80.4562 90.3129 74.2394 101.925 63.194 105.415C52.1487 108.905 40.379 102.828 36.9386 91.8773C33.4983 80.9266 39.7151 69.2539 50.7604 65.8243Z" fill="#CDE5F5"/>
<path d="M454.671 409.627L38.6889 381.408L37.4214 98.4958C37.361 91.6968 43.095 86.2214 49.9153 86.5824L455.396 108.243C459.56 108.484 462.82 111.913 462.82 116.065L463.423 401.324C463.484 406.137 459.44 409.928 454.671 409.627Z" fill="#CDE5F5"/>
<path d="M449.542 402.587C449.542 408.363 444.713 412.876 438.919 412.515L41.345 385.319C36.1543 384.958 32.1104 380.626 32.1104 375.451V104.814C32.1104 99.1577 36.8786 94.645 42.6125 94.9459L442.6 116.907C445.92 117.088 448.455 119.795 448.455 123.105L449.542 402.587Z" fill="white"/>
<path d="M403.79 382.25L384.174 381.408C382.424 381.348 381.036 379.543 381.036 377.316L380.854 178.219C380.854 175.933 382.363 174.067 384.174 174.067L404.032 174.609C405.782 174.669 407.231 176.474 407.231 178.7V378.099C407.11 380.445 405.601 382.311 403.79 382.25Z" fill="#A3CEED"/>
<path d="M366.368 379.844L346.752 379.242C345.002 379.182 343.614 377.858 343.614 376.173L343.433 215.644C343.433 213.899 344.942 212.515 346.752 212.575L366.61 212.936C368.36 212.996 369.809 214.32 369.809 216.005V376.775C369.688 378.52 368.179 379.904 366.368 379.844Z" fill="#A3CEED"/>
<path d="M329.611 376.895L309.995 376.414C308.245 376.354 306.857 375.331 306.857 374.067L306.615 240.072C306.615 238.749 308.124 237.726 309.935 237.726L329.792 238.026C331.543 238.026 332.991 239.11 332.991 240.373V374.609C332.991 375.872 331.482 376.895 329.611 376.895Z" fill="#A3CEED"/>
<path d="M292.612 375.09L272.995 374.549C271.245 374.489 269.857 373.345 269.857 371.901L269.676 226.113C269.676 224.609 271.185 223.406 272.995 223.466L292.853 223.767C294.603 223.767 296.052 224.97 296.052 226.414V372.443C295.992 373.947 294.483 375.15 292.612 375.09Z" fill="#A3CEED"/>
<path d="M255.975 373.285L236.359 372.864C234.608 372.804 233.22 371.962 233.22 370.939L232.979 250.903C232.979 249.82 234.487 248.917 236.298 248.917L256.156 249.158C257.906 249.158 259.355 250.06 259.355 251.083V371.239C259.355 372.443 257.846 373.285 255.975 373.285Z" fill="#A3CEED"/>
<path d="M220.364 370.277L200.748 370.096C198.998 370.096 197.61 369.615 197.61 369.073L197.429 307.1C197.429 306.558 198.938 306.077 200.748 306.077L220.606 306.197C222.356 306.197 223.805 306.679 223.805 307.22V369.254C223.744 369.795 222.236 370.277 220.364 370.277Z" fill="#A3CEED"/>
<path d="M185.357 367.268L165.741 367.148C163.99 367.148 162.602 366.847 162.602 366.546L162.421 330.144C162.421 329.783 163.93 329.543 165.741 329.543L185.598 329.603C187.348 329.603 188.797 329.844 188.797 330.205V366.667C188.737 366.968 187.228 367.268 185.357 367.268Z" fill="#A3CEED"/>
<path d="M150.953 364.26L131.337 364.14C129.587 364.14 128.199 363.839 128.199 363.538L128.018 327.136C128.018 326.775 129.527 326.534 131.337 326.534L151.195 326.594C152.945 326.594 154.394 326.835 154.394 327.196V363.658C154.333 363.959 152.824 364.26 150.953 364.26Z" fill="#A3CEED"/>
<path d="M251.75 382.25C251.69 382.25 251.69 382.25 251.75 382.25L54.0801 369.735C52.3297 369.615 50.9415 368.171 50.9415 366.426L49.7344 247.413C49.7344 246.931 50.1569 246.51 50.6397 246.51C51.1226 246.51 51.5451 246.931 51.5451 247.413L52.7522 366.426C52.7522 367.208 53.4162 367.93 54.2008 367.99L251.811 380.445C252.293 380.505 252.716 380.927 252.656 381.408C252.595 381.889 252.233 382.25 251.75 382.25Z" fill="#071824"/>
<path d="M426.364 265.764C425.881 265.764 425.459 265.343 425.459 264.862V147.232C425.459 144.344 423.226 141.998 420.328 141.817L195.256 129.844C194.773 129.844 194.351 129.362 194.411 128.881C194.411 128.4 194.894 128.039 195.377 128.039L420.449 140.012C424.312 140.193 427.33 143.381 427.33 147.232V264.862C427.27 265.403 426.847 265.764 426.364 265.764Z" fill="#071824"/>
<path d="M163.447 128.159L150.289 127.437C149.806 127.437 149.384 126.955 149.444 126.474C149.444 125.993 149.927 125.632 150.41 125.632L163.507 126.354C163.99 126.354 164.413 126.835 164.352 127.316C164.352 127.798 163.93 128.159 163.447 128.159Z" fill="#071824"/>
<path d="M50.6397 232.31C50.1569 232.31 49.7344 231.889 49.7344 231.408L50.0965 127.256C50.0965 127.196 50.0965 127.196 50.0965 127.136C50.519 123.345 53.8387 120.517 57.7015 120.698L67.7812 121.239L98.4427 122.864C98.9256 122.864 99.3481 123.345 99.2877 123.827C99.2877 124.308 98.8049 124.669 98.322 124.669L57.6412 122.503C54.8044 122.323 52.2694 124.428 51.9676 127.256L51.6055 231.348C51.5451 231.889 51.1226 232.31 50.6397 232.31Z" fill="#071824"/>
<path d="M435.417 277.798H389.425V424.549H435.417V277.798Z" fill="white"/>
<path d="M435.417 425.451H389.425C388.942 425.451 388.52 425.03 388.52 424.549V277.798C388.52 277.317 388.942 276.895 389.425 276.895H435.417C435.9 276.895 436.323 277.317 436.323 277.798V424.549C436.323 425.03 435.96 425.451 435.417 425.451ZM390.33 423.646H434.512V278.7H390.33V423.646Z" fill="#005D95"/>
<path d="M389.485 424.549H368.964V290.975L389.485 277.798V424.549Z" fill="#CDE5F5"/>
<path d="M389.485 425.451H368.964C368.481 425.451 368.059 425.03 368.059 424.549V290.975C368.059 290.674 368.24 290.373 368.481 290.193L389.003 277.016C389.304 276.835 389.606 276.835 389.908 276.955C390.21 277.136 390.391 277.437 390.391 277.738V424.489C390.391 425.03 389.968 425.451 389.485 425.451ZM369.869 423.646H388.58V279.483L369.869 291.516V423.646Z" fill="#005D95"/>
<path d="M402.885 288.026H394.918V412.876H402.885V288.026Z" fill="#CDE5F5"/>
<path d="M416.405 288.026H408.438V412.876H416.405V288.026Z" fill="#CDE5F5"/>
<path d="M429.925 288.026H421.958V412.876H429.925V288.026Z" fill="#CDE5F5"/>
<path d="M369.809 234.537H341.079V342.118H369.809V234.537Z" fill="white"/>
<path d="M369.809 343.02H341.079C340.596 343.02 340.174 342.599 340.174 342.118V234.537C340.174 234.055 340.596 233.634 341.079 233.634H369.809C370.292 233.634 370.715 234.055 370.715 234.537V342.118C370.715 342.599 370.292 343.02 369.809 343.02ZM341.985 341.215H368.904V235.439H341.985V341.215Z" fill="#005D95"/>
<path d="M364.317 240.012H347.115V247.353H364.317V240.012Z" fill="#CDE5F5"/>
<path d="M341.079 342.118H328.283V242.78L341.079 234.537V342.118Z" fill="#CDE5F5"/>
<path d="M341.079 343.02H328.283C327.8 343.02 327.378 342.599 327.378 342.118V242.78C327.378 242.479 327.559 242.178 327.8 241.998L340.596 233.755C340.898 233.574 341.2 233.574 341.502 233.694C341.803 233.875 341.984 234.176 341.984 234.477V342.058C341.984 342.599 341.562 343.02 341.079 343.02ZM329.189 341.215H340.174V236.221L329.189 243.321V341.215Z" fill="#005D95"/>
<path d="M382.242 252.467H336.25V424.549H382.242V252.467Z" fill="white"/>
<path d="M382.242 425.451H336.25C335.767 425.451 335.345 425.03 335.345 424.549V252.467C335.345 251.986 335.767 251.564 336.25 251.564H382.242C382.725 251.564 383.148 251.986 383.148 252.467V424.549C383.148 425.03 382.786 425.451 382.242 425.451ZM337.155 423.646H381.337V253.369H337.155V423.646Z" fill="#005D95"/>
<path d="M336.311 424.549H315.789V265.644L336.311 252.467V424.549Z" fill="#CDE5F5"/>
<path d="M336.311 425.451H315.789C315.306 425.451 314.884 425.03 314.884 424.549V265.644C314.884 265.343 315.065 265.042 315.306 264.862L335.828 251.685C336.13 251.504 336.431 251.504 336.733 251.625C337.035 251.805 337.216 252.106 337.216 252.407V424.489C337.216 425.03 336.793 425.451 336.311 425.451ZM316.695 423.646H335.405V254.152L316.695 266.185V423.646Z" fill="#005D95"/>
<path d="M375.181 261.131H342.347V268.652H375.181V261.131Z" fill="#CDE5F5"/>
<path d="M375.181 276.715H342.347V284.236H375.181V276.715Z" fill="#CDE5F5"/>
<path d="M375.181 292.238H342.347V299.759H375.181V292.238Z" fill="#CDE5F5"/>
<path d="M375.181 307.822H342.347V315.343H375.181V307.822Z" fill="#CDE5F5"/>
<path d="M375.181 323.345H342.347V330.866H375.181V323.345Z" fill="#CDE5F5"/>
<path d="M375.181 338.929H342.347V346.45H375.181V338.929Z" fill="#CDE5F5"/>
<path d="M375.181 354.513H342.347V362.034H375.181V354.513Z" fill="#CDE5F5"/>
<path d="M375.181 370.036H342.347V377.557H375.181V370.036Z" fill="#CDE5F5"/>
<path d="M375.181 385.62H342.347V393.141H375.181V385.62Z" fill="#CDE5F5"/>
<path d="M375.181 401.143H342.347V408.664H375.181V401.143Z" fill="#CDE5F5"/>
<path d="M326.412 301.865H280.42V424.549H326.412V301.865Z" fill="white"/>
<path d="M326.412 425.451H280.42C279.937 425.451 279.515 425.03 279.515 424.549V301.865C279.515 301.384 279.937 300.963 280.42 300.963H326.412C326.895 300.963 327.318 301.384 327.318 301.865V424.549C327.318 425.03 326.895 425.451 326.412 425.451ZM281.325 423.646H325.507V302.768H281.325V423.646Z" fill="#005D95"/>
<path d="M280.42 424.549H259.959V315.042L280.42 301.865V424.549Z" fill="#CDE5F5"/>
<path d="M280.42 425.451H259.899C259.416 425.451 258.993 425.03 258.993 424.549V315.042C258.993 314.741 259.174 314.44 259.416 314.26L279.937 301.083C280.239 300.902 280.541 300.902 280.843 301.023C281.144 301.203 281.325 301.504 281.325 301.805V424.489C281.325 425.03 280.963 425.451 280.42 425.451ZM260.864 423.646H279.575V303.49L260.864 315.523V423.646Z" fill="#005D95"/>
<path d="M293.879 312.034H285.912V327.918H293.879V312.034Z" fill="#A3CEED"/>
<path d="M307.4 312.034H299.433V327.918H307.4V312.034Z" fill="#CDE5F5"/>
<path d="M320.919 312.034H312.952V327.918H320.919V312.034Z" fill="#A3CEED"/>
<path d="M293.879 338.267H285.912V354.152H293.879V338.267Z" fill="#A3CEED"/>
<path d="M307.4 338.267H299.433V354.152H307.4V338.267Z" fill="#CDE5F5"/>
<path d="M320.919 338.267H312.952V354.152H320.919V338.267Z" fill="#A3CEED"/>
<path d="M293.879 364.44H285.912V380.325H293.879V364.44Z" fill="#A3CEED"/>
<path d="M307.4 364.44H299.433V380.325H307.4V364.44Z" fill="#CDE5F5"/>
<path d="M320.919 364.44H312.952V380.325H320.919V364.44Z" fill="#A3CEED"/>
<path d="M293.879 390.674H285.912V406.558H293.879V390.674Z" fill="#A3CEED"/>
<path d="M307.4 390.674H299.433V406.558H307.4V390.674Z" fill="#CDE5F5"/>
<path d="M320.919 390.674H312.952V406.558H320.919V390.674Z" fill="#A3CEED"/>
<path d="M466.863 463.779V476.233C466.863 480.024 462.457 483.815 453.645 486.703C436.021 492.539 407.23 492.78 388.821 487.304C388.52 487.244 388.218 487.124 387.916 487.004C378.561 484.055 373.913 480.205 373.913 476.294V463.839C373.913 467.75 378.621 471.601 387.916 474.549C388.218 474.669 388.52 474.729 388.821 474.85C407.23 480.325 436.021 480.084 453.645 474.248C462.457 471.3 466.863 467.509 466.863 463.779Z" fill="#005D95"/>
<path d="M451.895 452.768C452.197 452.888 452.499 452.948 452.801 453.069C471.21 458.845 471.572 468.351 453.646 474.248C436.021 480.084 407.231 480.325 388.822 474.85C388.52 474.789 388.218 474.669 387.916 474.549C369.568 468.773 369.145 459.266 387.071 453.369C404.756 447.533 433.486 447.292 451.895 452.768Z" fill="#CDE5F5"/>
<path d="M469.459 446.45V458.905C469.459 462.696 465.053 466.486 456.241 469.374C438.616 475.211 409.826 475.451 391.417 469.976C391.115 469.916 390.813 469.795 390.512 469.675C381.156 466.727 376.509 462.876 376.509 458.965V446.51C376.509 450.421 381.217 454.272 390.512 457.22C390.813 457.341 391.115 457.401 391.417 457.521C409.826 462.996 438.616 462.756 456.241 456.919C465.053 454.031 469.459 450.241 469.459 446.45Z" fill="#005D95"/>
<path d="M454.491 435.499C454.793 435.62 455.094 435.68 455.396 435.8C473.805 441.576 474.167 451.083 456.241 456.98C438.617 462.816 409.826 463.057 391.417 457.581C391.116 457.521 390.814 457.401 390.512 457.28C372.163 451.504 371.741 441.998 389.667 436.101C407.291 430.265 436.082 430.024 454.491 435.499Z" fill="#CDE5F5"/>
<path d="M462.035 429.061V441.516C462.035 445.307 457.629 449.097 448.817 451.986C431.193 457.822 402.402 458.063 383.993 452.587C383.691 452.527 383.39 452.407 383.088 452.286C373.732 449.338 369.085 445.487 369.085 441.576V429.122C369.085 433.032 373.793 436.883 383.088 439.832C383.39 439.952 383.691 440.012 383.993 440.132C402.402 445.608 431.193 445.367 448.817 439.531C457.69 436.643 462.096 432.852 462.035 429.061Z" fill="#005D95"/>
<path d="M447.127 418.051C447.428 418.171 447.73 418.231 448.032 418.351C466.441 424.128 466.803 433.634 448.877 439.531C431.253 445.367 402.462 445.608 384.053 440.132C383.751 440.072 383.45 439.952 383.148 439.832C364.799 434.055 364.377 424.549 382.303 418.652C399.927 412.816 428.718 412.575 447.127 418.051Z" fill="#CDE5F5"/>
<path d="M471.209 414.681V427.136C471.209 430.927 466.803 434.717 457.991 437.605C440.366 443.442 411.576 443.682 393.167 438.207C392.865 438.147 392.563 438.026 392.262 437.906C382.906 434.958 378.259 431.107 378.259 427.196V414.741C378.259 418.652 382.967 422.503 392.262 425.451C392.563 425.572 392.865 425.632 393.167 425.752C411.576 431.227 440.366 430.987 457.991 425.15C466.803 422.262 471.209 418.472 471.209 414.681Z" fill="#005D95"/>
<path d="M456.241 403.73C456.543 403.851 456.844 403.911 457.146 404.031C475.555 409.808 475.917 419.314 457.991 425.211C440.367 431.047 411.576 431.288 393.167 425.812C392.866 425.752 392.564 425.632 392.262 425.512C373.913 419.735 373.491 410.229 391.417 404.332C409.041 398.496 437.832 398.255 456.241 403.73Z" fill="#CDE5F5"/>
<path d="M460.405 400.481V412.936C460.405 416.727 455.999 420.517 447.187 423.406C429.563 429.242 400.772 429.483 382.363 424.007C382.062 423.947 381.76 423.827 381.458 423.706C372.103 420.758 367.455 416.907 367.455 412.996V400.542C367.455 404.453 372.163 408.303 381.458 411.252C381.76 411.372 382.062 411.432 382.363 411.552C400.772 417.028 429.563 416.787 447.187 410.951C455.999 408.063 460.405 404.272 460.405 400.481Z" fill="#005D95"/>
<path d="M445.437 389.531C445.739 389.651 446.041 389.711 446.342 389.832C464.751 395.608 465.114 405.114 447.187 411.011C429.563 416.847 400.773 417.088 382.364 411.613C382.062 411.552 381.76 411.432 381.458 411.312C363.11 405.536 362.687 396.029 380.613 390.132C398.298 384.296 427.028 384.055 445.437 389.531Z" fill="#CDE5F5"/>
<path d="M468.252 384.477V396.931C468.252 400.722 463.846 404.513 455.034 407.401C437.409 413.237 408.619 413.478 390.21 408.002C389.908 407.942 389.606 407.822 389.305 407.702C379.949 404.753 375.302 400.903 375.302 396.992V384.537C375.302 388.448 380.01 392.298 389.305 395.247C389.606 395.367 389.908 395.427 390.21 395.548C408.619 401.023 437.409 400.782 455.034 394.946C463.906 392.058 468.252 388.267 468.252 384.477Z" fill="#005D95"/>
<path d="M421.596 412.936C410.309 412.936 399.022 411.613 389.969 408.905C389.667 408.785 389.365 408.724 389.063 408.604C379.587 405.656 374.396 401.504 374.396 397.052V384.597C374.396 384.116 374.819 383.694 375.302 383.694C375.785 383.694 376.207 384.116 376.207 384.597C376.207 388.207 381.096 391.757 389.607 394.465C389.908 394.585 390.21 394.645 390.512 394.765C408.679 400.181 437.53 399.88 454.792 394.164C462.76 391.516 467.347 387.966 467.347 384.537C467.347 384.055 467.769 383.634 468.252 383.634C468.735 383.634 469.157 384.055 469.157 384.537V396.992C469.157 401.324 464.269 405.355 455.336 408.363C446.041 411.372 433.848 412.936 421.596 412.936ZM376.207 389.11V397.112C376.207 400.722 381.096 404.272 389.607 406.98C389.908 407.1 390.21 407.16 390.512 407.28C408.679 412.696 437.53 412.395 454.792 406.679C462.76 404.031 467.347 400.481 467.347 397.052V389.049C465.174 391.637 461.07 393.983 455.336 395.909C437.47 401.865 408.74 402.106 389.969 396.57C389.667 396.45 389.365 396.39 389.063 396.27C382.847 394.224 378.501 391.817 376.207 389.11Z" fill="#071824"/>
<path d="M453.343 373.466C453.645 373.586 453.947 373.646 454.249 373.767C472.658 379.543 473.02 389.049 455.094 394.946C437.469 400.782 408.679 401.023 390.27 395.548C389.968 395.487 389.666 395.367 389.365 395.247C371.016 389.471 370.594 379.964 388.52 374.067C406.144 368.231 434.874 367.99 453.343 373.466Z" fill="white"/>
<path d="M421.595 400.481C410.309 400.481 399.022 399.158 389.968 396.45C389.666 396.33 389.365 396.27 389.063 396.149C379.647 393.201 374.456 389.11 374.396 384.597C374.336 380.205 379.285 376.173 388.218 373.225C406.084 367.268 434.814 367.028 453.585 372.563C453.887 372.684 454.188 372.744 454.49 372.864C463.906 375.812 469.097 379.904 469.157 384.416C469.217 388.809 464.268 392.84 455.335 395.788C446.04 398.917 433.848 400.481 421.595 400.481ZM422.018 370.457C409.886 370.457 397.815 371.962 388.821 374.97C380.794 377.617 376.207 381.167 376.267 384.657C376.328 388.267 381.156 391.817 389.666 394.465C389.968 394.585 390.27 394.645 390.572 394.765C408.739 400.181 437.59 399.88 454.852 394.164C462.88 391.516 467.467 387.966 467.407 384.477C467.346 380.866 462.518 377.317 454.007 374.669C453.706 374.549 453.404 374.489 453.102 374.368C444.35 371.781 433.184 370.457 422.018 370.457Z" fill="#071824"/>
<path d="M433.184 375.692L430.95 377.617C432.942 377.858 434.511 378.159 435.658 378.52C436.503 378.761 437.107 378.941 437.65 379.182L433.304 381.528C432.761 381.348 431.976 381.047 430.83 380.746C429.804 380.445 428.415 380.205 426.665 380.024C423.285 379.663 421.474 380.144 420.75 380.806C419.905 381.528 421.233 382.19 424.854 383.394C429.985 384.958 431.071 386.462 428.838 388.448C426.605 390.433 421.354 391.757 414.895 391.516L412.3 393.743L407.17 393.201L409.584 391.095C407.652 390.854 405.902 390.493 404.454 390.132C403.367 389.832 402.462 389.531 401.798 389.23L406.325 386.823C407.109 387.184 408.196 387.605 409.403 387.906C410.67 388.267 412.119 388.508 413.809 388.688C416.766 388.989 419.362 388.749 420.388 387.846C421.354 387.004 420.267 386.282 417.068 385.319C412.421 383.935 409.886 382.431 412.3 380.265C414.533 378.339 419.483 377.136 425.639 377.256L428.053 375.15L433.184 375.692Z" fill="#005D95"/>
<path d="M143.53 68.0506C143.349 68.0506 143.167 67.9904 143.047 67.9302C142.624 67.6294 142.504 67.0879 142.805 66.6667L144.556 64.0193C144.857 63.5981 145.401 63.4778 145.823 63.7786C146.246 64.0794 146.366 64.621 146.065 65.0421L144.314 67.6896C144.133 67.9302 143.831 68.0506 143.53 68.0506Z" fill="#071824"/>
<path d="M137.373 77.4368C137.192 77.4368 137.011 77.3767 136.891 77.3165C136.468 77.0157 136.347 76.4742 136.649 76.053L138.399 73.4056C138.701 72.9844 139.244 72.864 139.667 73.1649C140.089 73.4657 140.21 74.0072 139.908 74.4284L138.158 77.0758C137.977 77.2563 137.675 77.4368 137.373 77.4368Z" fill="#071824"/>
<path d="M138.037 69.1938C137.856 69.1938 137.675 69.1336 137.554 69.0133L134.959 67.2684C134.536 66.9675 134.416 66.426 134.717 66.0048C135.019 65.5837 135.562 65.4633 135.985 65.7642L138.58 67.509C139.003 67.8099 139.124 68.3514 138.822 68.7726C138.641 69.0734 138.339 69.1938 138.037 69.1938Z" fill="#071824"/>
<path d="M147.271 75.3911C147.09 75.3911 146.909 75.331 146.789 75.2106L144.193 73.4657C143.771 73.1649 143.65 72.6234 143.952 72.2022C144.254 71.781 144.797 71.6607 145.219 71.9615L147.815 73.7064C148.237 74.0073 148.358 74.5488 148.056 74.9699C147.815 75.2106 147.513 75.3911 147.271 75.3911Z" fill="#071824"/>
<path d="M475.494 251.023C475.374 251.023 475.193 250.963 475.072 250.903C474.649 250.662 474.468 250.12 474.71 249.699L476.219 246.871C476.46 246.45 477.003 246.27 477.426 246.51C477.848 246.751 478.029 247.292 477.788 247.714L476.279 250.541C476.158 250.842 475.856 251.023 475.494 251.023Z" fill="#071824"/>
<path d="M470.243 260.891C470.123 260.891 469.942 260.83 469.821 260.77C469.398 260.529 469.217 259.988 469.459 259.567L470.968 256.739C471.209 256.318 471.752 256.137 472.175 256.378C472.597 256.619 472.778 257.16 472.537 257.581L471.028 260.409C470.907 260.71 470.605 260.891 470.243 260.891Z" fill="#071824"/>
<path d="M470.183 252.647C470.062 252.647 469.881 252.587 469.76 252.527L466.984 251.023C466.561 250.782 466.38 250.241 466.622 249.819C466.863 249.398 467.406 249.218 467.829 249.458L470.605 250.963C471.028 251.203 471.209 251.745 470.968 252.166C470.787 252.467 470.485 252.647 470.183 252.647Z" fill="#071824"/>
<path d="M479.901 257.942C479.78 257.942 479.599 257.882 479.478 257.822L476.702 256.318C476.279 256.077 476.098 255.535 476.34 255.114C476.581 254.693 477.124 254.513 477.547 254.753L480.323 256.258C480.746 256.498 480.927 257.04 480.685 257.461C480.504 257.762 480.202 257.942 479.901 257.942Z" fill="#071824"/>
<path d="M169.423 58.3634C168.457 58.3634 167.552 58.1829 166.646 57.8219C164.836 57.0397 163.447 55.5957 162.663 53.7906C161.154 50 162.965 45.6679 166.707 44.1636C168.518 43.4416 170.449 43.4416 172.26 44.1636C174.07 44.9458 175.459 46.3899 176.243 48.1949C177.752 51.9855 175.941 56.3177 172.199 57.8219C171.294 58.1829 170.328 58.3634 169.423 58.3634ZM169.423 45.3068C168.699 45.3068 168.035 45.4272 167.371 45.728C164.534 46.8712 163.206 50.1805 164.353 53.0686C164.896 54.4525 165.982 55.5355 167.371 56.1372C168.699 56.6787 170.208 56.6787 171.535 56.1372C174.372 54.994 175.7 51.6847 174.553 48.7966C174.01 47.4127 172.924 46.3297 171.535 45.728C170.871 45.4874 170.147 45.3068 169.423 45.3068Z" fill="#071824"/>
<path d="M488.713 235.319C488.593 235.319 488.472 235.319 488.351 235.319C486.42 235.259 484.669 234.416 483.402 232.972C482.134 231.528 481.47 229.663 481.591 227.738C481.833 223.767 485.213 220.638 489.196 220.818C491.128 220.878 492.878 221.721 494.145 223.165C495.413 224.609 496.077 226.474 495.956 228.4C495.775 232.25 492.516 235.319 488.713 235.319ZM488.955 222.563C486.058 222.563 483.643 224.85 483.462 227.798C483.342 229.242 483.885 230.686 484.85 231.769C485.816 232.792 487.084 233.454 488.532 233.514C491.49 233.634 494.085 231.288 494.266 228.279C494.387 226.835 493.844 225.391 492.878 224.308C491.912 223.285 490.645 222.623 489.196 222.563C489.075 222.623 489.015 222.563 488.955 222.563Z" fill="#071824"/>
<path d="M282.834 85.9206C282.231 85.9206 281.627 85.8003 281.024 85.5596C279.756 85.0782 278.73 84.1155 278.187 82.852C277.1 80.2648 278.247 77.2563 280.782 76.1131C281.989 75.5716 283.378 75.5115 284.585 75.9928C285.852 76.4741 286.878 77.4368 287.422 78.7004C288.508 81.2876 287.361 84.296 284.826 85.4392C284.162 85.7401 283.498 85.9206 282.834 85.9206ZM282.774 77.497C282.351 77.497 281.929 77.6173 281.506 77.7979C279.877 78.5199 279.153 80.5054 279.816 82.13C280.179 82.9723 280.782 83.574 281.627 83.8749C282.412 84.1757 283.257 84.1757 284.041 83.8147C285.671 83.0927 286.395 81.1071 285.731 79.4826C285.369 78.6402 284.766 78.0385 283.921 77.7377C283.559 77.5572 283.196 77.497 282.774 77.497Z" fill="#071824"/>
<path d="M326.231 11.9134C325.929 11.9134 325.627 11.793 325.507 11.4922C325.205 11.071 325.325 10.5295 325.748 10.2286L328.404 8.42359C328.826 8.12274 329.369 8.24308 329.671 8.66426C329.973 9.08544 329.852 9.62696 329.43 9.9278L326.774 11.7329C326.593 11.8532 326.412 11.9134 326.231 11.9134Z" fill="#071824"/>
<path d="M316.936 18.1709C316.634 18.1709 316.332 18.0505 316.212 17.7497C315.91 17.3285 316.03 16.787 316.453 16.4862L319.109 14.6811C319.531 14.3803 320.074 14.5006 320.376 14.9218C320.678 15.343 320.557 15.8845 320.135 16.1853L317.479 17.9904C317.298 18.1107 317.117 18.1709 316.936 18.1709Z" fill="#071824"/>
<path d="M320.739 10.8303C320.437 10.8303 320.135 10.71 319.954 10.4092L318.204 7.76174C317.902 7.34056 318.023 6.79904 318.445 6.4982C318.868 6.19736 319.411 6.3177 319.713 6.73887L321.463 9.38629C321.765 9.80747 321.644 10.349 321.222 10.6498C321.101 10.7702 320.92 10.8303 320.739 10.8303Z" fill="#071824"/>
<path d="M326.834 20.0963C326.533 20.0963 326.231 19.9759 326.05 19.6751L324.299 17.0277C323.998 16.6065 324.118 16.065 324.541 15.7641C324.963 15.4633 325.507 15.5836 325.808 16.0048L327.559 18.6522C327.861 19.0734 327.74 19.6149 327.317 19.9158C327.136 20.0361 326.955 20.0963 326.834 20.0963Z" fill="#071824"/>
<path d="M189.461 86.7028C189.22 86.7028 188.978 86.5825 188.797 86.4019C188.495 86.0409 188.495 85.4392 188.918 85.1384L245.231 37.0638C245.593 36.763 246.197 36.763 246.499 37.1841C246.801 37.5451 246.801 38.1468 246.378 38.4477L190.065 86.5223C189.884 86.5825 189.642 86.7028 189.461 86.7028Z" fill="#071824"/>
<path d="M261.709 54.272C261.468 54.272 261.226 54.1516 261.045 53.9711C260.743 53.6101 260.743 53.0084 261.166 52.7076L296.233 22.8038C296.596 22.503 297.199 22.503 297.501 22.9242C297.803 23.2852 297.803 23.8869 297.38 24.1877L262.313 54.0915C262.132 54.2118 261.89 54.272 261.709 54.272Z" fill="#071824"/>
<path d="M251.811 470.758C237.748 470.758 223.443 469.495 210.225 466.065C209.742 465.945 209.44 465.463 209.561 464.982C209.682 464.501 210.164 464.2 210.647 464.32C261.951 477.557 330.336 458.243 331.06 458.063C331.543 457.942 332.026 458.183 332.207 458.664C332.328 459.146 332.086 459.627 331.603 459.807C331.06 459.928 292.733 470.758 251.811 470.758Z" fill="#071824"/>
<path d="M251.569 479.663C234.911 479.663 217.105 478.099 202.438 473.045C201.955 472.864 201.714 472.383 201.895 471.901C202.076 471.42 202.559 471.179 203.042 471.36C241.912 484.717 303.778 473.466 304.442 473.345C304.925 473.225 305.408 473.586 305.468 474.067C305.589 474.549 305.227 475.03 304.744 475.09C304.382 475.211 279.635 479.663 251.569 479.663Z" fill="#071824"/>
<path d="M193.626 469.013C193.083 469.013 192.54 468.893 191.997 468.712C190.85 468.291 189.945 467.389 189.462 466.306C188.979 465.162 188.919 463.959 189.341 462.816C189.764 461.673 190.669 460.77 191.755 460.289C192.902 459.807 194.109 459.747 195.256 460.168C196.403 460.59 197.308 461.492 197.791 462.575C198.274 463.718 198.334 464.922 197.912 466.065C197.489 467.208 196.584 468.111 195.498 468.592C194.894 468.833 194.23 469.013 193.626 469.013ZM193.626 461.612C193.264 461.612 192.842 461.673 192.48 461.853C191.816 462.154 191.273 462.696 191.031 463.418C190.79 464.14 190.79 464.862 191.091 465.523C191.695 466.907 193.385 467.569 194.773 466.907C195.437 466.606 195.98 466.065 196.222 465.343C196.463 464.621 196.463 463.899 196.161 463.237C195.86 462.575 195.316 462.034 194.592 461.793C194.29 461.673 193.928 461.612 193.626 461.612Z" fill="#071824"/>
<path d="M342.347 461.372C342.226 461.372 342.105 461.372 341.985 461.312C341.683 461.191 341.502 460.89 341.441 460.59L340.476 448.797C340.476 448.496 340.596 448.195 340.777 448.014C341.019 447.834 341.321 447.774 341.622 447.834L354.056 451.504C354.418 451.625 354.66 451.865 354.72 452.226C354.78 452.587 354.66 452.888 354.358 453.129L342.89 461.251C342.769 461.312 342.588 461.372 342.347 461.372ZM342.407 449.94L343.131 458.845L351.823 452.708L342.407 449.94Z" fill="#071824"/>
<path d="M391.96 81.2274L361.54 24.7894C360.756 23.0445 358.402 22.6835 357.074 24.0674L310.901 77.2563C310.176 78.0385 309.935 79.1817 310.357 80.1444C310.78 81.1071 311.685 81.8291 312.772 81.8291C319.532 82.0096 326.292 82.2503 333.052 82.4308C334.017 82.4308 334.923 82.9723 335.466 83.8147C336.009 84.657 336.13 85.6799 335.707 86.5824C325.93 110.59 306.977 147.112 270.642 179.603C196.463 246.029 106.048 245.186 83.6553 244.284C85.5264 256.98 87.3974 269.735 89.2685 282.431C113.11 282.31 212.156 279.061 290.802 202.347C333.716 160.469 352.97 113.839 361.601 86.3417C362.204 84.4164 364.075 83.1528 366.128 83.2732C373.914 83.8748 381.639 84.4765 389.425 85.018C390.572 84.9579 391.538 84.296 391.96 83.3333C392.383 82.4308 392.081 81.4681 391.96 81.2274Z" fill="#E5A678"/>
<path d="M157.895 430.987C157.895 430.987 157.653 441.396 157.352 456.619C157.17 468.712 156.929 483.815 156.869 499.097H106.048C105.022 480.144 104.358 467.449 104.358 467.449C104.358 467.449 99.4689 482.31 95.0024 499.097H38.5684C39.7151 479.663 40.8016 461.312 41.4655 449.458C41.9484 441.155 42.1898 436.041 42.1898 436.041L157.895 430.987Z" fill="#005D95"/>
<path d="M95.0628 500C95.0025 500 94.8818 500 94.8214 500C94.3386 499.88 94.0368 499.398 94.1575 498.917C98.5636 482.25 103.513 467.329 103.513 467.208C103.634 466.787 104.056 466.546 104.479 466.607C104.901 466.667 105.263 467.028 105.263 467.449L106.953 499.097C106.953 499.579 106.591 500 106.108 500.06C105.625 500.06 105.203 499.699 105.143 499.218L103.694 472.443C101.883 478.159 98.7446 488.387 95.8475 499.398C95.7871 499.699 95.425 500 95.0628 500Z" fill="#071824"/>
<path d="M38.5684 500C38.0252 499.94 37.6631 499.519 37.6631 499.037C38.9306 477.798 40.017 458.845 40.5602 449.398C41.0431 441.095 41.2845 435.981 41.2845 435.981C41.2845 435.499 41.707 435.138 42.1295 435.138L157.774 430.084C158.016 430.084 158.257 430.144 158.438 430.325C158.619 430.505 158.74 430.746 158.68 430.987C158.68 431.107 158.438 441.576 158.136 456.619C157.895 472.082 157.714 486.402 157.653 499.097C157.653 499.579 157.231 500 156.748 500C156.265 500 155.843 499.579 155.843 499.097C155.903 486.402 156.084 472.082 156.326 456.619C156.567 444.224 156.748 434.898 156.808 431.949L42.9142 436.943C42.7935 438.688 42.552 443.201 42.1899 449.519C41.6467 458.905 40.5602 477.858 39.2927 499.158C39.4738 499.639 39.0513 500 38.5684 500Z" fill="#071824"/>
<path d="M166.949 271.059C169.001 270.879 179.201 291.697 211.07 290.794C242.939 289.952 268.47 254.392 268.47 254.392C268.47 254.392 279.455 235.921 287.844 229.242C296.174 222.563 297.502 221.661 297.502 221.661C297.502 221.661 300.097 225.15 297.502 229.242C294.906 233.333 287.663 240.975 287.663 240.975C287.663 240.975 295.631 245.307 292.009 254.392C287.905 264.801 276.256 264.019 276.256 264.019C276.256 264.019 252.596 368.231 154.998 318.712L166.949 271.059Z" fill="white"/>
<path d="M203.404 332.972C188.557 332.972 172.26 328.46 154.575 319.495C154.213 319.314 154.032 318.893 154.092 318.472L166.043 270.818C166.164 270.457 166.466 270.156 166.828 270.156C167.673 270.096 168.397 270.818 170.027 272.684C174.855 278.039 186.142 290.614 211.009 289.952C241.671 289.11 266.84 255.175 267.685 253.971C268.409 252.828 278.972 235.199 287.241 228.58C295.51 221.962 296.898 220.999 296.958 220.939C297.381 220.698 297.924 220.758 298.165 221.119C298.286 221.3 301.123 225.15 298.226 229.723C296.053 233.093 290.923 238.749 288.991 240.854C291.104 242.479 295.872 247.052 292.794 254.753C289.112 264.079 279.636 264.922 276.92 264.922C276.195 267.629 273.419 277.798 267.444 289.35C260.985 301.805 249.397 318.412 230.988 327.016C222.477 330.987 213.243 332.972 203.404 332.972ZM156.024 318.231C184.633 332.611 209.561 335.018 230.143 325.391C264.667 309.266 275.169 264.26 275.29 263.839C275.411 263.418 275.773 263.117 276.256 263.117C276.678 263.177 287.301 263.779 291.104 254.092C294.363 245.848 287.422 241.937 287.12 241.757C286.879 241.637 286.698 241.396 286.637 241.095C286.577 240.794 286.698 240.554 286.879 240.313C286.939 240.253 294.061 232.672 296.596 228.7C298.165 226.234 297.562 224.067 297.079 222.924C295.993 223.767 293.578 225.632 288.267 229.844C280.119 236.342 269.254 254.573 269.134 254.753C269.134 254.753 269.134 254.814 269.073 254.814C268.832 255.175 242.878 290.734 210.949 291.576C210.285 291.576 209.621 291.576 208.957 291.576C184.633 291.576 173.467 279.122 168.578 273.706C168.156 273.225 167.733 272.744 167.371 272.383L156.024 318.231Z" fill="#071824"/>
<path d="M9.05371 318.712C9.05371 318.712 18.5902 257.22 52.3903 242.058C86.1904 226.895 131.881 229.001 144.435 236.582C157.05 244.164 189.884 278.339 189.884 278.339L160.852 318.712C160.852 318.712 167.492 427.437 162.241 456.137C162.241 456.137 129.949 459.868 116.248 454.513C102.547 449.158 57.5206 441.576 36.0334 451.444L39.9567 313.779L9.05371 318.712Z" fill="#071824"/>
<path d="M65.7294 424.007C65.3069 424.007 64.9448 423.706 64.8241 423.285C64.7637 422.804 65.0655 422.322 65.5483 422.262C92.347 417.509 109.006 405.596 118.24 396.45C128.26 386.522 131.941 377.557 132.002 377.497C132.183 377.016 132.726 376.835 133.209 377.016C133.692 377.196 133.873 377.738 133.692 378.219C133.511 378.58 129.829 387.545 119.629 397.714C110.213 407.1 93.2524 419.314 65.9105 424.128C65.8501 424.007 65.7898 424.007 65.7294 424.007Z" fill="#071824"/>
<path d="M158.438 361.733H92.709L113.291 288.508H179.02L158.438 361.733Z" fill="#CDE5F5"/>
<path d="M14.8478 318.953L48.1047 304.152C48.1047 304.152 43.3968 360.349 110.695 334.416C110.695 334.416 108.221 327.196 108.583 318.773C108.945 310.349 114.015 318.472 114.679 325.331C115.403 332.19 131.217 329.422 140.693 326.715C150.169 324.007 162.663 325.812 140.693 337.846C118.723 349.94 113.894 344.525 113.894 344.525C113.894 344.525 85.828 383.634 50.9415 375.331C8.08779 365.102 14.8478 318.953 14.8478 318.953Z" fill="white"/>
<path d="M60.7193 377.377C57.3393 377.377 54.0197 377.016 50.7604 376.233C28.1867 370.878 19.3746 355.535 15.9342 343.622C12.2524 330.746 13.8217 319.374 13.9424 318.893C14.0028 318.592 14.1838 318.351 14.4856 318.171L47.7425 303.369C48.0443 303.249 48.3461 303.249 48.6479 303.43C48.8893 303.61 49.0704 303.911 49.01 304.212C49.01 304.392 47.5011 324.789 60.84 334.777C71.2215 342.479 87.5783 342.178 109.548 333.815C108.884 331.649 107.315 325.572 107.617 318.652C107.677 317.569 107.798 314.26 109.85 314.2H109.911C112.506 314.2 115.101 320.758 115.584 325.211C115.705 326.113 116.127 326.835 116.912 327.377C120.835 330.024 132.062 328.159 140.451 325.812C144.857 324.549 152.342 323.706 153.67 326.835C154.756 329.483 150.652 333.333 141.176 338.568C123.25 348.436 116.369 346.931 114.136 345.728C112.264 348.195 105.686 356.378 96.0887 363.718C84.3794 372.744 72.3683 377.377 60.7193 377.377ZM15.6928 319.555C15.4513 321.841 14.546 332.07 17.7449 343.081C22.5132 359.687 33.8 370.277 51.2432 374.428C54.5025 375.211 57.7015 375.572 60.7797 375.572C90.2341 375.572 112.989 344.344 113.23 343.983C113.411 343.742 113.653 343.622 113.894 343.622C114.196 343.622 114.437 343.742 114.618 343.923C114.618 343.923 119.568 348.436 140.27 337.064C152.644 330.265 152.1 327.798 151.98 327.557C151.436 326.294 146.427 325.993 140.934 327.557C136.468 328.821 121.499 332.671 115.886 328.881C114.618 328.038 113.894 326.835 113.773 325.391C113.291 320.638 110.876 316.426 109.971 316.065C109.85 316.245 109.548 316.847 109.428 318.773C109.066 326.895 111.48 333.995 111.54 334.116C111.721 334.597 111.48 335.078 110.997 335.259C88.0008 344.103 70.7386 344.464 59.6933 336.221C47.5011 327.136 46.9579 310.65 47.0786 305.596L15.6928 319.555Z" fill="#071824"/>
<path d="M103.633 214.019C100.736 216.667 95.123 219.856 90.7772 217.629C87.5179 216.005 85.6469 211.733 85.7676 206.859C84.2586 206.98 82.2668 206.859 80.8183 205.656C78.6454 203.73 79.0679 200.181 79.1283 197.894C79.5508 187.184 73.2736 185.499 74.7825 178.219C75.9897 172.503 80.5165 169.073 81.3615 168.472C85.6469 165.223 88.4837 166.306 95.6662 164.44C107.738 161.312 108.1 156.137 116.007 156.077C116.489 156.077 127.293 156.197 130.915 163.658C133.872 169.735 130.432 177.076 126.811 180.927C122.163 185.921 118.783 183.454 114.136 187.665C105.987 194.946 112.144 206.258 103.633 214.019Z" fill="#071824"/>
<path d="M127.655 194.886L127.173 194.465C124.819 192.419 122.284 190.012 121.68 186.943C118.964 173.887 107.013 169.134 106.41 181.107C106.289 184.116 95.1831 183.995 96.511 187.184C99.9514 195.487 100.012 193.261 95.1831 196.27C94.6399 196.27 94.0967 196.39 93.5535 196.631C91.0788 197.774 90.1735 201.143 91.5617 204.152C92.4067 205.957 93.9156 207.22 95.4849 207.702V220.818C95.4849 225.752 92.5274 230.144 87.9403 232.01L83.5342 233.815C83.5342 233.815 104.237 247.292 125.181 232.491L122.404 231.227C117.455 229.001 114.256 224.188 114.075 218.833V216.245C115.463 216.366 116.851 216.245 118.119 215.884C123.974 214.2 125.965 207.461 124.939 199.037L127.354 197.774C128.44 197.232 128.621 195.728 127.655 194.886Z" fill="white"/>
<path d="M104.056 240.253C92.1052 240.253 83.2327 234.657 83.112 234.537C82.8102 234.356 82.6895 234.055 82.6895 233.694C82.7498 233.333 82.9309 233.093 83.2327 232.972L87.6388 231.167C91.8638 229.422 94.5798 225.391 94.5798 220.818V208.363C92.9502 207.702 91.562 206.378 90.717 204.573C89.9323 202.948 89.7513 201.143 90.1738 199.519C90.5963 197.834 91.6827 196.51 93.1313 195.848C93.6745 195.608 94.2177 195.427 94.8213 195.427C95.6059 194.946 96.2698 194.585 96.8131 194.284C97.2959 194.043 97.8995 193.682 98.0202 193.562C98.1409 193.321 97.5374 191.937 96.9338 190.554C96.5716 189.771 96.1491 188.749 95.6663 187.545C95.4248 186.943 95.4248 186.342 95.6663 185.86C96.3302 184.477 98.5031 183.875 100.978 183.153C102.668 182.671 105.444 181.889 105.505 181.107C105.806 174.489 109.307 173.466 110.816 173.345C115.101 172.984 120.775 178.039 122.586 186.763C123.189 189.591 125.604 191.877 127.776 193.742L128.259 194.164C128.923 194.765 129.285 195.608 129.165 196.51C129.044 197.413 128.561 198.195 127.776 198.616L125.905 199.579C126.871 208.845 124.155 215.102 118.361 216.787C117.335 217.088 116.188 217.208 114.981 217.208V218.833C115.162 223.827 118.18 228.4 122.767 230.445L125.543 231.709C125.845 231.829 126.026 232.13 126.086 232.431C126.147 232.732 125.966 233.093 125.724 233.273C118.24 238.568 110.635 240.253 104.056 240.253ZM85.7073 233.935C90.717 236.522 106.953 243.321 123.431 232.672L122.103 232.07C116.912 229.723 113.411 224.549 113.23 218.893V216.306C113.23 216.065 113.351 215.824 113.532 215.644C113.713 215.463 113.955 215.403 114.256 215.403C115.584 215.523 116.852 215.403 117.938 215.102C122.887 213.658 125.121 207.882 124.095 199.278C124.034 198.917 124.215 198.556 124.577 198.375L126.992 197.112C127.233 196.992 127.414 196.691 127.475 196.39C127.535 196.089 127.414 195.788 127.173 195.608L126.69 195.187C124.276 193.081 121.62 190.554 120.896 187.184C119.326 179.663 114.558 174.97 111.057 175.211C108.945 175.391 107.617 177.557 107.436 181.227C107.315 183.333 104.539 184.116 101.581 184.958C99.9516 185.439 97.7184 186.041 97.4166 186.703C97.4166 186.763 97.3563 186.763 97.4166 186.943C97.8995 188.147 98.322 189.11 98.6841 189.892C100.314 193.622 100.676 194.404 97.7788 195.969C97.2356 196.27 96.5716 196.631 95.7266 197.172C95.6059 197.232 95.4248 197.292 95.3041 197.292C94.8213 197.292 94.3988 197.413 94.0366 197.593C93.0709 198.014 92.407 198.917 92.1052 200.06C91.8034 201.264 91.9241 202.647 92.5277 203.911C93.252 205.415 94.4591 206.558 95.9077 206.919C96.2698 207.04 96.5716 207.401 96.5716 207.762V220.818C96.5716 226.113 93.3727 230.806 88.4838 232.852L85.7073 233.935Z" fill="#071824"/>
<path d="M114.075 217.148C114.015 217.148 113.955 217.148 113.955 217.148C105.505 215.824 101.642 209.386 101.521 209.146C101.28 208.724 101.4 208.183 101.883 207.942C102.306 207.702 102.849 207.822 103.09 208.303C103.151 208.363 106.651 214.26 114.257 215.463C114.739 215.523 115.102 216.005 115.041 216.486C114.92 216.847 114.558 217.148 114.075 217.148Z" fill="#071824"/>
<path d="M139.38 141.552C148.034 133.652 148.825 120.473 141.148 112.116C133.47 103.759 120.232 103.389 111.578 111.289C102.924 119.189 102.133 132.368 109.81 140.725C117.487 149.082 130.726 149.452 139.38 141.552Z" fill="white"/>
<path d="M125.724 148.496C117.576 148.496 109.609 144.224 105.444 136.763C101.823 130.265 101.823 122.503 105.324 116.005C105.565 115.584 106.108 115.403 106.531 115.644C106.953 115.884 107.134 116.426 106.893 116.847C103.634 122.804 103.694 129.904 107.014 135.86C112.506 145.728 125.241 149.519 135.442 144.284C140.391 141.757 144.013 137.485 145.582 132.25C147.151 127.136 146.548 121.661 143.952 116.968C138.46 107.1 125.724 103.309 115.524 108.544C115.101 108.785 114.558 108.604 114.317 108.183C114.075 107.762 114.256 107.22 114.679 106.98C125.724 101.324 139.546 105.415 145.522 116.125C148.419 121.3 149.022 127.256 147.332 132.852C145.582 138.568 141.659 143.201 136.287 145.969C132.907 147.653 129.285 148.496 125.724 148.496Z" fill="#071824"/>
<path d="M121.016 138.267L121.68 135.439C119.689 134.958 117.878 133.995 116.912 133.093L118.662 129.783C119.749 130.746 121.379 131.709 123.31 132.13C125 132.491 126.328 132.07 126.63 130.866C126.871 129.723 126.147 128.821 124.095 127.617C121.197 125.872 119.387 123.947 120.051 121.059C120.654 118.412 123.008 116.787 126.328 116.787L126.992 113.959L129.889 114.561L129.285 117.208C131.277 117.69 132.484 118.412 133.39 119.073L131.7 122.262C130.975 121.781 129.829 120.818 127.656 120.397C125.724 119.976 124.879 120.698 124.698 121.54C124.457 122.503 125.362 123.345 127.656 124.85C130.915 126.835 131.941 128.761 131.277 131.408C130.674 134.055 128.259 135.921 124.698 135.8L123.974 138.809L121.016 138.267Z" fill="#005D95"/>
<path d="M185.609 151.443C192.943 147.429 195.716 138.414 191.802 131.306C187.889 124.199 178.77 121.69 171.435 125.704C164.101 129.718 161.328 138.733 165.242 145.841C169.156 152.948 178.274 155.456 185.609 151.443Z" fill="white"/>
<path d="M178.115 154.693C175.761 154.693 173.347 154.212 171.114 153.129C167.251 151.264 164.293 148.075 162.965 144.043C161.577 139.952 161.939 135.56 163.931 131.649C168.035 123.646 177.934 120.217 186.022 124.067C190.609 126.233 193.748 130.927 194.472 136.643C194.532 137.124 194.17 137.605 193.687 137.665C193.204 137.726 192.721 137.365 192.661 136.883C191.997 131.709 189.281 127.617 185.237 125.692C178.055 122.262 169.182 125.331 165.5 132.491C163.69 135.981 163.388 139.892 164.655 143.502C165.862 147.052 168.458 149.94 171.898 151.564C179.081 154.994 187.953 151.925 191.635 144.765C191.876 144.344 192.42 144.164 192.842 144.344C193.265 144.585 193.446 145.126 193.265 145.548C190.186 151.324 184.211 154.693 178.115 154.693Z" fill="#071824"/>
<path d="M178.477 147.593L178.235 145.548C176.787 145.728 175.338 145.548 174.493 145.187L174.795 142.539C175.761 142.9 177.089 143.141 178.477 142.96C179.684 142.78 180.469 142.178 180.348 141.276C180.227 140.433 179.503 140.012 177.813 139.711C175.399 139.29 173.709 138.448 173.467 136.342C173.226 134.416 174.373 132.732 176.606 131.949L176.364 129.904L178.477 129.603L178.718 131.528C180.167 131.348 181.193 131.528 181.917 131.769L181.615 134.296C181.012 134.116 179.986 133.815 178.417 134.055C177.028 134.296 176.666 134.958 176.727 135.56C176.787 136.282 177.632 136.643 179.503 137.004C182.159 137.545 183.366 138.568 183.607 140.493C183.849 142.419 182.702 144.284 180.288 145.066L180.589 147.292L178.477 147.593Z" fill="#005D95"/>
<path d="M200.89 187.387C202.299 178.324 196.284 169.871 187.456 168.508C178.628 167.144 170.329 173.386 168.921 182.45C167.512 191.513 173.527 199.966 182.355 201.329C191.183 202.692 199.482 196.45 200.89 187.387Z" fill="white"/>
<path d="M184.813 202.948C182.942 202.948 181.071 202.647 179.321 202.046C174.854 200.541 171.233 197.292 169.181 192.96C164.956 184.055 168.638 173.225 177.329 168.833C182.58 166.125 188.797 166.306 193.867 169.314C194.289 169.555 194.47 170.096 194.169 170.578C193.927 170.999 193.384 171.179 192.901 170.878C188.374 168.231 182.821 168.051 178.114 170.457C170.267 174.428 167.008 184.236 170.81 192.238C172.681 196.149 175.88 199.037 179.924 200.421C183.848 201.745 188.133 201.444 191.875 199.519C199.722 195.548 202.981 185.74 199.178 177.738C198.937 177.316 199.178 176.775 199.601 176.534C200.023 176.294 200.567 176.534 200.808 176.955C205.033 185.86 201.351 196.691 192.66 201.083C190.125 202.347 187.469 202.948 184.813 202.948Z" fill="#071824"/>
<path d="M188.012 194.344L187.047 192.298C185.598 192.96 184.029 193.261 183.003 193.201L182.46 190.313C183.606 190.373 185.055 190.193 186.443 189.471C187.65 188.869 188.254 187.966 187.831 187.064C187.469 186.221 186.504 186.041 184.693 186.342C182.037 186.703 179.985 186.402 178.959 184.296C178.054 182.371 178.657 180.205 180.709 178.58L179.743 176.534L181.796 175.451L182.701 177.377C184.15 176.715 185.236 176.534 186.141 176.534L186.685 179.302C186.021 179.362 184.814 179.362 183.305 180.144C181.916 180.866 181.796 181.709 182.037 182.31C182.399 183.032 183.365 183.093 185.477 182.912C188.435 182.551 190.004 183.213 190.97 185.199C191.875 187.124 191.332 189.471 189.099 191.155L190.125 193.381L188.012 194.344Z" fill="#005D95"/>
</g>
<defs>
<clipPath id="clip0_191_52">
<rect width="500" height="500" fill="white"/>
</clipPath>
</defs>
</svg>
