<svg width="510" height="500" viewBox="0 0 510 500" fill="none" xmlns="http://www.w3.org/2000/svg">
<g clip-path="url(#clip0_188_210)">
<path d="M123.402 126.009C176.692 73.4851 161.405 40.5975 197.873 16.2631C253.987 -21.142 358.725 11.0228 420.549 62.5226C496.248 125.587 535.294 240.694 490.784 344.838C443.387 455.788 318.758 513.312 207.573 495.964C108.238 480.484 10.6212 403.807 0.859522 311.89C-0.184176 301.952 -4.91151 248.042 27.9343 201.602C55.0704 163.233 81.1015 167.691 123.402 126.009Z" fill="#78B7E5"/>
<path d="M456.649 196.663C456.342 196.663 456.035 196.543 455.912 196.241L375.24 77.2196L282.72 195.579C282.413 196.001 281.86 196.061 281.43 195.76C281 195.458 280.939 194.916 281.246 194.495L374.565 75.1115C374.749 74.8705 375.056 74.7501 375.302 74.7501C375.609 74.7501 375.854 74.9308 376.038 75.1717L457.385 195.278C457.692 195.699 457.57 196.241 457.14 196.543C457.017 196.663 456.833 196.663 456.649 196.663Z" fill="#005D95"/>
<path d="M463.954 188.893C466.226 188.893 467.822 191.122 467.024 193.23C458.061 216.48 417.602 233.827 369.101 233.827C319.801 233.827 278.79 215.938 270.747 192.085C270.195 190.519 271.423 188.893 273.08 188.893H463.954Z" fill="#CDE5F5"/>
<path d="M369.101 234.731C319.924 234.731 278.176 216.902 269.888 192.386C269.52 191.363 269.704 190.278 270.379 189.375C271.055 188.471 272.037 187.989 273.142 187.989H464.016C465.428 187.989 466.717 188.652 467.454 189.796C468.252 190.881 468.436 192.326 467.945 193.591C463.463 205.156 451.185 215.637 433.319 223.106C415.331 230.635 392.492 234.731 369.101 234.731ZM273.081 189.796C272.59 189.796 272.098 190.037 271.853 190.399C271.546 190.82 271.484 191.302 271.607 191.784C279.65 215.576 320.661 232.864 369.101 232.864C416.436 232.864 457.263 216.058 466.165 192.868C466.41 192.146 466.349 191.363 465.919 190.76C465.489 190.098 464.753 189.736 463.955 189.736H273.081V189.796Z" fill="#005D95"/>
<path d="M201.127 194.977C200.82 194.977 200.513 194.856 200.39 194.555L119.718 75.4729L27.1975 193.832C26.8906 194.254 26.338 194.314 25.9083 194.013C25.4785 193.712 25.4171 193.169 25.7241 192.748L119.043 73.3647C119.227 73.1237 119.534 73.0033 119.78 73.0033C120.087 73.0033 120.332 73.184 120.516 73.4249L201.863 193.531C202.17 193.953 202.048 194.495 201.618 194.796C201.495 194.916 201.311 194.977 201.127 194.977Z" fill="#005D95"/>
<path d="M208.433 187.206C210.704 187.206 212.301 189.435 211.503 191.543C202.539 214.793 162.08 232.141 113.579 232.141C64.2798 232.141 23.2686 214.251 15.226 190.399C14.6734 188.833 15.9013 187.206 17.5589 187.206H208.433Z" fill="#CDE5F5"/>
<path d="M113.579 232.984C64.4023 232.984 22.6544 215.155 14.3662 190.64C13.9978 189.616 14.182 188.532 14.8574 187.628C15.5327 186.725 16.515 186.243 17.6201 186.243H208.494C209.906 186.243 211.195 186.905 211.932 188.05C212.73 189.134 212.914 190.579 212.423 191.844C207.942 203.409 195.663 213.89 177.797 221.359C159.809 228.888 137.031 232.984 113.579 232.984ZM17.5587 188.11C17.0675 188.11 16.5764 188.351 16.3308 188.712C16.0238 189.134 15.9625 189.616 16.0852 190.098C24.1279 213.89 65.139 231.237 113.579 231.237C160.914 231.237 201.741 214.432 210.643 191.242C210.888 190.519 210.827 189.736 210.397 189.134C209.968 188.471 209.231 188.11 208.433 188.11H17.5587Z" fill="#005D95"/>
<path d="M252.145 46.7414H241.524V398.687H252.145V46.7414Z" fill="#CDE5F5"/>
<path d="M253.066 399.59H240.603V45.8379H253.066V399.59ZM242.445 397.783H251.224V47.6449H242.445V397.783Z" fill="#005D95"/>
<path d="M379.476 69.2688H114.193V78.1231H379.476V69.2688Z" fill="#CDE5F5"/>
<path d="M380.459 79.0266H113.272V68.3653H380.397V79.0266H380.459ZM115.114 77.2196H378.555V70.1723H115.114V77.2196Z" fill="#005D95"/>
<path d="M374.749 84.8091C381.056 84.8091 386.168 79.7931 386.168 73.6056C386.168 67.4181 381.056 62.4021 374.749 62.4021C368.442 62.4021 363.33 67.4181 363.33 73.6056C363.33 79.7931 368.442 84.8091 374.749 84.8091Z" fill="#CDE5F5"/>
<path d="M374.749 85.7126C367.934 85.7126 362.409 80.2915 362.409 73.6056C362.409 66.9197 367.934 61.4986 374.749 61.4986C381.564 61.4986 387.089 66.9197 387.089 73.6056C387.089 80.2915 381.502 85.7126 374.749 85.7126ZM374.749 63.3056C368.978 63.3056 364.251 67.9436 364.251 73.6056C364.251 79.2676 368.978 83.9056 374.749 83.9056C380.52 83.9056 385.247 79.2676 385.247 73.6056C385.247 67.9436 380.52 63.3056 374.749 63.3056Z" fill="#005D95"/>
<path d="M118.061 84.8091C124.368 84.8091 129.48 79.7931 129.48 73.6056C129.48 67.4181 124.368 62.4021 118.061 62.4021C111.754 62.4021 106.642 67.4181 106.642 73.6056C106.642 79.7931 111.754 84.8091 118.061 84.8091Z" fill="#CDE5F5"/>
<path d="M118.061 85.7126C111.246 85.7126 105.721 80.2915 105.721 73.6056C105.721 66.9197 111.246 61.4986 118.061 61.4986C124.876 61.4986 130.401 66.9197 130.401 73.6056C130.401 80.2915 124.876 85.7126 118.061 85.7126ZM118.061 63.3056C112.29 63.3056 107.563 67.9436 107.563 73.6056C107.563 79.2676 112.29 83.9056 118.061 83.9056C123.832 83.9056 128.559 79.2676 128.559 73.6056C128.559 67.9436 123.832 63.3056 118.061 63.3056Z" fill="#005D95"/>
<path d="M248.94 50.2774C255.127 49.0814 259.155 43.1906 257.936 37.12C256.717 31.0495 250.713 27.0979 244.525 28.2939C238.338 29.49 234.31 35.3807 235.529 41.4513C236.748 47.5219 242.752 51.4734 248.94 50.2774Z" fill="#CDE5F5"/>
<path d="M246.743 51.3794C239.928 51.3794 234.402 45.9583 234.402 39.2724C234.402 32.5864 239.928 27.1654 246.743 27.1654C253.557 27.1654 259.083 32.5864 259.083 39.2724C259.083 45.9583 253.557 51.3794 246.743 51.3794ZM246.743 28.9724C240.972 28.9724 236.244 33.6104 236.244 39.2724C236.244 44.9343 240.972 49.5723 246.743 49.5723C252.514 49.5723 257.241 44.9343 257.241 39.2724C257.241 33.6104 252.514 28.9724 246.743 28.9724Z" fill="#005D95"/>
<path d="M170.921 412.3H321.827C323.976 412.3 324.774 408.866 322.932 407.541L315.258 402C302.488 392.724 287.815 387.845 272.835 387.845H218.133C203.582 387.845 189.339 392.784 177.06 402.06L169.816 407.541C167.974 408.927 168.772 412.3 170.921 412.3Z" fill="#CDE5F5"/>
<path d="M321.766 413.203H170.921C169.631 413.203 168.526 412.36 168.097 411.035C167.667 409.71 167.851 407.963 169.263 406.879L176.508 401.397C188.971 391.941 203.398 387.002 218.194 387.002H272.896C288.06 387.002 302.918 391.941 315.872 401.337L323.546 406.879C324.774 407.782 325.265 409.469 324.774 411.035C324.16 412.36 323.055 413.203 321.766 413.203ZM218.071 388.748C203.705 388.748 189.707 393.627 177.551 402.783L170.307 408.264C169.631 408.806 169.57 409.77 169.816 410.433C169.938 410.734 170.245 411.396 170.921 411.396H321.827C322.564 411.396 322.871 410.673 322.932 410.433C323.178 409.77 323.055 408.806 322.38 408.264L314.705 402.723C302.058 393.567 287.569 388.748 272.835 388.748H218.071Z" fill="#005D95"/>
<path d="M132.55 453.018L137.646 472.052C138.689 475.846 138.935 479.822 138.444 483.737L137.4 491.748L163.247 487.592L159.932 485.183C154.161 480.966 150.047 474.943 148.389 468.076L143.969 449.705L132.55 453.018Z" fill="white"/>
<path d="M137.461 492.712C137.216 492.712 136.97 492.652 136.847 492.471C136.663 492.29 136.54 491.989 136.602 491.688L137.645 483.677C138.136 479.882 137.891 476.087 136.847 472.353L131.752 453.319C131.629 452.837 131.874 452.355 132.365 452.235L143.723 448.922C143.969 448.862 144.214 448.862 144.46 448.982C144.706 449.103 144.828 449.283 144.89 449.584L149.31 467.956C150.906 474.642 154.897 480.484 160.545 484.58L163.861 486.99C164.168 487.23 164.29 487.592 164.229 487.953C164.168 488.315 163.861 488.556 163.492 488.616L137.645 492.772C137.584 492.652 137.523 492.712 137.461 492.712ZM133.716 453.68L138.628 471.871C139.671 475.786 139.978 479.822 139.426 483.857L138.566 490.724L161.036 487.11L159.44 485.966C153.485 481.629 149.249 475.364 147.53 468.317L143.294 450.91L133.716 453.68Z" fill="#071824"/>
<path d="M134.944 495.723C134.76 492.35 134.698 485.664 136.909 481.508C137.277 480.786 138.198 480.424 138.996 480.725L144.89 483.074C145.811 483.436 146.793 482.773 146.793 481.809V481.388C146.793 480.846 147.223 480.364 147.837 480.304L152.932 480.063C154.836 479.942 156.739 480.304 158.458 481.087C163.738 483.376 174.911 488.857 177.613 494.579C178.227 495.904 177.244 497.35 175.771 497.41C171.166 497.591 159.502 497.952 137.154 497.771C135.988 497.771 135.005 496.868 134.944 495.723Z" fill="#005D95"/>
<path d="M149.187 498.735C145.565 498.735 141.574 498.735 137.154 498.675C135.496 498.675 134.084 497.35 134.023 495.723C133.839 492.109 133.777 485.363 136.11 481.026C136.724 479.882 138.136 479.34 139.364 479.822L145.258 482.171C145.442 482.231 145.626 482.171 145.688 482.111C145.749 482.05 145.872 481.93 145.872 481.749V481.328C145.872 480.304 146.731 479.4 147.775 479.4L152.871 479.159C154.897 479.039 156.984 479.46 158.826 480.243C164.965 482.954 175.648 488.375 178.411 494.218C178.841 495.061 178.779 496.085 178.227 496.928C177.674 497.771 176.753 498.314 175.771 498.374C171.842 498.494 163.615 498.735 149.187 498.735ZM135.865 495.663C135.926 496.326 136.479 496.868 137.154 496.868C159.133 497.049 170.798 496.687 175.709 496.506C176.078 496.506 176.446 496.266 176.692 495.964C176.876 495.663 176.937 495.302 176.753 494.94C174.175 489.459 162.817 483.978 158.089 481.87C156.493 481.147 154.713 480.846 152.994 480.906L147.898 481.147C147.837 481.147 147.775 481.207 147.775 481.328V481.749C147.775 482.532 147.407 483.195 146.731 483.616C146.118 484.038 145.258 484.098 144.583 483.857L138.689 481.508C138.32 481.388 137.891 481.508 137.707 481.87C135.619 485.845 135.681 492.23 135.865 495.663Z" fill="#071824"/>
<path d="M155.695 494.88C151.029 494.88 145.381 494.76 138.566 494.459C138.075 494.459 137.645 494.037 137.707 493.495C137.707 493.013 138.136 492.591 138.689 492.652C160.975 493.676 171.35 492.531 171.473 492.471C171.964 492.411 172.456 492.772 172.517 493.254C172.578 493.736 172.21 494.218 171.719 494.278C171.596 494.338 166.439 494.88 155.695 494.88Z" fill="#071824"/>
<path d="M161.527 489.519C161.343 489.519 161.159 489.459 161.036 489.399L152.257 483.677C151.827 483.376 151.704 482.833 152.011 482.412C152.318 481.99 152.871 481.87 153.301 482.171L162.08 487.833C162.51 488.134 162.632 488.676 162.326 489.098C162.141 489.339 161.834 489.519 161.527 489.519Z" fill="#071824"/>
<path d="M80.2418 456.27L77.1107 477.774H69.1909L69.9276 456.632L80.2418 456.27Z" fill="white"/>
<path d="M77.1108 478.677H69.1909C68.9454 478.677 68.6998 478.557 68.5156 478.376C68.3314 478.195 68.27 477.954 68.27 477.714L69.0681 456.571C69.0681 456.09 69.4979 455.728 69.9277 455.728L80.1805 455.367C80.426 455.367 80.733 455.487 80.9172 455.668C81.1014 455.849 81.1628 456.15 81.1628 456.391L78.0317 477.894C77.9089 478.376 77.5405 478.677 77.1108 478.677ZM70.1118 476.87H76.2512L79.1368 457.174L70.8486 457.475L70.1118 476.87Z" fill="#071824"/>
<path d="M76.804 497.832C73.5501 498.193 69.0069 498.976 62.1308 497.892C60.1048 497.591 58.8155 495.603 59.3681 493.615C60.8415 488.495 63.9112 479.099 67.7791 474.099C68.086 473.738 68.6386 473.859 68.7614 474.28L68.8841 475.184C68.9455 475.726 69.6823 475.846 69.9278 475.364L70.7874 473.618C70.9715 473.316 71.3399 473.076 71.7083 473.015L74.7166 472.895C75.3305 472.835 75.9445 473.256 76.0672 473.859L76.19 475.244C76.2514 475.786 76.9882 475.967 77.2337 475.485L78.523 474.16C78.7686 473.798 79.3211 473.979 79.3211 474.461L79.1983 480.063C79.0756 484.098 79.3825 488.134 80.1193 492.109L80.4876 494.097C80.6104 495.964 78.6458 497.591 76.804 497.832Z" fill="#005D95"/>
<path d="M68.8841 499.337C66.8581 499.337 64.5865 499.217 61.9466 498.795C60.7187 498.615 59.675 497.892 58.9997 496.868C58.3243 495.844 58.1401 494.579 58.4471 493.374C59.9206 488.134 63.0517 478.617 67.0423 473.557C67.3492 473.136 67.9018 472.895 68.4543 473.015C69.0069 473.076 69.4366 473.437 69.6208 473.919L70.0506 473.076C70.4189 472.473 71.0329 472.112 71.7082 472.052L74.7779 471.931C75.8216 471.811 76.8653 472.594 77.0495 473.678V473.798L77.1109 474.401L77.909 473.618C78.2774 473.196 78.8913 473.015 79.3825 473.196C79.935 473.377 80.3034 473.919 80.3034 474.521L80.1192 480.123C79.9964 484.098 80.3034 488.074 80.9787 491.989L81.3471 494.037C81.5927 496.446 79.1983 498.494 76.9267 498.735C76.497 498.795 76.0672 498.856 75.6374 498.856C73.7956 499.036 71.5854 499.337 68.8841 499.337ZM67.9632 475.304C64.4023 480.243 61.5782 488.977 60.2275 493.796C60.0434 494.458 60.1661 495.242 60.5345 495.844C60.9029 496.446 61.5168 496.808 62.2535 496.928C68.1474 497.832 72.3836 497.35 75.3919 496.988C75.8216 496.928 76.3128 496.868 76.6811 496.868C78.0318 496.747 79.628 495.482 79.5053 494.157L79.1369 492.17C78.4002 488.134 78.0932 484.038 78.216 479.942L78.3388 475.545L77.909 475.967C77.602 476.449 76.9881 476.69 76.3742 476.569C75.6988 476.449 75.2691 475.907 75.2077 475.244L75.0849 473.919C75.0235 473.798 74.9007 473.678 74.7779 473.678L71.7082 473.798C71.6468 473.798 71.5854 473.859 71.524 473.919L70.7259 475.666C70.4189 476.268 69.805 476.569 69.1911 476.509C68.5771 476.449 68.086 475.967 67.9632 475.304Z" fill="#071824"/>
<path d="M70.0508 495.302C68.0248 495.302 65.6304 495.061 62.9905 494.398C62.4993 494.278 62.1924 493.796 62.3152 493.314C62.4379 492.832 62.9291 492.531 63.4203 492.652C70.7875 494.519 75.8218 492.712 75.8832 492.652C76.3744 492.471 76.8655 492.712 77.0497 493.194C77.2339 493.676 76.9883 494.157 76.4972 494.338C76.4358 494.398 73.98 495.302 70.0508 495.302Z" fill="#071824"/>
<path d="M73.6112 487.471H66.3667C65.8756 487.471 65.4458 487.05 65.4458 486.568C65.4458 486.086 65.8756 485.664 66.3667 485.664H73.6112C74.1024 485.664 74.5321 486.086 74.5321 486.568C74.5321 487.05 74.1638 487.471 73.6112 487.471Z" fill="#071824"/>
<path d="M131.26 314.661C131.26 314.661 141.636 380.376 142.065 396.037C142.495 411.758 149.126 459.222 149.126 459.222C149.126 459.222 140.592 462.354 130.83 460.186C130.83 460.186 100.195 376.099 97.9232 350.319C95.6516 324.539 103.264 312.733 103.264 312.733L131.26 314.661Z" fill="#071824"/>
<path d="M121.13 310.565C121.13 310.565 86.013 415.854 85.399 458.68C85.399 458.68 77.6634 460.487 66.4897 458.68C66.4897 458.68 59.368 341.164 79.935 308.216L121.13 310.565Z" fill="#071824"/>
<path d="M111.123 220.395C108.913 232.863 96.0199 246.235 83.0044 244.489C80.8556 244.187 75.146 243.043 69.1293 236.176C60.8411 242.019 50.2814 240.453 44.5717 233.707C37.6342 225.455 38.5551 210.216 48.6851 202.385C40.6425 202.325 38.4937 199.313 37.8798 198.109C34.1348 191.061 44.0192 174.617 53.2897 174.617C56.7278 174.617 61.2709 178.774 70.173 187.026C79.3821 195.579 79.8119 197.265 82.5746 197.567C90.8014 198.41 93.2572 184.737 104.124 183.171C111.553 182.147 119.902 187.267 120.516 192.085C121.069 196.241 115.605 197.687 112.535 205.939C110.386 212.083 112.167 214.673 111.123 220.395Z" fill="#071824"/>
<path d="M100.318 178.533C100.932 180.46 100.318 185.821 97.3708 186.785C94.4238 187.748 90.3105 183.833 89.6965 181.906C89.0826 179.978 90.9244 177.689 93.8713 176.726C96.8182 175.822 99.7037 176.605 100.318 178.533Z" fill="#071824"/>
<path d="M135.62 315.504C135.62 315.504 138.873 336.827 134.883 340.923C134.883 340.923 121.867 326.949 121.253 316.829L135.62 315.504Z" fill="white"/>
<path d="M134.883 341.826C134.637 341.826 134.392 341.706 134.208 341.525C133.655 340.923 120.946 327.19 120.333 316.89C120.333 316.408 120.701 315.986 121.192 315.926L135.558 314.601C136.049 314.54 136.479 314.902 136.541 315.384C136.909 317.612 139.733 337.249 135.558 341.585C135.374 341.706 135.19 341.826 134.883 341.826ZM122.297 317.612C123.341 325.804 132.182 336.345 134.822 339.417C136.909 335.201 135.681 322.311 134.822 316.468L122.297 317.612Z" fill="#071824"/>
<path d="M117.569 315.685C117.569 315.685 113.517 332.912 108.729 337.188C103.94 341.465 90.8016 322.311 83.4957 321.889C78.5842 321.588 73.3043 329.358 70.4188 334.478C69.9276 335.321 68.6383 334.899 68.7611 333.936C69.7434 327.31 72.015 315.805 76.1898 312.613L117.569 315.685Z" fill="white"/>
<path d="M107.071 338.754C103.879 338.754 99.6425 334.899 95.2222 330.924C91.1088 327.19 86.4428 322.973 83.4345 322.853C80.1806 322.672 75.6989 327.069 71.2171 334.96C70.7874 335.743 69.9278 336.044 69.0683 335.743C68.2088 335.442 67.7177 334.659 67.8404 333.815C69.0683 325.623 71.4013 315.143 75.6375 311.89C75.8217 311.77 76.0672 311.709 76.2514 311.709L117.692 314.842C117.938 314.842 118.184 315.022 118.368 315.203C118.552 315.444 118.613 315.685 118.552 315.926C118.368 316.649 114.377 333.454 109.404 337.911C108.667 338.453 107.869 338.754 107.071 338.754ZM83.189 320.985C83.3117 320.985 83.3731 320.985 83.4959 320.985C87.1796 321.166 91.9069 325.443 96.4501 329.539C100.993 333.635 106.089 338.273 108.115 336.526C111.983 333.032 115.482 320.263 116.465 316.528L76.497 313.516C73.7343 315.926 71.2785 323.335 69.6823 333.875C73.0589 327.912 78.1546 320.985 83.189 320.985Z" fill="#071824"/>
<path d="M161.896 233.586L194.373 241.838L189.768 259.908L157.291 253.825L161.896 233.586Z" fill="white"/>
<path d="M189.769 260.812C189.707 260.812 189.646 260.812 189.584 260.812L157.107 254.728C156.861 254.668 156.616 254.548 156.493 254.307C156.37 254.126 156.309 253.825 156.37 253.584L160.975 233.345C161.036 233.104 161.159 232.924 161.405 232.743C161.589 232.623 161.896 232.562 162.141 232.623L194.68 240.935C195.171 241.055 195.478 241.537 195.355 242.019L190.751 260.029C190.567 260.511 190.198 260.812 189.769 260.812ZM158.396 253.102L189.093 258.884L193.268 242.561L162.571 234.731L158.396 253.102Z" fill="#071824"/>
<path d="M195.662 255.03L157.598 242.441C157.598 242.441 155.265 251.897 151.52 252.078C146.363 252.379 145.626 247.922 137.031 236.598C132.242 230.273 125.735 228.466 125.735 228.466L111.921 240.152L128.681 275.328C128.681 275.328 174.42 315.022 195.662 255.03Z" fill="#E5A678"/>
<path d="M124.445 228.165C117.692 226.78 105.72 222.202 86.995 229.009C86.995 229.009 77.8473 234.128 77.2948 241.537C76.6808 249.608 82.5133 264.245 80.4259 275.027C76.6195 294.663 72.1991 301.108 70.0503 317.191C70.0503 317.191 77.6018 315.444 83.1272 315.805L134.944 317.733C138.382 317.853 141.39 315.384 141.758 312.011C142.311 307.312 142.311 298.94 140.346 284.243C139.303 276.714 139.794 251.897 134.391 236.658C132.856 232.321 129.05 229.069 124.445 228.165Z" fill="#E5A678"/>
<path d="M67.5946 269.245L75.2074 284.363L51.9391 302.554C51.9391 302.554 43.7737 285.809 42.9756 280.267L67.5946 269.245Z" fill="white"/>
<path d="M51.9392 303.518C51.8778 303.518 51.8165 303.518 51.7551 303.518C51.5095 303.457 51.2639 303.277 51.1411 303.036C50.8342 302.373 42.9143 286.11 42.0548 280.508C41.9934 280.087 42.239 279.725 42.6074 279.545L67.2263 268.522C67.6561 268.341 68.2087 268.522 68.4542 268.944L76.0671 284.062C76.2513 284.424 76.1285 284.905 75.8215 285.146L52.5532 303.337C52.369 303.457 52.1848 303.518 51.9392 303.518ZM44.0194 280.87C45.0631 285.869 50.5886 297.675 52.3076 301.169L74.0411 284.122L67.165 270.449L44.0194 280.87Z" fill="#071824"/>
<path d="M81.531 268.341L79.9347 259.908C79.6892 258.704 78.3385 258.101 77.2948 258.644L74.6549 260.029C71.3396 261.776 69.9275 265.691 71.3396 269.124L74.1637 274.124L42.116 289.604C42.116 289.604 34.5646 271.473 39.4147 256.776C47.7643 231.659 102.282 225.575 102.282 225.575L81.531 268.341Z" fill="#E5A678"/>
<path d="M140.346 287.315C139.917 287.315 139.487 287.014 139.425 286.532C135.435 262.378 137.338 253.162 137.399 252.741C137.522 252.259 138.013 251.958 138.505 252.018C138.996 252.138 139.303 252.62 139.241 253.102C139.241 253.223 137.399 262.559 141.267 286.231C141.329 286.712 141.022 287.194 140.531 287.255C140.408 287.315 140.408 287.315 140.346 287.315Z" fill="#071824"/>
<path d="M192.961 214.613C192.961 214.613 202.109 206.24 204.749 204.132C207.696 201.723 200.943 200.94 192.225 208.77L192.961 214.613Z" fill="white"/>
<path d="M192.286 216.42L191.242 208.348L191.611 208.047C198.057 202.265 203.398 201.06 205.24 201.662C205.854 201.843 206.284 202.265 206.345 202.807C206.468 203.469 206.1 204.132 205.301 204.795C202.723 206.903 193.637 215.155 193.575 215.215L192.286 216.42ZM193.207 209.071L193.698 212.745C196.338 210.336 202.17 205.096 204.196 203.409C204.258 203.409 204.258 203.349 204.319 203.349C204.258 203.349 204.258 203.349 204.196 203.349C202.661 203.349 198.487 204.433 193.207 209.071Z" fill="#071824"/>
<path d="M193.76 212.866C193.821 213.348 193.882 213.769 193.944 214.251C194.066 215.034 194.251 216.902 193.146 218.106C192.04 219.251 186.638 222.142 184.059 223.467C183.2 223.949 182.402 224.551 181.788 225.274C180.928 226.298 183.384 238.887 183.384 238.887L172.333 236.478C172.333 236.478 175.096 219.01 177.122 212.866C179.148 206.722 184.55 203.831 185.901 204.012C187.313 204.192 187.743 206.843 187.743 206.843C187.743 206.843 190.751 204.554 192.593 205.758C193.575 206.421 193.084 207.505 193.207 208.529L193.76 212.866Z" fill="white"/>
<path d="M184.612 240.092L171.351 237.2L171.473 236.357C171.596 235.634 174.236 218.769 176.262 212.625C178.411 206.18 184.121 202.867 186.085 203.168C187.313 203.349 187.988 204.493 188.357 205.457C189.585 204.795 191.611 204.072 193.145 205.096C194.251 205.819 194.189 206.903 194.189 207.686C194.189 207.987 194.189 208.228 194.189 208.469L194.68 212.806C194.742 213.227 194.803 213.709 194.864 214.131C195.049 215.034 195.233 217.263 193.821 218.769C192.716 219.913 188.173 222.443 184.55 224.31C183.814 224.672 183.2 225.214 182.647 225.816C182.34 226.961 183.322 233.345 184.366 238.766L184.612 240.092ZM173.438 235.815L182.279 237.742C180.069 226.057 180.867 225.093 181.112 224.732C181.788 223.889 182.647 223.166 183.629 222.684C188.418 220.154 191.733 218.227 192.47 217.504C193.33 216.6 193.145 215.095 193.023 214.432C192.961 213.95 192.9 213.468 192.838 212.986L192.347 208.65C192.286 208.288 192.286 207.927 192.347 207.565C192.347 206.843 192.347 206.662 192.102 206.541C191.058 205.879 188.971 207.084 188.357 207.565L187.129 208.469L186.883 206.963C186.76 206.06 186.269 204.975 185.84 204.915C184.919 204.855 179.946 207.385 178.043 213.167C176.323 218.468 173.991 232.261 173.438 235.815Z" fill="#071824"/>
<path d="M185.41 219.251C185.164 219.251 184.98 219.251 184.734 219.13C183.506 218.769 182.094 217.383 182.033 214.492C181.849 210.216 187.19 206.18 187.436 205.999C187.865 205.698 188.418 205.758 188.725 206.18C189.032 206.602 188.97 207.144 188.541 207.445C187.19 208.469 183.752 211.661 183.875 214.432C183.936 216.239 184.612 217.263 185.225 217.383C185.655 217.504 186.024 217.142 186.146 216.902C187.129 215.396 186.944 213.89 186.944 213.83C186.883 213.348 187.251 212.866 187.743 212.806C188.234 212.745 188.725 213.047 188.786 213.589C188.786 213.649 189.093 215.817 187.743 217.865C187.129 218.769 186.269 219.251 185.41 219.251Z" fill="#071824"/>
<path d="M135.251 318.697C135.128 318.697 135.067 318.697 134.944 318.697L83.1274 316.769C77.7861 316.408 70.3574 318.154 70.296 318.154C69.989 318.215 69.6821 318.154 69.4979 317.974C69.2523 317.793 69.1909 317.492 69.1909 317.191C70.3574 308.577 72.0764 302.855 74.1024 296.229C75.8215 290.567 77.7861 284.183 79.5665 274.967C80.4874 270.208 79.7507 264.486 78.9526 260.029C78.8912 259.788 78.707 259.607 78.4614 259.547C78.3386 259.487 78.0317 259.427 77.7247 259.607L75.0847 260.993C72.1992 262.498 70.9713 265.872 72.1992 268.883L74.962 273.822C75.0847 274.063 75.0847 274.304 75.0233 274.545C74.962 274.786 74.7778 274.967 74.5322 275.087L42.4845 290.567C42.2389 290.688 41.9934 290.688 41.7478 290.628C41.5022 290.567 41.318 290.387 41.1953 290.146C40.8883 289.363 33.5824 271.534 38.4939 256.716C45.1859 236.538 80.5488 228.406 95.4676 225.876C97.6777 225.395 99.8879 225.093 102.037 224.913H102.098C102.16 224.913 102.16 224.913 102.221 224.913C110.632 224.25 116.955 225.756 121.621 226.84C122.665 227.081 123.709 227.322 124.568 227.503C124.937 227.563 125.305 227.683 125.735 227.804C125.796 227.804 125.796 227.804 125.858 227.804C125.858 227.804 126.042 227.864 126.349 227.985H126.41C126.594 228.045 126.717 228.105 126.901 228.165C127.085 228.226 127.27 228.286 127.392 228.406C129.664 229.37 134.023 231.659 137.522 236.297C140.101 239.67 141.943 242.441 143.416 244.669C147.039 250.09 148.266 251.596 151.213 251.476C153.546 251.355 155.756 245.392 156.493 242.501C156.555 242.26 156.739 242.019 156.923 241.899C157.169 241.778 157.414 241.778 157.66 241.838L195.724 254.427C195.97 254.487 196.154 254.668 196.277 254.909C196.399 255.15 196.399 255.391 196.338 255.632C190.383 272.497 181.91 283.159 171.105 287.375C160.238 291.652 149.065 288.459 141.145 284.725C142.802 296.952 143.232 306.228 142.557 312.432C142.311 315.866 139.057 318.697 135.251 318.697ZM81.5925 314.902C82.1451 314.902 82.6976 314.902 83.1888 314.962L135.005 316.89C137.952 317.01 140.592 314.842 140.899 311.95C141.39 307.734 141.513 299.602 139.487 284.424C139.426 284.002 139.364 283.52 139.303 282.978C139.303 282.677 139.426 282.315 139.733 282.135C140.04 281.954 140.347 281.954 140.654 282.074C148.266 285.929 159.686 289.664 170.614 285.387C180.682 281.472 188.725 271.413 194.496 255.572L158.212 243.585C157.476 246.175 155.204 252.801 151.52 252.982C147.345 253.223 145.688 250.753 142.066 245.392C140.592 243.163 138.75 240.453 136.233 237.14C132.979 232.864 128.927 230.695 126.84 229.792C126.656 229.731 126.533 229.671 126.349 229.611C126.165 229.551 126.042 229.49 125.919 229.43L125.98 229.249H125.919L125.858 229.49C125.735 229.43 125.612 229.43 125.551 229.37C125.489 229.37 125.489 229.37 125.428 229.37C124.998 229.249 124.63 229.129 124.323 229.069C123.402 228.888 122.358 228.647 121.253 228.406C116.71 227.322 110.509 225.816 102.344 226.479C102.344 226.479 102.344 226.479 102.282 226.479H102.221C100.072 226.659 97.9233 226.961 95.7745 227.442C81.1628 229.972 46.5979 237.803 40.2129 257.077C36.0995 269.425 41.1339 284.544 42.5459 288.339L72.8132 273.702L70.4802 269.546C70.4802 269.546 70.4188 269.486 70.4188 269.425C68.8226 265.57 70.4188 261.173 74.1638 259.186L76.8038 257.8C77.5405 257.439 78.3386 257.379 79.1367 257.68C79.8735 257.981 80.4874 258.583 80.733 259.366C80.733 259.427 80.733 259.427 80.7944 259.487C81.5925 264.125 82.3906 270.028 81.4083 275.148C79.6279 284.484 77.6019 290.929 75.8829 296.591C73.9797 302.795 72.322 308.216 71.2169 315.986C73.3043 315.625 77.6633 314.902 81.5925 314.902ZM126.042 228.888L126.103 228.647L126.042 228.888Z" fill="#071824"/>
<path d="M72.1991 286.712L80.8556 299.422L85.0304 296.651C87.609 294.964 90.7401 294.302 93.7484 294.844C93.7484 294.844 98.2301 295.446 100.133 296.952C104.738 300.626 100.686 302.915 99.765 303.337C98.3529 304.06 96.3883 304.783 94.2395 304.481C93.0116 304.301 89.7578 304.722 86.8108 306.288C84.6007 307.493 82.0221 309.902 78.4613 308.939C75.453 308.156 74.1023 306.409 74.1023 306.409L62.8672 294.242L72.1991 286.712Z" fill="white"/>
<path d="M80.119 310.023C79.5051 310.023 78.9526 309.963 78.2772 309.782C75.2075 308.999 73.7341 307.252 73.4885 306.951L62.2534 294.844C62.0692 294.663 62.0078 294.422 62.0078 294.181C62.0078 293.94 62.1306 293.7 62.3148 293.579L71.5239 286.05C71.7081 285.869 72.015 285.809 72.2606 285.869C72.5062 285.929 72.7518 286.05 72.8746 286.291L81.04 298.217L84.478 295.928C87.2408 294.061 90.6174 293.398 93.8713 293.94C93.9941 293.94 98.5986 294.543 100.686 296.229C102.466 297.675 103.326 299.121 103.203 300.566C103.08 301.952 101.975 303.216 100.195 304.18C98.1075 305.264 96.0201 305.686 94.1169 305.385C93.1346 305.264 90.0649 305.626 87.2408 307.071C86.811 307.312 86.3812 307.553 85.8901 307.854C84.3552 308.878 82.452 310.023 80.119 310.023ZM64.2794 294.302L74.8392 305.746L74.9006 305.807C74.9006 305.807 76.1284 307.312 78.7684 308.035C81.1627 308.698 83.1273 307.493 84.9692 306.288C85.4603 305.987 85.9515 305.686 86.4426 305.445C89.5123 303.819 92.9504 303.337 94.4239 303.518C96.3271 303.759 98.1689 303.096 99.3968 302.494C100.625 301.891 101.361 301.048 101.423 300.325C101.546 299.301 100.502 298.277 99.5809 297.615C98.1689 296.531 94.7922 295.868 93.6257 295.687C90.7402 295.205 87.9161 295.808 85.5217 297.374L81.3469 300.145C81.1627 300.265 80.9172 300.325 80.6716 300.265C80.426 300.205 80.2418 300.084 80.0576 299.904L71.9536 288.038L64.2794 294.302Z" fill="#071824"/>
<path d="M117.324 211.962L115.298 228.346L124.63 232.02C124.63 232.02 110.816 241.597 92.7051 231.418L102.467 227.322L107.501 208.288L117.324 211.962Z" fill="white"/>
<path d="M109.527 236.959C104.554 236.959 98.6602 235.755 92.2138 232.201C91.9068 232.02 91.7227 231.719 91.7227 231.358C91.7227 230.996 91.9682 230.695 92.2752 230.575L101.668 226.659L106.58 208.047C106.641 207.806 106.826 207.565 107.071 207.445C107.317 207.324 107.562 207.324 107.808 207.385L117.57 211.059C117.938 211.179 118.183 211.601 118.183 212.023L116.28 227.744L124.937 231.117C125.244 231.237 125.489 231.538 125.489 231.84C125.551 232.141 125.367 232.502 125.121 232.683C125.06 232.803 118.92 236.959 109.527 236.959ZM94.7924 231.538C107.992 238.164 118.675 234.128 122.542 232.201L114.991 229.25C114.623 229.069 114.377 228.707 114.438 228.286L116.342 212.565L108.176 209.493L103.388 227.563C103.326 227.804 103.142 228.045 102.835 228.165L94.7924 231.538Z" fill="#071824"/>
<path d="M106.027 210.938C106.027 210.938 102.896 212.625 100.318 208.65C98.2918 205.517 102.896 204.795 102.896 204.795C102.896 204.795 101.423 201.12 106.703 200.398C112.044 199.735 115.912 197.807 115.912 197.807C115.912 197.807 119.78 204.493 121.008 210.035C121.744 213.408 121.56 216.359 118.982 217.263C111.921 219.672 107.255 212.866 107.255 212.866L106.027 210.938Z" fill="white"/>
<path d="M116.035 218.709C110.264 218.709 106.58 213.468 106.58 213.408L105.72 212.083C104.124 212.505 101.607 212.264 99.581 209.192C98.7215 207.867 98.8443 206.843 99.1513 206.18C99.6424 205.036 100.932 204.433 101.853 204.192C101.791 203.53 101.853 202.686 102.344 201.843C103.08 200.638 104.554 199.855 106.641 199.554C111.737 198.892 115.543 197.024 115.543 197.024C115.973 196.784 116.526 196.964 116.771 197.386C116.956 197.687 120.701 204.252 121.99 209.854C123.279 215.516 121.253 217.504 119.35 218.106C118.183 218.528 117.078 218.709 116.035 218.709ZM106.027 210.035C106.334 210.035 106.641 210.155 106.826 210.457L108.115 212.384C108.299 212.625 112.412 218.588 118.736 216.42C120.455 215.817 120.946 213.769 120.209 210.216C119.227 205.879 116.587 200.819 115.605 198.952C114.193 199.554 110.939 200.759 106.887 201.301C105.352 201.482 104.37 201.964 103.94 202.686C103.449 203.469 103.817 204.433 103.817 204.433C103.94 204.674 103.879 204.975 103.756 205.216C103.633 205.457 103.387 205.638 103.08 205.638C102.467 205.758 101.116 206.18 100.809 206.843C100.686 207.144 100.748 207.565 101.116 208.107C103.203 211.36 105.536 210.155 105.598 210.095C105.72 210.095 105.905 210.035 106.027 210.035Z" fill="#071824"/>
<path d="M379.047 263.884V291.23C379.047 317.974 357.559 339.598 331.036 339.598C304.514 339.598 283.026 361.282 283.026 387.965C283.026 390.375 284.991 392.302 287.447 392.302H414.594C454.377 392.302 486.609 359.836 486.609 319.781V261.414C486.609 245.452 473.777 232.562 457.938 232.562H410.112C392.983 232.562 379.047 246.597 379.047 263.884Z" fill="#005D95"/>
<path d="M393.72 343.031H382.178V474.642H393.72V343.031Z" fill="#005D95"/>
<path d="M333.983 478.918L384.94 474.581H389.606L441.669 478.918V482.412H333.983V478.918Z" fill="#005D95"/>
<path d="M353.261 455.969C352.095 454.825 345.219 433.924 345.219 433.924L331.712 443.38L346.508 462.896L353.261 455.969Z" fill="white"/>
<path d="M346.508 463.8C346.201 463.8 345.955 463.679 345.771 463.438L330.975 443.922C330.852 443.742 330.791 443.501 330.791 443.26C330.852 443.019 330.975 442.778 331.159 442.658L344.666 433.201C344.912 433.02 345.219 432.96 345.464 433.08C345.771 433.201 345.955 433.382 346.078 433.683C349.271 443.441 353.138 454.403 353.875 455.367C354.243 455.728 354.182 456.27 353.875 456.572L347.183 463.498C346.999 463.739 346.753 463.8 346.508 463.8ZM333.001 443.621L346.569 461.511L352.033 455.849C350.437 452.717 346.692 441.513 344.666 435.43L333.001 443.621Z" fill="#071824"/>
<path d="M328.887 482.352L337.851 482.291C343.806 482.231 349.332 479.28 352.586 474.401L361.488 460.607C363.943 456.812 362.593 451.753 358.541 449.645C354.857 447.717 350.928 445.85 350.068 445.91C348.227 446.091 347.49 454.644 347.49 454.644L339.509 454.945C339.509 454.945 335.579 471.088 332.08 472.895C329.563 474.22 327.782 476.208 326.616 477.954C325.204 479.882 326.616 482.352 328.887 482.352Z" fill="#071824"/>
<path d="M329.809 479.822C329.379 479.822 328.949 479.521 328.888 479.039C328.826 478.557 329.133 478.075 329.686 478.015L341.965 476.208C344.482 475.846 346.631 474.401 347.92 472.293L358.787 454.524C359.032 454.102 359.585 453.981 360.076 454.222C360.506 454.463 360.628 455.005 360.383 455.487L349.516 473.256C347.92 475.846 345.28 477.593 342.272 478.015L329.993 479.822C329.87 479.822 329.87 479.822 329.809 479.822Z" fill="white"/>
<path d="M344.973 466.45C344.911 466.45 344.788 466.45 344.727 466.39L337.912 464.583C337.421 464.462 337.114 463.98 337.237 463.498C337.36 463.017 337.851 462.715 338.342 462.836L345.157 464.643C345.648 464.763 345.955 465.245 345.832 465.727C345.709 466.149 345.341 466.45 344.973 466.45Z" fill="white"/>
<path d="M341.412 469.883C341.351 469.883 341.289 469.883 341.166 469.883L336.562 468.799C336.071 468.679 335.764 468.197 335.886 467.715C336.009 467.233 336.5 466.932 336.992 467.052L341.596 468.136C342.087 468.257 342.394 468.739 342.272 469.221C342.21 469.582 341.842 469.883 341.412 469.883Z" fill="white"/>
<path d="M307.154 451.994L291.499 467.474L283.149 464.462L297.638 444.705L307.154 451.994Z" fill="white"/>
<path d="M291.499 468.377C291.376 468.377 291.315 468.377 291.192 468.317L282.904 465.305C282.658 465.185 282.413 465.004 282.351 464.703C282.29 464.462 282.29 464.161 282.474 463.92L296.902 444.163C297.024 443.983 297.27 443.802 297.515 443.802C297.761 443.742 298.007 443.802 298.191 443.983L307.707 451.271C307.891 451.452 308.014 451.693 308.075 451.934C308.075 452.175 308.014 452.415 307.83 452.656L292.174 468.136C291.929 468.257 291.744 468.377 291.499 468.377ZM284.623 464.041L291.253 466.45L305.804 452.114L297.822 446.031L284.623 464.041Z" fill="#071824"/>
<path d="M296.41 465.004C296.41 465.004 297.147 471.57 295.858 477.412C295.182 480.484 292.358 482.713 289.104 482.713H250.61C247.848 482.713 246.62 479.34 248.707 477.593C255.522 471.991 268.108 463.378 283.579 460.848L287.876 466.751L296.41 465.004Z" fill="#071824"/>
<path d="M292.358 478.376H252.513C252.022 478.376 251.592 477.955 251.592 477.473C251.592 476.991 252.022 476.569 252.513 476.569H292.358C292.849 476.569 293.279 476.991 293.279 477.473C293.279 478.015 292.91 478.376 292.358 478.376Z" fill="white"/>
<path d="M274.738 471.449C274.37 471.449 274.063 471.269 273.879 470.907L271.791 465.908C271.607 465.426 271.791 464.944 272.282 464.703C272.774 464.522 273.265 464.703 273.51 465.185L275.598 470.184C275.782 470.666 275.598 471.148 275.107 471.389C274.984 471.449 274.861 471.449 274.738 471.449Z" fill="white"/>
<path d="M267.8 472.774C267.432 472.774 267.064 472.533 266.941 472.172L265.406 467.655C265.222 467.173 265.529 466.691 266.02 466.51C266.511 466.329 267.002 466.631 267.187 467.112L268.721 471.63C268.906 472.112 268.599 472.594 268.107 472.774C267.985 472.774 267.923 472.774 267.8 472.774Z" fill="white"/>
<path d="M390.159 343.874C390.159 343.874 318.512 335.682 297.208 353.813C275.905 371.883 330.852 449.705 330.852 449.705L348.227 437.056L331.773 382.062L398.017 363.631L390.159 343.874Z" fill="#071824"/>
<path d="M429.574 379.653C419.137 382.906 400.534 387.062 374.503 386.761C367.136 386.64 360.26 390.676 356.945 397.121C349.209 411.938 332.571 438.682 305.374 455.969L292.419 449.103L325.572 375.919C328.581 369.233 334.229 364.053 341.228 361.523L406.919 337.911C406.919 337.911 427.302 332.309 437.248 350.139C439.028 353.331 442.344 347.609 443.142 350.199C445.782 359.053 438.537 376.882 429.574 379.653Z" fill="#071824"/>
<path d="M310.531 409.89C310.408 409.89 310.285 409.89 310.162 409.83C309.671 409.649 309.487 409.107 309.671 408.626L324.651 375.557C327.782 368.691 333.676 363.27 340.859 360.679L372.293 349.356C372.784 349.175 373.275 349.416 373.459 349.898C373.644 350.38 373.398 350.861 372.907 351.042L341.473 362.366C334.72 364.775 329.256 369.835 326.309 376.28L311.329 409.348C311.206 409.71 310.899 409.89 310.531 409.89Z" fill="white"/>
<path d="M328.028 438.321C327.782 438.321 327.598 438.261 327.414 438.08C327.046 437.718 327.046 437.176 327.414 436.815C330.422 433.743 333.308 430.49 336.132 427.117C336.439 426.756 337.053 426.696 337.421 426.997C337.79 427.298 337.851 427.9 337.544 428.262C334.72 431.695 331.712 435.008 328.703 438.08C328.519 438.261 328.273 438.321 328.028 438.321Z" fill="white"/>
<path d="M336.807 428.563C336.623 428.563 336.378 428.503 336.255 428.382C335.887 428.081 335.825 427.479 336.132 427.117C337.483 425.431 338.895 423.684 340.246 421.937C340.552 421.516 341.105 421.455 341.535 421.756C341.965 422.058 342.026 422.6 341.719 423.021C340.368 424.768 338.956 426.575 337.606 428.262C337.36 428.442 337.053 428.563 336.807 428.563Z" fill="white"/>
<path d="M373.889 287.074C373.889 287.074 367.566 343.212 325.265 346.886L373.889 347.549C373.889 347.549 391.878 311.77 392.614 297.795C393.351 283.881 373.889 287.074 373.889 287.074Z" fill="white"/>
<path d="M373.889 348.452C373.828 348.452 373.828 348.452 373.889 348.452L325.265 347.789C324.774 347.789 324.406 347.428 324.344 346.946C324.344 346.464 324.713 346.043 325.204 346.043C342.394 344.537 355.655 334.237 364.619 315.323C371.372 301.108 372.968 287.194 372.968 287.014C373.03 286.592 373.337 286.291 373.705 286.231C374.135 286.17 384.695 284.484 390.281 289.363C392.614 291.411 393.719 294.302 393.535 297.916C392.799 311.89 375.424 346.525 374.687 347.97C374.503 348.271 374.196 348.452 373.889 348.452ZM334.29 346.103L373.275 346.645C375.485 342.248 391.018 310.505 391.632 297.795C391.816 294.724 390.895 292.314 388.992 290.688C384.817 287.074 376.959 287.616 374.626 287.917C374.196 290.989 372.17 303.397 366.215 316.046C358.725 331.888 347.797 342.127 334.29 346.103Z" fill="#071824"/>
<path d="M434.117 251.416C425.89 249.548 422.514 249.488 392.615 250.572C385.309 250.813 376.652 259.788 375.793 266.896C378.126 273.702 388.808 307.373 370.144 333.695C367.504 337.429 363.882 341.525 358.971 345.44C361.733 347.669 366.092 350.5 371.863 352.187C381.502 355.018 386.352 351.946 394.088 352.187C414.594 352.789 422.145 375.196 435.406 372.425C438.967 371.702 443.633 368.992 448.053 359.896C450.571 352.367 452.781 343.513 454.009 333.514C457.385 306.409 451.86 283.821 447.01 269.666C445.475 265.209 443.756 253.644 434.117 251.416Z" fill="white"/>
<path d="M433.073 373.569C427.425 373.569 422.636 369.413 417.663 365.016C411.463 359.595 404.402 353.451 394.027 353.09C391.325 353.03 388.931 353.331 386.598 353.692C382.362 354.295 377.941 354.897 371.618 353.09C366.89 351.705 362.47 349.416 358.418 346.163L357.559 345.44L358.418 344.718C362.716 341.344 366.399 337.429 369.469 333.153C386.537 309.119 379.046 279.003 374.994 267.137L374.933 266.956V266.775C375.793 259.547 384.572 249.91 392.615 249.609C423.005 248.524 426.136 248.585 434.363 250.512C443.203 252.56 445.72 261.715 447.194 267.197C447.439 268.04 447.624 268.763 447.808 269.365C455.114 290.567 457.508 312.191 454.868 333.574C453.763 342.549 451.737 351.464 448.913 360.137L448.851 360.258C445.168 367.847 440.747 372.184 435.59 373.329C434.731 373.509 433.871 373.569 433.073 373.569ZM393.229 351.283C393.535 351.283 393.781 351.283 394.088 351.283C405.139 351.584 412.445 357.969 418.891 363.631C424.478 368.51 429.328 372.726 435.161 371.522C439.704 370.558 443.756 366.522 447.132 359.535C449.957 350.982 451.921 342.188 453.026 333.394C455.666 312.252 453.272 290.929 446.027 269.968C445.843 269.305 445.598 268.582 445.352 267.679C443.94 262.619 441.668 254.066 433.871 252.259C425.89 250.392 422.82 250.331 392.615 251.416C386.045 251.656 377.696 259.788 376.714 266.775C380.827 279.003 388.317 309.601 370.881 334.177C367.934 338.273 364.435 342.067 360.383 345.38C364.005 348.091 367.934 350.078 372.048 351.283C378.003 353.03 381.993 352.427 386.291 351.825C388.44 351.584 390.711 351.283 393.229 351.283Z" fill="#071824"/>
<path d="M368.303 293.338C368.303 293.338 373.153 255.391 387.028 252.138C382.116 266.896 380.52 282.918 381.195 299.904C381.195 300.626 380.459 301.048 379.845 300.687L368.303 293.338Z" fill="white"/>
<path d="M380.336 301.771C379.967 301.771 379.661 301.65 379.354 301.47L367.32 293.82L367.382 293.278C367.566 291.712 372.477 254.668 386.844 251.295L388.44 250.934L387.949 252.439C383.344 266.414 381.441 281.954 382.178 299.904C382.178 300.566 381.871 301.169 381.257 301.53C380.95 301.711 380.643 301.771 380.336 301.771ZM369.285 292.917L380.274 299.904C379.538 282.496 381.257 267.317 385.554 253.584C374.565 258.824 369.899 288.459 369.285 292.917Z" fill="#071824"/>
<path d="M273.94 289.664H324.406C326.555 289.664 328.52 290.688 329.625 292.435L348.595 347.127H393.29V347.97C393.29 350.56 391.141 352.668 388.502 352.668H293.709C291.069 352.668 288.92 350.56 288.92 347.97V347.247L271.792 296.109C271.546 295.326 271.239 294.603 270.932 293.82C270.195 291.893 271.669 289.664 273.94 289.664Z" fill="#CDE5F5"/>
<path d="M388.563 353.572H293.709C290.578 353.572 287.999 351.042 287.999 347.97V347.428L270.932 296.35C270.748 295.808 270.564 295.326 270.318 294.724C270.257 294.483 270.134 294.302 270.072 294.061C269.643 292.856 269.765 291.531 270.502 290.447C271.3 289.363 272.528 288.7 273.94 288.7H324.406C326.862 288.7 329.133 289.905 330.423 291.893C330.484 291.953 330.484 292.013 330.545 292.073L349.271 346.163H393.29C393.781 346.163 394.211 346.585 394.211 347.067V347.91C394.211 351.042 391.694 353.572 388.563 353.572ZM289.78 346.886C289.841 347.006 289.841 347.127 289.841 347.247V347.97C289.841 350.078 291.56 351.765 293.709 351.765H388.563C390.65 351.765 392.369 350.139 392.431 348.091H348.657C348.288 348.091 347.92 347.85 347.797 347.488L328.888 292.917C327.906 291.531 326.248 290.688 324.467 290.688H274.002C273.203 290.688 272.528 291.049 272.098 291.652C271.669 292.254 271.607 292.917 271.853 293.579C271.914 293.82 272.037 294.001 272.098 294.242C272.344 294.784 272.528 295.326 272.712 295.928L289.78 346.886Z" fill="#071824"/>
<path d="M311.084 317.733C311.82 320.022 310.715 322.431 308.628 323.033C306.602 323.636 304.33 322.25 303.594 319.961C302.857 317.673 303.962 315.263 306.049 314.661C308.137 313.998 310.347 315.384 311.084 317.733Z" fill="white"/>
<path d="M338.281 348.151H305.374C304.883 348.151 304.453 347.729 304.453 347.247C304.453 346.766 304.883 346.344 305.374 346.344H338.281C338.772 346.344 339.202 346.766 339.202 347.247C339.202 347.729 338.772 348.151 338.281 348.151Z" fill="white"/>
<path d="M294.446 348.151H288.613C288.122 348.151 287.692 347.729 287.692 347.247C287.692 346.766 288.122 346.344 288.613 346.344H294.446C294.937 346.344 295.367 346.766 295.367 347.247C295.367 347.729 294.937 348.151 294.446 348.151Z" fill="white"/>
<path d="M363.943 342.368C366.829 337.911 372.17 335.682 375.056 335.863C388.317 336.586 413.918 323.455 432.95 317.07C436.266 312.372 433.871 302.072 435.345 289.724L459.595 291.772C461.99 303.518 461.069 323.515 458.981 326.166C457.569 329.418 450.079 338.815 434.731 346.163C410.787 357.608 378.678 350.139 378.678 350.139C378.678 350.139 362.409 358.571 355.41 349.416C355.41 349.355 361.058 346.765 363.943 342.368Z" fill="white"/>
<path d="M365.11 354.536C361.242 354.536 357.313 353.391 354.611 349.898C354.427 349.657 354.366 349.416 354.427 349.115C354.489 348.874 354.673 348.633 354.918 348.512C354.98 348.512 360.383 345.982 363.084 341.826C366.031 337.309 371.556 334.719 375.056 334.899C383.896 335.381 398.692 329.418 412.997 323.636C419.505 320.985 426.258 318.275 432.275 316.227C433.871 313.637 433.871 309.18 433.81 303.518C433.748 299.362 433.748 294.603 434.362 289.543C434.424 289.062 434.853 288.7 435.345 288.76L459.595 290.808C460.025 290.869 460.332 291.11 460.393 291.531C462.788 303.096 461.99 323.214 459.718 326.527C458.367 329.478 451.246 339.116 435.038 346.886C412.383 357.728 382.239 351.765 378.739 350.982C377.327 351.765 371.249 354.536 365.11 354.536ZM356.822 349.657C363.636 356.764 378.064 349.356 378.248 349.295C378.432 349.175 378.678 349.175 378.862 349.235C379.169 349.295 410.91 356.523 434.301 345.32C448.974 338.272 456.71 329.117 458.122 325.804C458.183 325.744 458.183 325.684 458.245 325.623C459.902 323.515 461.13 304.903 458.797 292.615L436.143 290.688C435.652 295.326 435.652 299.723 435.713 303.578C435.774 309.722 435.774 314.54 433.687 317.552C433.564 317.733 433.441 317.853 433.196 317.914C427.179 319.901 420.365 322.672 413.734 325.383C399.245 331.225 384.203 337.309 374.994 336.767C372.477 336.646 367.443 338.694 364.68 342.85C362.47 346.284 358.664 348.633 356.822 349.657Z" fill="#071824"/>
<path d="M358.295 350.681C358.111 350.681 358.049 350.681 357.988 350.681C357.497 350.62 357.128 350.199 357.19 349.717C357.251 349.235 357.681 348.874 358.172 348.934C358.234 348.934 362.347 349.175 368.793 343.453C369.162 343.091 369.776 343.151 370.083 343.513C370.451 343.874 370.39 344.477 370.021 344.778C363.759 350.259 359.4 350.681 358.295 350.681Z" fill="#071824"/>
<path d="M362.47 352.849C362.163 352.849 361.979 352.849 361.979 352.849C361.488 352.789 361.119 352.307 361.242 351.825C361.303 351.343 361.795 350.982 362.286 351.042C362.347 351.042 365.969 351.404 371.556 346.585C371.925 346.284 372.538 346.284 372.845 346.645C373.152 347.006 373.152 347.609 372.784 347.91C367.566 352.367 363.821 352.849 362.47 352.849Z" fill="#071824"/>
<path d="M462.603 300.325C462.788 300.325 462.91 300.205 462.91 300.084C462.726 297.374 461.437 277.256 459.595 269.124C455.42 250.813 429.635 250.753 429.635 250.753C434.362 266.474 435.897 281.532 434.423 295.988C434.301 296.892 434.976 297.675 435.897 297.735L462.603 300.325Z" fill="white"/>
<path d="M462.665 301.229C462.603 301.229 462.604 301.229 462.542 301.229L435.774 298.639C435.099 298.578 434.485 298.277 434.055 297.735C433.626 297.193 433.441 296.531 433.503 295.868C433.81 292.676 433.994 289.423 434.055 286.17C434.055 285.688 434.485 285.267 434.976 285.267C435.467 285.267 435.897 285.688 435.897 286.17C435.897 289.483 435.651 292.796 435.345 296.049C435.345 296.229 435.406 296.41 435.529 296.591C435.652 296.711 435.836 296.832 436.02 296.832L461.99 299.362C461.683 294.964 460.455 276.834 458.736 269.305C454.745 251.897 429.942 251.656 429.696 251.656C429.205 251.656 428.775 251.235 428.775 250.753C428.775 250.271 429.205 249.849 429.696 249.849C429.942 249.849 456.28 250.09 460.577 268.883C462.481 277.135 463.77 297.675 463.954 299.964C463.954 300.325 463.831 300.626 463.586 300.867C463.217 301.108 462.972 301.229 462.665 301.229Z" fill="#071824"/>
<path d="M407.902 230.394L406.797 245.513C406.551 247.5 405.078 249.127 403.174 249.609C411.463 254.367 423.803 254.668 426.504 249.187C424.601 248.765 423.066 246.055 422.759 244.127L419.812 224.13L407.902 230.394Z" fill="white"/>
<path d="M416.865 254.126C412.199 254.126 406.858 252.801 402.683 250.392C402.376 250.211 402.192 249.849 402.253 249.488C402.315 249.127 402.56 248.825 402.929 248.765C404.525 248.344 405.692 247.079 405.876 245.452L406.981 230.394C406.981 230.093 407.165 229.792 407.472 229.671L419.26 223.467C419.505 223.347 419.812 223.347 420.119 223.467C420.365 223.588 420.549 223.828 420.61 224.13L423.557 244.127C423.864 245.874 425.215 248.103 426.627 248.404C426.872 248.464 427.118 248.645 427.241 248.886C427.364 249.127 427.364 249.428 427.241 249.669C426.381 251.415 424.601 252.741 422.145 253.524C420.61 253.885 418.768 254.126 416.865 254.126ZM405.2 249.669C410.48 252.199 417.172 253.042 421.593 251.717C422.698 251.355 424.171 250.753 425.031 249.608C423.189 248.524 422.022 246.055 421.715 244.308L418.953 225.575L408.761 230.936L407.718 245.573C407.472 247.32 406.551 248.765 405.2 249.669Z" fill="#071824"/>
<path d="M390.343 209.372C394.026 207.445 391.08 213.468 403.236 203.108C408.086 199.012 408.27 206.662 409.498 205.638C414.164 201.723 413.979 201.843 416.926 201.301C418.891 200.94 421.47 203.59 422.268 206.12C423.311 209.433 421.04 211.36 421.838 218.95C422.39 224.25 424.109 226.9 422.513 228.406C420.917 229.912 418.338 228.045 416.497 229.611C414.102 231.599 416.865 236.056 415.085 239.188C413.979 241.176 410.296 243.525 402.56 243.344C401.332 243.344 400.227 242.38 400.043 241.176C399.797 239.61 399.491 237.622 399.306 235.755C398.631 226.659 400.596 223.648 398.631 222.082C395.623 219.672 390.527 224.13 388.317 222.021C386.107 219.853 385.308 211.962 390.343 209.372Z" fill="#071824"/>
<path d="M408.822 214.432L408.638 216.902C408.577 218.046 408.577 219.251 408.638 220.395C408.822 222.564 409.068 226.358 409.068 228.466C409.068 231.599 399.245 232.201 399.245 232.201L398.017 230.816L396.851 230.876C396.605 230.876 396.421 230.876 396.175 230.755C395.684 230.514 395.439 229.972 395.5 229.49C395.991 226.72 396.789 220.636 395.868 215.938C395.93 215.998 401.394 211.601 408.822 214.432Z" fill="white"/>
<path d="M399.245 233.165C399 233.165 398.754 233.044 398.57 232.864L397.588 231.84H396.851C396.421 231.84 396.053 231.779 395.746 231.599C394.886 231.177 394.456 230.273 394.579 229.37C395.009 226.961 395.868 220.757 394.948 216.119C394.886 215.817 395.009 215.456 395.255 215.275C395.5 215.095 401.21 210.637 409.068 213.589C409.437 213.709 409.682 214.071 409.682 214.492L409.498 216.962C409.437 218.106 409.437 219.251 409.498 220.335C409.682 222.443 409.928 226.298 409.928 228.527C409.989 232.201 401.824 233.044 399.245 233.165C399.307 233.165 399.245 233.165 399.245 233.165ZM398.017 230.033C398.263 230.033 398.508 230.153 398.693 230.334L399.614 231.358C403.727 231.057 408.147 229.852 408.147 228.527C408.147 226.419 407.902 222.624 407.718 220.516C407.595 219.311 407.595 218.106 407.718 216.902L407.84 215.095C402.376 213.288 398.263 215.516 396.912 216.42C397.649 221.058 396.974 226.72 396.421 229.731C396.421 229.852 396.421 229.972 396.605 230.033C396.667 230.033 396.728 230.093 396.789 230.033H398.017C397.956 230.033 398.017 230.033 398.017 230.033Z" fill="#071824"/>
<path d="M410.542 222.082C410.542 222.082 410.91 216.119 413.611 216.841C416.374 217.624 415.76 224.19 410.542 222.082Z" fill="white"/>
<path d="M409.437 251.476L421.715 252.379L416.681 260.752L410.357 260.451L409.437 251.476Z" fill="#005D95"/>
<path d="M397.771 309.36L403.727 317.07L412.567 311.529L416.681 260.752L410.357 260.451L397.771 309.36Z" fill="#005D95"/>
<path d="M406.367 246.537L400.473 251.054L409.314 256.415L414.348 250.873L419.812 257.861C421.9 254.849 425.154 252.259 429.881 250.03L422.943 245.693C415.76 250.813 410.665 249.849 406.367 246.537Z" fill="white"/>
<path d="M419.812 258.764C419.505 258.764 419.26 258.644 419.076 258.403L414.287 252.259L409.989 257.017C409.682 257.318 409.191 257.439 408.823 257.198L399.982 251.837C399.736 251.656 399.552 251.416 399.552 251.114C399.552 250.813 399.675 250.512 399.921 250.331L405.814 245.814C406.121 245.573 406.613 245.573 406.981 245.814C411.708 249.488 416.497 249.187 422.514 244.971C422.821 244.73 423.25 244.73 423.557 244.971L430.495 249.307C430.802 249.488 430.925 249.789 430.925 250.151C430.925 250.452 430.679 250.753 430.372 250.934C425.952 252.982 422.698 255.511 420.672 258.463C420.426 258.644 420.181 258.764 419.812 258.764C419.874 258.764 419.812 258.764 419.812 258.764ZM414.901 250.09C414.962 250.151 415.024 250.211 415.085 250.271L419.812 256.355C421.777 253.885 424.54 251.777 428.039 249.91L423.005 246.778C420.119 248.765 417.479 249.849 414.901 250.09ZM402.069 250.994L409.13 255.27L413.673 250.271L413.734 250.211C411.156 250.211 408.761 249.368 406.367 247.681L402.069 250.994Z" fill="#071824"/>
<path d="M386.291 486.207L414.348 371.943L442.405 486.207H449.097L418.277 359.776L410.357 359.716L379.538 486.207H386.291Z" fill="white"/>
<path d="M226.912 485.785L254.969 371.582L283.026 485.785H289.78L258.898 359.354H251.04L220.22 485.785H226.912Z" fill="white"/>
<path d="M290.946 486.688H282.351L282.167 486.026L255.031 375.437L227.649 486.688H219.054L250.303 358.451H259.635L259.819 359.113L290.946 486.688ZM283.763 484.881H288.613L258.223 360.258H251.777L221.387 484.881H226.237L255.031 367.727L283.763 484.881Z" fill="#071824"/>
<path d="M444.431 351.644H223.167V361.944H444.431V351.644Z" fill="white"/>
<path d="M445.413 362.848H222.246V350.741H445.352V362.848H445.413ZM224.088 361.041H443.51V352.548H224.088V361.041Z" fill="#071824"/>
<path d="M377.45 360.439C376.959 360.439 376.529 360.017 376.529 359.535V353.813C376.529 353.331 376.959 352.909 377.45 352.909C377.941 352.909 378.371 353.331 378.371 353.813V359.535C378.371 360.017 378.003 360.439 377.45 360.439Z" fill="#005D95"/>
<path d="M447.439 425.792H442.528C441.177 425.792 440.133 426.816 440.133 428.141H449.834C449.834 426.876 448.79 425.792 447.439 425.792Z" fill="#005D95"/>
<path d="M486.67 425.792H481.759C480.408 425.792 479.364 426.816 479.364 428.141H489.064C489.064 426.876 487.959 425.792 486.67 425.792Z" fill="#005D95"/>
<path d="M485.381 425.672L486.179 421.094C486.731 417.841 484.521 415.191 481.206 415.191H451.86C448.544 415.191 445.413 417.841 444.861 421.094L444.062 425.672H446.334L446.948 422.118C447.378 419.588 449.834 417.54 452.412 417.54H479.917C482.495 417.54 484.214 419.588 483.784 422.118L483.17 425.672H485.381Z" fill="#005D95"/>
<path d="M479.732 413.324H453.947C452.903 413.324 451.921 414.167 451.737 415.191L451.368 417.42C451.184 418.444 451.921 419.287 452.903 419.287H478.689C479.732 419.287 480.715 418.444 480.899 417.42L481.267 415.191C481.451 414.107 480.776 413.324 479.732 413.324Z" fill="#CDE5F5"/>
<path d="M478.689 420.07H452.903C452.167 420.07 451.43 419.769 451 419.227C450.509 418.685 450.325 417.962 450.447 417.179L450.816 414.95C451.061 413.504 452.412 412.36 453.947 412.36H479.732C480.469 412.36 481.206 412.661 481.636 413.203C482.127 413.745 482.311 414.468 482.188 415.251L481.82 417.48C481.574 418.986 480.224 420.07 478.689 420.07ZM453.947 414.227C453.333 414.227 452.78 414.709 452.658 415.311L452.289 417.54C452.228 417.781 452.289 417.962 452.412 418.142C452.535 418.263 452.719 418.383 452.965 418.383H478.75C479.364 418.383 479.917 417.902 480.039 417.299L480.408 415.071C480.469 414.83 480.408 414.649 480.285 414.468C480.162 414.348 479.978 414.227 479.732 414.227H453.947Z" fill="#071824"/>
<path d="M493.607 499.097H418.277C413.734 499.097 410.357 495.001 411.278 490.664L422.697 436.152C423.68 431.575 427.793 428.262 432.52 428.262H497.107L493.607 499.097Z" fill="#CDE5F5"/>
<path d="M493.607 500H418.277C415.821 500 413.55 498.916 412.015 497.109C410.48 495.242 409.866 492.832 410.357 490.543L421.776 436.032C422.82 431.033 427.363 427.418 432.52 427.418H497.107C497.353 427.418 497.598 427.539 497.782 427.72C497.966 427.9 498.028 428.141 498.028 428.382L494.467 499.157C494.528 499.639 494.099 500 493.607 500ZM432.582 429.165C428.284 429.165 424.539 432.177 423.618 436.333L412.199 490.845C411.831 492.652 412.26 494.519 413.488 495.904C414.655 497.35 416.435 498.133 418.338 498.133H492.809L496.309 429.165H432.582Z" fill="#071824"/>
<path d="M503.308 499.097H488.696C484.153 499.097 480.776 495.001 481.697 490.664L494.283 430.611C494.59 429.225 495.818 428.262 497.23 428.262H500.975C502.51 428.262 503.86 429.406 503.983 430.972L509.14 492.892C509.324 496.266 506.684 499.097 503.308 499.097Z" fill="#005D95"/>
<path d="M503.308 500H488.696C486.24 500 483.969 498.916 482.434 497.109C480.899 495.242 480.285 492.832 480.776 490.543L493.362 430.49C493.73 428.744 495.327 427.418 497.168 427.418H500.913C502.939 427.418 504.658 428.985 504.843 430.972L510 492.892C510.123 494.7 509.509 496.567 508.219 497.892C506.991 499.217 505.15 500 503.308 500ZM497.168 429.165C496.186 429.165 495.327 429.828 495.142 430.792L482.557 490.845C482.188 492.652 482.618 494.519 483.846 495.904C485.074 497.29 486.793 498.133 488.696 498.133H503.308C504.72 498.133 505.948 497.591 506.93 496.567C507.851 495.543 508.342 494.278 508.219 492.892L503.062 430.972C503.001 429.948 502.08 429.105 500.975 429.105H497.168V429.165Z" fill="#071824"/>
<path d="M481.513 457.776H422.513C422.022 457.776 421.592 457.355 421.592 456.873C421.592 456.391 422.022 455.969 422.513 455.969H481.513C482.863 455.969 483.969 455.066 484.276 453.801L489.494 432.237C489.617 431.755 490.108 431.454 490.599 431.575C491.09 431.695 491.397 432.177 491.274 432.659L486.056 454.222C485.565 456.331 483.723 457.776 481.513 457.776Z" fill="#071824"/>
<path d="M460.577 456.873L458.92 463.438C458.674 464.522 457.63 465.305 456.464 465.305H444.799C443.51 465.305 442.589 464.101 442.957 462.896L444.676 456.873H460.577Z" fill="white"/>
<path d="M456.526 466.209H444.861C443.94 466.209 443.142 465.787 442.589 465.125C442.037 464.402 441.852 463.559 442.098 462.715L443.817 456.692C443.94 456.331 444.308 456.029 444.676 456.029H460.578C460.885 456.029 461.13 456.15 461.314 456.391C461.498 456.632 461.56 456.873 461.498 457.174L459.841 463.739C459.472 465.185 458.122 466.209 456.526 466.209ZM445.413 457.776L443.878 463.197C443.817 463.498 443.878 463.8 444.063 464.041C444.247 464.281 444.554 464.402 444.861 464.402H456.526C457.262 464.402 457.876 463.92 458.06 463.197L459.411 457.776H445.413Z" fill="#071824"/>
<path d="M478.013 494.519H415.33C414.839 494.519 414.409 494.097 414.409 493.615C414.409 493.133 414.839 492.712 415.33 492.712H478.013C478.504 492.712 478.934 493.133 478.934 493.615C478.934 494.097 478.504 494.519 478.013 494.519Z" fill="#071824"/>
<path d="M488.512 494.519C488.205 494.519 487.898 494.338 487.714 494.037C487.468 493.615 487.591 493.073 488.082 492.832L497.721 487.471V432.538C497.721 432.056 498.151 431.635 498.642 431.635C499.133 431.635 499.563 432.056 499.563 432.538V488.014C499.563 488.315 499.378 488.616 499.071 488.797L489.003 494.459C488.819 494.459 488.696 494.519 488.512 494.519Z" fill="#CDE5F5"/>
<path d="M75.6374 82.2793C74.8392 82.2793 74.1025 82.0986 73.3658 81.7372C72.1379 81.1348 71.217 80.1108 70.7872 78.8459C70.3575 77.581 70.4803 76.2559 71.0328 75.0512C71.6467 73.8465 72.6904 72.943 73.9797 72.5214C75.269 72.0998 76.6197 72.2202 77.8475 72.7623C79.0754 73.3647 79.9963 74.3886 80.4261 75.6535C80.8558 76.9185 80.7331 78.2436 80.1805 79.4483C79.5666 80.6529 78.5229 81.5565 77.2336 81.9781C76.7425 82.1588 76.1899 82.2793 75.6374 82.2793ZM75.6374 74.0875C75.269 74.0875 74.962 74.1477 74.5937 74.2682C73.7955 74.5091 73.1202 75.1114 72.6904 75.8342C72.3221 76.6173 72.2607 77.4606 72.5063 78.2436C72.7518 79.0266 73.3658 79.6892 74.1025 80.1108C74.9006 80.4722 75.7601 80.5325 76.5583 80.2915C77.3564 80.0506 78.0317 79.4483 78.4615 78.7255C78.8298 77.9424 78.8912 77.0992 78.6457 76.3161C78.4001 75.5331 77.7861 74.8705 77.0494 74.4489C76.6197 74.2079 76.1285 74.0875 75.6374 74.0875Z" fill="#071824"/>
<path d="M54.5177 98.2412C54.1493 98.2412 53.781 98.0002 53.6582 97.5786L52.2461 93.1213C52.1233 92.6394 52.3689 92.1576 52.8601 91.9769C53.3512 91.8564 53.8424 92.0973 54.0266 92.5792L55.4386 97.0365C55.5614 97.5184 55.3158 98.0002 54.8247 98.1809C54.7019 98.2412 54.6405 98.2412 54.5177 98.2412Z" fill="#071824"/>
<path d="M57.8331 108.662C57.4648 108.662 57.0964 108.421 56.9736 107.999L55.5616 103.542C55.4388 103.06 55.6844 102.578 56.1755 102.397C56.6667 102.277 57.1578 102.518 57.342 103L58.754 107.457C58.8768 107.939 58.6313 108.421 58.1401 108.601C58.0173 108.601 57.8945 108.662 57.8331 108.662Z" fill="#071824"/>
<path d="M47.8874 103.482C47.519 103.482 47.1507 103.241 47.0279 102.819C46.9051 102.337 47.1507 101.855 47.6418 101.675L52.185 100.289C52.6761 100.169 53.1673 100.41 53.3515 100.891C53.4742 101.373 53.2287 101.855 52.7375 102.036L48.1944 103.421C48.0716 103.482 48.0102 103.482 47.8874 103.482Z" fill="#071824"/>
<path d="M58.5085 100.289C58.1401 100.289 57.7718 100.048 57.649 99.6265C57.5262 99.1447 57.7718 98.6628 58.2629 98.4821L62.8061 97.0967C63.2972 96.9763 63.7884 97.2172 63.9726 97.6991C64.0953 98.1809 63.8498 98.6628 63.3586 98.8435L58.8155 100.229C58.6927 100.289 58.5699 100.289 58.5085 100.289Z" fill="#071824"/>
<path d="M416.681 48.7893C416.497 48.7893 416.313 48.7291 416.129 48.6086C401.087 38.0075 385.37 29.6952 369.592 23.8526C369.101 23.6719 368.855 23.1298 369.04 22.7081C369.224 22.2262 369.776 21.9853 370.206 22.166C386.169 28.0087 402.008 36.4414 417.173 47.1028C417.602 47.4039 417.664 47.946 417.357 48.3677C417.295 48.6688 416.988 48.7893 416.681 48.7893Z" fill="#071824"/>
<path d="M481.943 115.167C481.636 115.167 481.33 115.046 481.145 114.745C480.961 114.444 460.885 83.3032 425.952 55.8969C425.584 55.5957 425.461 54.9934 425.829 54.632C426.136 54.2706 426.75 54.1501 427.119 54.5115C462.359 82.0985 482.557 113.541 482.742 113.842C482.987 114.263 482.864 114.805 482.435 115.107C482.312 115.167 482.128 115.167 481.943 115.167Z" fill="#071824"/>
<path d="M475.865 90.0494C475.558 90.0494 475.313 89.9289 475.128 89.688C474.76 89.2061 438.538 41.501 393.474 23.3707C392.983 23.19 392.799 22.6479 392.983 22.166C393.167 21.6841 393.72 21.5034 394.211 21.6841C439.765 39.9952 476.295 88.1219 476.663 88.6038C476.97 89.0254 476.847 89.5675 476.479 89.8687C476.233 89.9892 476.049 90.0494 475.865 90.0494Z" fill="#071824"/>
<path d="M495.511 133.117C495.388 133.117 495.327 133.117 495.204 133.056L480.531 127.756C480.224 127.635 480.04 127.394 479.979 127.153C479.917 126.852 479.979 126.551 480.163 126.31L489.617 115.769C489.863 115.528 490.17 115.408 490.477 115.468C490.784 115.528 491.091 115.769 491.152 116.07L496.371 131.852C496.494 132.153 496.371 132.514 496.125 132.755C496.002 133.056 495.757 133.117 495.511 133.117ZM482.434 126.551L494.038 130.767L489.924 118.239L482.434 126.551Z" fill="#071824"/>
</g>
<defs>
<clipPath id="clip0_188_210">
<rect width="510" height="500" fill="white"/>
</clipPath>
</defs>
</svg>
