<svg width="500" height="500" viewBox="0 0 500 500" fill="none" xmlns="http://www.w3.org/2000/svg">
<g clip-path="url(#clip0_148_402)">
<path d="M5.7282 406.412C20.3206 441.907 54.4499 458.72 76.2178 469.447C162.144 511.751 334.901 514.403 428.304 436.483C471.358 400.627 519.175 315.837 492.04 188.743C467.981 75.8708 357.513 9.82282 263.024 1.08472C184.696 -6.14681 82.3683 22.478 46.1889 91.5994C23.4561 135.049 50.7716 148.849 32.1392 247.318C16.0393 332.47 -12.1203 363.023 5.7282 406.412Z" fill="#78B7E5"/>
<path d="M452.303 104.134H400.627V388.996H452.303V104.134Z" fill="#A3CEED"/>
<path d="M434.756 381.403L436.444 112.812L273.396 40.0145L113.603 115.343L120.718 385.561C120.839 389.237 123.974 392.19 127.834 392.13L426.073 389.659C430.897 389.659 434.756 385.923 434.756 381.403Z" fill="white"/>
<path d="M172.636 262.384H142.969C141.884 262.384 141.04 261.54 141.04 260.456V215.68C141.04 214.596 141.884 213.752 142.969 213.752H172.636C173.722 213.752 174.566 214.596 174.566 215.68V260.456C174.566 261.48 173.661 262.384 172.636 262.384Z" fill="#CDE5F5"/>
<path d="M211.71 262.384H182.405C181.259 262.384 180.294 261.42 180.294 260.275V215.861C180.294 214.716 181.259 213.752 182.405 213.752H211.71C212.856 213.752 213.821 214.716 213.821 215.861V260.275C213.881 261.42 212.916 262.384 211.71 262.384Z" fill="#CDE5F5"/>
<path d="M173.179 316.379H142.426C141.643 316.379 141.04 315.777 141.04 314.993V269.073C141.04 268.29 141.643 267.687 142.426 267.687H173.179C173.963 267.687 174.566 268.29 174.566 269.073V314.993C174.566 315.777 173.903 316.379 173.179 316.379Z" fill="#CDE5F5"/>
<path d="M211.71 316.379H182.525C181.319 316.379 180.354 315.415 180.354 314.21V269.917C180.354 268.712 181.319 267.747 182.525 267.747H211.71C212.916 267.747 213.881 268.712 213.881 269.917V314.21C213.881 315.415 212.856 316.379 211.71 316.379Z" fill="#CDE5F5"/>
<path d="M275.928 118.416H246.261C245.176 118.416 244.332 117.573 244.332 116.488V80.9931C244.332 79.9084 245.176 79.0647 246.261 79.0647H275.928C277.014 79.0647 277.858 79.9084 277.858 80.9931V116.488C277.858 117.573 277.014 118.416 275.928 118.416Z" fill="#CDE5F5"/>
<path d="M315.062 118.416H285.757C284.611 118.416 283.646 117.452 283.646 116.307V81.1739C283.646 80.0289 284.611 79.0647 285.757 79.0647H315.062C316.208 79.0647 317.173 80.0289 317.173 81.1739V116.307C317.173 117.452 316.208 118.416 315.062 118.416Z" fill="#CDE5F5"/>
<path d="M276.471 162.167H245.718C244.935 162.167 244.332 161.564 244.332 160.781V124.141C244.332 123.358 244.935 122.755 245.718 122.755H276.471C277.255 122.755 277.858 123.358 277.858 124.141V160.781C277.858 161.564 277.255 162.167 276.471 162.167Z" fill="#CDE5F5"/>
<path d="M315.002 162.167H285.817C284.611 162.167 283.646 161.203 283.646 159.998V124.985C283.646 123.78 284.611 122.815 285.817 122.815H315.002C316.208 122.815 317.173 123.78 317.173 124.985V159.998C317.173 161.203 316.208 162.167 315.002 162.167Z" fill="#CDE5F5"/>
<path d="M378.738 262.263H349.071C347.986 262.263 347.142 261.42 347.142 260.335V215.439C347.142 214.355 347.986 213.511 349.071 213.511H378.738C379.824 213.511 380.668 214.355 380.668 215.439V260.335C380.668 261.42 379.763 262.263 378.738 262.263Z" fill="#CDE5F5"/>
<path d="M417.872 262.263H388.567C387.421 262.263 386.457 261.299 386.457 260.154V215.68C386.457 214.535 387.421 213.571 388.567 213.571H417.872C419.018 213.571 419.983 214.535 419.983 215.68V260.154C419.983 261.299 419.018 262.263 417.872 262.263Z" fill="#CDE5F5"/>
<path d="M379.281 316.379H348.528C347.745 316.379 347.142 315.777 347.142 314.993V269.013C347.142 268.229 347.745 267.627 348.528 267.627H379.281C380.065 267.627 380.668 268.229 380.668 269.013V314.993C380.668 315.777 380.005 316.379 379.281 316.379Z" fill="#CDE5F5"/>
<path d="M417.812 316.379H388.627C387.421 316.379 386.457 315.415 386.457 314.21V269.857C386.457 268.651 387.421 267.687 388.627 267.687H417.812C419.018 267.687 419.983 268.651 419.983 269.857V314.21C419.983 315.415 419.018 316.379 417.812 316.379Z" fill="#CDE5F5"/>
<path d="M278.28 14.7644L101.182 109.196C97.4431 111.185 96.7195 115.283 99.6742 117.994L114.568 131.734L279.546 47.0049C280.571 46.4626 281.958 46.4626 282.983 47.0049L451.218 131.855L460.866 120.405C464.845 115.704 463.217 109.377 457.187 106.183L284.25 14.7041C282.441 13.8002 280.089 13.8002 278.28 14.7644Z" fill="#005D95"/>
<path d="M321.635 393.214H239.568C237.578 393.214 235.95 391.587 235.95 389.599V212.848C235.95 210.859 237.578 209.232 239.568 209.232H321.635C323.625 209.232 325.253 210.859 325.253 212.848V389.659C325.253 391.648 323.625 393.214 321.635 393.214Z" fill="#CDE5F5"/>
<path d="M318.258 386.766H243.246C241.92 386.766 240.834 385.682 240.834 384.356V216.765C240.834 215.439 241.92 214.355 243.246 214.355H318.258C319.585 214.355 320.67 215.439 320.67 216.765V384.356C320.67 385.682 319.585 386.766 318.258 386.766Z" fill="#A3CEED"/>
<path d="M336.891 395.022H224.674C223.709 395.022 222.986 394.239 222.986 393.335V376.883C222.986 375.919 223.77 375.196 224.674 375.196H336.891C337.856 375.196 338.579 375.979 338.579 376.883V393.335C338.579 394.239 337.795 395.022 336.891 395.022Z" fill="#A3CEED"/>
<path d="M240.835 369.411C240.352 369.411 239.93 368.989 239.93 368.507V216.765C239.93 214.957 241.438 213.451 243.247 213.451H301.857C302.34 213.451 302.762 213.872 302.762 214.355C302.762 214.837 302.34 215.259 301.857 215.259H243.247C242.402 215.259 241.739 215.921 241.739 216.765V368.507C241.739 368.989 241.317 369.411 240.835 369.411Z" fill="#071824"/>
<path d="M222.986 391.105C222.504 391.105 222.082 390.683 222.082 390.201V376.823C222.082 375.377 223.227 374.232 224.674 374.232H316.389C316.872 374.232 317.294 374.653 317.294 375.136C317.294 375.618 316.872 376.04 316.389 376.04H224.674C224.252 376.04 223.891 376.401 223.891 376.823V390.201C223.891 390.683 223.468 391.105 222.986 391.105Z" fill="#071824"/>
<path d="M143.511 188.201C143.029 188.201 142.607 187.779 142.607 187.297C142.607 186.814 143.029 186.393 143.511 186.393L390.316 185.971C390.798 185.971 391.22 186.393 391.22 186.875C391.22 187.357 390.798 187.779 390.316 187.779L143.511 188.201Z" fill="#99B9FF"/>
<path d="M257.598 265.397C257.357 265.397 257.115 265.337 256.934 265.156C256.573 264.794 256.573 264.252 256.934 263.891L287.868 232.976C288.23 232.614 288.772 232.614 289.134 232.976C289.496 233.337 289.496 233.88 289.134 234.241L258.201 265.156C258.02 265.277 257.839 265.397 257.598 265.397Z" fill="#CADDFF"/>
<path d="M256.512 242.075C256.271 242.075 256.03 242.015 255.849 241.834C255.487 241.473 255.487 240.93 255.849 240.569L265.678 230.746C266.04 230.384 266.582 230.384 266.944 230.746C267.306 231.108 267.306 231.65 266.944 232.012L257.115 241.834C256.934 242.015 256.693 242.075 256.512 242.075Z" fill="#CADDFF"/>
<path d="M310.118 253.525C309.635 253.525 309.213 253.104 309.213 252.621V239.364C309.213 238.882 309.635 238.46 310.118 238.46C310.6 238.46 311.022 238.882 311.022 239.364V252.621C311.022 253.164 310.6 253.525 310.118 253.525Z" fill="#071824"/>
<path d="M421.068 253.525C420.586 253.525 420.164 253.104 420.164 252.621V239.364C420.164 238.882 420.586 238.46 421.068 238.46C421.55 238.46 421.973 238.882 421.973 239.364V252.621C421.973 253.164 421.55 253.525 421.068 253.525Z" fill="#071824"/>
<path d="M469.247 478.788H463.458C460.986 478.788 458.996 476.799 458.996 474.328V217.79C458.996 215.319 460.986 213.33 463.458 213.33H469.247C471.719 213.33 473.709 215.319 473.709 217.79V474.388C473.709 476.799 471.719 478.788 469.247 478.788Z" fill="#005D95"/>
<path d="M489.507 232.313V238.098C489.507 240.569 487.518 242.558 485.045 242.558H275.024C272.551 242.558 270.562 240.569 270.562 238.098V232.313C270.562 229.842 272.551 227.853 275.024 227.853H485.045C487.518 227.853 489.507 229.902 489.507 232.313Z" fill="#005D95"/>
<path d="M289.254 365.011C287.204 365.011 285.516 363.143 285.516 360.793V256.84C285.516 254.55 287.204 252.621 289.254 252.621H442.233C444.283 252.621 445.971 254.49 445.971 256.84V360.853C445.971 363.143 444.283 365.072 442.233 365.072H289.254V365.011Z" fill="#E5A678"/>
<path d="M442.233 365.915H289.254C286.722 365.915 284.611 363.625 284.611 360.793V256.84C284.611 254.007 286.662 251.717 289.254 251.717H442.233C444.766 251.717 446.876 254.007 446.876 256.84V360.853C446.876 363.625 444.826 365.915 442.233 365.915ZM289.254 253.525C287.687 253.525 286.42 255.032 286.42 256.84V360.853C286.42 362.661 287.687 364.168 289.254 364.168H442.233C443.801 364.168 445.067 362.661 445.067 360.853V256.84C445.067 255.032 443.801 253.525 442.233 253.525H289.254Z" fill="#071824"/>
<path d="M127.532 50.5002C127.05 50.5002 126.628 50.0783 126.628 49.5962V44.8957C126.628 44.4136 127.05 43.9918 127.532 43.9918C128.015 43.9918 128.437 44.4136 128.437 44.8957V49.5962C128.437 50.1386 128.015 50.5002 127.532 50.5002Z" fill="#071824"/>
<path d="M127.532 61.4077C127.05 61.4077 126.628 60.9859 126.628 60.5038V55.8033C126.628 55.3212 127.05 54.8993 127.532 54.8993C128.015 54.8993 128.437 55.3212 128.437 55.8033V60.5038C128.437 60.9859 128.015 61.4077 127.532 61.4077Z" fill="#071824"/>
<path d="M135.311 53.6338H130.608C130.125 53.6338 129.703 53.212 129.703 52.7299C129.703 52.2478 130.125 51.8259 130.608 51.8259H135.311C135.793 51.8259 136.215 52.2478 136.215 52.7299C136.215 53.212 135.793 53.6338 135.311 53.6338Z" fill="#071824"/>
<path d="M124.397 53.6338H119.694C119.211 53.6338 118.789 53.212 118.789 52.7299C118.789 52.2478 119.211 51.8259 119.694 51.8259H124.397C124.879 51.8259 125.301 52.2478 125.301 52.7299C125.301 53.212 124.94 53.6338 124.397 53.6338Z" fill="#071824"/>
<path d="M99.433 69.5432C98.4079 69.5432 97.4431 69.3022 96.4783 68.8803C92.8001 67.2532 91.1117 62.854 92.7398 59.1177C93.5237 57.3099 94.9709 55.8636 96.8401 55.1404C98.6491 54.4172 100.639 54.4775 102.388 55.2609C106.066 56.888 107.754 61.2872 106.126 65.0235C105.342 66.8314 103.895 68.2777 102.026 69.0008C101.242 69.4227 100.337 69.5432 99.433 69.5432ZM99.4933 56.5264C98.83 56.5264 98.1667 56.647 97.5637 56.888C96.1768 57.4304 95.0915 58.4549 94.4885 59.8409C93.2825 62.6732 94.5488 65.9877 97.3225 67.2532C98.6491 67.8558 100.096 67.9161 101.483 67.3737C102.87 66.8314 103.955 65.8069 104.558 64.4209C105.764 61.5885 104.498 58.2741 101.724 57.0085C100.94 56.7072 100.217 56.5264 99.4933 56.5264Z" fill="#071824"/>
<path d="M247.346 475.594C236.493 475.594 226.724 474.75 218.463 473.545C193.258 469.989 176.555 462.938 176.374 462.878C175.892 462.697 175.711 462.155 175.892 461.673C176.073 461.191 176.616 461.01 177.098 461.191C177.279 461.251 193.801 468.242 218.765 471.737C241.799 474.991 276.893 475.895 313.374 461.793C313.856 461.613 314.339 461.854 314.52 462.336C314.7 462.818 314.459 463.3 313.977 463.481C290.279 472.701 267.064 475.594 247.346 475.594Z" fill="#071824"/>
<path d="M251.809 488.55C249.216 488.55 246.744 488.49 244.332 488.43C219.971 487.646 201.76 483.307 201.58 483.307C201.097 483.187 200.796 482.705 200.916 482.223C201.037 481.74 201.519 481.439 202.002 481.56C202.183 481.62 220.212 485.899 244.452 486.682C266.763 487.405 299.023 485.236 325.977 470.712C326.399 470.471 326.941 470.652 327.183 471.074C327.424 471.496 327.243 472.038 326.821 472.279C302.4 485.356 273.758 488.55 251.809 488.55Z" fill="#071824"/>
<path d="M336.348 460.468C334.659 460.468 333.031 459.383 332.428 457.696C332.067 456.671 332.127 455.526 332.609 454.562C333.092 453.598 333.936 452.875 334.961 452.573C337.071 451.85 339.423 453.055 340.147 455.165C340.508 456.189 340.448 457.334 339.966 458.298C339.483 459.262 338.639 459.986 337.614 460.287C337.192 460.407 336.77 460.468 336.348 460.468ZM336.227 454.14C335.986 454.14 335.745 454.2 335.504 454.261C334.961 454.441 334.479 454.863 334.237 455.345C333.996 455.888 333.936 456.49 334.117 457.093C334.539 458.298 335.805 458.961 337.011 458.539C337.554 458.358 338.036 457.937 338.277 457.454C338.519 456.912 338.579 456.31 338.398 455.707C338.097 454.803 337.192 454.14 336.227 454.14Z" fill="#071824"/>
<path d="M439.58 83.3434C439.459 83.3434 439.339 83.3434 439.218 83.2831L427.038 77.4979C426.736 77.3171 426.495 77.0158 426.495 76.6542C426.495 76.2926 426.736 75.9913 427.038 75.8708L446.334 67.9764C446.695 67.8559 447.117 67.9161 447.359 68.2174C447.6 68.5187 447.66 68.8803 447.479 69.2419L440.364 82.9215C440.243 83.1626 439.942 83.3434 439.58 83.3434ZM429.691 76.7747L439.218 81.2944L444.826 70.5677L429.691 76.7747Z" fill="#071824"/>
<path d="M414.013 67.6751C413.772 67.6751 413.531 67.5545 413.35 67.3738C413.049 67.0122 413.049 66.4095 413.471 66.1082L472.624 15.9094C472.986 15.608 473.589 15.608 473.89 16.0299C474.192 16.3915 474.192 16.9941 473.77 17.2954L414.616 67.4943C414.436 67.6148 414.255 67.6751 414.013 67.6751Z" fill="#071824"/>
<path d="M403.702 57.0085C403.581 57.0085 403.461 57.0085 403.34 56.9483C402.918 56.7072 402.677 56.2251 402.918 55.743L426.857 5.30311C427.098 4.88127 427.641 4.64022 428.063 4.88127C428.485 5.12232 428.726 5.60442 428.485 6.08652L404.546 56.5264C404.365 56.8278 404.064 57.0085 403.702 57.0085Z" fill="#071824"/>
<path d="M392.004 52.6094C391.763 52.6094 391.582 52.5491 391.401 52.3683C389.411 50.5604 388.507 48.7525 388.688 47.0652C388.808 45.7997 389.472 45.0765 390.014 44.4739C390.437 43.9918 390.798 43.57 390.979 42.9673C391.281 41.7621 390.678 40.8581 389.653 39.5323C388.748 38.2668 387.663 36.8808 387.844 34.9524C388.025 32.6624 389.834 31.5174 391.462 30.4929C392.848 29.589 394.175 28.7453 394.477 27.2388C394.838 25.4911 393.572 23.9846 392.306 22.3575C390.859 20.5496 389.231 18.5609 389.773 15.9696C390.256 13.8002 391.884 12.7154 393.391 11.691C394.597 10.8473 395.683 10.1241 395.803 8.97914C395.984 7.29178 394.235 5.24285 390.678 3.01313C390.256 2.77208 390.135 2.16945 390.376 1.74761C390.617 1.32577 391.22 1.20525 391.643 1.4463C395.924 4.15812 397.853 6.68916 397.612 9.09966C397.371 11.0883 395.803 12.1128 394.416 13.077C393.09 13.9809 391.884 14.7644 391.582 16.2107C391.22 17.9583 392.426 19.4649 393.753 21.0919C395.2 22.8396 396.828 24.8885 396.286 27.4195C395.803 29.7095 394.054 30.8545 392.426 31.8187C390.979 32.7227 389.773 33.5061 389.653 34.8921C389.532 36.0974 390.316 37.1218 391.1 38.2066C392.125 39.5926 393.21 41.0992 392.728 43.2084C392.426 44.2931 391.823 44.956 391.341 45.4984C390.859 46.0407 390.497 46.4023 390.437 47.0652C390.316 48.2102 391.04 49.4757 392.547 50.8617C392.909 51.2233 392.969 51.7657 392.607 52.1273C392.487 52.4888 392.245 52.6094 392.004 52.6094Z" fill="#071824"/>
<path d="M210.865 118.898L165.762 146.559L210.865 118.898Z" fill="white"/>
<path d="M165.762 147.463C165.46 147.463 165.159 147.282 164.978 147.041C164.737 146.619 164.857 146.077 165.279 145.776L210.383 118.115C210.805 117.874 211.348 117.994 211.649 118.416C211.891 118.838 211.77 119.381 211.348 119.682L166.244 147.342C166.124 147.403 165.943 147.463 165.762 147.463Z" fill="#071824"/>
<path d="M215.268 99.0117L191.51 113.535L215.268 99.0117Z" fill="white"/>
<path d="M191.51 114.499C191.208 114.499 190.907 114.318 190.726 114.077C190.485 113.656 190.605 113.113 191.027 112.812L214.785 98.2885C215.207 98.0475 215.75 98.168 216.052 98.5898C216.293 99.0117 216.172 99.554 215.75 99.8554L191.992 114.379C191.811 114.439 191.691 114.499 191.51 114.499Z" fill="#071824"/>
<path d="M130.427 186.694C130.427 186.694 146.225 190.008 161.662 179.221C177.098 168.434 186.867 160.962 186.867 160.962C186.867 160.962 186.867 155.056 190.183 152.585C193.5 150.115 195.429 141.678 198.022 141.738L197.118 151.32C197.118 151.32 204.956 147.523 208.996 145.173C213.037 142.823 215.75 144.209 215.75 144.209C215.75 144.209 201.821 161.745 197.359 163.372C192.897 164.999 190.545 171.749 188.012 175.184C185.54 178.619 185.54 178.619 185.54 178.619C185.54 178.619 167.028 210.558 130.427 207.485V186.694Z" fill="white"/>
<path d="M135.311 208.569C133.683 208.569 132.055 208.509 130.367 208.389C129.884 208.328 129.522 207.967 129.522 207.485V186.694C129.522 186.393 129.643 186.152 129.884 185.971C130.125 185.79 130.367 185.73 130.668 185.79C130.849 185.85 146.286 188.863 161.179 178.498C174.867 168.977 184.153 161.926 186.023 160.48C186.083 158.973 186.626 154.152 189.701 151.802C191.088 150.777 192.294 148.307 193.439 146.197C194.887 143.305 196.213 140.774 198.083 140.774H198.143C198.384 140.774 198.625 140.894 198.806 141.075C198.987 141.256 199.047 141.497 199.047 141.738L198.263 149.693C200.736 148.487 205.74 145.956 208.635 144.329C213.037 141.798 216.112 143.305 216.233 143.365C216.474 143.486 216.655 143.727 216.715 143.968C216.775 144.209 216.715 144.51 216.534 144.751C215.087 146.559 202.364 162.589 197.721 164.216C194.826 165.24 192.836 168.856 191.028 172.05C190.244 173.376 189.58 174.702 188.796 175.666L186.324 179.041C185.902 179.764 181.319 187.417 172.335 194.829C164.496 201.338 152.014 208.569 135.311 208.569ZM131.331 206.641C166.425 209.112 184.576 178.498 184.756 178.197L184.817 178.137L187.289 174.702C187.952 173.737 188.676 172.532 189.399 171.206C191.329 167.771 193.56 163.854 197.057 162.529C200.314 161.323 209.781 150.115 214.182 144.691C213.157 144.57 211.529 144.691 209.419 145.896C205.439 148.186 197.6 152.043 197.48 152.043C197.178 152.163 196.816 152.163 196.575 151.983C196.334 151.802 196.153 151.501 196.213 151.139L196.937 143.425C196.274 144.329 195.55 145.776 194.947 146.981C193.681 149.391 192.414 151.922 190.726 153.248C187.832 155.418 187.771 160.902 187.771 160.902C187.771 161.203 187.651 161.444 187.41 161.625C187.289 161.685 177.46 169.278 162.144 179.945C148.698 189.285 135.191 188.261 131.331 187.718V206.641Z" fill="#071824"/>
<path d="M141.1 184.283L132.899 217.91C132.899 217.91 115.834 215.259 114.93 222.611C114.026 230.023 116.317 253.766 117.221 262.324C118.126 270.881 119.694 281.367 108.84 284.079C98.0462 286.79 58.6106 278.534 48.2995 283.054C37.9884 287.574 34.3101 282.693 35.1543 274.678C35.9985 266.663 38.109 230.023 38.109 230.023L30.8731 254.188L11.1553 252.019C11.1553 252.019 15.4968 199.168 41.6666 189.044C67.8364 178.92 79.3535 178.498 98.9507 180.125C118.548 181.933 132.176 186.573 141.1 184.283Z" fill="#E5A678"/>
<path d="M68.8012 138.604C67.2334 141.617 68.0173 145.354 70.7911 147.342C73.8663 149.512 77.3637 152.646 79.4138 156.683C83.5745 165.06 78.63 170.664 65.8466 169.82C53.1235 168.977 52.7014 170.965 41.1842 176.69C29.6671 182.415 24.7829 179.221 24.602 168.916C24.3608 158.612 35.5161 146.017 40.8224 144.088C41.3048 143.907 42.149 143.425 43.2344 142.642C47.6965 139.508 48.7216 136.314 50.7115 134.265C55.5957 129.203 67.7158 130.107 69.4645 134.205C69.8866 135.35 69.766 136.796 68.8012 138.604Z" fill="#071824"/>
<path d="M42.2696 133C45.6463 135.832 47.5759 141.015 45.7669 143.245C43.9579 145.474 39.0134 143.787 35.6367 140.955C32.2599 138.122 31.6569 135.23 33.5262 133.06C35.3352 130.891 38.8928 130.228 42.2696 133Z" fill="#071824"/>
<path d="M45.1036 156.442C45.7669 155.9 46.792 155.9 47.7567 156.261C47.9979 154.634 48.3597 153.188 48.3597 153.188C47.9979 146.197 60.6005 143.787 60.6005 143.787H61.0828C62.8918 146.137 64.2184 148.367 65.1832 150.356C65.4244 150.898 65.8465 151.38 66.3289 151.742L68.4393 153.248C69.1629 153.791 69.2835 154.815 68.6805 155.478L67.4745 156.924C70.2483 165.662 65.1229 166.566 65.1229 166.566C64.3993 166.747 63.6757 166.868 62.9521 166.988C64.7008 171.628 69.1026 180.065 78.6299 180.909C79.655 180.969 80.0771 182.235 79.2932 182.897C75.2531 186.332 65.3038 192.901 49.8672 189.828C48.7215 189.587 48.42 188.201 49.3245 187.477C52.3998 185.007 56.3192 178.86 51.7365 164.276C51.1938 163.915 50.7717 163.613 50.3496 163.312C49.0833 164.216 46.9729 163.553 45.5257 161.745C44.0182 159.757 43.8373 157.467 45.1036 156.442Z" fill="white"/>
<path d="M57.6457 191.455C55.1735 191.455 52.5203 191.214 49.6259 190.671C48.7817 190.491 48.1185 189.888 47.8773 189.044C47.6964 188.201 47.9376 187.297 48.6611 186.754C51.3746 184.585 55.1735 178.86 50.8922 164.819C50.651 164.638 50.4098 164.517 50.1686 164.337C48.4802 164.999 46.2492 164.156 44.7417 162.227C43.8975 161.203 43.4151 159.998 43.3548 158.853C43.2342 157.587 43.7166 156.502 44.5005 155.839C45.1638 155.297 46.0683 155.116 46.9728 155.237C47.1537 154.273 47.3346 153.489 47.3949 153.188C47.214 145.655 59.8165 143.124 60.3592 143.003C60.4195 143.003 60.4798 143.003 60.5401 143.003H61.0225C61.324 143.003 61.5652 143.124 61.7461 143.365C63.4947 145.655 64.8816 147.885 65.9067 150.054C66.0876 150.476 66.3891 150.838 66.7509 151.079L68.8613 152.585C69.404 153.007 69.7658 153.61 69.8261 154.273C69.8864 154.936 69.7055 155.598 69.2834 156.141L68.379 157.165C69.404 160.6 69.3437 163.312 68.1981 165.24C67.1127 166.988 65.4846 167.41 65.1831 167.47C64.8213 167.591 64.4595 167.651 64.0374 167.711C65.967 172.412 70.1879 179.282 78.5695 180.005C79.4137 180.065 80.1373 180.607 80.3785 181.451C80.6197 182.235 80.3785 183.078 79.7755 183.621C76.8208 186.152 69.2231 191.455 57.6457 191.455ZM50.2892 162.288C50.4701 162.288 50.7113 162.348 50.8319 162.468C51.254 162.77 51.6761 163.131 52.1585 163.433C52.3394 163.553 52.46 163.734 52.5203 163.915C57.2839 179.221 52.8821 185.609 49.8068 188.08C49.6259 188.261 49.6259 188.442 49.6259 188.562C49.6259 188.683 49.7465 188.803 49.9274 188.863C64.7007 191.816 74.228 185.911 78.6298 182.174C78.6901 182.174 78.7504 182.054 78.6901 181.933C78.6901 181.873 78.6298 181.752 78.4489 181.752C68.4996 180.909 63.8565 172.351 61.9873 167.289C61.8667 167.048 61.927 166.747 62.0476 166.506C62.1681 166.265 62.4093 166.084 62.7108 166.084C63.4344 166.024 64.0977 165.903 64.761 165.723H64.8213C64.8816 165.723 65.967 165.481 66.6303 164.276C67.5348 162.77 67.4745 160.359 66.4494 157.286C66.3288 156.984 66.3891 156.683 66.6303 156.442L67.8363 154.996C67.9569 154.875 68.0172 154.694 67.9569 154.514C67.9569 154.333 67.8363 154.212 67.7157 154.092L65.6052 152.585C65.0022 152.163 64.5198 151.561 64.2183 150.898C63.2535 148.969 61.9873 146.921 60.4798 144.872C59.2135 145.173 48.842 147.583 49.0832 153.308C49.0832 153.429 49.0832 153.489 49.0832 153.549C49.0832 153.549 48.7214 154.936 48.4803 156.502C48.42 156.743 48.2994 156.984 48.0582 157.165C47.817 157.286 47.5155 157.346 47.2743 157.225C46.5507 156.924 45.9477 156.984 45.5256 157.286C45.0432 157.647 44.9829 158.37 45.0432 158.792C45.1035 159.576 45.4653 160.419 46.0683 161.203C47.2743 162.709 48.9023 163.191 49.6862 162.589C49.9274 162.348 50.1083 162.288 50.2892 162.288Z" fill="#071824"/>
<path d="M61.0225 168.013C56.8619 168.013 55.1132 165.843 55.0529 165.783C54.7514 165.421 54.8117 164.819 55.1735 164.517C55.5353 164.216 56.1383 164.276 56.4398 164.638C56.5001 164.758 58.309 166.747 62.8315 166.084C63.3139 166.024 63.7963 166.325 63.8566 166.868C63.9169 167.35 63.6154 167.832 63.0727 167.892C62.2888 167.952 61.6255 168.013 61.0225 168.013Z" fill="#071824"/>
<path d="M83.2734 452.151L82.6704 475.352L74.4697 476.256L70.4297 451.247L83.2734 452.151Z" fill="white"/>
<path d="M74.4695 477.16C74.0474 477.16 73.6253 476.859 73.565 476.377L69.525 451.368C69.4647 451.067 69.5853 450.826 69.7662 450.585C69.9471 450.404 70.2486 450.283 70.4897 450.283L83.3938 451.187C83.8761 451.247 84.2379 451.609 84.2379 452.091L83.6349 475.292C83.6349 475.774 83.2732 476.136 82.8511 476.196L74.6504 477.1C74.5298 477.16 74.4695 477.16 74.4695 477.16ZM71.4545 452.212L75.1931 475.232L81.7657 474.509L82.3687 452.935L71.4545 452.212Z" fill="#071824"/>
<path d="M129.824 459.744L131.15 478.245L120.297 479.149L116.438 459.744H129.824Z" fill="white"/>
<path d="M120.296 480.053C119.874 480.053 119.513 479.752 119.392 479.33L115.533 459.925C115.473 459.684 115.533 459.383 115.714 459.202C115.895 459.021 116.136 458.901 116.437 458.901H129.824C130.306 458.901 130.668 459.262 130.728 459.745L132.055 478.245C132.115 478.727 131.693 479.149 131.211 479.209L120.357 480.113C120.357 480.053 120.357 480.053 120.296 480.053ZM117.523 460.648L121.02 478.125L130.186 477.401L128.98 460.648H117.523Z" fill="#071824"/>
<path d="M117.403 487.104C116.679 486.622 116.197 485.778 116.197 484.874C116.136 482.162 116.136 476.377 117.222 474.208C118.669 471.315 124.638 475.352 124.638 475.352C124.638 475.352 128.136 470.471 130.186 469.447C131.271 468.904 137.482 473.063 143.753 478.727C150.627 484.934 153.703 486.863 155.21 492.226C155.934 494.757 154.064 497.228 151.472 497.409C145.14 497.83 132.417 497.107 117.403 487.104Z" fill="white"/>
<path d="M148.698 498.373C141.703 498.373 130.186 496.625 116.92 487.827C115.955 487.164 115.292 486.079 115.292 484.874C115.232 481.74 115.232 476.076 116.377 473.786C116.739 473.063 117.342 472.58 118.126 472.339C120.116 471.797 123.01 473.304 124.397 474.087C125.482 472.641 128.015 469.507 129.764 468.603C132.417 467.277 144.235 477.884 144.356 478.004C145.441 478.968 146.406 479.872 147.311 480.656C152.255 484.995 154.727 487.164 156.054 491.925C156.476 493.371 156.175 494.878 155.33 496.143C154.426 497.409 153.039 498.192 151.532 498.313C150.687 498.373 149.783 498.373 148.698 498.373ZM119.091 474.087C118.91 474.087 118.729 474.087 118.608 474.147C118.307 474.208 118.126 474.388 118.005 474.629C117.282 476.015 116.98 479.872 117.101 484.874C117.101 485.477 117.402 486.079 117.945 486.381C132.779 496.203 145.321 496.987 151.471 496.505C152.436 496.445 153.341 495.902 153.944 495.119C154.486 494.335 154.667 493.371 154.426 492.467C153.28 488.249 151.049 486.32 146.225 482.042C145.321 481.258 144.296 480.354 143.21 479.39C136.758 473.545 131.633 470.471 130.548 470.351C128.98 471.194 126.327 474.629 125.422 475.895C125.121 476.317 124.578 476.377 124.156 476.136C122.89 475.232 120.538 474.087 119.091 474.087Z" fill="#071824"/>
<path d="M145.562 493.431C138.99 493.431 128.377 491.804 117.885 483.488C117.523 483.187 117.403 482.584 117.764 482.223C118.066 481.861 118.669 481.74 119.031 482.102C135.01 494.817 151.652 491.141 151.833 491.081C152.316 490.961 152.798 491.262 152.919 491.744C153.039 492.226 152.738 492.708 152.255 492.829C151.954 492.889 149.482 493.431 145.562 493.431Z" fill="#071824"/>
<path d="M86.5295 481.017L86.4089 468.302C86.4089 468.302 83.8763 464.445 80.379 467.579C80.379 467.579 77.1228 463.059 71.1532 468.724C71.1532 468.724 62.7114 484.452 58.9728 493.793C57.9477 496.324 59.7567 499.036 62.4702 499.096C66.3293 499.156 71.3341 498.975 73.5652 497.529C77.0023 495.239 82.791 487.947 85.3838 484.693C86.1074 483.609 86.5295 482.343 86.5295 481.017Z" fill="white"/>
<path d="M63.9775 500C63.4951 500 62.9524 500 62.4097 500C60.842 499.94 59.4551 499.217 58.5506 497.891C57.7064 496.565 57.5255 494.938 58.1285 493.492C61.867 484.211 70.2486 468.483 70.3692 468.302C70.4295 468.242 70.4898 468.121 70.5501 468.061C72.9018 465.831 75.1931 464.807 77.3639 464.987C78.8111 465.108 79.8362 465.831 80.4995 466.373C81.5245 465.65 82.6099 465.349 83.6953 465.469C85.8661 465.771 87.1927 467.699 87.253 467.82C87.3736 467.94 87.3736 468.121 87.3736 468.302L87.4942 481.017C87.4942 482.524 87.0118 484.03 86.047 485.236C83.032 489.092 77.4845 495.962 74.0475 498.252C72.2988 499.397 68.922 500 63.9775 500ZM71.8767 469.266C71.0325 470.773 63.3142 485.356 59.8169 494.155C59.4551 495.058 59.5757 496.083 60.1184 496.927C60.6611 497.77 61.5052 498.252 62.5303 498.252C67.7764 498.373 71.5149 497.891 73.0827 496.806C76.3991 494.576 82.3084 487.224 84.6601 484.151C85.3234 483.247 85.6852 482.162 85.6852 481.077L85.5646 468.663C85.2631 468.302 84.4792 467.458 83.4541 467.338C82.6702 467.217 81.8863 467.579 81.0421 468.302C80.8612 468.483 80.6201 468.543 80.3186 468.543C80.0774 468.543 79.8362 468.362 79.6553 468.181C79.595 468.121 78.7508 466.976 77.183 466.855C75.5549 466.614 73.8063 467.458 71.8767 469.266Z" fill="#071824"/>
<path d="M80.3786 475.353C79.8962 475.353 79.4741 474.931 79.4741 474.449V467.579C79.4741 467.097 79.8962 466.675 80.3786 466.675C80.861 466.675 81.2831 467.097 81.2831 467.579V474.449C81.2831 474.931 80.861 475.353 80.3786 475.353Z" fill="#071824"/>
<path d="M133.14 460.829C133.14 460.829 136.216 414.126 131.151 372.183C126.085 330.18 107.212 270.218 107.212 270.218C107.212 270.218 86.891 269.314 72.1177 271.303C57.3444 273.292 51.4954 271.243 51.4954 271.243C51.4954 271.243 40.4004 283.838 41.3049 307.581C42.2094 331.325 67.9571 431.481 66.9923 454.984C66.9923 454.984 75.6754 459.323 86.891 457.153L82.248 322.165C82.248 322.165 91.8958 349.946 96.3579 368.989C100.036 384.537 106.428 394.54 106.428 394.54C106.428 394.54 106.187 430.638 114.448 460.588C114.448 460.648 124.216 463.722 133.14 460.829Z" fill="#071824"/>
<path d="M116.92 410.992C116.618 410.992 116.377 410.871 116.196 410.57L109.081 400.265C108.78 399.843 108.9 399.301 109.322 399C109.744 398.698 110.287 398.819 110.589 399.241L117.704 409.546C118.005 409.967 117.885 410.51 117.463 410.811C117.221 410.932 117.041 410.992 116.92 410.992Z" fill="white"/>
<path d="M69.163 385.923C66.6305 385.923 63.4346 385.44 60.7814 383.452C60.3593 383.15 60.299 382.608 60.6005 382.186C60.902 381.764 61.4447 381.704 61.8668 382.006C66.3893 385.32 72.9016 383.693 72.9619 383.693C73.4442 383.572 73.9266 383.874 74.0472 384.356C74.1678 384.838 73.8663 385.32 73.3839 385.44C73.3236 385.501 71.575 385.923 69.163 385.923Z" fill="white"/>
<path d="M51.2542 278.655H105.222L81.4037 220.019H27.436L51.2542 278.655Z" fill="white"/>
<path d="M105.222 279.559H51.2539C50.8921 279.559 50.5304 279.318 50.4098 279.016L26.5916 220.381C26.471 220.08 26.5313 219.778 26.6519 219.537C26.8328 219.296 27.074 219.115 27.3755 219.115H81.4035C81.7653 219.115 82.1271 219.356 82.2477 219.658L106.066 278.293C106.186 278.595 106.126 278.896 106.006 279.137C105.825 279.438 105.523 279.559 105.222 279.559ZM51.8569 277.751H103.895L80.8005 220.923H28.7624L51.8569 277.751Z" fill="#071824"/>
<path d="M71.6352 260.215C71.6352 260.215 81.0418 254.731 85.3231 253.525C89.6043 252.32 86.3482 255.936 83.2729 257.442C80.1977 258.889 80.0771 260.877 80.0771 260.877C80.0771 260.877 96.9005 260.335 98.7698 260.215C100.639 260.094 97.805 262.746 92.8002 263.589C92.8002 263.589 91.4133 267.868 87.735 269.857C84.1171 271.905 72.2382 269.857 72.2382 269.857C72.2382 269.857 58.3091 275.702 35.1542 274.738C19.8383 274.135 12.3612 261.842 13.326 253.104L28.0389 254.49C28.0992 254.429 34.2498 268.229 71.6352 260.215Z" fill="white"/>
<path d="M40.2194 275.762C38.5914 275.762 36.903 275.702 35.2146 275.642C28.039 275.34 21.7679 272.448 17.547 267.506C13.8687 263.228 11.9995 257.804 12.5422 252.983C12.6025 252.501 13.0246 252.139 13.5069 252.2L28.2199 253.586C28.5214 253.646 28.8229 253.827 28.9435 254.128C29.0038 254.249 35.3955 267.084 71.2735 259.371C72.4795 258.708 80.9213 253.827 85.0217 252.682C85.685 252.501 87.6145 251.959 88.1572 253.284C88.8205 255.092 85.082 257.563 83.6348 258.286C82.4891 258.828 81.8258 259.431 81.464 259.913C85.5644 259.793 97.2021 259.371 98.7095 259.311C100.096 259.25 100.217 260.215 100.217 260.335C100.398 261.902 96.9006 263.649 93.4032 264.373C92.8605 265.638 91.2928 268.892 88.1572 270.64C84.5393 272.689 74.409 271.122 72.2986 270.76C70.5499 271.484 58.9122 275.762 40.2194 275.762ZM14.2305 254.068C14.0496 258.166 15.738 262.685 18.8736 266.361C22.793 270.941 28.642 273.593 35.2749 273.834C57.8871 274.738 71.8162 269.073 71.9368 269.013C72.1177 268.953 72.2986 268.953 72.4192 268.953C75.615 269.495 84.5393 270.58 87.313 269.073C90.6295 267.265 91.9561 263.348 91.9561 263.288C92.0767 262.987 92.3178 262.746 92.6796 262.685C94.6695 262.324 96.2373 261.721 97.2624 261.179C92.6796 261.36 80.6801 261.721 80.1374 261.781C79.8962 261.781 79.655 261.721 79.4741 261.54C79.2933 261.36 79.2329 261.118 79.2329 260.877C79.2329 260.636 79.4741 258.346 82.9112 256.719C84.2981 256.056 85.5041 255.032 86.107 254.369C85.9865 254.369 85.8055 254.429 85.5643 254.49C81.464 255.635 72.178 260.998 72.1177 261.058C72.0574 261.118 71.9368 261.118 71.8765 261.179C37.7472 268.531 29.1244 257.925 27.6169 255.393L14.2305 254.068Z" fill="#071824"/>
</g>
<defs>
<clipPath id="clip0_148_402">
<rect width="500" height="500" fill="white"/>
</clipPath>
</defs>
</svg>
