<svg width="500" height="500" viewBox="0 0 500 500" fill="none" xmlns="http://www.w3.org/2000/svg">
<path d="M181.709 29.0454C154.018 39.6455 35.8955 85.1 6.87761 194.574C-26.2426 319.439 72.756 466.403 209.58 493.472C351.533 521.559 511.824 455.504 499.276 353.216C493.545 306.564 429.658 292.43 432.614 237.454C435.509 183.794 503.439 157.504 496.32 93.6639C495.898 89.6514 494.45 77.6141 488.357 65.6366C453.909 -2.63505 298.021 -15.6905 181.709 29.0454Z" fill="#78B7E5"/>
<path d="M92.4826 483.591H378.137C385.979 483.591 392.253 477.123 392.193 469.158L387.005 65.0976C386.643 54.258 381.455 48.0896 372.586 48.0896L86.9324 49.3472C79.874 49.3472 73.9016 54.5574 72.876 61.684L78.0642 469.218C78.1849 477.123 84.64 483.591 92.4826 483.591Z" fill="#A3CEED"/>
<path d="M102.497 477.782H388.211C396.054 477.782 402.328 471.434 402.207 463.529L396.416 65.1575C396.054 54.4975 390.805 48.4489 381.937 48.4489H96.283C89.2246 48.4489 83.2521 53.5992 82.2266 60.6061L88.0181 463.588C88.1387 471.434 94.5938 477.782 102.497 477.782Z" fill="white"/>
<path d="M231.962 479.279C231.479 479.279 231.057 478.86 231.057 478.381C231.057 477.901 231.419 477.482 231.962 477.482L306.165 476.285C306.648 476.285 307.07 476.704 307.07 477.183C307.07 477.662 306.708 478.081 306.165 478.081L231.962 479.279Z" fill="#071824"/>
<path d="M84.399 211.882C83.9164 211.882 83.4941 211.462 83.4941 210.983L81.3223 60.6061C81.3223 60.5462 81.3223 60.4863 81.3223 60.4863C82.4082 53.0004 88.6823 47.5506 96.2837 47.5506H165.299C165.782 47.5506 166.204 47.9698 166.204 48.4489C166.204 48.928 165.782 49.3472 165.299 49.3472H96.2837C89.6476 49.3472 84.1577 54.0783 83.1321 60.6659L85.3039 210.983C85.3039 211.462 84.8816 211.882 84.399 211.882Z" fill="#071824"/>
<path d="M178.51 82.1655H309.724C313.646 82.1655 316.722 78.9915 316.662 75.1587L316.24 45.9935C316.179 42.1008 312.982 38.9867 309.061 38.9867H177.847C173.925 38.9867 170.849 42.1607 170.909 45.9935L171.331 75.1587C171.392 78.9915 174.589 82.1655 178.51 82.1655Z" fill="#A3CEED"/>
<path d="M242.398 0.898315C228.643 0.898315 217.724 12.0374 217.905 25.8115L218.448 63.1213C218.508 66.475 221.223 69.17 224.601 69.17H262.125C265.503 69.17 268.158 66.475 268.098 63.1213L267.555 25.8115C267.374 12.0374 256.153 0.898315 242.398 0.898315ZM244.268 34.9743C237.692 35.8127 232.021 30.2431 232.745 23.6555C233.228 19.164 236.848 15.5108 241.312 14.912C247.888 14.0735 253.558 19.6431 252.835 26.2307C252.352 30.7821 248.793 34.4353 244.268 34.9743Z" fill="#A3CEED"/>
<path d="M268.761 39.8251C268.279 39.8251 267.856 39.4059 267.856 38.9268C267.856 38.4477 268.279 38.0285 268.761 38.0285L307.492 37.9087C307.975 37.9087 308.397 38.3279 308.397 38.807C308.397 39.2861 307.975 39.7053 307.492 39.7053L268.761 39.8251Z" fill="#071824"/>
<path d="M178.51 83.0639C174.106 83.0639 170.487 79.5305 170.426 75.1587L170.004 45.9935C169.944 43.8975 170.788 41.8613 172.296 40.3641C173.805 38.8669 175.796 38.0285 177.907 38.0285L217.603 37.9686C218.086 37.9686 218.508 38.3878 218.508 38.8669C218.508 39.346 218.086 39.7653 217.603 39.7653L177.907 39.8251C176.278 39.8251 174.71 40.4839 173.563 41.6218C172.417 42.7596 171.814 44.3167 171.814 45.9337L172.236 75.0988C172.296 78.5124 175.072 81.2672 178.51 81.2672L287.161 80.7282C287.644 80.7282 288.066 81.1475 288.066 81.6266C288.066 82.1057 287.644 82.5249 287.161 82.5249L178.51 83.0639Z" fill="#071824"/>
<path d="M262.125 70.0683H224.601C220.74 70.0683 217.603 66.9541 217.543 63.1213L217 25.8115C216.879 18.8645 219.534 12.3368 224.36 7.48593C229.126 2.69493 235.521 0 242.398 0C256.575 0 268.279 11.5583 268.46 25.8115L269.003 63.1213C269.003 64.9778 268.339 66.7745 267.012 68.092C265.745 69.3496 263.996 70.0683 262.125 70.0683ZM242.398 1.79662C236.064 1.79662 230.091 4.25201 225.687 8.74356C221.163 13.295 218.75 19.3436 218.87 25.8115L219.413 63.1213C219.473 65.9959 221.826 68.3315 224.662 68.3315H262.186C263.573 68.3315 264.84 67.7925 265.806 66.8344C266.771 65.8762 267.314 64.5586 267.253 63.1812L266.65 25.8115C266.469 12.5764 255.61 1.79662 242.398 1.79662ZM242.941 35.9923C240.045 35.9923 237.27 34.8545 235.159 32.8183C232.685 30.4228 231.479 27.0092 231.841 23.5956C232.384 18.6849 236.305 14.7323 241.192 14.0735C244.57 13.6543 247.948 14.7922 250.422 17.1877C252.895 19.5832 254.102 22.9968 253.74 26.4103C253.197 31.3211 249.276 35.2737 244.389 35.9324C243.906 35.9324 243.424 35.9923 242.941 35.9923ZM242.64 15.7504C242.217 15.7504 241.855 15.7504 241.433 15.8103C237.391 16.3493 234.073 19.6431 233.651 23.7154C233.349 26.59 234.314 29.4646 236.426 31.5008C238.477 33.5369 241.312 34.4353 244.148 34.0759C248.19 33.5369 251.508 30.2431 251.93 26.1708C252.232 23.2962 251.266 20.4216 249.155 18.3854C247.405 16.7086 245.113 15.7504 242.64 15.7504Z" fill="#071824"/>
<path d="M288.73 347.646H130.187C125.422 347.646 121.44 343.754 121.259 339.023L116.976 213.02C116.976 212.54 117.338 212.121 117.82 212.121C118.303 212.121 118.725 212.481 118.725 212.96L123.069 338.963C123.189 342.736 126.387 345.85 130.187 345.85H288.73C289.213 345.85 289.635 346.269 289.635 346.748C289.635 347.227 289.213 347.646 288.73 347.646Z" fill="#A3CEED"/>
<path d="M332.89 347.646H314.068C313.585 347.646 313.163 347.227 313.163 346.748C313.163 346.269 313.585 345.85 314.068 345.85H332.89C333.373 345.85 333.795 346.269 333.795 346.748C333.795 347.227 333.433 347.646 332.89 347.646Z" fill="#A3CEED"/>
<path d="M369.148 347.646C368.665 347.646 368.243 347.287 368.243 346.808L363.296 201.401C363.296 200.922 363.658 200.503 364.14 200.503C364.623 200.443 365.045 200.862 365.045 201.341L369.992 346.748C370.113 347.227 369.691 347.646 369.148 347.646C369.208 347.646 369.208 347.646 369.148 347.646Z" fill="#A3CEED"/>
<path d="M129.342 202.24C128.86 202.24 128.438 201.821 128.438 201.342C128.438 200.862 128.86 200.443 129.342 200.443L287.161 200.323C287.644 200.323 288.066 200.743 288.066 201.222C288.066 201.701 287.644 202.12 287.161 202.12L129.342 202.24Z" fill="#A3CEED"/>
<path d="M224.48 103.965C223.997 103.965 223.575 103.545 223.575 103.066C223.575 102.587 223.997 102.168 224.48 102.168L382.299 102.048C382.781 102.048 383.204 102.467 383.204 102.946C383.204 103.426 382.781 103.845 382.299 103.845L224.48 103.965Z" fill="#A3CEED"/>
<path d="M230.151 174.931C229.668 174.931 229.246 174.512 229.246 174.033C229.246 173.554 229.668 173.135 230.151 173.135L387.97 173.015C388.452 173.015 388.874 173.434 388.874 173.913C388.874 174.392 388.452 174.811 387.97 174.811L230.151 174.931Z" fill="#A3CEED"/>
<path d="M232.564 377.949C232.081 377.949 231.659 377.53 231.659 377.051C231.659 376.572 232.081 376.153 232.564 376.153L390.383 376.033C390.865 376.033 391.288 376.452 391.288 376.931C391.288 377.41 390.865 377.83 390.383 377.83L232.564 377.949Z" fill="#A3CEED"/>
<path d="M365.467 238.651H213.742C213.259 238.651 212.837 238.232 212.837 237.753C212.837 237.274 213.259 236.855 213.742 236.855H365.467C365.95 236.855 366.372 237.274 366.372 237.753C366.372 238.232 365.95 238.651 365.467 238.651Z" fill="#A3CEED"/>
<path d="M118.665 238.651C118.182 238.651 117.76 238.292 117.76 237.753C117.76 237.274 118.122 236.855 118.665 236.855L191.42 235.058C191.903 235.058 192.325 235.417 192.325 235.956C192.325 236.436 191.963 236.855 191.42 236.855L118.665 238.651C118.725 238.651 118.725 238.651 118.665 238.651Z" fill="#A3CEED"/>
<path d="M366.674 275.003H221.706C221.223 275.003 220.801 274.584 220.801 274.105C220.801 273.626 221.223 273.206 221.706 273.206H366.674C367.157 273.206 367.579 273.626 367.579 274.105C367.579 274.584 367.217 275.003 366.674 275.003Z" fill="#A3CEED"/>
<path d="M119.931 275.003C119.449 275.003 119.026 274.584 119.026 274.105C119.026 273.626 119.449 273.206 119.931 273.206L181.225 272.488C181.707 272.488 182.13 272.907 182.13 273.386C182.13 273.865 181.707 274.284 181.225 274.284L119.931 275.003Z" fill="#A3CEED"/>
<path d="M366.735 311.415H348.878C348.395 311.415 347.973 310.995 347.973 310.516C347.973 310.037 348.395 309.618 348.878 309.618H366.735C367.217 309.618 367.64 310.037 367.64 310.516C367.64 310.995 367.217 311.415 366.735 311.415Z" fill="#A3CEED"/>
<path d="M289.876 311.415H121.199C120.716 311.415 120.294 310.995 120.294 310.516C120.294 310.037 120.716 309.618 121.199 309.618H289.876C290.359 309.618 290.781 310.037 290.781 310.516C290.781 310.995 290.359 311.415 289.876 311.415Z" fill="#A3CEED"/>
<path d="M369.027 442.388L290.238 443.885C286.498 443.945 283.361 441.131 283.24 437.597C283.119 434.064 286.015 431.129 289.755 431.01L368.544 429.512C372.284 429.453 375.421 432.267 375.542 435.801C375.723 439.394 372.767 442.328 369.027 442.388Z" fill="#CDE5F5"/>
<path d="M207.286 399.09L130.971 399.569C127.774 399.569 125.119 396.994 125.059 393.82C124.938 390.646 127.412 388.01 130.609 388.01L206.924 387.531C210.122 387.531 212.776 390.107 212.836 393.281C212.957 396.455 210.484 399.09 207.286 399.09Z" fill="#CDE5F5"/>
<path d="M217.542 423.045L129.946 423.584C126.748 423.584 124.094 421.008 124.034 417.834C123.913 414.66 126.386 412.025 129.584 412.025L217.18 411.486C220.378 411.486 223.032 414.062 223.092 417.236C223.213 420.41 220.74 423.045 217.542 423.045Z" fill="#CDE5F5"/>
<path d="M197.333 447L130.61 447.419C127.412 447.419 124.758 444.844 124.698 441.67C124.577 438.496 127.05 435.861 130.248 435.861L196.971 435.441C200.168 435.441 202.823 438.017 202.883 441.191C202.943 444.365 200.47 447 197.333 447Z" fill="#CDE5F5"/>
<path d="M156.49 154.09H135.255C134.772 154.09 134.35 153.671 134.35 153.192C134.35 152.713 134.772 152.294 135.255 152.294H156.49C157.878 152.294 159.205 151.755 160.171 150.737C161.136 149.719 161.679 148.341 161.618 146.904L160.11 102.288C159.99 99.2933 157.516 96.8379 154.56 96.8379H122.526C121.138 96.8379 119.811 97.3769 118.846 98.395C117.88 99.4131 117.337 100.791 117.398 102.228L118.242 127.92C118.242 128.399 117.88 128.818 117.398 128.818C116.915 128.818 116.493 128.458 116.493 127.979L115.648 102.288C115.588 100.371 116.252 98.5148 117.639 97.1374C118.966 95.8199 120.716 95.0413 122.646 95.0413H154.681C158.602 95.0413 161.92 98.2752 162.041 102.228L163.549 146.844C163.609 148.76 162.946 150.617 161.558 151.994C160.171 153.372 158.421 154.09 156.49 154.09Z" fill="#A3CEED"/>
<path d="M71.489 497.964C76.3152 493.951 108.108 467.122 112.995 443.826C113.658 440.592 114.744 435.561 112.753 429.992C108.772 418.853 97.7317 419.99 94.293 411.606C89.7684 400.467 106.479 392.502 108.108 368.547C108.53 362.798 109.134 353.875 103.765 346.209C97.7317 337.705 90.432 339.562 84.0372 332.016C76.0136 322.614 82.4084 313.81 78.1251 299.138C73.6005 283.687 58.3374 265.182 39.4547 265.062C22.9851 264.942 10.1352 278.836 4.58502 290.095C-3.61961 306.803 0.241394 326.267 8.56668 338.843C20.5117 356.929 41.2042 359.923 39.9373 367.589C38.7308 374.656 20.753 372.38 15.3234 383.938C11.5228 392.023 15.2028 403.941 22.1405 410.349C31.793 419.212 43.4967 413.523 48.2023 420.709C53.1492 428.255 42.5315 438.076 41.5059 451.671C40.5406 462.81 46.0305 478.201 71.489 497.964Z" fill="#005D95"/>
<path d="M74.3241 494.73C74.2637 494.73 74.1431 494.73 74.0827 494.67C73.6001 494.55 73.3588 494.011 73.4795 493.532C89.0441 443.167 78.6677 395.317 67.2657 364.056C54.8984 330.159 38.6098 307.881 38.4288 307.642C38.1271 307.222 38.2478 306.683 38.6098 306.384C39.0321 306.085 39.575 306.204 39.8766 306.564C40.0576 306.803 56.4669 329.261 68.9548 363.397C76.3149 383.459 80.8395 403.581 82.5287 423.224C84.6402 447.778 82.1667 471.613 75.229 494.011C75.048 494.49 74.686 494.73 74.3241 494.73Z" fill="#CDE5F5"/>
<path d="M74.6265 494.43C128.56 444.844 136.704 416.517 132.542 399.329C131.335 394.179 127.595 384.058 128.862 369.745C130.551 351.24 138.997 343.814 144.306 330.159C154.742 303.45 146.477 270.032 130.37 248.712C119.149 233.8 94.4744 212.121 70.8258 218.35C60.8113 220.985 48.263 229.309 47.9011 239.071C47.4184 253.024 73.7819 256.618 78.0048 277.518C80.2973 288.897 73.1786 291.113 75.7124 303.21C79.694 322.254 99.3007 325.668 98.3354 337.525C97.3702 349.024 78.5478 348.724 75.1694 362.558C71.3687 378.369 92.2423 389.687 86.9937 404.24C83.8567 412.924 75.833 410.648 71.1274 420.23C65.3962 431.908 74.2042 441.61 76.6173 463.648C77.9445 476.165 76.195 486.585 74.6265 494.43Z" fill="#005D95"/>
<path d="M78.0652 489.34C77.9445 489.34 77.7636 489.28 77.6429 489.22C77.2206 488.981 77.0396 488.442 77.2809 488.022C103.946 437.418 119.692 378.369 119.45 329.98C119.269 296.622 111.487 272.667 104.911 258.414C97.7925 242.963 90.6738 235.298 90.6135 235.238C90.2515 234.878 90.3118 234.28 90.6738 233.98C91.0358 233.621 91.639 233.681 91.9407 234.04C92.2423 234.339 99.3007 241.945 106.54 257.576C113.176 272.009 121.14 296.263 121.26 329.98C121.381 351.898 118.002 377.171 111.547 403.102C104.127 432.926 93.1472 461.792 78.8495 488.861C78.7288 489.22 78.3668 489.34 78.0652 489.34Z" fill="#CDE5F5"/>
<path d="M479.549 105.462C479.127 105.462 478.765 105.162 478.644 104.743L477.618 100.192C477.498 99.7125 477.799 99.2334 478.282 99.1137C478.765 98.9939 479.247 99.2933 479.368 99.7724L480.393 104.324C480.514 104.803 480.212 105.282 479.73 105.402C479.67 105.462 479.609 105.462 479.549 105.462Z" fill="#071824"/>
<path d="M481.962 116.062C481.54 116.062 481.178 115.762 481.057 115.343L480.031 110.792C479.911 110.313 480.212 109.834 480.695 109.714C481.178 109.594 481.66 109.893 481.781 110.372L482.807 114.924C482.927 115.403 482.626 115.882 482.143 116.002C482.083 116.062 482.022 116.062 481.962 116.062Z" fill="#071824"/>
<path d="M472.611 110.193C472.189 110.193 471.827 109.893 471.706 109.474C471.586 108.995 471.887 108.516 472.37 108.396L476.955 107.378C477.437 107.258 477.92 107.558 478.041 108.037C478.161 108.516 477.86 108.995 477.377 109.115L472.792 110.133C472.792 110.193 472.732 110.193 472.611 110.193Z" fill="#071824"/>
<path d="M483.289 107.797C482.867 107.797 482.505 107.498 482.384 107.079C482.263 106.6 482.565 106.121 483.048 106.001L487.633 104.983C488.115 104.863 488.598 105.162 488.718 105.641C488.839 106.121 488.538 106.6 488.055 106.719L483.47 107.737C483.41 107.797 483.349 107.797 483.289 107.797Z" fill="#071824"/>
<path d="M472.732 132.291C472.068 132.291 471.465 132.172 470.801 131.932C469.474 131.393 468.388 130.375 467.785 129.057C466.578 126.303 467.845 123.129 470.56 121.931C471.887 121.332 473.335 121.332 474.662 121.811C475.989 122.35 477.075 123.368 477.679 124.686C478.885 127.44 477.618 130.614 474.903 131.812C474.24 132.112 473.456 132.291 472.732 132.291ZM472.732 123.188C472.249 123.188 471.766 123.308 471.284 123.488C469.474 124.266 468.629 126.422 469.474 128.279C469.836 129.177 470.56 129.836 471.465 130.195C472.37 130.555 473.275 130.495 474.179 130.135C475.989 129.357 476.834 127.201 475.989 125.344C475.627 124.446 474.903 123.787 473.999 123.428C473.576 123.308 473.154 123.188 472.732 123.188Z" fill="#071824"/>
<path d="M8.26527 240.029H8.20495C7.72232 239.969 7.36035 239.55 7.36035 239.071C8.98921 215.954 14.6601 192.957 24.1919 170.679C33.6634 148.521 46.7547 127.68 63.0433 108.636C63.3449 108.276 63.9482 108.217 64.3102 108.516C64.6721 108.815 64.7325 109.414 64.4308 109.774C31.9743 147.622 12.3676 193.556 9.1702 239.13C9.1702 239.669 8.7479 240.029 8.26527 240.029Z" fill="#071824"/>
<path d="M20.4518 235.298H20.3915C19.9088 235.238 19.5469 234.819 19.5469 234.339C22.322 200.563 34.4479 166.786 54.4769 136.543C54.7785 136.124 55.3215 136.004 55.7438 136.304C56.1661 136.603 56.2867 137.142 55.9851 137.561C36.0768 167.565 24.1318 201.042 21.3567 234.519C21.2964 234.938 20.8741 235.298 20.4518 235.298Z" fill="#071824"/>
<path d="M7.90323 253.084C7.36028 253.084 6.81732 252.964 6.27437 252.785C3.9819 251.886 2.83566 249.251 3.74059 246.976C4.64551 244.7 7.29995 243.562 9.59242 244.46C11.8849 245.359 13.0311 247.994 12.1262 250.269C11.3419 252.006 9.65275 253.084 7.90323 253.084ZM5.42978 247.634C4.88682 249.012 5.55043 250.569 6.93798 251.108C8.32553 251.647 9.89406 250.988 10.437 249.611C10.98 248.233 10.3164 246.676 8.92881 246.137C7.54126 245.598 5.97273 246.257 5.42978 247.634Z" fill="#071824"/>
<path d="M211.692 498.623H69.1966C65.9388 498.623 63.3447 495.988 63.3447 492.814V339.621C63.3447 306.384 90.4924 279.435 123.975 279.435H145.21C181.95 279.435 211.692 309.019 211.692 345.431V498.623Z" fill="#071824"/>
<path d="M218.147 498.623H84.2188C80.6594 498.623 77.7637 495.748 77.7637 492.215V339.621C77.7637 306.384 104.911 279.435 138.393 279.435H159.629C196.369 279.435 226.111 309.019 226.111 345.431V490.598C226.171 495.029 222.612 498.623 218.147 498.623Z" fill="#CDE5F5"/>
<path d="M218.147 499.521H84.2184C80.1765 499.521 76.8584 496.227 76.8584 492.215V339.621C76.8584 305.965 104.489 278.536 138.393 278.536H159.629C196.791 278.536 227.015 308.54 227.015 345.431V490.598C227.076 495.508 223.094 499.521 218.147 499.521ZM138.393 280.333C105.454 280.333 78.6682 306.923 78.6682 339.621V492.215C78.6682 495.269 81.1417 497.724 84.2184 497.724H218.147C222.068 497.724 225.266 494.55 225.266 490.658V345.431C225.266 309.498 195.826 280.333 159.689 280.333H138.393Z" fill="#071824"/>
<path d="M208.615 462.331H99.8438V474.608H208.615V462.331Z" fill="#A3CEED"/>
<path d="M208.615 442.807H99.8438V455.084H208.615V442.807Z" fill="#A3CEED"/>
<path d="M196.61 399.269H112.15V411.546H196.61V399.269Z" fill="#A3CEED"/>
<path d="M128.5 349.742H122.648V362.678H115.288V327.285H128.56C132.783 327.285 136.041 328.243 138.333 330.099C140.626 331.956 141.772 334.591 141.772 338.005C141.772 340.4 141.229 342.436 140.204 344.053C139.178 345.67 137.549 346.928 135.438 347.886L143.16 362.379V362.738H135.257L128.5 349.742ZM122.648 343.873H128.56C130.43 343.873 131.818 343.394 132.844 342.496C133.869 341.538 134.352 340.28 134.352 338.663C134.352 336.986 133.869 335.669 132.904 334.711C131.939 333.753 130.491 333.273 128.5 333.273H122.588V343.873H122.648Z" fill="#A3CEED"/>
<path d="M156.975 362.738H149.615V327.345H156.975V362.738Z" fill="#A3CEED"/>
<path d="M173.505 350.281V362.738H166.145V327.345H180.08C182.735 327.345 185.088 327.824 187.139 328.782C189.19 329.74 190.758 331.117 191.844 332.914C192.93 334.711 193.473 336.747 193.473 339.023C193.473 342.496 192.267 345.251 189.914 347.227C187.501 349.203 184.183 350.222 179.96 350.222H173.505V350.281ZM173.505 344.353H180.08C182.011 344.353 183.519 343.873 184.545 342.975C185.57 342.077 186.053 340.759 186.053 339.082C186.053 337.346 185.51 335.968 184.484 334.89C183.459 333.812 182.011 333.273 180.201 333.214H173.444V344.353H173.505Z" fill="#A3CEED"/>
<path d="M328.367 117.739L335.908 174.153C338.803 195.952 350.809 215.595 368.907 228.231L386.463 240.448C390.927 243.562 396.96 243.442 401.243 240.089L416.627 228.231C433.157 215.535 443.895 196.79 446.61 176.249L454.272 117.799C455.056 111.87 451.315 106.36 445.524 104.803L407.336 94.6221C396.176 91.6277 384.472 91.6876 373.371 94.7419L337.114 104.743C331.262 106.3 327.582 111.87 328.367 117.739Z" fill="#E5A678"/>
<path d="M393.641 243.802C390.927 243.802 388.152 242.963 385.799 241.346L368.243 229.129C349.903 216.313 337.657 196.371 334.701 174.272L327.16 117.858C326.315 111.45 330.417 105.342 336.692 103.605L372.949 93.604C384.23 90.4899 396.236 90.43 407.517 93.4843L445.705 103.665C452.039 105.342 456.141 111.51 455.297 117.918L447.635 176.368C444.86 197.389 434.061 216.134 417.23 229.129L401.846 240.987C399.493 242.903 396.537 243.802 393.641 243.802ZM390.565 93.5441C384.894 93.5441 379.163 94.3227 373.612 95.8199L337.355 105.821C332.227 107.258 328.849 112.289 329.513 117.559L337.054 173.973C339.889 195.413 351.774 214.816 369.57 227.213L387.126 239.43C391.228 242.245 396.597 242.125 400.519 239.13L415.903 227.273C432.251 214.636 442.749 196.431 445.403 176.069L453.065 117.619C453.728 112.349 450.35 107.258 445.162 105.881L406.974 95.7001C401.605 94.2628 396.055 93.5441 390.565 93.5441Z" fill="#071824"/>
<path d="M427.324 165.413C429.917 146.269 416.387 128.663 397.102 126.088C377.817 123.513 360.081 136.945 357.487 156.089C354.894 175.233 368.424 192.839 387.709 195.414C406.994 197.989 424.73 184.557 427.324 165.413Z" fill="white"/>
<path d="M392.495 196.91C391.59 196.91 390.625 196.85 389.66 196.79C379.947 196.071 371.139 191.58 364.805 184.274C358.47 176.967 355.393 167.625 356.178 157.983C356.902 148.341 361.426 139.598 368.786 133.309C376.146 127.021 385.558 123.967 395.27 124.745C404.983 125.464 413.791 129.956 420.126 137.262C426.46 144.568 429.537 153.911 428.753 163.553C427.244 182.477 411.257 196.91 392.495 196.91ZM392.375 126.961C384.23 126.961 376.508 129.776 370.295 135.106C363.417 140.975 359.194 149.18 358.531 158.163C357.807 167.146 360.702 175.889 366.615 182.776C372.527 189.604 380.792 193.796 389.841 194.454C398.89 195.173 407.698 192.298 414.636 186.429C421.513 180.561 425.736 172.356 426.4 163.373C427.124 154.39 424.228 145.646 418.316 138.759C412.404 131.932 404.139 127.74 395.089 127.081C394.185 127.021 393.28 126.961 392.375 126.961Z" fill="#071824"/>
<path d="M410.473 137.142C404.622 148.521 398.106 166.008 391.47 185.651C391.229 186.37 390.203 186.489 389.841 185.771L373.311 153.611C373.07 153.192 373.673 152.773 374.035 153.072L387.549 165.229L409.81 136.663C410.051 136.304 410.654 136.723 410.473 137.142Z" fill="#78B7E5"/>
</svg>
