<svg width="18" height="136" viewBox="0 0 18 136" fill="none" xmlns="http://www.w3.org/2000/svg">
<path d="M8.29688 17.8984C8.61328 18.3906 9.35156 18.3906 9.66797 17.8984C14.8008 10.5156 15.75 9.74219 15.75 7C15.75 3.27344 12.7266 0.25 9 0.25C5.23828 0.25 2.25 3.27344 2.25 7C2.25 9.74219 3.16406 10.5156 8.29688 17.8984ZM9 9.8125C7.41797 9.8125 6.1875 8.58203 6.1875 7C6.1875 5.45312 7.41797 4.1875 9 4.1875C10.5469 4.1875 11.8125 5.45312 11.8125 7C11.8125 8.58203 10.5469 9.8125 9 9.8125ZM12.9375 90.25H5.0625C4.11328 90.25 3.375 91.0234 3.375 91.9375V106.562C3.375 107.512 4.11328 108.25 5.0625 108.25H12.9375C13.8516 108.25 14.625 107.512 14.625 106.562V91.9375C14.625 91.0234 13.8516 90.25 12.9375 90.25ZM9 107.125C8.36719 107.125 7.875 106.633 7.875 106C7.875 105.402 8.36719 104.875 9 104.875C9.59766 104.875 10.125 105.402 10.125 106C10.125 106.633 9.59766 107.125 9 107.125ZM12.9375 103.328C12.9375 103.574 12.7266 103.75 12.5156 103.75H5.48438C5.23828 103.75 5.0625 103.574 5.0625 103.328V92.3594C5.0625 92.1484 5.23828 91.9375 5.48438 91.9375H12.5156C12.7266 91.9375 12.9375 92.1484 12.9375 92.3594V103.328ZM17.6484 126.965C16.8398 127.598 15.8203 128.371 12.2344 130.973C11.5312 131.5 10.2305 132.66 9 132.66C7.73438 132.66 6.46875 131.5 5.73047 130.973C2.14453 128.371 1.125 127.598 0.316406 126.965C0.175781 126.859 0 126.965 0 127.141V134.312C0 135.262 0.738281 136 1.6875 136H16.3125C17.2266 136 18 135.262 18 134.312V127.141C18 126.965 17.7891 126.859 17.6484 126.965ZM9 131.5C9.80859 131.535 10.9688 130.48 11.5664 130.059C16.2422 126.684 16.5938 126.367 17.6484 125.523C17.8594 125.383 18 125.137 18 124.855V124.188C18 123.273 17.2266 122.5 16.3125 122.5H1.6875C0.738281 122.5 0 123.273 0 124.188V124.855C0 125.137 0.105469 125.383 0.316406 125.523C1.37109 126.367 1.72266 126.684 6.39844 130.059C6.99609 130.48 8.15625 131.535 9 131.5Z" fill="#005D95"/>
</svg>
