<svg width="15" height="166" viewBox="0 0 15 166" fill="none" xmlns="http://www.w3.org/2000/svg">
<path d="M6.91406 15.582C7.17773 15.9922 7.79297 15.9922 8.05664 15.582C12.334 9.42969 13.125 8.78516 13.125 6.5C13.125 3.39453 10.6055 0.875 7.5 0.875C4.36523 0.875 1.875 3.39453 1.875 6.5C1.875 8.78516 2.63672 9.42969 6.91406 15.582ZM7.5 8.84375C6.18164 8.84375 5.15625 7.81836 5.15625 6.5C5.15625 5.21094 6.18164 4.15625 7.5 4.15625C8.78906 4.15625 9.84375 5.21094 9.84375 6.5C9.84375 7.81836 8.78906 8.84375 7.5 8.84375ZM10.7812 90.875H4.21875C3.42773 90.875 2.8125 91.5195 2.8125 92.2812V104.469C2.8125 105.26 3.42773 105.875 4.21875 105.875H10.7812C11.543 105.875 12.1875 105.26 12.1875 104.469V92.2812C12.1875 91.5195 11.543 90.875 10.7812 90.875ZM7.5 104.938C6.97266 104.938 6.5625 104.527 6.5625 104C6.5625 103.502 6.97266 103.062 7.5 103.062C7.99805 103.062 8.4375 103.502 8.4375 104C8.4375 104.527 7.99805 104.938 7.5 104.938ZM10.7812 101.773C10.7812 101.979 10.6055 102.125 10.4297 102.125H4.57031C4.36523 102.125 4.21875 101.979 4.21875 101.773V92.6328C4.21875 92.457 4.36523 92.2812 4.57031 92.2812H10.4297C10.6055 92.2812 10.7812 92.457 10.7812 92.6328V101.773ZM14.707 126.471C14.0332 126.998 13.1836 127.643 10.1953 129.811C9.60938 130.25 8.52539 131.217 7.5 131.217C6.44531 131.217 5.39062 130.25 4.77539 129.811C1.78711 127.643 0.9375 126.998 0.263672 126.471C0.146484 126.383 0 126.471 0 126.617V132.594C0 133.385 0.615234 134 1.40625 134H13.5938C14.3555 134 15 133.385 15 132.594V126.617C15 126.471 14.8242 126.383 14.707 126.471ZM7.5 130.25C8.17383 130.279 9.14062 129.4 9.63867 129.049C13.5352 126.236 13.8281 125.973 14.707 125.27C14.8828 125.152 15 124.947 15 124.713V124.156C15 123.395 14.3555 122.75 13.5938 122.75H1.40625C0.615234 122.75 0 123.395 0 124.156V124.713C0 124.947 0.0878906 125.152 0.263672 125.27C1.14258 125.973 1.43555 126.236 5.33203 129.049C5.83008 129.4 6.79688 130.279 7.5 130.25ZM10.0781 155.562C9.66797 152.955 8.64258 151.109 7.5 151.109C6.32812 151.109 5.33203 152.955 4.89258 155.562H10.0781ZM4.6875 158.375C4.6875 159.049 4.7168 159.664 4.77539 160.25H10.1953C10.2539 159.664 10.2832 159.049 10.2832 158.375C10.2832 157.73 10.2539 157.115 10.1953 156.5H4.77539C4.7168 157.115 4.6875 157.73 4.6875 158.375ZM14.1797 155.562C13.3594 153.6 11.6602 152.047 9.55078 151.432C10.2832 152.428 10.752 153.922 11.0156 155.562H14.1797ZM5.41992 151.432C3.31055 152.047 1.61133 153.6 0.791016 155.562H3.95508C4.21875 153.922 4.6875 152.428 5.41992 151.432ZM14.502 156.5H11.1328C11.1914 157.115 11.25 157.76 11.25 158.375C11.25 159.02 11.1914 159.635 11.1328 160.25H14.502C14.6484 159.664 14.7363 159.049 14.7363 158.375C14.7363 157.73 14.6484 157.115 14.502 156.5ZM3.75 158.375C3.75 157.76 3.7793 157.115 3.83789 156.5H0.46875C0.322266 157.115 0.234375 157.73 0.234375 158.375C0.234375 159.049 0.322266 159.664 0.46875 160.25H3.83789C3.7793 159.635 3.75 159.02 3.75 158.375ZM4.89258 161.188C5.33203 163.824 6.32812 165.641 7.5 165.641C8.64258 165.641 9.66797 163.824 10.0781 161.188H4.89258ZM9.55078 165.348C11.6602 164.732 13.3594 163.18 14.1797 161.188H11.0156C10.7812 162.857 10.2832 164.352 9.55078 165.348ZM0.791016 161.188C1.61133 163.18 3.31055 164.732 5.41992 165.348C4.6875 164.352 4.21875 162.857 3.95508 161.188H0.791016Z" fill="white"/>
</svg>
