<svg width="120" height="120" viewBox="0 0 120 120" fill="none" xmlns="http://www.w3.org/2000/svg">
<g clip-path="url(#clip0_222_85)">
<path d="M69.7738 107.029C87.3489 101.168 92.6185 108.32 102.144 102.981C116.795 94.7561 122.673 67.7154 118.909 48.0733C114.276 24.0211 93.7333 2.21739 66.1256 0.229959C36.7083 -1.88803 12.1553 10.5298 4.09156 41.4147C-2.19147 65.4814 -3.19038 100.399 15.3981 113.078C17.4104 114.456 28.4274 121.652 42.2819 119.65C53.7333 117.996 55.8469 111.671 69.7738 107.029Z" fill="#EAF4FB"/>
<g clip-path="url(#clip1_222_85)">
<path d="M29.3534 95.4852V97.0979C17.5946 88.2599 10 74.2143 10 58.3912C10 31.6677 31.6599 10.0078 58.3834 10.0078C85.1037 10.0078 106.767 31.6677 106.767 58.3912C106.767 65.3259 105.315 71.9227 102.669 77.8879C95.7357 72.8417 85.9621 73.4528 79.7189 79.7117C78.3644 81.067 77.284 82.5813 76.461 84.1941H68.0601V77.1784C75.6869 73.5496 80.9623 65.7763 80.9623 56.7769V39.0363C80.9623 33.6813 76.6367 29.3596 71.2857 29.3596V21.2957H55.1578C44.4637 21.2957 35.8045 29.9416 35.8045 40.6491V56.7753C35.8045 65.7747 41.0783 73.548 48.7067 77.1768V84.1926H40.6428C34.3996 84.1957 29.3534 89.2451 29.3534 95.4852Z" fill="#005D95"/>
<path d="M102.669 77.8894C103.412 78.4383 104.12 79.036 104.797 79.7132C111.734 86.6305 111.734 97.8735 104.797 104.791C97.8766 111.727 86.6376 111.727 79.7171 104.791C79.0556 104.132 78.4445 103.42 77.8964 102.68C73.9432 97.2427 73.4613 90.0679 76.4593 84.1956C77.2814 82.5828 78.3626 81.0685 79.7171 79.7132C85.9619 73.4543 95.7354 72.8432 102.669 77.8894Z" fill="#A0D468"/>
<path d="M76.4454 84.1957H76.4612C73.4632 90.068 73.9435 97.2428 77.8983 102.68C71.9291 105.307 65.3331 106.775 58.3835 106.775C47.4776 106.775 37.4332 103.178 29.3535 97.0979V95.4851C29.3535 89.2451 34.3997 84.1957 40.643 84.1957H48.7069L53.5452 87.4212L58.3835 85.8085L63.2219 87.4212L68.0602 84.1957H76.4454Z" fill="#E6E9ED"/>
<path d="M68.0604 77.1799V84.1957L63.222 87.4212L58.3837 85.8084L53.5454 87.4212L48.707 84.1957V77.1799C51.6389 78.5817 54.9164 79.3573 58.3837 79.3573C61.8479 79.3573 65.1254 78.5817 68.0604 77.1799Z" fill="#F5F7FA"/>
<path d="M80.9625 48.7144V56.7783C80.9625 65.7778 75.6871 73.5511 68.0603 77.1798C65.1253 78.5816 61.8478 79.3573 58.3836 79.3573C54.9163 79.3573 51.6387 78.5831 48.7069 77.1798C41.0785 73.5511 35.8047 65.7778 35.8047 56.7783V48.6837L42.2558 42.2649C42.2558 42.2649 49.6228 45.4905 58.3836 45.4905C67.1413 45.4905 74.5114 42.2649 74.5114 42.2649L80.9625 48.7144Z" fill="#EAC6BB"/>
<path d="M80.9625 39.0378V48.7145L74.5114 42.2634C74.5114 42.2634 67.1413 45.4889 58.3836 45.4889C49.6228 45.4889 42.2558 42.2634 42.2558 42.2634L35.8047 48.6822V40.6506C35.8047 29.9431 44.4639 21.2972 55.158 21.2972H71.2858V29.3611C76.6368 29.3611 80.9625 33.6837 80.9625 39.0378Z" fill="#965353"/>
<path d="M58.4325 95.482C57.5411 95.482 56.8135 94.7606 56.8135 93.8692C56.8135 92.9769 57.5246 92.2563 58.4168 92.2563H58.4325C59.3248 92.2563 60.0453 92.9769 60.0453 93.8692C60.0453 94.7606 59.3248 95.482 58.4325 95.482Z" fill="#CCD1D9"/>
<path d="M58.4325 101.933C57.5411 101.933 56.8135 101.212 56.8135 100.32C56.8135 99.4281 57.5246 98.7075 58.4168 98.7075H58.4325C59.3248 98.7075 60.0453 99.4281 60.0453 100.32C60.0453 101.212 59.3248 101.933 58.4325 101.933Z" fill="#CCD1D9"/>
<path d="M100.319 90.6436H93.8676V84.1925C93.8676 83.3003 93.147 82.5797 92.2548 82.5797C91.3634 82.5797 90.642 83.3003 90.642 84.1925V90.6436H84.1909C83.2995 90.6436 82.5781 91.3642 82.5781 92.2564C82.5781 93.1478 83.2995 93.8692 84.1909 93.8692H90.642V100.32C90.642 101.212 91.3634 101.933 92.2548 101.933C93.147 101.933 93.8676 101.212 93.8676 100.32V93.8692H100.319C101.211 93.8692 101.931 93.1478 101.931 92.2564C101.931 91.3642 101.211 90.6436 100.319 90.6436Z" fill="white"/>
</g>
</g>
<defs>
<clipPath id="clip0_222_85">
<rect width="120" height="120" fill="white"/>
</clipPath>
<clipPath id="clip1_222_85">
<rect width="100" height="100" fill="white" transform="translate(10 10)"/>
</clipPath>
</defs>
</svg>
