<svg width="120" height="120" viewBox="0 0 120 120" fill="none" xmlns="http://www.w3.org/2000/svg">
<g clip-path="url(#clip0_222_146)">
<path d="M1.37325 97.7756C4.87542 106.315 13.0664 110.36 18.2908 112.941C38.913 123.118 80.3747 123.756 102.791 105.01C113.124 96.3838 124.6 75.9851 118.088 45.4088C112.314 18.2541 85.8016 2.36423 63.1243 0.262023C44.3255 -1.47774 19.7669 5.40882 11.0838 22.038C5.62795 32.4911 12.1837 35.8111 7.71189 59.5009C3.84792 79.9866 -2.9104 87.3371 1.37325 97.7756Z" fill="#EAF4FB"/>
<path d="M108.438 77.1875V81.875H46.9688C47.8118 80.419 48.4133 78.8359 48.75 77.1875H108.438Z" fill="#8CC152"/>
<path d="M103.75 42.8125V67.8125C103.134 67.8117 102.524 67.9324 101.955 68.1676C101.386 68.4029 100.869 68.7482 100.434 69.1836C99.9982 69.619 99.6529 70.1361 99.4176 70.7052C99.1824 71.2743 99.0617 71.8842 99.0625 72.5H49.0625V44.375C49.0633 44.9908 48.9426 45.6007 48.7074 46.1698C48.4721 46.7389 48.1268 47.256 47.6914 47.6914C47.256 48.1268 46.7389 48.4721 46.1698 48.7074C45.6007 48.9426 44.9908 49.0633 44.375 49.0625H38.125C37.049 49.0639 35.9845 48.8404 35 48.4063V42.8125C35.6158 42.8133 36.2257 42.6926 36.7948 42.4574C37.3639 42.2221 37.881 41.8768 38.3164 41.4414C38.7518 41.006 39.0971 40.4889 39.3324 39.9198C39.5676 39.3507 39.6883 38.7408 39.6875 38.125H99.0625C99.0617 38.7408 99.1824 39.3507 99.4176 39.9198C99.6529 40.4889 99.9982 41.006 100.434 41.4414C100.869 41.8768 101.386 42.2221 101.955 42.4574C102.524 42.6926 103.134 42.8133 103.75 42.8125ZM78.75 55.3125C78.75 53.4583 78.2002 51.6457 77.17 50.104C76.1399 48.5623 74.6757 47.3607 72.9627 46.6511C71.2496 45.9416 69.3646 45.7559 67.546 46.1176C65.7275 46.4794 64.057 47.3723 62.7459 48.6834C61.4348 49.9945 60.5419 51.665 60.1801 53.4835C59.8184 55.3021 60.0041 57.1871 60.7136 58.9002C61.4232 60.6132 62.6248 62.0774 64.1665 63.1075C65.7082 64.1377 67.5208 64.6875 69.375 64.6875C71.8608 64.6855 74.2442 63.6972 76.002 61.9395C77.7597 60.1817 78.748 57.7983 78.75 55.3125Z" fill="#8CC152"/>
<path d="M69.375 64.6875C74.5527 64.6875 78.75 60.4902 78.75 55.3125C78.75 50.1348 74.5527 45.9375 69.375 45.9375C64.1973 45.9375 60 50.1348 60 55.3125C60 60.4902 64.1973 64.6875 69.375 64.6875Z" fill="#A0D468"/>
<path d="M46.9688 81.875H108.438V86.5625H42.8125C44.5024 85.2991 45.9167 83.704 46.9688 81.875Z" fill="#8CC152"/>
<path d="M108.438 33.4375V77.1875H48.75C48.9583 76.1589 49.063 75.112 49.0625 74.0625V72.5H99.0625C99.0617 71.8842 99.1824 71.2743 99.4176 70.7052C99.6529 70.1361 99.9982 69.619 100.434 69.1836C100.869 68.7482 101.386 68.4029 101.955 68.1676C102.524 67.9324 103.134 67.8117 103.75 67.8125V42.8125C103.134 42.8133 102.524 42.6926 101.955 42.4574C101.386 42.2221 100.869 41.8768 100.434 41.4414C99.9982 41.006 99.6529 40.4889 99.4176 39.9198C99.1824 39.3507 99.0617 38.7408 99.0625 38.125H39.6875C39.6883 38.7408 39.5676 39.3507 39.3324 39.9198C39.0971 40.4889 38.7518 41.006 38.3164 41.4414C37.881 41.8768 37.3639 42.2221 36.7948 42.4574C36.2257 42.6926 35.6158 42.8133 35 42.8125V48.4063C33.6078 47.7979 32.4231 46.797 31.5906 45.5261C30.7582 44.2552 30.314 42.7693 30.3125 41.25V33.4375H108.438Z" fill="#A0D468"/>
<path d="M49.0625 74.0625C49.067 76.8059 48.3446 79.5015 46.9688 81.875C45.5975 84.2503 43.6252 86.2229 41.2499 87.5943C38.8747 88.9656 36.1802 89.6876 33.4375 89.6875C33.0267 89.6861 32.6197 89.7659 32.2399 89.9225C31.8601 90.079 31.5151 90.3091 31.2246 90.5996C30.9342 90.8901 30.704 91.2351 30.5475 91.6149C30.3909 91.9947 30.3111 92.4017 30.3125 92.8125C30.3139 92.4017 30.2341 91.9947 30.0775 91.6149C29.921 91.2351 29.6909 90.8901 29.4004 90.5996C29.1099 90.3091 28.7649 90.079 28.3851 89.9225C28.0053 89.7659 27.5983 89.6861 27.1875 89.6875C25.1351 89.6894 23.1024 89.2865 21.2059 88.5019C19.3093 87.7174 17.5861 86.5665 16.1348 85.1152C14.6835 83.6639 13.5326 81.9407 12.7481 80.0441C11.9635 78.1476 11.5606 76.1149 11.5625 74.0625V44.375C11.5617 44.9908 11.6824 45.6007 11.9176 46.1698C12.1529 46.7389 12.4982 47.256 12.9336 47.6914C13.369 48.1268 13.8861 48.4721 14.4552 48.7074C15.0243 48.9426 15.6342 49.0633 16.25 49.0625H22.5C24.5718 49.0617 26.5585 48.2384 28.0234 46.7734C29.4884 45.3085 30.3118 43.3218 30.3125 41.25C30.314 42.7693 30.7582 44.2552 31.5906 45.5261C32.4231 46.797 33.6079 47.7979 35 48.4063C35.9846 48.8404 37.049 49.0639 38.125 49.0625H44.375C44.9908 49.0633 45.6007 48.9426 46.1698 48.7074C46.7389 48.4721 47.256 48.1268 47.6914 47.6914C48.1268 47.256 48.4721 46.7389 48.7074 46.1698C48.9426 45.6007 49.0633 44.9908 49.0625 44.375V74.0625Z" fill="#FFCE54"/>
<path d="M33.4375 89.6875C35.4901 89.6898 37.5229 89.2872 39.4196 88.5027C41.3164 87.7183 43.0398 86.5675 44.4911 85.1161C45.9425 83.6647 47.0933 81.9413 47.8778 80.0446C48.6622 78.1479 49.0648 76.115 49.0625 74.0625V44.375C49.0633 44.9908 48.9426 45.6007 48.7074 46.1698C48.4721 46.7389 48.1268 47.256 47.6914 47.6914C47.256 48.1268 46.7389 48.4721 46.1698 48.7074C45.6007 48.9426 44.9908 49.0633 44.375 49.0625H38.125C37.049 49.064 35.9846 48.8404 35 48.4063C33.6079 47.7979 32.4231 46.7971 31.5906 45.5261C30.7582 44.2552 30.314 42.7693 30.3125 41.25V92.8125C30.3111 92.4017 30.391 91.9947 30.5475 91.6149C30.704 91.2351 30.9342 90.8901 31.2246 90.5996C31.5151 90.3091 31.8602 90.079 32.2399 89.9225C32.6197 89.7659 33.0267 89.6861 33.4375 89.6875Z" fill="#F6BB42"/>
</g>
<defs>
<clipPath id="clip0_222_146">
<rect width="120" height="120" fill="white"/>
</clipPath>
</defs>
</svg>
