<svg width="500" height="500" viewBox="0 0 500 500" fill="none" xmlns="http://www.w3.org/2000/svg">
<g clip-path="url(#clip0_113_902)">
<path d="M120.983 126.009C173.228 73.4851 158.24 40.5975 193.993 16.2631C249.007 -21.1421 351.692 11.0227 412.303 62.5226C486.518 125.587 524.799 240.694 481.161 344.838C434.694 455.788 312.508 513.312 203.503 495.964C106.116 480.484 10.4133 403.807 0.843071 311.89C-0.180162 301.952 -4.81481 248.042 27.3869 201.602C53.991 163.233 79.5117 167.691 120.983 126.009Z" fill="#78B7E5"/>
<path d="M447.695 196.663C447.394 196.663 447.094 196.543 446.973 196.241L367.883 77.2196L277.177 195.579C276.876 196 276.334 196.061 275.913 195.76C275.491 195.458 275.431 194.916 275.732 194.495L367.221 75.1114C367.402 74.8705 367.703 74.75 367.943 74.75C368.244 74.75 368.485 74.9307 368.666 75.1717L448.418 195.278C448.719 195.699 448.598 196.241 448.177 196.543C448.057 196.663 447.876 196.663 447.695 196.663Z" fill="#005D95"/>
<path d="M454.858 188.893C457.085 188.893 458.65 191.122 457.867 193.23C449.079 216.48 409.414 233.827 361.864 233.827C313.531 233.827 273.324 215.938 265.439 192.085C264.897 190.519 266.101 188.893 267.726 188.893H454.858Z" fill="#A3CEED"/>
<path d="M361.864 234.731C313.652 234.731 272.723 216.902 264.597 192.386C264.236 191.362 264.416 190.278 265.078 189.375C265.741 188.471 266.704 187.989 267.787 187.989H454.918C456.303 187.989 457.567 188.652 458.289 189.796C459.071 190.881 459.252 192.326 458.771 193.591C454.377 205.156 442.339 215.637 424.823 223.106C407.188 230.635 384.797 234.731 361.864 234.731ZM267.727 189.796C267.245 189.796 266.764 190.037 266.523 190.399C266.222 190.82 266.162 191.302 266.282 191.784C274.167 215.576 314.374 232.863 361.864 232.863C408.271 232.863 448.297 216.058 457.025 192.868C457.266 192.146 457.206 191.362 456.784 190.76C456.363 190.098 455.641 189.736 454.858 189.736H267.727V189.796Z" fill="#005D95"/>
<path d="M197.184 194.977C196.883 194.977 196.582 194.856 196.461 194.555L117.372 75.4729L26.6649 193.832C26.3639 194.254 25.8222 194.314 25.4009 194.013C24.9796 193.712 24.9194 193.17 25.2203 192.748L116.709 73.3647C116.89 73.1237 117.191 73.0033 117.432 73.0033C117.733 73.0033 117.973 73.184 118.154 73.4249L197.906 193.531C198.207 193.953 198.087 194.495 197.665 194.796C197.545 194.916 197.364 194.977 197.184 194.977Z" fill="#005D95"/>
<path d="M204.346 187.206C206.573 187.206 208.138 189.435 207.355 191.543C198.568 214.793 158.902 232.141 111.352 232.141C63.0194 232.141 22.8123 214.251 14.9274 190.399C14.3857 188.833 15.5895 187.206 17.2147 187.206H204.346Z" fill="#A3CEED"/>
<path d="M111.353 232.984C63.1402 232.984 22.2109 215.155 14.0852 190.64C13.7241 189.616 13.9046 188.532 14.5667 187.628C15.2288 186.725 16.1919 186.243 17.2753 186.243H204.407C205.791 186.243 207.055 186.905 207.777 188.05C208.56 189.134 208.74 190.579 208.259 191.844C203.865 203.409 191.827 213.89 174.312 221.359C156.676 228.888 134.345 232.984 111.353 232.984ZM17.2151 188.11C16.7336 188.11 16.2521 188.351 16.0113 188.712C15.7103 189.134 15.6502 189.616 15.7705 190.098C23.6555 213.89 63.8625 231.237 111.353 231.237C157.759 231.237 197.786 214.432 206.513 191.242C206.754 190.519 206.694 189.736 206.273 189.134C205.851 188.471 205.129 188.11 204.346 188.11H17.2151Z" fill="#005D95"/>
<path d="M247.202 46.7414H236.789V398.687H247.202V46.7414Z" fill="#A3CEED"/>
<path d="M248.104 399.59H235.886V45.8378H248.104V399.59ZM237.691 397.783H246.299V47.6449H237.691V397.783Z" fill="#005D95"/>
<path d="M372.037 69.2688H111.955V78.1231H372.037V69.2688Z" fill="#A3CEED"/>
<path d="M373 79.0266H111.052V68.3653H372.939V79.0266H373ZM112.857 77.2196H371.134V70.1723H112.857V77.2196Z" fill="#005D95"/>
<path d="M367.401 84.809C373.585 84.809 378.597 79.7931 378.597 73.6056C378.597 67.4181 373.585 62.4021 367.401 62.4021C361.218 62.4021 356.206 67.4181 356.206 73.6056C356.206 79.7931 361.218 84.809 367.401 84.809Z" fill="#A3CEED"/>
<path d="M367.402 85.7126C360.721 85.7126 355.304 80.2915 355.304 73.6056C355.304 66.9196 360.721 61.4986 367.402 61.4986C374.083 61.4986 379.5 66.9196 379.5 73.6056C379.5 80.2915 374.023 85.7126 367.402 85.7126ZM367.402 63.3056C361.744 63.3056 357.109 67.9436 357.109 73.6056C357.109 79.2675 361.744 83.9055 367.402 83.9055C373.06 83.9055 377.694 79.2675 377.694 73.6056C377.694 67.9436 373.06 63.3056 367.402 63.3056Z" fill="#005D95"/>
<path d="M115.747 84.809C121.93 84.809 126.943 79.7931 126.943 73.6056C126.943 67.4181 121.93 62.4021 115.747 62.4021C109.564 62.4021 104.552 67.4181 104.552 73.6056C104.552 79.7931 109.564 84.809 115.747 84.809Z" fill="#A3CEED"/>
<path d="M115.747 85.7126C109.066 85.7126 103.648 80.2915 103.648 73.6056C103.648 66.9196 109.066 61.4986 115.747 61.4986C122.428 61.4986 127.845 66.9196 127.845 73.6056C127.845 80.2915 122.428 85.7126 115.747 85.7126ZM115.747 63.3056C110.089 63.3056 105.454 67.9436 105.454 73.6056C105.454 79.2675 110.089 83.9055 115.747 83.9055C121.405 83.9055 126.039 79.2675 126.039 73.6056C126.039 67.9436 121.405 63.3056 115.747 63.3056Z" fill="#005D95"/>
<path d="M244.059 50.2774C250.125 49.0813 254.074 43.1906 252.879 37.12C251.684 31.0495 245.797 27.0979 239.731 28.2939C233.665 29.49 229.716 35.3807 230.911 41.4513C232.106 47.5218 237.993 51.4734 244.059 50.2774Z" fill="#A3CEED"/>
<path d="M241.905 51.3794C235.224 51.3794 229.807 45.9583 229.807 39.2724C229.807 32.5864 235.224 27.1654 241.905 27.1654C248.586 27.1654 254.003 32.5864 254.003 39.2724C254.003 45.9583 248.586 51.3794 241.905 51.3794ZM241.905 28.9724C236.247 28.9724 231.612 33.6104 231.612 39.2724C231.612 44.9343 236.247 49.5723 241.905 49.5723C247.563 49.5723 252.197 44.9343 252.197 39.2724C252.197 33.6104 247.563 28.9724 241.905 28.9724Z" fill="#005D95"/>
<path d="M167.57 412.3H315.517C317.624 412.3 318.406 408.866 316.601 407.541L309.077 402C296.557 392.724 282.172 387.845 267.485 387.845H213.856C199.591 387.845 185.627 392.784 173.589 402.06L166.486 407.541C164.681 408.927 165.463 412.3 167.57 412.3Z" fill="#A3CEED"/>
<path d="M315.457 413.203H167.57C166.306 413.203 165.222 412.36 164.801 411.035C164.38 409.71 164.56 407.963 165.945 406.879L173.047 401.397C185.266 391.941 199.41 387.002 213.916 387.002H267.546C282.413 387.002 296.979 391.941 309.679 401.337L317.203 406.879C318.406 407.782 318.888 409.469 318.406 411.035C317.805 412.36 316.721 413.203 315.457 413.203ZM213.796 388.748C199.711 388.748 185.988 393.627 174.07 402.783L166.968 408.264C166.306 408.806 166.246 409.77 166.486 410.433C166.607 410.734 166.908 411.396 167.57 411.396H315.517C316.24 411.396 316.541 410.673 316.601 410.433C316.842 409.77 316.721 408.806 316.059 408.264L308.535 402.723C296.136 393.567 281.931 388.748 267.486 388.748H213.796Z" fill="#005D95"/>
<path d="M129.952 453.018L134.948 472.052C135.971 475.846 136.212 479.822 135.73 483.737L134.707 491.748L160.047 487.592L156.797 485.183C151.139 480.966 147.106 474.943 145.481 468.076L141.148 449.705L129.952 453.018Z" fill="white"/>
<path d="M134.767 492.712C134.526 492.712 134.286 492.652 134.165 492.471C133.985 492.29 133.864 491.989 133.924 491.688L134.948 483.677C135.429 479.882 135.188 476.087 134.165 472.353L129.169 453.319C129.049 452.837 129.29 452.355 129.771 452.235L140.906 448.922C141.147 448.862 141.388 448.862 141.629 448.982C141.869 449.103 141.99 449.283 142.05 449.584L146.384 467.956C147.949 474.642 151.861 480.484 157.399 484.58L160.649 486.99C160.95 487.23 161.07 487.592 161.01 487.953C160.95 488.315 160.649 488.556 160.288 488.616L134.948 492.772C134.887 492.652 134.827 492.712 134.767 492.712ZM131.095 453.68L135.911 471.871C136.934 475.786 137.235 479.822 136.693 483.857L135.85 490.724L157.88 487.11L156.315 485.966C150.477 481.629 146.324 475.364 144.638 468.317L140.485 450.91L131.095 453.68Z" fill="#071824"/>
<path d="M132.3 495.723C132.119 492.35 132.059 485.664 134.226 481.508C134.587 480.786 135.49 480.424 136.272 480.725L142.051 483.074C142.953 483.436 143.917 482.773 143.917 481.809V481.388C143.917 480.846 144.338 480.364 144.94 480.304L149.936 480.063C151.801 479.942 153.667 480.304 155.353 481.087C160.529 483.376 171.484 488.857 174.132 494.579C174.734 495.904 173.771 497.35 172.326 497.41C167.812 497.591 156.376 497.952 134.467 497.771C133.323 497.771 132.36 496.868 132.3 495.723Z" fill="#005D95"/>
<path d="M146.264 498.735C142.713 498.735 138.8 498.735 134.467 498.675C132.841 498.675 131.457 497.35 131.397 495.723C131.216 492.109 131.156 485.363 133.443 481.026C134.045 479.882 135.43 479.34 136.633 479.822L142.412 482.171C142.592 482.231 142.773 482.171 142.833 482.111C142.893 482.05 143.014 481.93 143.014 481.749V481.328C143.014 480.304 143.856 479.4 144.879 479.4L149.875 479.159C151.861 479.039 153.908 479.46 155.714 480.243C161.733 482.954 172.206 488.375 174.914 494.218C175.336 495.061 175.275 496.085 174.734 496.928C174.192 497.771 173.289 498.314 172.326 498.374C168.474 498.494 160.408 498.735 146.264 498.735ZM133.203 495.663C133.263 496.326 133.804 496.868 134.467 496.868C156.015 497.049 167.451 496.687 172.266 496.506C172.627 496.506 172.988 496.266 173.229 495.964C173.41 495.663 173.47 495.302 173.289 494.94C170.761 489.459 159.626 483.978 154.991 481.87C153.426 481.147 151.681 480.846 149.996 480.906L145 481.147C144.94 481.147 144.879 481.207 144.879 481.328V481.749C144.879 482.532 144.518 483.195 143.856 483.616C143.254 484.038 142.412 484.098 141.75 483.857L135.971 481.508C135.61 481.388 135.189 481.508 135.008 481.87C132.962 485.845 133.022 492.23 133.203 495.663Z" fill="#071824"/>
<path d="M152.644 494.88C148.07 494.88 142.532 494.76 135.851 494.459C135.37 494.459 134.948 494.037 135.009 493.495C135.009 493.013 135.43 492.591 135.972 492.652C157.821 493.676 167.993 492.531 168.113 492.471C168.595 492.411 169.076 492.772 169.137 493.254C169.197 493.736 168.836 494.218 168.354 494.278C168.234 494.338 163.178 494.88 152.644 494.88Z" fill="#071824"/>
<path d="M158.362 489.519C158.181 489.519 158.001 489.459 157.88 489.399L149.273 483.677C148.852 483.376 148.731 482.833 149.032 482.412C149.333 481.99 149.875 481.87 150.296 482.171L158.904 487.833C159.325 488.134 159.445 488.676 159.144 489.098C158.964 489.339 158.663 489.519 158.362 489.519Z" fill="#071824"/>
<path d="M78.6702 456.27L75.6005 477.774H67.8359L68.5582 456.632L78.6702 456.27Z" fill="white"/>
<path d="M75.6 478.677H67.8355C67.5947 478.677 67.3539 478.557 67.1734 478.376C66.9928 478.195 66.9326 477.954 66.9326 477.714L67.7151 456.571C67.7151 456.09 68.1364 455.728 68.5578 455.728L78.6095 455.367C78.8503 455.367 79.1512 455.487 79.3318 455.668C79.5124 455.849 79.5726 456.15 79.5726 456.391L76.5029 477.894C76.3825 478.376 76.0213 478.677 75.6 478.677ZM68.7383 476.87H74.7573L77.5863 457.174L69.4606 457.475L68.7383 476.87Z" fill="#071824"/>
<path d="M75.2989 497.832C72.1089 498.193 67.6548 498.976 60.9135 497.892C58.9272 497.591 57.6632 495.603 58.2049 493.615C59.6495 488.495 62.659 479.099 66.451 474.099C66.7519 473.738 67.2936 473.859 67.414 474.28L67.5344 475.184C67.5946 475.726 68.3169 475.846 68.5576 475.364L69.4003 473.618C69.5809 473.316 69.942 473.075 70.3032 473.015L73.2525 472.895C73.8544 472.835 74.4563 473.256 74.5767 473.859L74.697 475.244C74.7572 475.786 75.4795 475.967 75.7203 475.485L76.9843 474.16C77.225 473.798 77.7667 473.979 77.7667 474.461L77.6464 480.063C77.526 484.098 77.8269 488.134 78.5492 492.109L78.9104 494.097C79.0307 495.964 77.1046 497.591 75.2989 497.832Z" fill="#005D95"/>
<path d="M67.5345 499.337C65.5483 499.337 63.3212 499.217 60.733 498.795C59.5292 498.615 58.506 497.892 57.8439 496.868C57.1818 495.844 57.0013 494.579 57.3022 493.374C58.7468 488.134 61.8165 478.617 65.7288 473.557C66.0298 473.136 66.5715 472.895 67.1132 473.015C67.6549 473.075 68.0763 473.437 68.2568 473.919L68.6782 473.076C69.0393 472.473 69.6412 472.112 70.3033 472.052L73.3128 471.931C74.336 471.811 75.3593 472.594 75.5398 473.678V473.798L75.6 474.401L76.3825 473.618C76.7436 473.196 77.3455 473.015 77.8271 473.196C78.3688 473.377 78.7299 473.919 78.7299 474.521L78.5493 480.123C78.429 484.098 78.7299 488.074 79.392 491.989L79.7531 494.037C79.9939 496.446 77.6465 498.494 75.4195 498.735C74.9981 498.795 74.5768 498.856 74.1555 498.856C72.3498 499.036 70.1829 499.337 67.5345 499.337ZM66.6317 475.304C63.1407 480.243 60.3719 488.977 59.0477 493.796C58.8671 494.458 58.9875 495.241 59.3487 495.844C59.7098 496.446 60.3117 496.808 61.034 496.928C66.8123 497.832 70.9654 497.35 73.9147 496.988C74.336 496.928 74.8176 496.868 75.1787 496.868C76.5029 496.747 78.0678 495.482 77.9474 494.157L77.5863 492.17C76.864 488.134 76.5631 484.038 76.6834 479.942L76.8038 475.545L76.3825 475.967C76.0815 476.449 75.4796 476.69 74.8777 476.569C74.2156 476.449 73.7943 475.906 73.7341 475.244L73.6137 473.919C73.5536 473.798 73.4332 473.678 73.3128 473.678L70.3033 473.798C70.2431 473.798 70.1829 473.859 70.1227 473.919L69.3402 475.666C69.0393 476.268 68.4374 476.569 67.8355 476.509C67.2336 476.449 66.7521 475.967 66.6317 475.304Z" fill="#071824"/>
<path d="M68.6779 495.302C66.6916 495.302 64.3442 495.061 61.756 494.398C61.2745 494.278 60.9735 493.796 61.0939 493.314C61.2143 492.832 61.6958 492.531 62.1774 492.651C69.4002 494.519 74.3358 492.712 74.396 492.651C74.8775 492.471 75.359 492.712 75.5396 493.194C75.7201 493.675 75.4794 494.157 74.9979 494.338C74.9377 494.398 72.5301 495.302 68.6779 495.302Z" fill="#071824"/>
<path d="M72.1694 487.471H65.0669C64.5854 487.471 64.1641 487.05 64.1641 486.568C64.1641 486.086 64.5854 485.664 65.0669 485.664H72.1694C72.6509 485.664 73.0722 486.086 73.0722 486.568C73.0722 487.05 72.7111 487.471 72.1694 487.471Z" fill="#071824"/>
<path d="M128.688 314.661C128.688 314.661 138.86 380.376 139.282 396.037C139.703 411.758 146.203 459.222 146.203 459.222C146.203 459.222 137.837 462.354 128.267 460.186C128.267 460.186 98.2318 376.099 96.0048 350.319C93.7777 324.539 101.241 312.733 101.241 312.733L128.688 314.661Z" fill="#071824"/>
<path d="M118.757 310.565C118.757 310.565 84.328 415.854 83.7261 458.68C83.7261 458.68 76.1421 460.487 65.1875 458.68C65.1875 458.68 58.2054 341.164 78.3691 308.216L118.757 310.565Z" fill="#071824"/>
<path d="M108.945 220.395C106.778 232.863 94.1384 246.235 81.3781 244.489C79.2714 244.187 73.6737 243.043 67.7751 236.176C59.6494 242.019 49.2967 240.453 43.699 233.707C36.8975 225.455 37.8003 210.216 47.7317 202.385C39.8468 202.325 37.7402 199.313 37.1383 198.109C33.4667 191.061 43.1573 174.617 52.246 174.617C55.6166 174.617 60.0707 178.774 68.7983 187.026C77.8268 195.579 78.2482 197.265 80.9567 197.567C89.0222 198.41 91.4298 184.737 102.083 183.171C109.367 182.147 117.552 187.267 118.154 192.085C118.696 196.241 113.339 197.687 110.33 205.939C108.223 212.083 109.968 214.673 108.945 220.395Z" fill="#071824"/>
<path d="M98.3517 178.533C98.9536 180.46 98.3517 185.821 95.4626 186.785C92.5735 187.748 88.5407 183.833 87.9388 181.906C87.3369 179.978 89.1426 177.689 92.0318 176.726C94.9209 175.822 97.7498 176.605 98.3517 178.533Z" fill="#071824"/>
<path d="M132.96 315.504C132.96 315.504 136.151 336.827 132.238 340.923C132.238 340.923 119.478 326.949 118.876 316.829L132.96 315.504Z" fill="white"/>
<path d="M132.238 341.826C131.997 341.826 131.756 341.706 131.576 341.525C131.034 340.923 118.575 327.189 117.973 316.889C117.973 316.408 118.334 315.986 118.815 315.926L132.9 314.601C133.381 314.54 133.803 314.902 133.863 315.384C134.224 317.612 136.993 337.248 132.9 341.585C132.719 341.706 132.539 341.826 132.238 341.826ZM119.899 317.612C120.922 325.804 129.589 336.345 132.178 339.417C134.224 335.2 133.02 322.31 132.178 316.468L119.899 317.612Z" fill="#071824"/>
<path d="M115.265 315.685C115.265 315.685 111.292 332.912 106.597 337.188C101.902 341.465 89.0216 322.311 81.859 321.889C77.0437 321.588 71.8674 329.358 69.0384 334.478C68.5569 335.321 67.2929 334.899 67.4133 333.936C68.3764 327.31 70.6034 315.805 74.6963 312.613L115.265 315.685Z" fill="white"/>
<path d="M104.972 338.754C101.842 338.754 97.689 334.899 93.3553 330.924C89.3226 327.189 84.7481 322.973 81.7988 322.853C78.6087 322.672 74.2148 327.069 69.821 334.96C69.3996 335.743 68.557 336.044 67.7143 335.743C66.8716 335.442 66.3901 334.658 66.5105 333.815C67.7143 325.623 70.0015 315.143 74.1546 311.89C74.3352 311.77 74.576 311.709 74.7565 311.709L115.385 314.842C115.626 314.842 115.866 315.022 116.047 315.203C116.228 315.444 116.288 315.685 116.228 315.926C116.047 316.649 112.135 333.454 107.259 337.911C106.537 338.453 105.754 338.754 104.972 338.754ZM81.558 320.985C81.6784 320.985 81.7386 320.985 81.859 320.985C85.4704 321.166 90.1051 325.443 94.5591 329.539C99.0132 333.634 104.009 338.272 105.995 336.526C109.787 333.032 113.218 320.263 114.181 316.528L74.9973 313.516C72.2888 315.926 69.8811 323.335 68.3162 333.875C71.6267 327.912 76.6224 320.985 81.558 320.985Z" fill="#071824"/>
<path d="M158.722 233.586L190.563 241.838L186.049 259.908L154.208 253.825L158.722 233.586Z" fill="white"/>
<path d="M186.048 260.812C185.988 260.812 185.928 260.812 185.868 260.812L154.027 254.728C153.786 254.668 153.546 254.548 153.425 254.307C153.305 254.126 153.245 253.825 153.305 253.584L157.819 233.345C157.879 233.104 158 232.924 158.24 232.743C158.421 232.623 158.722 232.562 158.963 232.623L190.864 240.935C191.345 241.055 191.646 241.537 191.526 242.019L187.011 260.029C186.831 260.511 186.47 260.812 186.048 260.812ZM155.291 253.102L185.386 258.884L189.479 242.561L159.384 234.731L155.291 253.102Z" fill="#071824"/>
<path d="M191.827 255.03L154.509 242.441C154.509 242.441 152.222 251.897 148.55 252.078C143.494 252.379 142.772 247.922 134.345 236.598C129.65 230.273 123.27 228.466 123.27 228.466L109.728 240.152L126.159 275.328C126.159 275.328 171.001 315.022 191.827 255.03Z" fill="#E5A678"/>
<path d="M122.006 228.165C115.385 226.78 103.648 222.202 85.2902 229.009C85.2902 229.009 76.3219 234.128 75.7802 241.537C75.1783 249.608 80.8963 264.245 78.8499 275.027C75.1181 294.663 70.7844 301.108 68.6777 317.191C68.6777 317.191 76.0811 315.444 81.4982 315.805L132.299 317.733C135.669 317.853 138.619 315.384 138.98 312.011C139.522 307.312 139.522 298.94 137.596 284.243C136.572 276.714 137.054 251.897 131.757 236.658C130.252 232.321 126.521 229.069 122.006 228.165Z" fill="#E5A678"/>
<path d="M66.2701 269.245L73.7336 284.363L50.9216 302.554C50.9216 302.554 42.9163 285.809 42.1338 280.267L66.2701 269.245Z" fill="white"/>
<path d="M50.9215 303.518C50.8613 303.518 50.8011 303.518 50.7409 303.518C50.5002 303.457 50.2594 303.277 50.139 303.036C49.8381 302.373 42.0736 286.11 41.2309 280.508C41.1707 280.087 41.4115 279.725 41.7726 279.545L65.9089 268.522C66.3302 268.341 66.8719 268.522 67.1127 268.944L74.5763 284.062C74.7568 284.424 74.6365 284.905 74.3355 285.146L51.5234 303.337C51.3428 303.457 51.1623 303.518 50.9215 303.518ZM43.157 280.87C44.1802 285.869 49.5973 297.675 51.2827 301.169L72.59 284.122L65.8487 270.449L43.157 280.87Z" fill="#071824"/>
<path d="M79.9336 268.341L78.3686 259.908C78.1279 258.704 76.8037 258.101 75.7804 258.643L73.1923 260.029C69.942 261.776 68.5576 265.691 69.942 269.124L72.7107 274.124L41.2915 289.604C41.2915 289.604 33.8881 271.473 38.6431 256.776C46.8289 231.659 100.278 225.575 100.278 225.575L79.9336 268.341Z" fill="#E5A678"/>
<path d="M137.596 287.315C137.175 287.315 136.753 287.014 136.693 286.532C132.781 262.378 134.647 253.162 134.707 252.741C134.827 252.259 135.309 251.958 135.79 252.018C136.272 252.138 136.573 252.62 136.513 253.102C136.513 253.222 134.707 262.559 138.499 286.231C138.559 286.712 138.258 287.194 137.777 287.255C137.656 287.315 137.656 287.315 137.596 287.315Z" fill="#071824"/>
<path d="M189.178 214.613C189.178 214.613 198.147 206.24 200.735 204.132C203.624 201.723 197.003 200.94 188.456 208.77L189.178 214.613Z" fill="white"/>
<path d="M188.516 216.42L187.493 208.348L187.854 208.047C194.174 202.265 199.411 201.06 201.216 201.662C201.818 201.843 202.24 202.265 202.3 202.807C202.42 203.469 202.059 204.132 201.277 204.795C198.749 206.903 189.841 215.155 189.78 215.215L188.516 216.42ZM189.419 209.071L189.901 212.745C192.489 210.336 198.207 205.096 200.193 203.409C200.253 203.409 200.253 203.349 200.314 203.349C200.253 203.349 200.253 203.349 200.193 203.349C198.689 203.349 194.596 204.433 189.419 209.071Z" fill="#071824"/>
<path d="M189.96 212.866C190.021 213.348 190.081 213.769 190.141 214.251C190.261 215.034 190.442 216.902 189.359 218.106C188.275 219.251 182.978 222.142 180.45 223.467C179.608 223.949 178.825 224.551 178.223 225.274C177.381 226.298 179.788 238.887 179.788 238.887L168.954 236.478C168.954 236.478 171.663 219.01 173.649 212.866C175.635 206.722 180.932 203.831 182.256 204.012C183.64 204.192 184.062 206.843 184.062 206.843C184.062 206.843 187.011 204.554 188.817 205.758C189.78 206.421 189.298 207.505 189.419 208.529L189.96 212.866Z" fill="white"/>
<path d="M180.992 240.092L167.991 237.2L168.112 236.357C168.232 235.634 170.82 218.769 172.806 212.625C174.913 206.18 180.511 202.867 182.437 203.168C183.641 203.349 184.303 204.493 184.664 205.457C185.868 204.795 187.854 204.072 189.359 205.096C190.442 205.819 190.382 206.903 190.382 207.686C190.382 207.987 190.382 208.228 190.382 208.469L190.863 212.806C190.924 213.227 190.984 213.709 191.044 214.131C191.225 215.034 191.405 217.263 190.021 218.769C188.937 219.913 184.483 222.443 180.932 224.31C180.21 224.672 179.608 225.214 179.066 225.816C178.765 226.961 179.728 233.345 180.752 238.766L180.992 240.092ZM170.038 235.815L178.705 237.742C176.538 226.057 177.321 225.093 177.561 224.732C178.224 223.889 179.066 223.166 180.029 222.684C184.724 220.154 187.974 218.227 188.697 217.504C189.539 216.6 189.359 215.095 189.238 214.432C189.178 213.95 189.118 213.468 189.058 212.986L188.576 208.65C188.516 208.288 188.516 207.927 188.576 207.565C188.576 206.843 188.576 206.662 188.335 206.541C187.312 205.879 185.266 207.083 184.664 207.565L183.46 208.469L183.219 206.963C183.099 206.06 182.617 204.975 182.196 204.915C181.293 204.855 176.418 207.385 174.552 213.167C172.867 218.468 170.579 232.261 170.038 235.815Z" fill="#071824"/>
<path d="M181.775 219.251C181.534 219.251 181.354 219.251 181.113 219.13C179.909 218.769 178.525 217.383 178.465 214.492C178.284 210.216 183.52 206.18 183.761 205.999C184.183 205.698 184.724 205.758 185.025 206.18C185.326 206.602 185.266 207.144 184.845 207.445C183.52 208.469 180.15 211.661 180.27 214.432C180.33 216.239 180.993 217.263 181.594 217.383C182.016 217.504 182.377 217.142 182.497 216.902C183.46 215.396 183.28 213.89 183.28 213.83C183.22 213.348 183.581 212.866 184.062 212.806C184.544 212.745 185.025 213.047 185.085 213.589C185.085 213.649 185.386 215.817 184.062 217.865C183.46 218.769 182.618 219.251 181.775 219.251Z" fill="#071824"/>
<path d="M132.6 318.697C132.479 318.697 132.419 318.697 132.299 318.697L81.4983 316.769C76.2617 316.408 68.9787 318.154 68.9185 318.154C68.6176 318.215 68.3166 318.154 68.1361 317.974C67.8953 317.793 67.8351 317.492 67.8351 317.191C68.9787 308.577 70.6641 302.855 72.6503 296.229C74.3357 290.567 76.2617 284.183 78.0073 274.967C78.9101 270.208 78.1878 264.486 77.4054 260.029C77.3452 259.788 77.1646 259.607 76.9238 259.547C76.8035 259.487 76.5025 259.427 76.2016 259.607L73.6134 260.993C70.7844 262.498 69.5806 265.872 70.7844 268.883L73.493 273.822C73.6134 274.063 73.6134 274.304 73.5532 274.545C73.493 274.786 73.3124 274.967 73.0717 275.087L41.6524 290.567C41.4116 290.688 41.1709 290.688 40.9301 290.628C40.6893 290.567 40.5088 290.387 40.3884 290.146C40.0874 289.363 32.9248 271.534 37.74 256.716C44.3007 236.538 78.9703 228.406 93.5965 225.876C95.7634 225.395 97.9302 225.093 100.037 224.913H100.097C100.157 224.913 100.157 224.913 100.217 224.913C108.464 224.25 114.663 225.756 119.238 226.84C120.261 227.081 121.284 227.322 122.127 227.503C122.488 227.563 122.849 227.683 123.27 227.804C123.33 227.804 123.33 227.804 123.391 227.804C123.391 227.804 123.571 227.864 123.872 227.985H123.932C124.113 228.045 124.233 228.105 124.414 228.165C124.594 228.225 124.775 228.286 124.895 228.406C127.122 229.37 131.396 231.659 134.827 236.297C137.355 239.67 139.161 242.441 140.605 244.669C144.156 250.09 145.36 251.596 148.249 251.476C150.536 251.355 152.703 245.392 153.426 242.501C153.486 242.26 153.666 242.019 153.847 241.899C154.088 241.778 154.328 241.778 154.569 241.838L191.887 254.427C192.128 254.487 192.308 254.668 192.429 254.909C192.549 255.15 192.549 255.391 192.489 255.632C186.651 272.497 178.344 283.159 167.751 287.375C157.097 291.652 146.143 288.459 138.378 284.725C140.003 296.952 140.425 306.228 139.762 312.432C139.522 315.866 136.332 318.697 132.6 318.697ZM79.9935 314.902C80.5352 314.902 81.077 314.902 81.5585 314.962L132.359 316.889C135.248 317.01 137.836 314.842 138.137 311.95C138.619 307.734 138.739 299.602 136.753 284.424C136.693 284.002 136.633 283.52 136.572 282.978C136.572 282.677 136.693 282.315 136.994 282.135C137.295 281.954 137.596 281.954 137.897 282.074C145.36 285.929 156.555 289.664 167.269 285.387C177.141 281.472 185.025 271.413 190.683 255.572L155.111 243.585C154.389 246.175 152.162 252.801 148.55 252.982C144.457 253.222 142.832 250.753 139.281 245.392C137.836 243.163 136.031 240.453 133.563 237.14C130.373 232.863 126.4 230.695 124.354 229.792C124.173 229.731 124.053 229.671 123.872 229.611C123.692 229.551 123.571 229.49 123.451 229.43L123.511 229.249H123.451L123.391 229.49C123.27 229.43 123.15 229.43 123.09 229.37C123.03 229.37 123.03 229.37 122.969 229.37C122.548 229.249 122.187 229.129 121.886 229.069C120.983 228.888 119.96 228.647 118.876 228.406C114.422 227.322 108.343 225.816 100.338 226.479C100.338 226.479 100.338 226.479 100.278 226.479H100.217C98.1108 226.659 96.0041 226.961 93.8975 227.442C79.5722 229.972 45.6851 237.803 39.4253 257.077C35.3926 269.425 40.3282 284.544 41.7126 288.339L71.3863 273.702L69.0991 269.546C69.0991 269.546 69.0389 269.486 69.0389 269.425C67.474 265.57 69.0389 261.173 72.7105 259.186L75.2987 257.8C76.021 257.439 76.8035 257.379 77.5859 257.68C78.3082 257.981 78.9101 258.583 79.1509 259.366C79.1509 259.427 79.1509 259.427 79.2111 259.487C79.9935 264.125 80.776 270.028 79.813 275.148C78.0675 284.484 76.0812 290.929 74.3958 296.591C72.53 302.795 70.9048 308.216 69.8214 315.986C71.8679 315.625 76.1414 314.902 79.9935 314.902ZM123.571 228.888L123.631 228.647L123.571 228.888Z" fill="#071824"/>
<path d="M70.7847 286.712L79.2715 299.422L83.3644 296.651C85.8924 294.964 88.9621 294.302 91.9114 294.844C91.9114 294.844 96.3053 295.446 98.1712 296.952C102.685 300.626 98.7129 302.915 97.8101 303.337C96.4257 304.06 94.4996 304.783 92.3929 304.481C91.1891 304.301 87.999 304.722 85.1099 306.288C82.9431 307.493 80.4151 309.902 76.9241 308.939C73.9747 308.156 72.6505 306.409 72.6505 306.409L61.6357 294.242L70.7847 286.712Z" fill="white"/>
<path d="M78.5491 310.023C77.9472 310.023 77.4055 309.963 76.7434 309.782C73.7339 308.999 72.2893 307.252 72.0485 306.951L61.0337 294.844C60.8532 294.663 60.793 294.422 60.793 294.181C60.793 293.94 60.9133 293.7 61.0939 293.579L70.1225 286.05C70.303 285.869 70.604 285.809 70.8447 285.869C71.0855 285.929 71.3263 286.05 71.4466 286.291L79.4519 298.217L82.8226 295.928C85.5311 294.061 88.8416 293.398 92.0317 293.94C92.1521 293.94 96.6663 294.543 98.7128 296.229C100.458 297.675 101.301 299.121 101.181 300.566C101.06 301.952 99.9768 303.216 98.2313 304.18C96.1848 305.264 94.1383 305.686 92.2725 305.385C91.3094 305.264 88.2999 305.626 85.5311 307.071C85.1098 307.312 84.6885 307.553 84.207 307.854C82.7022 308.878 80.8363 310.023 78.5491 310.023ZM63.02 294.302L73.3727 305.746L73.4329 305.807C73.4329 305.807 74.6367 307.312 77.2249 308.035C79.5723 308.698 81.4984 307.493 83.3041 306.288C83.7856 305.987 84.2672 305.686 84.7487 305.445C87.7582 303.819 91.1288 303.337 92.5734 303.518C94.4393 303.759 96.245 303.096 97.4488 302.494C98.6526 301.891 99.3749 301.048 99.4351 300.325C99.5555 299.301 98.5322 298.277 97.6294 297.615C96.245 296.531 92.9345 295.868 91.7909 295.687C88.962 295.205 86.1932 295.808 83.8458 297.374L79.7529 300.145C79.5723 300.265 79.3316 300.325 79.0908 300.265C78.85 300.205 78.6695 300.084 78.4889 299.904L70.5438 288.038L63.02 294.302Z" fill="#071824"/>
<path d="M115.024 211.962L113.038 228.346L122.187 232.02C122.187 232.02 108.644 241.597 90.8877 231.418L100.458 227.322L105.394 208.288L115.024 211.962Z" fill="white"/>
<path d="M107.38 236.959C102.505 236.959 96.7263 235.755 90.4063 232.201C90.1054 232.02 89.9248 231.719 89.9248 231.358C89.9248 230.996 90.1656 230.695 90.4665 230.575L99.6756 226.659L104.491 208.047C104.551 207.806 104.732 207.565 104.972 207.445C105.213 207.324 105.454 207.324 105.695 207.385L115.265 211.059C115.626 211.179 115.867 211.601 115.867 212.023L114.001 227.744L122.488 231.117C122.789 231.237 123.029 231.538 123.029 231.84C123.09 232.141 122.909 232.502 122.668 232.683C122.608 232.803 116.589 236.959 107.38 236.959ZM92.9343 231.538C105.875 238.164 116.348 234.128 120.14 232.201L112.737 229.25C112.376 229.069 112.135 228.707 112.195 228.286L114.061 212.565L106.056 209.493L101.361 227.563C101.301 227.804 101.12 228.045 100.819 228.165L92.9343 231.538Z" fill="#071824"/>
<path d="M103.949 210.938C103.949 210.938 100.88 212.625 98.3517 208.65C96.3654 205.517 100.88 204.795 100.88 204.795C100.88 204.795 99.4351 201.12 104.611 200.398C109.848 199.735 113.64 197.807 113.64 197.807C113.64 197.807 117.432 204.493 118.636 210.035C119.358 213.408 119.177 216.359 116.649 217.263C109.728 219.672 105.153 212.866 105.153 212.866L103.949 210.938Z" fill="white"/>
<path d="M113.761 218.709C108.103 218.709 104.491 213.468 104.491 213.408L103.649 212.083C102.084 212.505 99.6159 212.264 97.6296 209.192C96.7869 207.867 96.9073 206.843 97.2083 206.18C97.6898 205.036 98.9538 204.433 99.8566 204.192C99.7965 203.53 99.8566 202.686 100.338 201.843C101.06 200.638 102.505 199.855 104.551 199.554C109.547 198.892 113.279 197.024 113.279 197.024C113.7 196.784 114.242 196.964 114.483 197.386C114.663 197.687 118.335 204.252 119.599 209.854C120.863 215.516 118.877 217.504 117.011 218.106C115.867 218.528 114.784 218.709 113.761 218.709ZM103.95 210.035C104.251 210.035 104.551 210.155 104.732 210.457L105.996 212.384C106.177 212.625 110.209 218.588 116.409 216.42C118.094 215.817 118.576 213.769 117.854 210.216C116.89 205.879 114.302 200.819 113.339 198.952C111.955 199.554 108.765 200.759 104.792 201.301C103.287 201.482 102.324 201.964 101.903 202.686C101.422 203.469 101.783 204.433 101.783 204.433C101.903 204.674 101.843 204.975 101.723 205.216C101.602 205.457 101.361 205.638 101.06 205.638C100.459 205.758 99.1344 206.18 98.8334 206.843C98.713 207.144 98.7732 207.565 99.1344 208.107C101.181 211.36 103.468 210.155 103.528 210.095C103.649 210.095 103.829 210.035 103.95 210.035Z" fill="#071824"/>
<path d="M371.614 263.884V291.23C371.614 317.974 350.547 339.598 324.545 339.598C298.543 339.598 277.477 361.282 277.477 387.965C277.477 390.375 279.403 392.302 281.81 392.302H406.464C445.467 392.302 477.067 359.836 477.067 319.781V261.414C477.067 245.452 464.488 232.562 448.958 232.562H402.07C385.277 232.562 371.614 246.597 371.614 263.884Z" fill="#005D95"/>
<path d="M385.999 343.031H374.684V474.642H385.999V343.031Z" fill="#005D95"/>
<path d="M327.435 478.918L377.392 474.581H381.967L433.008 478.918V482.412H327.435V478.918Z" fill="#005D95"/>
<path d="M346.336 455.969C345.192 454.825 338.451 433.924 338.451 433.924L325.209 443.38L339.715 462.896L346.336 455.969Z" fill="white"/>
<path d="M339.714 463.8C339.413 463.8 339.173 463.679 338.992 463.438L324.486 443.922C324.366 443.742 324.306 443.501 324.306 443.26C324.366 443.019 324.486 442.778 324.667 442.658L337.909 433.201C338.149 433.02 338.45 432.96 338.691 433.08C338.992 433.201 339.173 433.381 339.293 433.683C342.423 443.441 346.215 454.403 346.937 455.367C347.298 455.728 347.238 456.27 346.937 456.572L340.376 463.498C340.196 463.739 339.955 463.8 339.714 463.8ZM326.473 443.621L339.775 461.511L345.131 455.849C343.567 452.717 339.895 441.513 337.909 435.429L326.473 443.621Z" fill="#071824"/>
<path d="M322.439 482.352L331.227 482.291C337.065 482.231 342.483 479.28 345.673 474.401L354.4 460.607C356.808 456.812 355.484 451.753 351.511 449.645C347.9 447.717 344.048 445.85 343.205 445.91C341.399 446.091 340.677 454.644 340.677 454.644L332.852 454.945C332.852 454.945 329 471.088 325.569 472.895C323.101 474.22 321.356 476.208 320.212 477.954C318.828 479.882 320.212 482.352 322.439 482.352Z" fill="#071824"/>
<path d="M323.342 479.822C322.921 479.822 322.499 479.521 322.439 479.039C322.379 478.557 322.68 478.075 323.222 478.015L335.26 476.208C337.728 475.846 339.834 474.401 341.098 472.293L351.752 454.524C351.993 454.102 352.534 453.981 353.016 454.222C353.437 454.463 353.558 455.005 353.317 455.487L342.663 473.256C341.098 475.846 338.51 477.593 335.561 478.015L323.523 479.822C323.402 479.822 323.402 479.822 323.342 479.822Z" fill="white"/>
<path d="M338.209 466.45C338.149 466.45 338.029 466.45 337.968 466.39L331.287 464.583C330.806 464.462 330.505 463.98 330.625 463.498C330.746 463.017 331.227 462.715 331.709 462.836L338.39 464.643C338.871 464.763 339.172 465.245 339.052 465.727C338.931 466.149 338.57 466.45 338.209 466.45Z" fill="white"/>
<path d="M334.718 469.883C334.658 469.883 334.598 469.883 334.477 469.883L329.963 468.799C329.482 468.678 329.181 468.197 329.301 467.715C329.421 467.233 329.903 466.932 330.384 467.052L334.899 468.136C335.38 468.257 335.681 468.739 335.561 469.221C335.501 469.582 335.139 469.883 334.718 469.883Z" fill="white"/>
<path d="M301.132 451.994L285.783 467.474L277.598 464.462L291.802 444.705L301.132 451.994Z" fill="white"/>
<path d="M285.784 468.377C285.663 468.377 285.603 468.377 285.483 468.317L277.357 465.305C277.116 465.185 276.875 465.004 276.815 464.703C276.755 464.462 276.755 464.161 276.936 463.92L291.08 444.163C291.201 443.983 291.442 443.802 291.682 443.802C291.923 443.742 292.164 443.802 292.344 443.983L301.674 451.271C301.854 451.452 301.975 451.693 302.035 451.933C302.035 452.174 301.975 452.415 301.794 452.656L286.446 468.136C286.205 468.257 286.024 468.377 285.784 468.377ZM279.042 464.04L285.543 466.45L299.808 452.114L291.983 446.031L279.042 464.04Z" fill="#071824"/>
<path d="M290.599 465.004C290.599 465.004 291.321 471.57 290.057 477.412C289.395 480.484 286.626 482.713 283.436 482.713H245.697C242.988 482.713 241.785 479.34 243.831 477.593C250.512 471.991 262.851 463.378 278.019 460.848L282.232 466.751L290.599 465.004Z" fill="#071824"/>
<path d="M286.626 478.376H247.563C247.081 478.376 246.66 477.954 246.66 477.473C246.66 476.991 247.081 476.569 247.563 476.569H286.626C287.108 476.569 287.529 476.991 287.529 477.473C287.529 478.015 287.168 478.376 286.626 478.376Z" fill="white"/>
<path d="M269.351 471.449C268.99 471.449 268.689 471.268 268.509 470.907L266.462 465.908C266.282 465.426 266.462 464.944 266.944 464.703C267.425 464.522 267.907 464.703 268.148 465.185L270.194 470.184C270.375 470.666 270.194 471.148 269.712 471.389C269.592 471.449 269.472 471.449 269.351 471.449Z" fill="white"/>
<path d="M262.55 472.774C262.189 472.774 261.828 472.533 261.707 472.172L260.202 467.654C260.022 467.173 260.323 466.691 260.804 466.51C261.286 466.329 261.767 466.631 261.948 467.112L263.453 471.63C263.633 472.112 263.332 472.594 262.851 472.774C262.73 472.774 262.67 472.774 262.55 472.774Z" fill="white"/>
<path d="M382.509 343.874C382.509 343.874 312.267 335.682 291.381 353.813C270.495 371.883 324.365 449.705 324.365 449.705L341.399 437.056L325.268 382.062L390.213 363.631L382.509 343.874Z" fill="#071824"/>
<path d="M421.151 379.653C410.919 382.906 392.681 387.062 367.161 386.761C359.938 386.64 353.197 390.676 349.946 397.121C342.362 411.938 326.051 438.682 299.387 455.969L286.687 449.102L319.189 375.919C322.139 369.233 327.676 364.053 334.538 361.523L398.941 337.911C398.941 337.911 418.924 332.309 428.675 350.139C430.421 353.331 433.671 347.609 434.453 350.199C437.042 359.053 429.939 376.882 421.151 379.653Z" fill="#071824"/>
<path d="M304.443 409.89C304.322 409.89 304.202 409.89 304.081 409.83C303.6 409.649 303.419 409.107 303.6 408.625L318.286 375.557C321.356 368.691 327.134 363.27 334.177 360.679L364.994 349.356C365.475 349.175 365.957 349.416 366.138 349.898C366.318 350.38 366.077 350.861 365.596 351.042L334.778 362.366C328.158 364.775 322.801 369.835 319.911 376.28L305.225 409.348C305.105 409.71 304.804 409.89 304.443 409.89Z" fill="white"/>
<path d="M321.596 438.321C321.356 438.321 321.175 438.26 320.994 438.08C320.633 437.718 320.633 437.176 320.994 436.815C323.944 433.743 326.773 430.49 329.542 427.117C329.842 426.756 330.444 426.696 330.805 426.997C331.167 427.298 331.227 427.9 330.926 428.262C328.157 431.695 325.208 435.008 322.259 438.08C322.078 438.26 321.837 438.321 321.596 438.321Z" fill="white"/>
<path d="M330.204 428.563C330.024 428.563 329.783 428.503 329.663 428.382C329.302 428.081 329.241 427.479 329.542 427.117C330.866 425.431 332.251 423.684 333.575 421.937C333.876 421.515 334.418 421.455 334.839 421.756C335.26 422.058 335.321 422.6 335.02 423.021C333.695 424.768 332.311 426.575 330.987 428.262C330.746 428.442 330.445 428.563 330.204 428.563Z" fill="white"/>
<path d="M366.559 287.074C366.559 287.074 360.36 343.212 318.889 346.886L366.559 347.548C366.559 347.548 384.195 311.77 384.917 297.795C385.64 283.881 366.559 287.074 366.559 287.074Z" fill="white"/>
<path d="M366.559 348.452C366.499 348.452 366.499 348.452 366.559 348.452L318.888 347.789C318.407 347.789 318.046 347.428 317.985 346.946C317.985 346.464 318.347 346.043 318.828 346.043C335.681 344.537 348.682 334.237 357.47 315.323C364.091 301.108 365.656 287.194 365.656 287.014C365.716 286.592 366.017 286.291 366.378 286.231C366.8 286.17 377.152 284.484 382.63 289.363C384.917 291.411 386 294.302 385.82 297.916C385.097 311.89 368.064 346.524 367.341 347.97C367.161 348.271 366.86 348.452 366.559 348.452ZM327.736 346.103L365.957 346.645C368.124 342.248 383.352 310.505 383.954 297.795C384.134 294.723 383.231 292.314 381.366 290.688C377.273 287.074 369.568 287.616 367.281 287.917C366.86 290.989 364.874 303.397 359.035 316.046C351.692 331.888 340.978 342.127 327.736 346.103Z" fill="#071824"/>
<path d="M425.605 251.416C417.54 249.548 414.23 249.488 384.917 250.572C377.754 250.813 369.267 259.788 368.425 266.896C370.712 273.702 381.185 307.373 362.887 333.695C360.299 337.429 356.748 341.525 351.933 345.44C354.641 347.669 358.915 350.5 364.573 352.187C374.022 355.018 378.777 351.946 386.361 352.187C406.465 352.789 413.868 375.196 426.869 372.425C430.36 371.702 434.935 368.992 439.269 359.896C441.736 352.367 443.903 343.513 445.107 333.514C448.418 306.409 443 283.821 438.245 269.666C436.741 265.209 435.055 253.644 425.605 251.416Z" fill="white"/>
<path d="M424.582 373.569C419.044 373.569 414.349 369.413 409.474 365.016C403.395 359.595 396.473 353.451 386.301 353.09C383.652 353.03 381.305 353.331 379.018 353.692C374.865 354.295 370.531 354.897 364.331 353.09C359.697 351.705 355.363 349.416 351.39 346.163L350.548 345.44L351.39 344.717C355.604 341.344 359.215 337.429 362.225 333.153C378.958 309.119 371.614 279.003 367.642 267.136L367.582 266.956V266.775C368.424 259.547 377.032 249.91 384.916 249.608C414.711 248.524 417.78 248.584 425.846 250.512C434.513 252.56 436.981 261.715 438.426 267.197C438.666 268.04 438.847 268.763 439.027 269.365C446.19 290.567 448.538 312.191 445.949 333.574C444.866 342.549 442.88 351.464 440.111 360.137L440.051 360.258C436.439 367.847 432.106 372.184 427.05 373.328C426.207 373.509 425.364 373.569 424.582 373.569ZM385.518 351.283C385.819 351.283 386.06 351.283 386.361 351.283C397.195 351.584 404.358 357.969 410.678 363.631C416.155 368.51 420.91 372.726 426.628 371.521C431.082 370.558 435.055 366.522 438.365 359.535C441.134 350.982 443.06 342.188 444.144 333.394C446.732 312.252 444.384 290.929 437.282 269.967C437.101 269.305 436.861 268.582 436.62 267.679C435.235 262.619 433.008 254.066 425.364 252.259C417.54 250.392 414.53 250.331 384.916 251.415C378.476 251.656 370.29 259.788 369.327 266.775C373.36 279.003 380.703 309.601 363.609 334.177C360.72 338.272 357.289 342.067 353.317 345.38C356.868 348.091 360.72 350.078 364.753 351.283C370.591 353.03 374.504 352.427 378.717 351.825C380.824 351.584 383.051 351.283 385.518 351.283Z" fill="#071824"/>
<path d="M361.081 293.338C361.081 293.338 365.836 255.391 379.439 252.138C374.624 266.896 373.059 282.918 373.721 299.904C373.721 300.626 372.999 301.048 372.397 300.687L361.081 293.338Z" fill="white"/>
<path d="M372.878 301.771C372.517 301.771 372.216 301.65 371.915 301.47L360.118 293.82L360.178 293.278C360.359 291.712 365.174 254.668 379.259 251.295L380.824 250.934L380.342 252.439C375.828 266.414 373.962 281.954 374.684 299.904C374.684 300.566 374.383 301.169 373.781 301.53C373.48 301.711 373.179 301.771 372.878 301.771ZM362.044 292.916L372.818 299.904C372.096 282.496 373.781 267.317 377.995 253.584C367.221 258.824 362.646 288.459 362.044 292.916Z" fill="#071824"/>
<path d="M268.57 289.664H318.046C320.153 289.664 322.079 290.688 323.162 292.435L341.761 347.127H385.579V347.97C385.579 350.56 383.473 352.668 380.884 352.668H287.951C285.363 352.668 283.256 350.56 283.256 347.97V347.247L266.463 296.109C266.222 295.326 265.921 294.603 265.62 293.82C264.898 291.893 266.342 289.664 268.57 289.664Z" fill="#A3CEED"/>
<path d="M380.945 353.572H287.951C284.881 353.572 282.353 351.042 282.353 347.97V347.428L265.62 296.35C265.44 295.808 265.259 295.326 265.018 294.724C264.958 294.483 264.838 294.302 264.778 294.061C264.356 292.856 264.477 291.531 265.199 290.447C265.981 289.363 267.185 288.7 268.569 288.7H318.046C320.453 288.7 322.68 289.905 323.944 291.893C324.005 291.953 324.005 292.013 324.065 292.073L342.423 346.163H385.579C386.061 346.163 386.482 346.585 386.482 347.067V347.91C386.482 351.042 384.014 353.572 380.945 353.572ZM284.099 346.886C284.159 347.006 284.159 347.127 284.159 347.247V347.97C284.159 350.078 285.844 351.765 287.951 351.765H380.945C382.991 351.765 384.676 350.139 384.737 348.091H341.821C341.46 348.091 341.099 347.85 340.978 347.488L322.44 292.917C321.477 291.531 319.852 290.688 318.106 290.688H268.63C267.847 290.688 267.185 291.049 266.764 291.652C266.342 292.254 266.282 292.917 266.523 293.579C266.583 293.82 266.704 294.001 266.764 294.242C267.005 294.784 267.185 295.326 267.366 295.928L284.099 346.886Z" fill="#071824"/>
<path d="M304.984 317.733C305.706 320.022 304.623 322.431 302.577 323.033C300.59 323.636 298.363 322.25 297.641 319.961C296.919 317.673 298.002 315.263 300.049 314.661C302.095 313.998 304.262 315.384 304.984 317.733Z" fill="white"/>
<path d="M331.649 348.151H299.387C298.906 348.151 298.484 347.729 298.484 347.247C298.484 346.765 298.906 346.344 299.387 346.344H331.649C332.131 346.344 332.552 346.765 332.552 347.247C332.552 347.729 332.131 348.151 331.649 348.151Z" fill="white"/>
<path d="M288.673 348.151H282.955C282.473 348.151 282.052 347.729 282.052 347.247C282.052 346.765 282.473 346.344 282.955 346.344H288.673C289.154 346.344 289.576 346.765 289.576 347.247C289.576 347.729 289.154 348.151 288.673 348.151Z" fill="white"/>
<path d="M356.808 342.368C359.637 337.911 364.873 335.682 367.702 335.863C380.703 336.586 405.803 323.455 424.462 317.07C427.712 312.372 425.364 302.072 426.809 289.724L450.584 291.772C452.932 303.518 452.029 323.515 449.982 326.166C448.598 329.418 441.255 338.815 426.207 346.163C402.733 357.608 371.253 350.139 371.253 350.139C371.253 350.139 355.303 358.571 348.441 349.416C348.441 349.355 353.979 346.765 356.808 342.368Z" fill="white"/>
<path d="M357.952 354.536C354.16 354.536 350.308 353.391 347.659 349.898C347.479 349.657 347.418 349.416 347.479 349.115C347.539 348.874 347.719 348.633 347.96 348.512C348.02 348.512 353.317 345.982 355.965 341.826C358.855 337.309 364.272 334.719 367.703 334.899C376.37 335.381 390.876 329.418 404.9 323.636C411.28 320.985 417.901 318.275 423.8 316.227C425.365 313.637 425.365 309.18 425.305 303.518C425.244 299.362 425.244 294.603 425.846 289.543C425.906 289.062 426.328 288.7 426.809 288.76L450.584 290.808C451.006 290.869 451.307 291.11 451.367 291.531C453.714 303.096 452.932 323.214 450.705 326.527C449.381 329.478 442.399 339.116 426.508 346.886C404.298 357.728 374.745 351.765 371.314 350.982C369.93 351.765 363.971 354.536 357.952 354.536ZM349.826 349.657C356.507 356.764 370.652 349.356 370.832 349.295C371.013 349.175 371.254 349.175 371.434 349.235C371.735 349.295 402.854 356.523 425.786 345.32C440.172 338.273 447.755 329.117 449.14 325.804C449.2 325.744 449.2 325.684 449.26 325.623C450.885 323.515 452.089 304.903 449.802 292.615L427.592 290.688C427.11 295.326 427.11 299.723 427.17 303.578C427.231 309.722 427.231 314.54 425.184 317.552C425.064 317.733 424.943 317.853 424.703 317.914C418.804 319.901 412.123 322.672 405.622 325.383C391.417 331.225 376.671 337.309 367.642 336.767C365.175 336.646 360.239 338.694 357.53 342.85C355.364 346.284 351.632 348.633 349.826 349.657Z" fill="#071824"/>
<path d="M351.271 350.681C351.09 350.681 351.03 350.681 350.97 350.681C350.488 350.62 350.127 350.199 350.187 349.717C350.247 349.235 350.669 348.874 351.15 348.934C351.21 348.934 355.243 349.175 361.563 343.453C361.924 343.091 362.526 343.151 362.827 343.513C363.188 343.874 363.128 344.477 362.767 344.778C356.628 350.259 352.354 350.681 351.271 350.681Z" fill="#071824"/>
<path d="M355.364 352.849C355.063 352.849 354.882 352.849 354.882 352.849C354.401 352.789 354.04 352.307 354.16 351.825C354.22 351.343 354.702 350.982 355.183 351.042C355.243 351.042 358.795 351.404 364.272 346.585C364.633 346.284 365.235 346.284 365.536 346.645C365.837 347.006 365.837 347.609 365.476 347.91C360.36 352.367 356.688 352.849 355.364 352.849Z" fill="#071824"/>
<path d="M453.534 300.325C453.715 300.325 453.835 300.205 453.835 300.084C453.654 297.374 452.39 277.256 450.585 269.124C446.492 250.813 421.212 250.753 421.212 250.753C425.847 266.474 427.351 281.532 425.907 295.988C425.786 296.892 426.448 297.675 427.351 297.735L453.534 300.325Z" fill="white"/>
<path d="M453.594 301.229C453.534 301.229 453.534 301.229 453.474 301.229L427.231 298.639C426.569 298.578 425.967 298.277 425.545 297.735C425.124 297.193 424.944 296.531 425.004 295.868C425.305 292.676 425.485 289.423 425.545 286.17C425.545 285.688 425.967 285.267 426.448 285.267C426.93 285.267 427.351 285.688 427.351 286.17C427.351 289.483 427.11 292.796 426.809 296.049C426.809 296.229 426.87 296.41 426.99 296.591C427.11 296.711 427.291 296.832 427.472 296.832L452.932 299.362C452.631 294.964 451.427 276.834 449.742 269.305C445.83 251.897 421.513 251.656 421.272 251.656C420.79 251.656 420.369 251.235 420.369 250.753C420.369 250.271 420.79 249.849 421.272 249.849C421.513 249.849 447.334 250.09 451.548 268.883C453.414 277.135 454.678 297.675 454.858 299.964C454.858 300.325 454.738 300.626 454.497 300.867C454.136 301.108 453.895 301.229 453.594 301.229Z" fill="#071824"/>
<path d="M399.904 230.394L398.821 245.513C398.58 247.5 397.135 249.127 395.27 249.609C403.395 254.367 415.493 254.668 418.142 249.187C416.276 248.765 414.771 246.055 414.47 244.127L411.581 224.13L399.904 230.394Z" fill="white"/>
<path d="M408.692 254.126C404.118 254.126 398.881 252.801 394.788 250.392C394.487 250.211 394.307 249.849 394.367 249.488C394.427 249.127 394.668 248.825 395.029 248.765C396.594 248.344 397.738 247.079 397.918 245.452L399.002 230.394C399.002 230.093 399.182 229.792 399.483 229.671L411.04 223.467C411.28 223.347 411.581 223.347 411.882 223.467C412.123 223.588 412.304 223.828 412.364 224.13L415.253 244.127C415.554 245.874 416.878 248.103 418.263 248.404C418.503 248.464 418.744 248.645 418.864 248.886C418.985 249.127 418.985 249.428 418.864 249.669C418.022 251.416 416.276 252.741 413.869 253.524C412.364 253.885 410.558 254.126 408.692 254.126ZM397.256 249.669C402.432 252.199 408.993 253.042 413.327 251.717C414.41 251.355 415.855 250.753 416.698 249.609C414.892 248.524 413.748 246.055 413.447 244.308L410.739 225.575L400.747 230.936L399.724 245.573C399.483 247.32 398.58 248.765 397.256 249.669Z" fill="#071824"/>
<path d="M382.69 209.372C386.301 207.445 383.412 213.468 395.33 203.108C400.085 199.012 400.265 206.662 401.469 205.638C406.043 201.723 405.863 201.843 408.752 201.301C410.678 200.94 413.206 203.59 413.989 206.12C415.012 209.433 412.785 211.36 413.567 218.95C414.109 224.25 415.794 226.9 414.229 228.406C412.664 229.912 410.136 228.045 408.331 229.611C405.983 231.599 408.692 236.056 406.946 239.188C405.863 241.176 402.251 243.525 394.668 243.344C393.464 243.344 392.38 242.38 392.2 241.176C391.959 239.61 391.658 237.622 391.477 235.755C390.815 226.659 392.741 223.648 390.815 222.082C387.866 219.672 382.87 224.13 380.703 222.021C378.537 219.853 377.754 211.962 382.69 209.372Z" fill="#071824"/>
<path d="M400.807 214.432L400.626 216.902C400.566 218.046 400.566 219.251 400.626 220.395C400.807 222.564 401.047 226.358 401.047 228.466C401.047 231.599 391.417 232.201 391.417 232.201L390.213 230.816L389.07 230.876C388.829 230.876 388.648 230.876 388.407 230.755C387.926 230.514 387.685 229.972 387.745 229.49C388.227 226.72 389.009 220.636 388.107 215.938C388.167 215.998 393.524 211.601 400.807 214.432Z" fill="white"/>
<path d="M391.417 233.165C391.176 233.165 390.935 233.044 390.755 232.864L389.792 231.84H389.07C388.648 231.84 388.287 231.779 387.986 231.599C387.143 231.177 386.722 230.273 386.842 229.37C387.264 226.961 388.106 220.757 387.204 216.119C387.143 215.817 387.264 215.456 387.505 215.275C387.745 215.095 393.343 210.637 401.047 213.589C401.409 213.709 401.649 214.071 401.649 214.492L401.469 216.962C401.409 218.106 401.409 219.251 401.469 220.335C401.649 222.443 401.89 226.298 401.89 228.527C401.95 232.201 393.945 233.044 391.417 233.165C391.477 233.165 391.417 233.165 391.417 233.165ZM390.213 230.033C390.454 230.033 390.695 230.153 390.875 230.334L391.778 231.358C395.811 231.057 400.145 229.852 400.145 228.527C400.145 226.419 399.904 222.624 399.723 220.516C399.603 219.311 399.603 218.106 399.723 216.902L399.844 215.095C394.487 213.288 390.454 215.516 389.13 216.42C389.852 221.058 389.19 226.72 388.648 229.731C388.648 229.852 388.648 229.972 388.829 230.033C388.889 230.033 388.949 230.093 389.009 230.033H390.213C390.153 230.033 390.213 230.033 390.213 230.033Z" fill="#071824"/>
<path d="M402.492 222.082C402.492 222.082 402.853 216.119 405.502 216.841C408.21 217.624 407.608 224.19 402.492 222.082Z" fill="white"/>
<path d="M401.409 251.476L413.447 252.379L408.512 260.752L402.312 260.451L401.409 251.476Z" fill="#005D95"/>
<path d="M389.973 309.36L395.811 317.07L404.478 311.529L408.511 260.752L402.312 260.451L389.973 309.36Z" fill="#005D95"/>
<path d="M398.4 246.537L392.622 251.054L401.289 256.415L406.225 250.873L411.582 257.861C413.628 254.849 416.819 252.259 421.453 250.03L414.652 245.693C407.609 250.813 402.614 249.849 398.4 246.537Z" fill="white"/>
<path d="M411.582 258.764C411.281 258.764 411.04 258.644 410.859 258.403L406.164 252.259L401.951 257.017C401.65 257.318 401.169 257.439 400.807 257.198L392.14 251.837C391.899 251.656 391.719 251.415 391.719 251.114C391.719 250.813 391.839 250.512 392.08 250.331L397.858 245.814C398.159 245.573 398.641 245.573 399.002 245.814C403.636 249.488 408.331 249.187 414.23 244.97C414.531 244.73 414.952 244.73 415.253 244.97L422.055 249.307C422.356 249.488 422.476 249.789 422.476 250.151C422.476 250.452 422.235 250.753 421.934 250.934C417.601 252.982 414.41 255.511 412.424 258.463C412.183 258.644 411.943 258.764 411.582 258.764C411.642 258.764 411.582 258.764 411.582 258.764ZM406.766 250.09C406.826 250.151 406.887 250.211 406.947 250.271L411.582 256.355C413.508 253.885 416.216 251.777 419.647 249.91L414.711 246.778C411.882 248.765 409.294 249.849 406.766 250.09ZM394.187 250.994L401.108 255.27L405.562 250.271L405.623 250.211C403.095 250.211 400.747 249.368 398.4 247.681L394.187 250.994Z" fill="#071824"/>
<path d="M378.717 486.206L406.224 371.943L433.73 486.206H440.291L410.076 359.776L402.311 359.716L372.096 486.206H378.717Z" fill="white"/>
<path d="M222.463 485.785L249.97 371.582L277.477 485.785H284.098L253.822 359.354H246.118L215.902 485.785H222.463Z" fill="white"/>
<path d="M285.241 486.688H276.815L276.634 486.026L250.03 375.437L223.185 486.688H214.759L245.396 358.451H254.544L254.725 359.113L285.241 486.688ZM278.199 484.881H282.954L253.16 360.258H246.84L217.046 484.881H221.801L250.03 367.727L278.199 484.881Z" fill="#071824"/>
<path d="M435.717 351.644H218.792V361.944H435.717V351.644Z" fill="white"/>
<path d="M436.68 362.848H217.889V350.741H436.62V362.848H436.68ZM219.694 361.041H434.814V352.548H219.694V361.041Z" fill="#071824"/>
<path d="M370.049 360.439C369.568 360.439 369.146 360.017 369.146 359.535V353.813C369.146 353.331 369.568 352.909 370.049 352.909C370.531 352.909 370.952 353.331 370.952 353.813V359.535C370.952 360.017 370.591 360.439 370.049 360.439Z" fill="#005D95"/>
<path d="M438.666 425.792H433.85C432.526 425.792 431.503 426.816 431.503 428.141H441.013C441.013 426.876 439.99 425.792 438.666 425.792Z" fill="#005D95"/>
<path d="M477.127 425.792H472.312C470.988 425.792 469.965 426.816 469.965 428.141H479.475C479.475 426.876 478.391 425.792 477.127 425.792Z" fill="#005D95"/>
<path d="M475.863 425.672L476.646 421.094C477.188 417.841 475.021 415.191 471.771 415.191H443C439.749 415.191 436.68 417.841 436.138 421.094L435.355 425.672H437.583L438.184 422.118C438.606 419.588 441.013 417.54 443.541 417.54H470.507C473.035 417.54 474.72 419.588 474.298 422.118L473.697 425.672H475.863Z" fill="#005D95"/>
<path d="M470.326 413.324H445.046C444.023 413.324 443.06 414.167 442.879 415.191L442.518 417.42C442.337 418.444 443.06 419.287 444.023 419.287H469.303C470.326 419.287 471.289 418.444 471.47 417.42L471.831 415.191C472.011 414.107 471.349 413.324 470.326 413.324Z" fill="#A3CEED"/>
<path d="M469.303 420.07H444.023C443.301 420.07 442.578 419.769 442.157 419.227C441.675 418.685 441.495 417.962 441.615 417.179L441.976 414.95C442.217 413.504 443.541 412.36 445.046 412.36H470.326C471.048 412.36 471.771 412.661 472.192 413.203C472.673 413.745 472.854 414.468 472.734 415.251L472.372 417.48C472.132 418.986 470.807 420.07 469.303 420.07ZM445.046 414.227C444.444 414.227 443.902 414.709 443.782 415.311L443.421 417.54C443.361 417.781 443.421 417.962 443.541 418.142C443.662 418.263 443.842 418.383 444.083 418.383H469.363C469.965 418.383 470.507 417.902 470.627 417.299L470.988 415.071C471.048 414.83 470.988 414.649 470.868 414.468C470.747 414.348 470.567 414.227 470.326 414.227H445.046Z" fill="#071824"/>
<path d="M483.929 499.096H410.075C405.621 499.096 402.311 495.001 403.214 490.664L414.409 436.152C415.372 431.574 419.405 428.262 424.039 428.262H487.359L483.929 499.096Z" fill="#A3CEED"/>
<path d="M483.929 500H410.076C407.668 500 405.441 498.916 403.936 497.109C402.431 495.242 401.829 492.832 402.311 490.543L413.506 436.032C414.53 431.032 418.984 427.418 424.04 427.418H487.36C487.601 427.418 487.841 427.539 488.022 427.72C488.202 427.9 488.263 428.141 488.263 428.382L484.772 499.157C484.832 499.639 484.41 500 483.929 500ZM424.1 429.165C419.887 429.165 416.215 432.177 415.312 436.333L404.117 490.845C403.756 492.652 404.177 494.519 405.381 495.904C406.524 497.35 408.27 498.133 410.136 498.133H483.146L486.577 429.165H424.1Z" fill="#071824"/>
<path d="M493.439 499.096H479.113C474.659 499.096 471.349 495.001 472.252 490.664L484.591 430.611C484.892 429.225 486.095 428.262 487.48 428.262H491.151C492.656 428.262 493.98 429.406 494.101 430.972L499.157 492.892C499.337 496.266 496.749 499.096 493.439 499.096Z" fill="#005D95"/>
<path d="M493.439 500H479.114C476.706 500 474.479 498.916 472.974 497.109C471.469 495.242 470.868 492.832 471.349 490.543L483.688 430.49C484.049 428.744 485.614 427.418 487.42 427.418H491.091C493.078 427.418 494.763 428.984 494.944 430.972L500 492.892C500.12 494.699 499.518 496.567 498.254 497.892C497.05 499.217 495.245 500 493.439 500ZM487.42 429.165C486.457 429.165 485.614 429.828 485.434 430.792L473.095 490.845C472.733 492.652 473.155 494.519 474.359 495.904C475.562 497.289 477.248 498.133 479.114 498.133H493.439C494.823 498.133 496.027 497.591 496.99 496.567C497.893 495.543 498.374 494.278 498.254 492.892L493.198 430.972C493.138 429.948 492.235 429.105 491.152 429.105H487.42V429.165Z" fill="#071824"/>
<path d="M472.072 457.776H414.229C413.748 457.776 413.326 457.355 413.326 456.873C413.326 456.391 413.748 455.969 414.229 455.969H472.072C473.396 455.969 474.479 455.066 474.78 453.801L479.896 432.237C480.017 431.755 480.498 431.454 480.98 431.575C481.461 431.695 481.762 432.177 481.642 432.659L476.526 454.222C476.044 456.331 474.239 457.776 472.072 457.776Z" fill="#071824"/>
<path d="M451.546 456.873L449.921 463.438C449.68 464.522 448.657 465.305 447.513 465.305H436.077C434.813 465.305 433.911 464.101 434.272 462.896L435.957 456.873H451.546Z" fill="white"/>
<path d="M447.574 466.209H436.137C435.235 466.209 434.452 465.787 433.91 465.125C433.369 464.402 433.188 463.559 433.429 462.715L435.114 456.692C435.235 456.331 435.596 456.029 435.957 456.029H451.546C451.847 456.029 452.088 456.15 452.268 456.391C452.449 456.632 452.509 456.873 452.449 457.174L450.824 463.739C450.463 465.185 449.138 466.209 447.574 466.209ZM436.679 457.776L435.174 463.197C435.114 463.498 435.174 463.8 435.355 464.041C435.536 464.281 435.836 464.402 436.137 464.402H447.574C448.296 464.402 448.898 463.92 449.078 463.197L450.402 457.776H436.679Z" fill="#071824"/>
<path d="M468.64 494.519H407.186C406.705 494.519 406.283 494.097 406.283 493.615C406.283 493.133 406.705 492.712 407.186 492.712H468.64C469.122 492.712 469.543 493.133 469.543 493.615C469.543 494.097 469.122 494.519 468.64 494.519Z" fill="#071824"/>
<path d="M478.933 494.519C478.632 494.519 478.331 494.338 478.151 494.037C477.91 493.615 478.03 493.073 478.512 492.832L487.962 487.471V432.538C487.962 432.056 488.383 431.635 488.865 431.635C489.346 431.635 489.767 432.056 489.767 432.538V488.014C489.767 488.315 489.587 488.616 489.286 488.797L479.415 494.459C479.234 494.459 479.114 494.519 478.933 494.519Z" fill="#A3CEED"/>
<path d="M74.1549 82.2792C73.3724 82.2792 72.6501 82.0985 71.9278 81.7371C70.724 81.1348 69.8212 80.1108 69.3998 78.8459C68.9785 77.581 69.0989 76.2559 69.6406 75.0512C70.2425 73.8465 71.2657 72.943 72.5297 72.5214C73.7937 72.0997 75.1179 72.2202 76.3217 72.7623C77.5255 73.3646 78.4284 74.3886 78.8497 75.6535C79.271 76.9184 79.1507 78.2436 78.6089 79.4482C78.007 80.6529 76.9838 81.5564 75.7198 81.9781C75.2383 82.1588 74.6966 82.2792 74.1549 82.2792ZM74.1549 74.0874C73.7937 74.0874 73.4928 74.1477 73.1316 74.2681C72.3492 74.5091 71.6871 75.1114 71.2657 75.8342C70.9046 76.6173 70.8444 77.4605 71.0852 78.2436C71.3259 79.0266 71.9278 79.6892 72.6501 80.1108C73.4326 80.4722 74.2752 80.5324 75.0577 80.2915C75.8402 80.0506 76.5023 79.4482 76.9236 78.7254C77.2848 77.9424 77.345 77.0991 77.1042 76.3161C76.8634 75.533 76.2615 74.8705 75.5392 74.4488C75.1179 74.2079 74.6364 74.0874 74.1549 74.0874Z" fill="#071824"/>
<path d="M53.4491 98.2412C53.088 98.2412 52.7268 98.0002 52.6065 97.5786L51.2221 93.1213C51.1017 92.6394 51.3425 92.1576 51.824 91.9769C52.3055 91.8564 52.787 92.0973 52.9676 92.5792L54.352 97.0365C54.4724 97.5184 54.2316 98.0002 53.7501 98.1809C53.6297 98.2412 53.5695 98.2412 53.4491 98.2412Z" fill="#071824"/>
<path d="M56.6991 108.662C56.338 108.662 55.9768 108.421 55.8565 107.999L54.4721 103.542C54.3517 103.06 54.5925 102.578 55.074 102.397C55.5555 102.277 56.037 102.518 56.2176 103L57.602 107.457C57.7223 107.939 57.4816 108.421 57.0001 108.601C56.8797 108.601 56.7593 108.662 56.6991 108.662Z" fill="#071824"/>
<path d="M46.9485 103.482C46.5874 103.482 46.2263 103.241 46.1059 102.819C45.9855 102.337 46.2263 101.855 46.7078 101.675L51.1619 100.289C51.6434 100.169 52.1249 100.41 52.3055 100.891C52.4259 101.373 52.1851 101.855 51.7036 102.036L47.2495 103.421C47.1291 103.482 47.0689 103.482 46.9485 103.482Z" fill="#071824"/>
<path d="M57.3616 100.289C57.0005 100.289 56.6393 100.048 56.519 99.6266C56.3986 99.1447 56.6393 98.6628 57.1209 98.4821L61.5749 97.0967C62.0565 96.9763 62.538 97.2172 62.7185 97.6991C62.8389 98.1809 62.5982 98.6628 62.1166 98.8435L57.6626 100.229C57.5422 100.289 57.4218 100.289 57.3616 100.289Z" fill="#071824"/>
<path d="M408.511 48.7893C408.33 48.7893 408.15 48.729 407.969 48.6086C393.222 38.0074 377.814 29.6952 362.345 23.8525C361.863 23.6718 361.623 23.1297 361.803 22.7081C361.984 22.2262 362.525 21.9853 362.947 22.166C378.596 28.0087 394.125 36.4414 408.992 47.1027C409.414 47.4039 409.474 47.946 409.173 48.3676C409.113 48.6688 408.812 48.7893 408.511 48.7893Z" fill="#071824"/>
<path d="M472.493 115.167C472.192 115.167 471.891 115.046 471.71 114.745C471.53 114.444 451.847 83.3032 417.599 55.8969C417.238 55.5957 417.118 54.9934 417.479 54.632C417.78 54.2706 418.382 54.1501 418.743 54.5115C453.292 82.0985 473.095 113.541 473.275 113.842C473.516 114.263 473.395 114.805 472.974 115.107C472.854 115.167 472.673 115.167 472.493 115.167Z" fill="#071824"/>
<path d="M466.534 90.0494C466.234 90.0494 465.993 89.9289 465.812 89.688C465.451 89.2061 429.939 41.501 385.759 23.3707C385.278 23.19 385.097 22.6479 385.278 22.166C385.458 21.6841 386 21.5034 386.481 21.6841C431.143 39.9952 466.956 88.1219 467.317 88.6038C467.618 89.0254 467.498 89.5675 467.136 89.8687C466.896 89.9891 466.715 90.0494 466.534 90.0494Z" fill="#071824"/>
<path d="M485.795 133.116C485.674 133.116 485.614 133.116 485.494 133.056L471.108 127.756C470.807 127.635 470.627 127.394 470.567 127.153C470.506 126.852 470.567 126.551 470.747 126.31L480.016 115.769C480.257 115.528 480.558 115.408 480.859 115.468C481.16 115.528 481.461 115.769 481.521 116.07L486.637 131.852C486.758 132.153 486.637 132.514 486.396 132.755C486.276 133.056 486.035 133.116 485.795 133.116ZM472.974 126.551L484.35 130.767L480.317 118.239L472.974 126.551Z" fill="#071824"/>
</g>
<defs>
<clipPath id="clip0_113_902">
<rect width="500" height="500" fill="white"/>
</clipPath>
</defs>
</svg>
