<svg width="120" height="120" viewBox="0 0 120 120" fill="none" xmlns="http://www.w3.org/2000/svg">
<g clip-path="url(#clip0_222_119)">
<path d="M47.5844 3.56635C44.9675 4.37794 33.3723 8.16055 21.7916 18.2185C18.9868 20.6533 7.65185 30.4939 2.80847 43.7113C-5.43249 66.2185 4.42775 100.465 32.8518 114.233C65.9458 130.262 107.758 110.537 117.3 84.1316C121.536 72.4214 121.724 53.0011 111.069 40.1895C102.495 29.8707 87.835 24.9721 88.3988 15.2185C88.6735 10.5229 92.2157 9.21852 91.2326 6.262C88.9049 -0.738001 66.0615 -2.20177 47.5844 3.56635Z" fill="#EAF4FB"/>
<path d="M11.5625 100.625C11.5625 101.484 12.2656 102.188 13.125 102.188H106.875C107.734 102.188 108.438 101.484 108.438 100.625V24.0625H11.5625V100.625Z" fill="#E6E9ED"/>
<path d="M108.438 20.9375V24.0625H11.5625V20.9375C11.5625 19.2047 12.9531 17.8125 14.6875 17.8125H105.312C107.047 17.8125 108.438 19.2047 108.438 20.9375Z" fill="#CCD1D9"/>
<path d="M16.2598 19.3718H16.2441C15.3816 19.3718 14.6895 20.0703 14.6895 20.9343C14.6895 21.7968 15.3973 22.4968 16.2598 22.4968C17.1238 22.4968 17.8223 21.7968 17.8223 20.9343C17.8223 20.0703 17.1238 19.3718 16.2598 19.3718Z" fill="#E6E9ED"/>
<path d="M20.9453 19.3718H20.9297C20.0656 19.3718 19.375 20.0703 19.375 20.9343C19.375 21.7968 20.0813 22.4968 20.9453 22.4968C21.8094 22.4968 22.5078 21.7968 22.5078 20.9343C22.5078 20.0703 21.8094 19.3718 20.9453 19.3718Z" fill="#E6E9ED"/>
<path d="M25.6377 19.3718H25.6221C24.7596 19.3718 24.0674 20.0703 24.0674 20.9343C24.0674 21.7968 24.7752 22.4968 25.6377 22.4968C26.5018 22.4968 27.2002 21.7968 27.2002 20.9343C27.2002 20.0703 26.5018 19.3718 25.6377 19.3718Z" fill="#E6E9ED"/>
<path d="M60 28.739C72.0781 28.739 81.875 38.5375 81.875 50.614C81.875 62.7078 72.0781 72.489 60 72.489C47.9219 72.489 38.125 62.7078 38.125 50.614C38.125 38.539 47.9219 28.739 60 28.739Z" fill="#A0D468"/>
<path d="M73.2895 89.6953H46.7051C44.5504 89.6953 42.7988 91.4469 42.7988 93.6016C42.7988 95.7562 44.5504 97.5078 46.7051 97.5078H73.2895C75.4441 97.5078 77.1957 95.7562 77.1957 93.6016C77.1957 91.4469 75.4441 89.6953 73.2895 89.6953Z" fill="#004873"/>
<path d="M95.9457 80.3235H24.0488C23.1848 80.3235 22.4863 79.625 22.4863 78.761C22.4863 77.8969 23.1848 77.1985 24.0488 77.1985H95.9457C96.8098 77.1985 97.5082 77.8969 97.5082 78.761C97.5082 79.625 96.8098 80.3235 95.9457 80.3235Z" fill="#CCD1D9"/>
<path d="M81.8799 85.0125H38.1143C37.2502 85.0125 36.5518 84.314 36.5518 83.45C36.5518 82.5859 37.2502 81.8875 38.1143 81.8875H81.8799C82.7439 81.8875 83.4424 82.5859 83.4424 83.45C83.4424 84.314 82.7439 85.0125 81.8799 85.0125Z" fill="#CCD1D9"/>
<path d="M56.8736 59.9937C56.4736 59.9937 56.0736 59.8406 55.7689 59.5359L49.5236 53.2906C48.9127 52.6797 48.9127 51.6922 49.5236 51.0812C50.1346 50.4703 51.1221 50.4703 51.733 51.0812L57.9783 57.3266C58.5893 57.9375 58.5893 58.925 57.9783 59.5359C57.6736 59.8406 57.2736 59.9937 56.8736 59.9937Z" fill="white"/>
<path d="M56.8734 59.9937C56.4734 59.9937 56.0734 59.8406 55.7687 59.5359C55.1578 58.9249 55.1578 57.9374 55.7687 57.3265L69.8297 43.2656C70.4406 42.6546 71.4281 42.6546 72.0391 43.2656C72.65 43.8765 72.65 44.864 72.0391 45.4749L57.9781 59.5359C57.6734 59.8406 57.2734 59.9937 56.8734 59.9937Z" fill="white"/>
<path d="M73.2895 88.1312H46.7051C44.5504 88.1312 42.7988 89.8828 42.7988 92.0375C42.7988 94.1922 44.5504 95.9437 46.7051 95.9437H73.2895C75.4441 95.9437 77.1957 94.1922 77.1957 92.0375C77.1957 89.8828 75.4441 88.1312 73.2895 88.1312Z" fill="#005D95"/>
</g>
<defs>
<clipPath id="clip0_222_119">
<rect width="120" height="120" fill="white"/>
</clipPath>
</defs>
</svg>
